<?xml version="1.0" standalone="no"?>
<!DOCTYPE svg PUBLIC "-//W3C//DTD SVG 1.1//EN" "http://www.w3.org/Graphics/SVG/1.1/DTD/svg11.dtd" >
<svg xmlns="http://www.w3.org/2000/svg" xmlns:xlink="http://www.w3.org/1999/xlink" version="1.1">
<metadata></metadata>
<defs>
<font id="clash_display_variablebold" horiz-adv-x="648" >
<font-face units-per-em="1000" ascent="800" descent="-200" />
<missing-glyph horiz-adv-x="140" />
<glyph unicode="&#xfb01;" horiz-adv-x="653" d="M5 350v154h390v-154h-390zM73 0v464q0 57 31.5 103.5t94.5 74.5t156 28h40v-134h-70q-53 0 -68.5 -12.5t4.5 -60.5v-30v-433h-188zM435 0v504h188v-504h-188zM435 550v120h188v-120h-188z" />
<glyph unicode="&#xfb02;" horiz-adv-x="653" d="M5 350v154h390v-154h-390zM73 0v464q0 57 31.5 103.5t94.5 74.5t156 28h40v-134h-70q-53 0 -68.5 -12.5t4.5 -60.5v-30v-433h-188zM435 0v670h188v-670h-188z" />
<glyph unicode="&#xfb03;" horiz-adv-x="1058" d="M5 350v154h390v-154h-390zM73 0v464q0 57 31.5 103.5t94.5 74.5t156 28h40v-134h-70q-53 0 -68.5 -12.5t4.5 -60.5v-30v-433h-188zM410 350v154h390v-154h-390zM478 0v464q0 57 31.5 103.5t94.5 74.5t156 28h40v-134h-70q-53 0 -68.5 -12.5t4.5 -60.5v-30v-433h-188z M840 0v504h188v-504h-188zM840 550v120h188v-120h-188z" />
<glyph unicode="&#xfb04;" horiz-adv-x="1058" d="M5 350v154h390v-154h-390zM73 0v464q0 57 31.5 103.5t94.5 74.5t156 28h40v-134h-70q-53 0 -68.5 -12.5t4.5 -60.5v-30v-433h-188zM410 350v154h390v-154h-390zM478 0v464q0 57 31.5 103.5t94.5 74.5t156 28h40v-134h-70q-53 0 -68.5 -12.5t4.5 -60.5v-30v-433h-188z M840 0v670h188v-670h-188z" />
<glyph horiz-adv-x="0" />
<glyph horiz-adv-x="333" />
<glyph unicode="&#xd;" horiz-adv-x="600" />
<glyph unicode=" "  horiz-adv-x="140" />
<glyph unicode="&#x09;" horiz-adv-x="140" />
<glyph unicode="&#xa0;" horiz-adv-x="140" />
<glyph unicode="!" horiz-adv-x="352" d="M54 600v70h244v-70q0 -23 -2.5 -62t-6.5 -85.5t-8 -92t-6.5 -83t-2.5 -57.5h-192q0 20 -2.5 57.5t-6.5 83t-8 92t-6.5 85.5t-2.5 62zM68 0v177h215v-177h-215z" />
<glyph unicode="&#x22;" horiz-adv-x="495" d="M20 508v162h195v-162l-38 -158h-118zM280 508v162h195v-162l-39 -158h-118z" />
<glyph unicode="#" horiz-adv-x="881" d="M20 119v168h163l28 70h-133v168h200l58 145h183l-58 -145h110l58 145h183l-58 -145h107v-168h-174l-28 -70h143v-168h-210l-48 -119h-183l48 119h-110l-48 -119h-183l48 119h-96zM359 284h121l31 77h-121z" />
<glyph unicode="$" horiz-adv-x="684" d="M15 461q0 40 17 79t55 70.5t100 50.5t153 19q107 0 176.5 -29.5t104 -84t34.5 -129.5v-6h-188v15q0 24 -10.5 38t-42 20t-94.5 6q-48 0 -73 -4.5t-34.5 -13.5t-9.5 -24q0 -10 4.5 -17.5t15 -11.5t28.5 -7l210 -31q82 -12 127 -41.5t63 -69.5t18 -83q0 -57 -31.5 -106.5 t-100.5 -80t-182 -30.5q-102 0 -176 25.5t-114 79t-40 138.5v6h188v-21q0 -22 9.5 -34.5t39.5 -17.5t93 -5q57 0 84 3.5t34.5 12t7.5 23.5q0 18 -13.5 27t-54.5 14l-210 28q-62 9 -104 33.5t-63 64.5t-21 94zM275 81h175v-181h-175v181zM275 587v183h175v-183h-175z" />
<glyph unicode="%" horiz-adv-x="823" d="M10 514q0 53 22 90.5t63 57.5t96 20q56 0 96.5 -20t62.5 -57.5t22 -90.5t-22 -90.5t-62.5 -57t-96.5 -19.5q-55 0 -96 19.5t-63 57t-22 90.5zM37 0l569 670h181l-569 -670h-181zM141 514q0 -29 10.5 -38t39.5 -9t39.5 9t10.5 38t-10.5 39t-39.5 10t-39.5 -10t-10.5 -39z M451 156q0 53 22 90.5t63 57.5t96 20q56 0 96.5 -20t62.5 -57.5t22 -90.5t-22 -90.5t-62.5 -57t-96.5 -19.5q-55 0 -96 19.5t-63 57t-22 90.5zM582 156q0 -29 10.5 -38t39.5 -9t39.5 9t10.5 38t-10.5 39t-39.5 10t-39.5 -10t-10.5 -39z" />
<glyph unicode="&#x26;" horiz-adv-x="773" d="M20 188q0 77 47 116.5t121 44.5v13q-69 6 -103 46.5t-34 95.5q0 95 73 137.5t205 42.5h105v-171h-132q-32 0 -47.5 -8t-15.5 -40q0 -31 15 -38.5t43 -7.5h456v-154h-481q-28 0 -44.5 -9.5t-16.5 -42.5q0 -20 10.5 -31.5t40 -16t85.5 -4.5q55 0 81 4.5t34.5 21t8.5 51.5 v266h185v-256q0 -78 -28 -136t-96.5 -90t-191.5 -32q-154 0 -237 47t-83 151z" />
<glyph unicode="'" horiz-adv-x="235" d="M20 508v162h195v-162l-38 -158h-118z" />
<glyph unicode="(" horiz-adv-x="349" d="M20 335q0 69 20 128.5t52.5 110t72.5 92.5t79 76l95 -87q-36 -50 -58 -88t-33.5 -72t-15.5 -72t-4 -88t4 -88t15.5 -72t33.5 -72t58 -88l-95 -87q-39 34 -79 76t-72.5 92.5t-52.5 110t-20 128.5z" />
<glyph unicode=")" horiz-adv-x="393" d="M40 15q36 50 58 88t33.5 72t15.5 72t4 88t-4 88t-15.5 72t-33.5 72t-58 88l95 87q39 -34 79 -76t72.5 -92.5t52.5 -110t20 -128.5t-20 -128.5t-52.5 -110t-72.5 -92.5t-79 -76z" />
<glyph unicode="*" horiz-adv-x="410" d="M10 496l40 125l89 -38l8 7l-8 94h132l-8 -94l8 -7l90 37l39 -125l-92 -22l-4 -10l62 -72l-108 -78l-47 81h-12l-50 -80l-107 77l61 72l-3 10z" />
<glyph unicode="+" horiz-adv-x="534" d="M30 258v154h474v-154h-474zM187 98v474h160v-474h-160z" />
<glyph unicode="," horiz-adv-x="304" d="M30 0v192h244v-192h-244zM39 -50h63q18 0 26.5 7t8.5 29v37h137v-36q0 -77 -43.5 -115t-122.5 -38h-69v116z" />
<glyph unicode="-" horiz-adv-x="481" d="M30 217v160h421v-160h-421z" />
<glyph unicode="." horiz-adv-x="304" d="M30 0v192h244v-192h-244z" />
<glyph unicode="/" horiz-adv-x="514" d="M-20 -20l360 710h201l-360 -710h-201z" />
<glyph unicode="0" horiz-adv-x="733" d="M20 335q0 103 39.5 180.5t116.5 121t191 43.5t191 -43.5t116 -121t39 -180.5t-39 -180.5t-116 -121t-191 -43.5t-191 43.5t-116.5 121t-39.5 180.5zM222 335q0 -62 12.5 -97.5t44 -50t88.5 -14.5t88.5 14.5t43.5 50t12 97.5t-12 97.5t-43.5 50t-88.5 14.5t-88.5 -14.5 t-44 -50t-12.5 -97.5z" />
<glyph unicode="1" horiz-adv-x="407" d="M10 460v127h25q55 0 97 16t70 67h175v-670h-188v460h-179z" />
<glyph unicode="2" horiz-adv-x="660" d="M13 0v118q0 57 19 97.5t62.5 69.5t115.5 52l182 58q22 7 35 14.5t19 18t6 25.5q0 17 -7.5 29.5t-32 19.5t-75.5 7q-56 0 -85.5 -9.5t-40.5 -29t-11 -50.5v-13h-184v15q0 68 33 126.5t105 95t190 36.5q106 0 171 -29t95 -80.5t30 -120.5q0 -63 -26 -105t-72 -68.5 t-106 -41.5l-150 -37q-22 -5 -39 -10.5t-26.5 -15t-9.5 -26.5l188 23h239v-169h-625z" />
<glyph unicode="3" horiz-adv-x="688" d="M20 234v16h200v-18q0 -25 6 -38.5t32 -18.5t85 -5q57 0 88.5 4t43.5 15.5t12 31.5q0 25 -15 34.5t-48 9.5h-199v154h185q28 0 38.5 9.5t10.5 28.5q0 16 -8.5 25.5t-34 13.5t-75.5 4q-51 0 -77 -5t-35 -18.5t-9 -38.5v-3h-200v1q0 75 37.5 129.5t112.5 84.5t189 30 q140 0 213.5 -44.5t73.5 -135.5q0 -58 -34.5 -94t-101.5 -44v-13q75 -8 121.5 -45.5t46.5 -114.5q0 -99 -85.5 -149t-240.5 -50q-113 0 -186.5 28t-109.5 82.5t-36 133.5z" />
<glyph unicode="4" horiz-adv-x="721" d="M10 121v127l393 422h163l-122 -215h-24l-148 -152v-13h439v-169h-701zM433 0v670h188v-670h-188z" />
<glyph unicode="5" horiz-adv-x="725" d="M30 214v6h194v-6q0 -19 10.5 -31t41.5 -17t92 -5q55 0 82 7.5t36 24t9 43.5q0 29 -9 45.5t-36 24t-82 7.5q-65 0 -99.5 -8t-44.5 -34h-42l-3 93h53q8 20 32.5 42.5t70 38t114.5 15.5q87 0 141 -26.5t79.5 -76t25.5 -119.5q0 -74 -33.5 -130t-106.5 -87t-190 -31 q-111 0 -185.5 23t-112 72.5t-37.5 128.5zM33 271l40 399h582v-169h-415l-30 -230h-177z" />
<glyph unicode="6" horiz-adv-x="718" d="M18 330q0 93 26 159.5t72.5 108.5t109 62t135.5 20q99 0 170.5 -29t109.5 -80.5t38 -120.5v-9h-210v9q0 23 -11 33.5t-35 13.5t-62 3q-50 0 -81 -8.5t-45.5 -36.5t-14.5 -87v-36h13q15 22 41.5 40.5t67.5 30t97 11.5q83 0 140 -21t86.5 -65.5t29.5 -114.5 q0 -102 -79.5 -162.5t-235.5 -60.5q-129 0 -209 37t-116.5 112.5t-36.5 190.5zM231 227q0 -19 10 -31.5t40 -18.5t88 -6q54 0 81.5 6t37 18.5t9.5 31.5q0 22 -9.5 35t-37 18.5t-81.5 5.5q-60 0 -89.5 -5.5t-39 -18.5t-9.5 -35z" />
<glyph unicode="7" horiz-adv-x="611" d="M10 501v169h601v-151q-67 -66 -118.5 -122t-86.5 -113t-52.5 -125.5t-17.5 -158.5h-218q0 88 19.5 156t52.5 120t73 91t81 68.5t76 52.5v13h-410z" />
<glyph unicode="8" horiz-adv-x="694" d="M15 185q0 55 23 88.5t58.5 51t73.5 24.5v13q-63 12 -98 46.5t-35 94.5q0 83 79 130t231 47q155 0 233.5 -47t78.5 -130q0 -60 -35 -94.5t-100 -46.5v-13q43 -7 78 -24.5t56 -51t21 -88.5q0 -68 -41.5 -111t-115.5 -63.5t-174 -20.5q-101 0 -176 20.5t-116 63.5t-41 111z M206 226q0 -20 11.5 -32.5t42 -18t87.5 -5.5q58 0 88 5.5t41.5 18t11.5 32.5q0 21 -10.5 32.5t-41 16.5t-89.5 5t-89.5 -5t-41 -16.5t-10.5 -32.5zM225 453q0 -16 9.5 -26t36 -15t76.5 -5q52 0 79 5t36.5 15t9.5 26q0 18 -9.5 28.5t-36.5 14.5t-79 4q-50 0 -76.5 -4 t-36 -14.5t-9.5 -28.5z" />
<glyph unicode="9" horiz-adv-x="718" d="M18 457q0 102 79.5 162.5t235.5 60.5q130 0 209.5 -37t116 -112t36.5 -191q0 -93 -25.5 -159.5t-71 -108.5t-106.5 -62t-133 -20q-99 0 -170 29t-109.5 80.5t-38.5 120.5v9h210v-9q0 -23 11 -33.5t35 -13.5t62 -3q48 0 77.5 8.5t43 37t13.5 86.5v36h-13 q-15 -22 -41.5 -40.5t-67 -30t-97.5 -11.5q-83 0 -140 21t-86.5 65.5t-29.5 114.5zM216 443q0 -22 9.5 -35t37.5 -18.5t81 -5.5q60 0 89.5 5.5t39 18.5t9.5 35q0 20 -10 32t-39.5 18t-88.5 6q-53 0 -81 -6t-37.5 -18t-9.5 -32z" />
<glyph unicode=":" horiz-adv-x="304" d="M30 0v192h244v-192h-244zM30 313v192h244v-192h-244z" />
<glyph unicode=";" horiz-adv-x="304" d="M30 0v192h244v-192h-244zM30 313v192h244v-192h-244zM39 -50h63q18 0 26.5 7t8.5 29v37h137v-36q0 -77 -43.5 -115t-122.5 -38h-69v116z" />
<glyph unicode="&#x3c;" horiz-adv-x="534" d="M26 222v226l474 124v-173l-305 -58v-12l305 -58v-173z" />
<glyph unicode="=" horiz-adv-x="534" d="M30 141v154h474v-154h-474zM30 373v154h475v-154h-475z" />
<glyph unicode="&#x3e;" horiz-adv-x="534" d="M30 98v173l305 58v12l-305 58v173l474 -124v-226z" />
<glyph unicode="?" horiz-adv-x="652" d="M10 392v30q0 68 33 127t106.5 95t194.5 36q104 0 167.5 -27t92 -72.5t28.5 -101.5q0 -55 -21 -89t-52 -53.5t-63 -31.5l-75 -28q-27 -10 -33.5 -21.5t-6.5 -27.5v-5h-188v37q0 42 18.5 69t47.5 44t60 28l70 26q29 11 42 20t13 25q0 11 -7 19t-31 13t-76 5 q-80 0 -107.5 -17t-27.5 -52v-48h-185zM180 0v177h215v-177h-215z" />
<glyph unicode="@" horiz-adv-x="921" d="M20 241q0 127 56 220.5t160 145.5t247 52q136 0 229 -45t141 -126t48 -189q0 -81 -26.5 -139t-74.5 -88.5t-112 -30.5q-92 0 -140.5 39t-48.5 99v156l10 11v94h164v-230q0 -16 7 -23.5t22 -7.5q17 0 26 7.5t12.5 29.5t3.5 67q0 86 -25.5 134t-85 68t-161.5 20 q-84 0 -139.5 -12.5t-87.5 -42.5t-45.5 -81t-13.5 -128q0 -97 22 -151.5t75 -76.5t145 -22q45 0 85 6t68 13l29 -124q-46 -16 -92 -25.5t-111 -9.5q-121 0 -207.5 46t-133 133t-46.5 211zM231 245q0 106 45.5 154.5t110.5 48.5q48 0 78 -25t34 -68h27l-12 -91h-15 q0 21 -4 34t-14 18.5t-29 5.5q-28 0 -38 -16.5t-10 -60.5t10 -61t38 -17q19 0 29 5.5t14 18.5t4 35h15v-93h-18q-4 -21 -16 -42.5t-35.5 -35.5t-60.5 -14q-40 0 -75 19.5t-56.5 64t-21.5 120.5z" />
<glyph unicode="A" horiz-adv-x="828" d="M-10 0l289 670h269l290 -670h-216l-159 387l-44 113h-13l-43 -113l-162 -387h-211zM161 124v169h494v-169h-494z" />
<glyph unicode="B" horiz-adv-x="714" d="M30 0v670h426q73 0 121 -18.5t72 -54.5t24 -89q0 -64 -37.5 -106t-129.5 -46v-10q101 -4 149.5 -47t48.5 -113q0 -56 -23 -98t-72.5 -65t-129.5 -23h-449zM217 169h238q34 0 46.5 9.5t12.5 37.5t-12 37t-47 9h-238v-93zM217 416h219q29 0 39 9.5t10 32.5t-12.5 33 t-41.5 10h-214v-85z" />
<glyph unicode="C" horiz-adv-x="770" d="M20 335q0 105 44 182.5t127 120t199 42.5q113 0 193.5 -34t123.5 -98t43 -154v-17h-210v17q0 57 -32 81.5t-115 24.5q-68 0 -105.5 -13.5t-52.5 -49t-15 -102.5q0 -66 15 -102t52.5 -49.5t105.5 -13.5q83 0 115 24.5t32 81.5v17h210v-17q0 -89 -43 -153.5t-123.5 -98.5 t-193.5 -34q-116 0 -199 42.5t-127 120t-44 182.5z" />
<glyph unicode="D" horiz-adv-x="761" d="M41 0v670h188v-670h-188zM88 0v169h292q60 0 95 10t50 45.5t15 110.5q0 76 -15 111t-50 45t-95 10h-292v169h292q111 0 192 -39.5t125 -114.5t44 -181t-44 -181t-125 -114.5t-192 -39.5h-292z" />
<glyph unicode="E" d="M30 0v670h188v-670h-188zM81 0v169h544v-169h-544zM81 253v168h529v-168h-529zM81 501v169h544v-169h-544z" />
<glyph unicode="F" d="M30 0v670h188v-670h-188zM81 233v168h533v-168h-533zM81 501v169h548v-169h-548z" />
<glyph unicode="G" horiz-adv-x="797" d="M20 335q0 105 46 182.5t133 120t209 42.5q114 0 195 -32t124 -91.5t43 -142.5v-7h-210v7q0 47 -34 66.5t-123 19.5q-72 0 -111.5 -13.5t-55.5 -49t-16 -102.5q0 -66 15 -102t52.5 -49.5t105.5 -13.5q81 0 122 5.5t54.5 24t13.5 57.5v37l188 4v-14l-163 -141h-22 q-9 -39 -33.5 -74t-72 -57t-126.5 -22q-105 0 -180 42.5t-114.5 120t-39.5 182.5zM375 228v138h396v-138h-396zM583 212v145h188v-357h-175v191z" />
<glyph unicode="H" horiz-adv-x="748" d="M30 0v670h188v-670h-188zM79 252v169h548v-169h-548zM530 0v670h188v-670h-188z" />
<glyph unicode="I" horiz-adv-x="248" d="M30 0v670h188v-670h-188z" />
<glyph unicode="J" horiz-adv-x="664" d="M10 287v26h200v-24q0 -45 6 -70.5t29.5 -36t77.5 -10.5t78 9.5t30.5 33t6.5 64.5v391h200v-393q0 -93 -31 -157t-100 -97t-184 -33q-114 0 -183 34t-99.5 100t-30.5 163z" />
<glyph unicode="K" horiz-adv-x="731" d="M30 0v670h188v-670h-188zM163 238v183h190l163 249h225l-232 -329l227 -341h-225l-156 238h-192z" />
<glyph unicode="L" horiz-adv-x="625" d="M30 0v670h188v-670h-188zM82 0v169h523v-169h-523z" />
<glyph unicode="M" horiz-adv-x="952" d="M30 0v670h255l123 -278l66 -173h13l63 173l117 278h255v-670h-188v277l7 112h-13l-38 -112l-100 -237h-228l-100 237l-38 112h-13l7 -112v-277h-188z" />
<glyph unicode="N" horiz-adv-x="736" d="M30 0v670h200l186 -251l98 -154h13l-9 146v259h188v-670h-200l-198 258l-85 132h-13l8 -128v-262h-188z" />
<glyph unicode="O" horiz-adv-x="786" d="M20 335q0 105 44 182.5t127.5 120t199.5 42.5q120 0 203.5 -42.5t127.5 -120t44 -182.5t-44 -182.5t-127.5 -120t-203.5 -42.5q-116 0 -199.5 42.5t-127.5 120t-44 182.5zM220 335q0 -66 14.5 -102t51.5 -49.5t105 -13.5t106 13.5t53.5 49.5t15.5 102q0 67 -15.5 102.5 t-53.5 49t-106 13.5t-105 -13.5t-51.5 -49t-14.5 -102.5z" />
<glyph unicode="P" horiz-adv-x="670" d="M30 0v670h188v-670h-188zM93 169v169h287q50 0 71.5 15t21.5 67q0 51 -21.5 66t-71.5 15h-287v169h308q80 0 138 -29.5t89.5 -85t31.5 -135.5q0 -79 -31.5 -135.5t-89.5 -86t-138 -29.5h-308z" />
<glyph unicode="Q" horiz-adv-x="786" d="M20 335q0 105 44 182.5t127.5 120t199.5 42.5q120 0 203.5 -42.5t127.5 -120t44 -182.5t-44 -182.5t-127.5 -120t-203.5 -42.5q-116 0 -199.5 42.5t-127.5 120t-44 182.5zM220 335q0 -66 14.5 -102t51.5 -49.5t105 -13.5t106 13.5t53.5 49.5t15.5 102q0 67 -15.5 102.5 t-53.5 49t-106 13.5t-105 -13.5t-51.5 -49t-14.5 -102.5zM224 141h217l261 -282h-247z" />
<glyph unicode="R" horiz-adv-x="709" d="M30 0v670h391q89 0 149 -24t90.5 -69.5t30.5 -111.5q0 -53 -18.5 -91.5t-58.5 -62t-104 -31.5v-10q52 -13 74.5 -38.5t41.5 -63.5l83 -168h-217l-80 164q-12 25 -25 39t-34 19.5t-58 5.5h-77v-228h-188zM218 368h201q41 0 58 12t17 55q0 40 -17 53t-58 13h-201v-133z" />
<glyph unicode="S" horiz-adv-x="684" d="M15 461q0 40 17 79t55 70.5t100 50.5t153 19q107 0 176.5 -29.5t104 -84t34.5 -129.5v-6h-188v15q0 24 -10.5 38t-42 20t-94.5 6q-48 0 -73 -4.5t-34.5 -13.5t-9.5 -24q0 -10 4.5 -17.5t15 -11.5t28.5 -7l210 -31q82 -12 127 -41.5t63 -69.5t18 -83q0 -57 -31.5 -106.5 t-100.5 -80t-182 -30.5q-102 0 -176 25.5t-114 79t-40 138.5v6h188v-21q0 -22 9.5 -34.5t39.5 -17.5t93 -5q57 0 84 3.5t34.5 12t7.5 23.5q0 18 -13.5 27t-54.5 14l-210 28q-62 9 -104 33.5t-63 64.5t-21 94z" />
<glyph unicode="T" horiz-adv-x="691" d="M15 501v169h661v-169h-661zM252 0v670h188v-670h-188z" />
<glyph unicode="U" horiz-adv-x="736" d="M26 281v389h188v-374q0 -48 12 -75t45.5 -38t96.5 -11q64 0 97 11t45 38t12 75v374h188v-389q0 -89 -37 -154.5t-112.5 -101t-192.5 -35.5t-192.5 35.5t-112.5 101t-37 154.5z" />
<glyph unicode="V" horiz-adv-x="788" d="M-10 670h227l173 -480h13l169 480h226l-269 -670h-270z" />
<glyph unicode="W" horiz-adv-x="1123" d="M9 670h210l56 -341l18 -151h13l27 151l90 341h283l82 -341l24 -151h13l20 151l63 341h206l-153 -670h-279l-70 287l-44 210h-13l-47 -210l-80 -287h-279z" />
<glyph unicode="X" horiz-adv-x="800" d="M-10 0l253 329v13l-253 328h246l162 -217h13l153 217h246l-252 -332v-13l252 -325h-246l-161 218h-13l-154 -218h-246z" />
<glyph unicode="Y" horiz-adv-x="766" d="M-15 670h233l101 -159l57 -94h13l57 94l101 159h234l-308 -459h-186zM286 0v318h188v-318h-188z" />
<glyph unicode="Z" horiz-adv-x="697" d="M25 0v169l357 319v13h-351v169h635v-169l-373 -319v-13h379v-169h-647z" />
<glyph unicode="[" horiz-adv-x="327" d="M30 -60v790h174v-790h-174zM30 -60v154h287v-154h-287zM30 576v154h287v-154h-287z" />
<glyph unicode="\" horiz-adv-x="521" d="M-20 690h201l360 -710h-201z" />
<glyph unicode="]" horiz-adv-x="352" d="M15 -60v154h287v-154h-287zM15 576v154h287v-154h-287zM128 -60v790h174v-790h-174z" />
<glyph unicode="^" horiz-adv-x="527" d="M30 280l123 390h222l122 -390h-175l-52 220h-13l-52 -220h-175z" />
<glyph unicode="_" horiz-adv-x="380" d="M10 0h360v-133h-360v133z" />
<glyph unicode="a" horiz-adv-x="595" d="M15 128q0 36 17 64t53 45.5t93 23.5l215 21v-104l-165 -19q-13 -1 -18.5 -6t-5.5 -13q0 -12 11.5 -15.5t33.5 -3.5q50 0 79 5.5t42 20.5t13 43l14 4v-88h-14q-14 -53 -61 -84.5t-129 -31.5q-85 0 -131.5 37t-46.5 101zM25 292v2q0 67 35 116.5t99 76.5t149 27 q88 0 146 -27.5t86.5 -78t28.5 -121.5v-287h-176v112h-10v179q0 38 -19.5 48.5t-69.5 10.5q-46 0 -63.5 -11t-17.5 -43v-4h-188z" />
<glyph unicode="b" horiz-adv-x="669" d="M30 0v670h188v-515l-12 -13v-142h-176zM185 136l14 115h19q0 -36 13.5 -55.5t41 -26.5t69.5 -7q44 0 69.5 8.5t36.5 28.5t11 53q0 34 -11 53.5t-36.5 28.5t-69.5 9q-63 0 -93.5 -16t-30.5 -69h-19v116h29q11 63 56 101.5t134 38.5q74 0 125.5 -31.5t78.5 -90t27 -140.5 q0 -81 -27.5 -140t-81 -90.5t-130.5 -31.5q-88 0 -135 35.5t-59 110.5h-31z" />
<glyph unicode="c" horiz-adv-x="615" d="M20 252q0 82 36 140.5t102 90t155 31.5q86 0 149.5 -27.5t98 -77.5t34.5 -118v-16h-187v8q0 39 -26.5 51t-72.5 12q-52 0 -77 -17.5t-25 -76.5q0 -58 25 -75.5t77 -17.5q46 0 72.5 11.5t26.5 50.5v9h187v-17q0 -67 -34.5 -117t-98 -78t-149.5 -28q-89 0 -155 31.5 t-102 90.5t-36 140z" />
<glyph unicode="d" horiz-adv-x="669" d="M20 252q0 82 27 140.5t78.5 90t125.5 31.5q89 0 134 -38.5t56 -101.5h29v-116h-19q0 53 -30.5 69t-93.5 16q-43 0 -69 -9t-37 -28.5t-11 -53.5q0 -33 11 -53t37 -28.5t69 -8.5q42 0 69.5 7t41 26.5t13.5 55.5h19l14 -115h-31q-12 -75 -58.5 -110.5t-135.5 -35.5 q-77 0 -130.5 31.5t-81 90.5t-27.5 140zM451 155v515h188v-670h-176v142z" />
<glyph unicode="e" horiz-adv-x="612" d="M20 252q0 82 37 140.5t101.5 90t148.5 31.5q87 0 151 -28.5t99 -84t35 -136.5q0 -13 -0.5 -23.5t-2.5 -24.5h-446v95h310l-41 -59v17.5v17.5q0 46 -23.5 64t-85.5 18q-64 0 -86.5 -20t-22.5 -72v-48q0 -53 23 -72t87 -19q57 0 76.5 10.5t19.5 32.5v11h188v-12 q0 -56 -34 -99t-96 -67.5t-147 -24.5t-151 26t-103 84t-37 152z" />
<glyph unicode="f" horiz-adv-x="405" d="M5 350v154h390v-154h-390zM73 0v464q0 57 31.5 103.5t94.5 74.5t156 28h40v-134h-70q-53 0 -69 -12q-6 -6 -6 -18q0 -16 11 -43v-30v-433h-188z" />
<glyph unicode="g" horiz-adv-x="659" d="M20 286q0 71 28.5 122t82.5 78.5t128 27.5q77 0 125.5 -31.5t58.5 -96.5h31l-14 -99h-19q0 27 -12.5 41t-38.5 19t-68 5q-44 0 -68.5 -6.5t-34 -20.5t-9.5 -39t9.5 -40t34 -22t68.5 -7q63 0 91 11.5t28 51.5h19v-102h-29q-10 -55 -52 -88.5t-125 -33.5q-75 0 -127 27.5 t-79.5 79t-27.5 123.5zM50 26h188q0 -20 5.5 -31.5t27 -15.5t70.5 -4q41 0 62.5 6.5t29.5 27.5t8 63v308h12v124h176v-419q0 -90 -35 -148.5t-102 -87.5t-164 -29q-88 0 -150 24t-95 70t-33 112z" />
<glyph unicode="h" horiz-adv-x="653" d="M30 0v670h188v-670h-188zM195 260v91h33q8 43 30.5 80t64.5 60t106 23q67 0 111 -26t65.5 -70.5t21.5 -100.5v-317h-188v254q0 53 -24 72.5t-89 19.5q-43 0 -66.5 -8t-32.5 -26.5t-9 -51.5h-23z" />
<glyph unicode="i" horiz-adv-x="248" d="M30 0v504h188v-504h-188zM30 550v120h188v-120h-188z" />
<glyph unicode="j" horiz-adv-x="248" d="M-26 -32h19q19 0 28 8t9 28v500h188v-472q0 -79 -26.5 -123t-77 -61.5t-122.5 -17.5h-18v138zM30 550v120h188v-120h-188z" />
<glyph unicode="k" horiz-adv-x="630" d="M30 0v670h188v-670h-188zM131 161v168h176l111 175h222l-179 -245l176 -259h-222l-106 161h-178z" />
<glyph unicode="l" horiz-adv-x="248" d="M30 0v670h188v-670h-188z" />
<glyph unicode="m" horiz-adv-x="1002" d="M30 0v504h176v-155l12 -5v-344h-188zM183 351h33q6 42 25 79t57.5 60.5t101.5 23.5q66 0 107 -26t60.5 -69.5t19.5 -95.5h10v-323h-188v254q0 53 -19.5 72.5t-78.5 19.5q-58 0 -75.5 -18.5t-17.5 -67.5h-19zM562 351h34q6 42 25.5 79t59.5 60.5t105 23.5t107 -25 t62.5 -68t20.5 -98v-323h-188v254q0 53 -19.5 72.5t-78.5 19.5q-58 0 -75.5 -18.5t-17.5 -67.5h-19z" />
<glyph unicode="n" horiz-adv-x="643" d="M30 0v504h176v-155l12 -5v-344h-188zM183 351h33q6 42 27.5 79t64 60.5t109.5 23.5q68 0 112.5 -25t66 -68t21.5 -98v-323h-188v254q0 53 -23 72.5t-85 19.5t-82.5 -18.5t-20.5 -67.5h-19z" />
<glyph unicode="o" horiz-adv-x="618" d="M15 252q0 82 37 140.5t103.5 90t153.5 31.5q88 0 154 -31.5t103 -90t37 -140.5q0 -81 -37 -140t-103 -90.5t-154 -31.5q-87 0 -153.5 31.5t-103.5 90.5t-37 140zM201 252q0 -55 22 -75.5t86 -20.5t86 20.5t22 75.5t-22 76t-86 21t-86 -21t-22 -76z" />
<glyph unicode="p" horiz-adv-x="669" d="M30 -170v674h176v-142l12 -13v-519h-188zM185 368h31q12 75 59 110.5t135 35.5q77 0 130.5 -31.5t81 -90t27.5 -140.5t-27 -140.5t-78.5 -90t-125.5 -31.5q-89 0 -134 38.5t-56 101.5h-29v116h19q0 -35 13.5 -53.5t41 -25t69.5 -6.5q44 0 69.5 9t36.5 29t11 53 q0 34 -11 53.5t-36.5 28t-69.5 8.5q-63 0 -93.5 -17t-30.5 -72h-19z" />
<glyph unicode="q" horiz-adv-x="669" d="M20 252q0 82 27.5 140.5t81 90t130.5 31.5q89 0 135.5 -35.5t58.5 -110.5h31l-14 -115h-19q0 55 -30.5 72t-93.5 17q-43 0 -69 -8.5t-37 -28t-11 -53.5q0 -33 11 -53t37 -29t69 -9q42 0 69.5 6.5t41 25t13.5 53.5h19v-116h-29q-11 -63 -56 -101.5t-134 -38.5 q-74 0 -125.5 31.5t-78.5 90t-27 140.5zM451 -170v519l12 13v142h176v-674h-188z" />
<glyph unicode="r" horiz-adv-x="547" d="M30 0v504h176v-144l12 -5v-355h-188zM183 301v71h33q7 42 27 74t54.5 50t84.5 18q56 0 90 -22.5t49.5 -61.5t15.5 -90v-100h-188v59q0 32 -14 44.5t-51 12.5q-38 0 -52 -12.5t-14 -42.5h-35z" />
<glyph unicode="s" horiz-adv-x="577" d="M16 348q0 45 25.5 82.5t83 60.5t151.5 23q88 0 147.5 -21t90 -62.5t30.5 -103.5v-4h-188v6q0 13 -5.5 21.5t-24 12.5t-56.5 4q-46 0 -57.5 -6.5t-11.5 -20.5q0 -10 11.5 -16t55.5 -11l100 -11q110 -12 152 -49t42 -101q0 -47 -30.5 -83.5t-88.5 -57.5t-142 -21 q-133 0 -203 49t-70 136v4h188v-10q0 -21 17.5 -26t68.5 -5q49 0 62 5.5t13 18.5q0 12 -10 16.5t-45 8.5l-146 16q-78 8 -119 44.5t-41 100.5z" />
<glyph unicode="t" horiz-adv-x="422" d="M0 350v154h407v-154h-407zM74 192v399h188v-372q0 -30 11.5 -40t43.5 -10h90v-169h-132q-94 0 -147.5 47t-53.5 145z" />
<glyph unicode="u" horiz-adv-x="653" d="M30 181v323h188v-254q0 -52 24.5 -72t88.5 -20q65 0 86.5 18.5t21.5 67.5h19l16 -91h-33q-5 -42 -27 -79t-65 -60.5t-112 -23.5q-70 0 -116 25t-68.5 68t-22.5 98zM439 160v344h188v-504h-176v155z" />
<glyph unicode="v" horiz-adv-x="672" d="M-5 504h210l126 -321h13l127 321h206l-226 -504h-232z" />
<glyph unicode="w" horiz-adv-x="939" d="M-5 504h195l36 -182l19 -180h13l42 200l50 162h242l50 -162l42 -200h13l20 180l35 182h192l-133 -504h-235l-65 202l-37 151h-13l-38 -151l-66 -202h-235z" />
<glyph unicode="x" horiz-adv-x="649" d="M-10 0l188 244v10l-188 250h230l103 -152h10l99 152h227l-188 -247v-10l188 -247h-230l-103 148h-10l-99 -148h-227z" />
<glyph unicode="y" d="M-10 504h214l87 -198l36 -116h13l33 118l75 196h210l-239 -524q-27 -59 -63.5 -92t-88.5 -45.5t-126 -12.5h-91v170h146q23 0 35 6t18 21l14 34l-18 -84z" />
<glyph unicode="z" horiz-adv-x="578" d="M15 0v160l182 122l105 53v13l-105 -8h-167v164h518v-160l-198 -127l-98 -50v-13l98 10h213v-164h-548z" />
<glyph unicode="{" horiz-adv-x="379" d="M20 247v176h28q35 0 48.5 12t13.5 41v60q0 86 54 140t165 54h30v-183h-35q-22 0 -31.5 -9.5t-9.5 -29.5v-47q0 -67 -35.5 -93.5t-91.5 -26.5v-12q56 0 91.5 -26.5t35.5 -93.5v-47q0 -20 9.5 -29.5t31.5 -9.5h35v-183h-30q-111 0 -165 54t-54 140v60q0 29 -13.5 41 t-48.5 12h-28z" />
<glyph unicode="|" horiz-adv-x="233" d="M30 -100v870h173v-870h-173z" />
<glyph unicode="}" horiz-adv-x="384" d="M25 -60v183h35q22 0 31.5 9.5t9.5 29.5v47q0 67 35.5 93.5t91.5 26.5v12q-56 0 -91.5 26.5t-35.5 93.5v47q0 20 -9.5 29.5t-31.5 9.5h-35v183h30q111 0 165 -54t54 -140v-60q0 -29 13.5 -41t48.5 -12h28v-176h-28q-35 0 -48.5 -12t-13.5 -41v-60q0 -86 -54 -140t-165 -54 h-30z" />
<glyph unicode="~" horiz-adv-x="582" d="M30 237v46q0 22 4 47.5t16.5 48.5t39.5 37.5t73 14.5q20 0 39 -3t36 -8l85 -21q20 -4 34 -7t22 -3q9 0 13 4.5t4 17.5v9h156v-54q0 -38 -10.5 -69t-36 -48.5t-72.5 -17.5q-29 0 -55 5t-55 12l-82 19q-8 2 -17 4t-15 2q-16 0 -19 -8.5t-3 -19.5v-8h-157z" />
<glyph unicode="&#xa1;" horiz-adv-x="304" d="M30 -100q0 23 2.5 62t6.5 85.5t8 92t6.5 83t2.5 57.5h192q0 -20 2.5 -57.5t6.5 -83t8 -92t6.5 -85.5t2.5 -62v-70h-244v70zM45 323v177h215v-177h-215z" />
<glyph unicode="&#xa2;" horiz-adv-x="615" d="M20 252q0 82 36 140.5t102 90t155 31.5q86 0 149.5 -27.5t98 -77.5t34.5 -118v-16h-187v8q0 39 -26.5 51t-72.5 12q-52 0 -77 -17.5t-25 -76.5q0 -58 25 -75.5t77 -17.5q46 0 72.5 11.5t26.5 50.5v9h187v-17q0 -67 -34.5 -117t-98 -78t-149.5 -28q-89 0 -155 31.5 t-102 90.5t-36 140zM230 83h175v-183h-175v183zM230 422v178h175v-178h-175z" />
<glyph unicode="&#xa3;" horiz-adv-x="711" d="M30 0v169h661v-169h-661zM30 228v154h446v-154h-446zM53 107v62h42q24 0 38 5t20.5 14t6.5 22t-5 29t-13 35l-18 40q-19 42 -32.5 81.5t-13.5 79.5q0 60 34.5 106t103 72.5t168.5 26.5q112 0 177 -32.5t92.5 -87t27.5 -119.5v-16h-185v18q0 27 -8.5 41t-32.5 19.5 t-73 5.5q-46 0 -71 -5.5t-35 -18.5t-10 -35q0 -13 4.5 -30.5t12.5 -38.5l19 -49q9 -23 13 -42t4 -34q0 -36 -18 -53.5t-38 -23.5v-72h-210z" />
<glyph unicode="&#xa5;" horiz-adv-x="807" d="M3 670h246l70 -125l80 -165h13l79 165l71 125h242l-317 -471h-167zM27 108v154h753v-154h-753zM27 309v154h199l137 -154h-336zM310 0v317h187v-317h-187zM443 309l137 154h200v-154h-337z" />
<glyph unicode="&#xa6;" horiz-adv-x="273" d="M50 -100v395h173v-395h-173zM50 375v395h173v-395h-173z" />
<glyph unicode="&#xa7;" horiz-adv-x="586" d="M20 305q0 36 26.5 59.5t72.5 26.5v10q-22 5 -45 18.5t-38.5 37.5t-15.5 62q0 45 28.5 82.5t86 60.5t145.5 23q124 0 196 -50.5t72 -136.5v-4h-188v10q0 15 -5.5 23t-24 11.5t-56.5 3.5q-46 0 -57.5 -7t-11.5 -19t10 -16.5t44 -9.5l204 -26q49 -6 76 -27t27 -63 q0 -37 -26 -62t-73 -28v-10q22 -5 45 -18t38.5 -37.5t15.5 -62.5q0 -44 -28.5 -82t-86 -61t-145.5 -23q-124 0 -196 51t-72 136v4h188v-10q0 -14 5.5 -22.5t24 -12t56.5 -3.5q46 0 57.5 7t11.5 19t-9.5 17t-44.5 9l-178 24q-68 9 -98.5 32.5t-30.5 63.5zM205 345 q0 -10 5.5 -14t17.5 -6l127 -16q10 -1 15.5 0.5t8 6t2.5 10.5q0 8 -5.5 13t-19.5 6l-125 16q-8 1 -14 -0.5t-9 -5t-3 -10.5z" />
<glyph unicode="&#xa9;" horiz-adv-x="776" d="M20 335q0 107 45 184t128 118.5t195 41.5q113 0 195.5 -41.5t127.5 -118.5t45 -184t-45 -184t-127.5 -118.5t-195.5 -41.5q-112 0 -195 41.5t-128 118.5t-45 184zM165 335q0 -87 22 -133t71 -63.5t130 -17.5q82 0 130.5 17.5t70.5 63.5t22 133t-22 133t-70.5 63.5 t-130.5 17.5q-81 0 -130 -17.5t-71 -63.5t-22 -133zM195 335q0 56 23 96.5t66.5 62.5t106.5 22q57 0 99.5 -19.5t66.5 -55t24 -85.5v-8h-133v6q0 21 -12.5 31t-44.5 10q-38 0 -50.5 -12.5t-12.5 -47.5q0 -34 12.5 -47t50.5 -13q32 0 44.5 11t12.5 30v6h133v-8q0 -49 -24 -85 t-66.5 -55.5t-99.5 -19.5q-63 0 -106.5 22.5t-66.5 63t-23 95.5z" />
<glyph unicode="&#xaa;" horiz-adv-x="228" d="M20 565q0 17 13.5 27.5t44.5 13.5l70 7l1 -30l-56 -7q-5 -1 -8 -2t-3 -5q0 -7 19 -7q20 0 33 4.5t13 18.5h4v-27h-5q-4 -18 -20 -26t-45 -8q-28 0 -44.5 10.5t-16.5 30.5zM26 614v2q0 29 24.5 46.5t70.5 17.5q44 0 65.5 -19t21.5 -56v-78h-59v32l-2 6v35l-2 5v5 q0 14 -6 17.5t-22 3.5q-15 0 -22 -2.5t-7 -13.5v-1h-62z" />
<glyph unicode="&#xab;" horiz-adv-x="500" d="M30 200v210l200 130v-192l-75 -36v-14l75 -36v-192zM270 200v210l200 130v-192l-75 -36v-14l75 -36v-192z" />
<glyph unicode="&#xad;" horiz-adv-x="600" d="M30 217v160h421v-160h-421z" />
<glyph unicode="&#xae;" horiz-adv-x="426" d="M20 507q0 57 25 98t68.5 62.5t99.5 21.5t99.5 -21.5t68.5 -62.5t25 -98t-25 -97.5t-68.5 -62.5t-99.5 -22t-99.5 22t-68.5 62.5t-25 97.5zM99 507q0 -40 9.5 -64t34 -34.5t70.5 -10.5t70.5 10.5t34 34.5t9.5 64t-9.5 64t-34 34.5t-70.5 10.5t-70.5 -10.5t-34 -34.5 t-9.5 -64zM135 439v140h96q29 0 45.5 -11t16.5 -34q0 -20 -12 -30.5t-29 -10.5v-2q14 -5 26 -22l20 -30h-64l-19 31q-3 5 -7 6.5t-11 1.5h-4v-39h-58zM193 515h35q5 0 7 2t2 6q0 5 -2 6.5t-7 1.5h-35v-16z" />
<glyph unicode="&#xb0;" horiz-adv-x="238" d="M10 585q0 44 29 69.5t80 25.5t80 -25.5t29 -69.5t-29 -69.5t-80 -25.5t-80 25.5t-29 69.5zM86 585q0 -15 7 -20.5t26 -5.5t26 5.5t7 20.5t-7 20.5t-26 5.5t-26 -5.5t-7 -20.5z" />
<glyph unicode="&#xb1;" horiz-adv-x="535" d="M30 -14v154h474v-154h-474zM30 258v154h475v-154h-475zM188 106v466h159v-466h-159z" />
<glyph unicode="&#xb2;" horiz-adv-x="390" d="M20 531v15q0 36 20 66.5t61 49t105 18.5q82 0 123 -32t41 -85q0 -43 -27.5 -67t-87.5 -36l-104 -22q0 -1 0.5 -4t0.5 -4l159 20h48v-110h-333v54q0 48 24 73t63 37l105 32q12 4 16.5 7.5t4.5 10.5q0 8 -7 11.5t-35 3.5t-38 -5.5t-10 -22.5v-10h-129z" />
<glyph unicode="&#xb3;" horiz-adv-x="401" d="M20 459v11h130v-6q0 -13 8.5 -16t40.5 -3q33 0 41.5 2.5t8.5 12.5q0 7 -4 10t-15 3h-70v76h57q12 0 16 2.5t4 9.5q0 8 -7 11t-36 3q-30 0 -37 -4t-7 -13v-3h-130v3q0 54 48.5 88t136.5 34q81 0 121.5 -23.5t40.5 -64.5q0 -30 -18.5 -49t-61.5 -24v-5q42 -5 68 -23t26 -56 q0 -34 -20.5 -56t-59.5 -33t-93 -11q-95 0 -141.5 32t-46.5 92z" />
<glyph unicode="&#xb6;" horiz-adv-x="793" d="M20 468q0 69 32.5 114t90 66.5t133.5 21.5h193v-400h-193q-76 0 -133.5 21.5t-90 65.5t-32.5 111zM346 0v670h188v-670h-188zM575 0v670h188v-670h-188z" />
<glyph unicode="&#xb7;" horiz-adv-x="304" d="M30 250v192h244v-192h-244z" />
<glyph unicode="&#xb9;" horiz-adv-x="258" d="M10 528v101h18q26 0 48 8t38 33h124v-335h-130v193h-98z" />
<glyph unicode="&#xba;" horiz-adv-x="220" d="M20 602q0 37 24 57.5t66 20.5t66 -20.5t24 -57.5t-24 -57.5t-66 -20.5t-66 20.5t-24 57.5zM83 602q0 -12 5.5 -17t21.5 -5t21.5 5t5.5 17t-5.5 17t-21.5 5t-21.5 -5t-5.5 -17z" />
<glyph unicode="&#xbb;" horiz-adv-x="500" d="M30 70v192l75 36v14l-75 36v192l200 -130v-210zM270 70v192l75 36v14l-75 36v192l200 -130v-210z" />
<glyph unicode="&#xbc;" horiz-adv-x="845" d="M30 0l569 670h181l-569 -670h-181zM41 528v101h18q26 0 48 8t38 33h124v-335h-130v193h-98zM441 63v103l164 169h91l-62 -108h-14l-37 -39v-10h232v-115h-374zM630 0v335h130v-335h-130z" />
<glyph unicode="&#xbd;" horiz-adv-x="874" d="M30 0l569 670h181l-569 -670h-181zM41 528v101h18q26 0 48 8t38 33h124v-335h-130v193h-98zM494 191v15q0 36 20 66.5t61 49t105 18.5q82 0 123 -32t41 -85q0 -43 -27.5 -67t-87.5 -36l-104 -22q0 -1 0.5 -4t0.5 -4l159 20h48v-110h-333v54q0 48 24 73t63 37l105 32 q12 4 16.5 7.5t4.5 10.5q0 8 -7 11.5t-35 3.5t-38 -5.5t-10 -22.5v-10h-129z" />
<glyph unicode="&#xbe;" horiz-adv-x="913" d="M30 459v11h130v-6q0 -13 8.5 -16t40.5 -3q33 0 41.5 2.5t8.5 12.5q0 7 -4 10t-15 3h-70v76h57q12 0 16 2.5t4 9.5q0 8 -7 11t-36 3q-30 0 -37 -4t-7 -13v-3h-130v3q0 54 48.5 88t136.5 34q81 0 121.5 -23.5t40.5 -64.5q0 -30 -18.5 -49t-61.5 -24v-5q42 -5 68 -23t26 -56 q0 -34 -20.5 -56t-59.5 -33t-93 -11q-95 0 -141.5 32t-46.5 92zM106 0l569 670h181l-569 -670h-181zM509 63v103l164 169h91l-62 -108h-14l-37 -39v-10h232v-115h-374zM698 0v335h130v-335h-130z" />
<glyph unicode="&#xbf;" horiz-adv-x="652" d="M20 21q0 55 21 89t52.5 53.5t62.5 31.5l75 28q27 11 33.5 22t6.5 27v5h188v-37q0 -42 -18.5 -69t-47 -43.5t-60.5 -28.5l-70 -26q-29 -10 -42 -19t-13 -26q0 -10 7 -18.5t31 -13.5t76 -5q80 0 107.5 17t27.5 52v48h185v-30q0 -68 -33 -127t-106 -95t-195 -36 q-104 0 -167.5 27t-92 72.5t-28.5 101.5zM257 323v177h215v-177h-215z" />
<glyph unicode="&#xc0;" horiz-adv-x="828" d="M-10 0l289 670h269l290 -670h-216l-159 387l-44 113h-13l-43 -113l-162 -387h-211zM112 864h271l133 -134h-202zM161 124v169h494v-169h-494z" />
<glyph unicode="&#xc1;" horiz-adv-x="828" d="M-10 0l289 670h269l290 -670h-216l-159 387l-44 113h-13l-43 -113l-162 -387h-211zM161 124v169h494v-169h-494zM312 730l133 134h271l-202 -134h-202z" />
<glyph unicode="&#xc2;" horiz-adv-x="828" d="M-10 0l289 670h269l290 -670h-216l-159 387l-44 113h-13l-43 -113l-162 -387h-211zM161 124v169h494v-169h-494zM167 730l133 130h227l134 -130h-202l-39 42h-12l-40 -42h-201z" />
<glyph unicode="&#xc3;" horiz-adv-x="828" d="M-10 0l289 670h269l290 -670h-216l-159 387l-44 113h-13l-43 -113l-162 -387h-211zM161 124v169h494v-169h-494zM208 712v50q0 26 7.5 52t30 43.5t66.5 17.5q17 0 38.5 -4.5t49.5 -14.5l34 -12q13 -4 23 -7t17 -3q11 0 16.5 6t5.5 19v7h124v-49q0 -49 -22.5 -81.5 t-73.5 -32.5q-23 0 -46 6t-45 13l-46 15q-13 5 -22 7t-15 2q-10 0 -13.5 -5.5t-3.5 -12.5v-16h-125z" />
<glyph unicode="&#xc4;" horiz-adv-x="828" d="M-10 0l289 670h269l290 -670h-216l-159 387l-44 113h-13l-43 -113l-162 -387h-211zM161 124v169h494v-169h-494zM207 730v139h178v-139h-178zM443 730v139h178v-139h-178z" />
<glyph unicode="&#xc5;" horiz-adv-x="828" d="M-10 0l289 670h269l290 -670h-216l-159 387l-44 113h-13l-43 -113l-162 -387h-211zM161 124v169h494v-169h-494zM247 728q0 66 46 105t120 39t119.5 -39t45.5 -105q0 -65 -45.5 -104.5t-119.5 -39.5t-120 39.5t-46 104.5zM360 728q0 -19 9.5 -26.5t42.5 -7.5t42.5 7.5 t9.5 26.5t-9.5 26.5t-42.5 7.5t-42.5 -7.5t-9.5 -26.5z" />
<glyph unicode="&#xc6;" horiz-adv-x="1216" d="M-8 0l485 670h133v-158h-22l-363 -512h-233zM302 124v169h429v-169h-429zM598 0v670h188v-670h-188zM649 0v169h544v-169h-544zM649 253v168h529v-168h-529zM649 501v169h544v-169h-544z" />
<glyph unicode="&#xc7;" horiz-adv-x="770" d="M20 335q0 105 44 182.5t127 120t199 42.5q113 0 193.5 -34t123.5 -98t43 -154v-17h-210v17q0 57 -32 81.5t-115 24.5q-68 0 -105.5 -13.5t-52.5 -49t-15 -102.5q0 -66 15 -102t52.5 -49.5t105.5 -13.5q83 0 115 24.5t32 81.5v17h210v-17q0 -89 -43 -153.5t-123.5 -98.5 t-193.5 -34q-116 0 -199 42.5t-127 120t-44 182.5zM329 3h95v-39h14q57 0 86.5 -27.5t29.5 -73.5q0 -47 -29.5 -75.5t-86.5 -28.5h-109v97h112q5 0 6.5 1.5t1.5 4.5q0 4 -1.5 5.5t-6.5 1.5h-112v134z" />
<glyph unicode="&#xc8;" d="M25 864h271l133 -134h-202zM30 0v670h188v-670h-188zM81 0v169h544v-169h-544zM81 253v168h529v-168h-529zM81 501v169h544v-169h-544z" />
<glyph unicode="&#xc9;" d="M30 0v670h188v-670h-188zM81 0v169h544v-169h-544zM81 253v168h529v-168h-529zM81 501v169h544v-169h-544zM225 730l133 134h271l-202 -134h-202z" />
<glyph unicode="&#xca;" d="M30 0v670h188v-670h-188zM80 730l133 130h227l134 -130h-202l-39 42h-12l-40 -42h-201zM81 0v169h544v-169h-544zM81 253v168h529v-168h-529zM81 501v169h544v-169h-544z" />
<glyph unicode="&#xcb;" d="M30 0v670h188v-670h-188zM81 0v169h544v-169h-544zM81 253v168h529v-168h-529zM81 501v169h544v-169h-544zM120 730v139h178v-139h-178zM356 730v139h178v-139h-178z" />
<glyph unicode="&#xcc;" horiz-adv-x="248" d="M-178 864h271l133 -134h-202zM30 0v670h188v-670h-188z" />
<glyph unicode="&#xcd;" horiz-adv-x="248" d="M22 730l133 134h271l-202 -134h-202zM30 0v670h188v-670h-188z" />
<glyph unicode="&#xce;" horiz-adv-x="248" d="M-123 730l133 130h227l134 -130h-202l-39 42h-12l-40 -42h-201zM30 0v670h188v-670h-188z" />
<glyph unicode="&#xcf;" horiz-adv-x="248" d="M-83 730v139h178v-139h-178zM30 0v670h188v-670h-188zM153 730v139h178v-139h-178z" />
<glyph unicode="&#xd0;" horiz-adv-x="834" d="M10 251v168h474v-168h-474zM114 0v670h188v-670h-188zM161 0v169h292q60 0 95 10t50 45.5t15 110.5q0 76 -15 111t-50 45t-95 10h-292v169h292q111 0 192 -39.5t125 -114.5t44 -181t-44 -181t-125 -114.5t-192 -39.5h-292z" />
<glyph unicode="&#xd1;" horiz-adv-x="736" d="M30 0v670h200l186 -251l98 -154h13l-9 146v259h188v-670h-200l-198 258l-85 132h-13l8 -128v-262h-188zM162 712v50q0 26 7.5 52t30 43.5t66.5 17.5q17 0 38.5 -4.5t49.5 -14.5l34 -12q13 -4 23 -7t17 -3q11 0 16.5 6t5.5 19v7h124v-49q0 -49 -22.5 -81.5t-73.5 -32.5 q-23 0 -46 6t-45 13l-46 15q-13 5 -22 7t-15 2q-10 0 -13.5 -5.5t-3.5 -12.5v-16h-125z" />
<glyph unicode="&#xd2;" horiz-adv-x="786" d="M20 335q0 105 44 182.5t127.5 120t199.5 42.5q120 0 203.5 -42.5t127.5 -120t44 -182.5t-44 -182.5t-127.5 -120t-203.5 -42.5q-116 0 -199.5 42.5t-127.5 120t-44 182.5zM91 864h271l133 -134h-202zM220 335q0 -66 14.5 -102t51.5 -49.5t105 -13.5t106 13.5t53.5 49.5 t15.5 102q0 67 -15.5 102.5t-53.5 49t-106 13.5t-105 -13.5t-51.5 -49t-14.5 -102.5z" />
<glyph unicode="&#xd3;" horiz-adv-x="786" d="M20 335q0 105 44 182.5t127.5 120t199.5 42.5q120 0 203.5 -42.5t127.5 -120t44 -182.5t-44 -182.5t-127.5 -120t-203.5 -42.5q-116 0 -199.5 42.5t-127.5 120t-44 182.5zM220 335q0 -66 14.5 -102t51.5 -49.5t105 -13.5t106 13.5t53.5 49.5t15.5 102q0 67 -15.5 102.5 t-53.5 49t-106 13.5t-105 -13.5t-51.5 -49t-14.5 -102.5zM291 730l133 134h271l-202 -134h-202z" />
<glyph unicode="&#xd4;" horiz-adv-x="786" d="M20 335q0 105 44 182.5t127.5 120t199.5 42.5q120 0 203.5 -42.5t127.5 -120t44 -182.5t-44 -182.5t-127.5 -120t-203.5 -42.5q-116 0 -199.5 42.5t-127.5 120t-44 182.5zM146 730l133 130h227l134 -130h-202l-39 42h-12l-40 -42h-201zM220 335q0 -66 14.5 -102 t51.5 -49.5t105 -13.5t106 13.5t53.5 49.5t15.5 102q0 67 -15.5 102.5t-53.5 49t-106 13.5t-105 -13.5t-51.5 -49t-14.5 -102.5z" />
<glyph unicode="&#xd5;" horiz-adv-x="786" d="M20 335q0 105 44 182.5t127.5 120t199.5 42.5q120 0 203.5 -42.5t127.5 -120t44 -182.5t-44 -182.5t-127.5 -120t-203.5 -42.5q-116 0 -199.5 42.5t-127.5 120t-44 182.5zM187 712v50q0 26 7.5 52t29.5 43.5t67 17.5q17 0 38.5 -4.5t49.5 -14.5l34 -12q13 -4 23 -7t17 -3 q11 0 16.5 6t5.5 19v7h124v-49q0 -49 -22.5 -81.5t-73.5 -32.5q-23 0 -46 6t-45 13l-46 15q-13 5 -22 7t-15 2q-10 0 -13.5 -5.5t-3.5 -12.5v-16h-125zM220 335q0 -66 14.5 -102t51.5 -49.5t105 -13.5t106 13.5t53.5 49.5t15.5 102q0 67 -15.5 102.5t-53.5 49t-106 13.5 t-105 -13.5t-51.5 -49t-14.5 -102.5z" />
<glyph unicode="&#xd6;" horiz-adv-x="786" d="M20 335q0 105 44 182.5t127.5 120t199.5 42.5q120 0 203.5 -42.5t127.5 -120t44 -182.5t-44 -182.5t-127.5 -120t-203.5 -42.5q-116 0 -199.5 42.5t-127.5 120t-44 182.5zM186 730v139h178v-139h-178zM220 335q0 -66 14.5 -102t51.5 -49.5t105 -13.5t106 13.5t53.5 49.5 t15.5 102q0 67 -15.5 102.5t-53.5 49t-106 13.5t-105 -13.5t-51.5 -49t-14.5 -102.5zM422 730v139h178v-139h-178z" />
<glyph unicode="&#xd7;" horiz-adv-x="522" d="M30 453l112 113l350 -349l-113 -113zM31 214l351 351l109 -109l-351 -351z" />
<glyph unicode="&#xd8;" horiz-adv-x="786" d="M-1 77l700 610l88 -95l-700 -610zM20 335q0 105 44 182.5t127.5 120t199.5 42.5q120 0 203.5 -42.5t127.5 -120t44 -182.5t-44 -182.5t-127.5 -120t-203.5 -42.5q-116 0 -199.5 42.5t-127.5 120t-44 182.5zM220 335q0 -66 14.5 -102t51.5 -49.5t105 -13.5t106 13.5 t53.5 49.5t15.5 102q0 67 -15.5 102.5t-53.5 49t-106 13.5t-105 -13.5t-51.5 -49t-14.5 -102.5z" />
<glyph unicode="&#xd9;" horiz-adv-x="736" d="M26 281v389h188v-374q0 -48 12 -75t45.5 -38t96.5 -11q64 0 97 11t45 38t12 75v374h188v-389q0 -89 -37 -154.5t-112.5 -101t-192.5 -35.5t-192.5 35.5t-112.5 101t-37 154.5zM66 864h271l133 -134h-202z" />
<glyph unicode="&#xda;" horiz-adv-x="736" d="M26 281v389h188v-374q0 -48 12 -75t45.5 -38t96.5 -11q64 0 97 11t45 38t12 75v374h188v-389q0 -89 -37 -154.5t-112.5 -101t-192.5 -35.5t-192.5 35.5t-112.5 101t-37 154.5zM266 730l133 134h271l-202 -134h-202z" />
<glyph unicode="&#xdb;" horiz-adv-x="736" d="M26 281v389h188v-374q0 -48 12 -75t45.5 -38t96.5 -11q64 0 97 11t45 38t12 75v374h188v-389q0 -89 -37 -154.5t-112.5 -101t-192.5 -35.5t-192.5 35.5t-112.5 101t-37 154.5zM121 730l133 130h227l134 -130h-202l-39 42h-12l-40 -42h-201z" />
<glyph unicode="&#xdc;" horiz-adv-x="736" d="M26 281v389h188v-374q0 -48 12 -75t45.5 -38t96.5 -11q64 0 97 11t45 38t12 75v374h188v-389q0 -89 -37 -154.5t-112.5 -101t-192.5 -35.5t-192.5 35.5t-112.5 101t-37 154.5zM161 730v139h178v-139h-178zM397 730v139h178v-139h-178z" />
<glyph unicode="&#xdd;" horiz-adv-x="766" d="M-15 670h233l101 -159l57 -94h13l57 94l101 159h234l-308 -459h-186zM281 730l133 134h271l-202 -134h-202zM286 0v318h188v-318h-188z" />
<glyph unicode="&#xde;" horiz-adv-x="680" d="M30 0v670h188v-670h-188zM93 82v169h297q50 0 71.5 15.5t21.5 69.5q0 53 -21.5 68.5t-71.5 15.5h-297v169h318q80 0 138 -29.5t89.5 -86t31.5 -137.5t-31.5 -137.5t-89.5 -86.5t-138 -30h-318z" />
<glyph unicode="&#xdf;" horiz-adv-x="714" d="M50 0v421q0 79 34.5 137t107.5 90t190 32q100 0 164 -23.5t95.5 -63.5t31.5 -91q0 -64 -37.5 -103t-129.5 -43v-10q101 -4 149.5 -50t48.5 -120q0 -80 -52.5 -128t-172.5 -48h-204v169h180q34 0 46.5 9.5t12.5 37.5t-12 37t-47 9h-180v154h161q29 0 39 7.5t10 29.5 q0 17 -8 27.5t-32.5 15.5t-75.5 5q-61 0 -89.5 -7t-36.5 -24t-8 -47v-423h-185z" />
<glyph unicode="&#xe0;" horiz-adv-x="595" d="M-8 690h272l133 -130h-203zM15 128q0 36 17 64t53 45.5t93 23.5l215 21v-104l-165 -19q-13 -1 -18.5 -6t-5.5 -13q0 -12 11.5 -15.5t33.5 -3.5q50 0 79 5.5t42 20.5t13 43l14 4v-88h-14q-14 -53 -61 -84.5t-129 -31.5q-85 0 -131.5 37t-46.5 101zM25 292v2q0 67 35 116.5 t99 76.5t149 27q88 0 146 -27.5t86.5 -78t28.5 -121.5v-287h-176v112h-10v179q0 38 -19.5 48.5t-69.5 10.5q-46 0 -63.5 -11t-17.5 -43v-4h-188z" />
<glyph unicode="&#xe1;" horiz-adv-x="595" d="M15 128q0 36 17 64t53 45.5t93 23.5l215 21v-104l-165 -19q-13 -1 -18.5 -6t-5.5 -13q0 -12 11.5 -15.5t33.5 -3.5q50 0 79 5.5t42 20.5t13 43l14 4v-88h-14q-14 -53 -61 -84.5t-129 -31.5q-85 0 -131.5 37t-46.5 101zM25 292v2q0 67 35 116.5t99 76.5t149 27 q88 0 146 -27.5t86.5 -78t28.5 -121.5v-287h-176v112h-10v179q0 38 -19.5 48.5t-69.5 10.5q-46 0 -63.5 -11t-17.5 -43v-4h-188zM196 560l134 130h272l-202 -130h-204z" />
<glyph unicode="&#xe2;" horiz-adv-x="595" d="M15 128q0 36 17 64t53 45.5t93 23.5l215 21v-104l-165 -19q-13 -1 -18.5 -6t-5.5 -13q0 -12 11.5 -15.5t33.5 -3.5q50 0 79 5.5t42 20.5t13 43l14 4v-88h-14q-14 -53 -61 -84.5t-129 -31.5q-85 0 -131.5 37t-46.5 101zM25 292v2q0 67 35 116.5t99 76.5t149 27 q88 0 146 -27.5t86.5 -78t28.5 -121.5v-287h-176v112h-10v179q0 38 -19.5 48.5t-69.5 10.5q-46 0 -63.5 -11t-17.5 -43v-4h-188zM51 560l133 130h227l134 -130h-202l-39 42h-12l-40 -42h-201z" />
<glyph unicode="&#xe3;" horiz-adv-x="595" d="M15 128q0 36 17 64t53 45.5t93 23.5l215 21v-104l-165 -19q-13 -1 -18.5 -6t-5.5 -13q0 -12 11.5 -15.5t33.5 -3.5q50 0 79 5.5t42 20.5t13 43l14 4v-88h-14q-14 -53 -61 -84.5t-129 -31.5q-85 0 -131.5 37t-46.5 101zM25 292v2q0 67 35 116.5t99 76.5t149 27 q88 0 146 -27.5t86.5 -78t28.5 -121.5v-287h-176v112h-10v179q0 38 -19.5 48.5t-69.5 10.5q-46 0 -63.5 -11t-17.5 -43v-4h-188zM92 542v50q0 26 7.5 52t30 43.5t66.5 17.5q17 0 38.5 -4.5t49.5 -14.5l34 -12q13 -4 23 -7t17 -3q11 0 16.5 6t5.5 19v7h124v-49 q0 -49 -22.5 -81.5t-73.5 -32.5q-23 0 -46 6t-45 13l-46 15q-13 5 -22 7t-15 2q-10 0 -13.5 -5.5t-3.5 -12.5v-16h-125z" />
<glyph unicode="&#xe4;" horiz-adv-x="595" d="M15 128q0 36 17 64t53 45.5t93 23.5l215 21v-104l-165 -19q-13 -1 -18.5 -6t-5.5 -13q0 -12 11.5 -15.5t33.5 -3.5q50 0 79 5.5t42 20.5t13 43l14 4v-88h-14q-14 -53 -61 -84.5t-129 -31.5q-85 0 -131.5 37t-46.5 101zM25 292v2q0 67 35 116.5t99 76.5t149 27 q88 0 146 -27.5t86.5 -78t28.5 -121.5v-287h-176v112h-10v179q0 38 -19.5 48.5t-69.5 10.5q-46 0 -63.5 -11t-17.5 -43v-4h-188zM91 560v139h178v-139h-178zM327 560v139h178v-139h-178z" />
<glyph unicode="&#xe5;" horiz-adv-x="595" d="M15 128q0 36 17 64t53 45.5t93 23.5l215 21v-104l-165 -19q-13 -1 -18.5 -6t-5.5 -13q0 -12 11.5 -15.5t33.5 -3.5q50 0 79 5.5t42 20.5t13 43l14 4v-88h-14q-14 -53 -61 -84.5t-129 -31.5q-85 0 -131.5 37t-46.5 101zM25 292v2q0 67 35 116.5t99 76.5t149 27 q88 0 146 -27.5t86.5 -78t28.5 -121.5v-287h-176v112h-10v179q0 38 -19.5 48.5t-69.5 10.5q-46 0 -63.5 -11t-17.5 -43v-4h-188zM192 632q0 40 29.5 64t76.5 24t76.5 -24t29.5 -64t-29.5 -64t-76.5 -24t-76.5 24t-29.5 64zM269 632q0 -8 5 -12.5t24 -4.5t24 4.5t5 12.5 t-5 12.5t-24 4.5t-24 -4.5t-5 -12.5z" />
<glyph unicode="&#xe6;" horiz-adv-x="976" d="M15 128q0 37 17 65.5t53 47t93 23.5l227 22l9 -107l-186 -20q-13 -1 -18.5 -6t-5.5 -13q0 -12 11.5 -15.5t33.5 -3.5q57 0 91 6.5t48.5 23.5t14.5 49l14 4l15 -98h-14q-12 -36 -41.5 -62t-74 -40t-103.5 -14q-88 0 -136 37t-48 101zM25 287v7q0 67 35 116.5t99 76.5 t149 27q88 0 146 -27.5t86.5 -78t28.5 -121.5v-36h-174v40q0 38 -19.5 48.5t-70.5 10.5q-52 0 -72 -11t-20 -43v-9h-188zM395 252q0 82 36.5 140.5t101.5 90t149 31.5q87 0 151 -28.5t99 -84t35 -136.5q0 -13 -0.5 -23.5t-2.5 -24.5h-446v95h310l-41 -59v18v17 q0 46 -23.5 64t-85.5 18q-64 0 -86.5 -20t-22.5 -72v-48q0 -53 23 -72t87 -19q57 0 76.5 10.5t19.5 32.5v11h188v-12q0 -56 -34 -99t-96 -67.5t-147 -24.5t-151 26t-103 84t-37 152z" />
<glyph unicode="&#xe7;" horiz-adv-x="615" d="M20 252q0 82 36 140.5t102 90t155 31.5q86 0 149.5 -27.5t98 -77.5t34.5 -118v-16h-187v8q0 39 -26.5 51t-72.5 12q-52 0 -77 -17.5t-25 -76.5q0 -58 25 -75.5t77 -17.5q46 0 72.5 11.5t26.5 50.5v9h187v-17q0 -67 -34.5 -117t-98 -78t-149.5 -28q-89 0 -155 31.5 t-102 90.5t-36 140zM257 3h95v-39h14q57 0 86.5 -27.5t29.5 -73.5q0 -47 -29.5 -75.5t-86.5 -28.5h-109v97h112q5 0 6.5 1.5t1.5 4.5q0 4 -1.5 5.5t-6.5 1.5h-112v134z" />
<glyph unicode="&#xe8;" horiz-adv-x="612" d="M0 690h272l133 -130h-203zM20 252q0 82 37 140.5t101.5 90t148.5 31.5q87 0 151 -28.5t99 -84t35 -136.5q0 -13 -0.5 -23.5t-2.5 -24.5h-446v95h310l-41 -59v17.5v17.5q0 46 -23.5 64t-85.5 18q-64 0 -86.5 -20t-22.5 -72v-48q0 -53 23 -72t87 -19q57 0 76.5 10.5 t19.5 32.5v11h188v-12q0 -56 -34 -99t-96 -67.5t-147 -24.5t-151 26t-103 84t-37 152z" />
<glyph unicode="&#xe9;" horiz-adv-x="612" d="M20 252q0 82 37 140.5t101.5 90t148.5 31.5q87 0 151 -28.5t99 -84t35 -136.5q0 -13 -0.5 -23.5t-2.5 -24.5h-446v95h310l-41 -59v17.5v17.5q0 46 -23.5 64t-85.5 18q-64 0 -86.5 -20t-22.5 -72v-48q0 -53 23 -72t87 -19q57 0 76.5 10.5t19.5 32.5v11h188v-12 q0 -56 -34 -99t-96 -67.5t-147 -24.5t-151 26t-103 84t-37 152zM204 560l134 130h272l-202 -130h-204z" />
<glyph unicode="&#xea;" horiz-adv-x="612" d="M20 252q0 82 37 140.5t101.5 90t148.5 31.5q87 0 151 -28.5t99 -84t35 -136.5q0 -13 -0.5 -23.5t-2.5 -24.5h-446v95h310l-41 -59v17.5v17.5q0 46 -23.5 64t-85.5 18q-64 0 -86.5 -20t-22.5 -72v-48q0 -53 23 -72t87 -19q57 0 76.5 10.5t19.5 32.5v11h188v-12 q0 -56 -34 -99t-96 -67.5t-147 -24.5t-151 26t-103 84t-37 152zM59 560l133 130h227l134 -130h-202l-39 42h-12l-40 -42h-201z" />
<glyph unicode="&#xeb;" horiz-adv-x="612" d="M20 252q0 82 37 140.5t101.5 90t148.5 31.5q87 0 151 -28.5t99 -84t35 -136.5q0 -13 -0.5 -23.5t-2.5 -24.5h-446v95h310l-41 -59v17.5v17.5q0 46 -23.5 64t-85.5 18q-64 0 -86.5 -20t-22.5 -72v-48q0 -53 23 -72t87 -19q57 0 76.5 10.5t19.5 32.5v11h188v-12 q0 -56 -34 -99t-96 -67.5t-147 -24.5t-151 26t-103 84t-37 152zM99 560v139h178v-139h-178zM335 560v139h178v-139h-178z" />
<glyph unicode="&#xec;" horiz-adv-x="279" d="M-166 690h272l133 -130h-203zM46 0v500h187v-500h-187z" />
<glyph unicode="&#xed;" horiz-adv-x="279" d="M38 560l134 130h272l-202 -130h-204zM46 0v500h187v-500h-187z" />
<glyph unicode="&#xee;" horiz-adv-x="279" d="M-107 560l133 130h227l134 -130h-202l-39 42h-12l-40 -42h-201zM46 0v500h187v-500h-187z" />
<glyph unicode="&#xef;" horiz-adv-x="279" d="M-67 560v139h178v-139h-178zM46 0v500h187v-500h-187zM169 560v139h178v-139h-178z" />
<glyph unicode="&#xf0;" horiz-adv-x="700" d="M20 234q0 75 30 122.5t85.5 70t129.5 22.5q86 0 133.5 -31t65.5 -81h12q-4 43 -30 87t-67 87t-90.5 83.5t-100.5 75.5h254q43 -23 85.5 -60.5t77 -87.5t55 -112t20.5 -135q0 -89 -39 -153t-117 -98t-195 -34q-157 0 -233 66.5t-76 177.5zM196 563l450 78l17 -83l-450 -78 zM213 232q0 -34 25.5 -46.5t101.5 -12.5q55 0 84 4.5t40 17.5t11 36q0 26 -10 39.5t-38.5 18.5t-86.5 5q-52 0 -79.5 -5t-37.5 -18.5t-10 -38.5z" />
<glyph unicode="&#xf1;" horiz-adv-x="643" d="M30 0v504h176v-155l12 -5v-344h-188zM117 542v50q0 26 7.5 52t30 43.5t66.5 17.5q17 0 38.5 -4.5t49.5 -14.5l34 -12q13 -4 23 -7t17 -3q11 0 16.5 6t5.5 19v7h124v-49q0 -49 -22.5 -81.5t-73.5 -32.5q-23 0 -46 6t-45 13l-46 15q-13 5 -22 7t-15 2q-10 0 -13.5 -5.5 t-3.5 -12.5v-16h-125zM183 351h33q6 42 27.5 79t64 60.5t109.5 23.5q68 0 112.5 -25t66 -68t21.5 -98v-323h-188v254q0 53 -23 72.5t-85 19.5t-82.5 -18.5t-20.5 -67.5h-19z" />
<glyph unicode="&#xf2;" horiz-adv-x="618" d="M3 690h272l133 -130h-203zM15 252q0 82 37 140.5t103.5 90t153.5 31.5q88 0 154 -31.5t103 -90t37 -140.5q0 -81 -37 -140t-103 -90.5t-154 -31.5q-87 0 -153.5 31.5t-103.5 90.5t-37 140zM201 252q0 -55 22 -75.5t86 -20.5t86 20.5t22 75.5t-22 76t-86 21t-86 -21 t-22 -76z" />
<glyph unicode="&#xf3;" horiz-adv-x="618" d="M15 252q0 82 37 140.5t103.5 90t153.5 31.5q88 0 154 -31.5t103 -90t37 -140.5q0 -81 -37 -140t-103 -90.5t-154 -31.5q-87 0 -153.5 31.5t-103.5 90.5t-37 140zM201 252q0 -55 22 -75.5t86 -20.5t86 20.5t22 75.5t-22 76t-86 21t-86 -21t-22 -76zM207 560l134 130h272 l-202 -130h-204z" />
<glyph unicode="&#xf4;" horiz-adv-x="618" d="M15 252q0 82 37 140.5t103.5 90t153.5 31.5q88 0 154 -31.5t103 -90t37 -140.5q0 -81 -37 -140t-103 -90.5t-154 -31.5q-87 0 -153.5 31.5t-103.5 90.5t-37 140zM62 560l133 130h227l134 -130h-202l-39 42h-12l-40 -42h-201zM201 252q0 -55 22 -75.5t86 -20.5t86 20.5 t22 75.5t-22 76t-86 21t-86 -21t-22 -76z" />
<glyph unicode="&#xf5;" horiz-adv-x="618" d="M15 252q0 82 37 140.5t103.5 90t153.5 31.5q88 0 154 -31.5t103 -90t37 -140.5q0 -81 -37 -140t-103 -90.5t-154 -31.5q-87 0 -153.5 31.5t-103.5 90.5t-37 140zM103 542v50q0 26 7.5 52t30 43.5t66.5 17.5q17 0 38.5 -4.5t49.5 -14.5l34 -12q13 -4 23 -7t17 -3 q11 0 16.5 6t5.5 19v7h124v-49q0 -49 -22.5 -81.5t-73.5 -32.5q-23 0 -46 6t-45 13l-46 15q-13 5 -22 7t-15 2q-10 0 -13.5 -5.5t-3.5 -12.5v-16h-125zM201 252q0 -55 22 -75.5t86 -20.5t86 20.5t22 75.5t-22 76t-86 21t-86 -21t-22 -76z" />
<glyph unicode="&#xf6;" horiz-adv-x="618" d="M15 252q0 82 37 140.5t103.5 90t153.5 31.5q88 0 154 -31.5t103 -90t37 -140.5q0 -81 -37 -140t-103 -90.5t-154 -31.5q-87 0 -153.5 31.5t-103.5 90.5t-37 140zM102 560v139h178v-139h-178zM201 252q0 -55 22 -75.5t86 -20.5t86 20.5t22 75.5t-22 76t-86 21t-86 -21 t-22 -76zM338 560v139h178v-139h-178z" />
<glyph unicode="&#xf7;" horiz-adv-x="534" d="M34 258v154h474v-154h-474zM172 31v167h199v-167h-199zM172 472v167h199v-167h-199z" />
<glyph unicode="&#xf8;" horiz-adv-x="618" d="M4 52l543 473l66 -73l-543 -473zM15 252q0 82 37 140.5t103.5 90t153.5 31.5q88 0 154 -31.5t103 -90t37 -140.5q0 -81 -37 -140t-103 -90.5t-154 -31.5q-87 0 -153.5 31.5t-103.5 90.5t-37 140zM201 252q0 -55 22 -75.5t86 -20.5t86 20.5t22 75.5t-22 76t-86 21t-86 -21 t-22 -76z" />
<glyph unicode="&#xf9;" horiz-adv-x="653" d="M22 690h272l133 -130h-203zM30 181v323h188v-254q0 -52 24.5 -72t88.5 -20q65 0 86.5 18.5t21.5 67.5h19l16 -91h-33q-5 -42 -27 -79t-65 -60.5t-112 -23.5q-70 0 -116 25t-68.5 68t-22.5 98zM439 160v344h188v-504h-176v155z" />
<glyph unicode="&#xfa;" horiz-adv-x="653" d="M30 181v323h188v-254q0 -52 24.5 -72t88.5 -20q65 0 86.5 18.5t21.5 67.5h19l16 -91h-33q-5 -42 -27 -79t-65 -60.5t-112 -23.5q-70 0 -116 25t-68.5 68t-22.5 98zM226 560l134 130h272l-202 -130h-204zM439 160v344h188v-504h-176v155z" />
<glyph unicode="&#xfb;" horiz-adv-x="653" d="M30 181v323h188v-254q0 -52 24.5 -72t88.5 -20q65 0 86.5 18.5t21.5 67.5h19l16 -91h-33q-5 -42 -27 -79t-65 -60.5t-112 -23.5q-70 0 -116 25t-68.5 68t-22.5 98zM81 560l133 130h227l134 -130h-202l-39 42h-12l-40 -42h-201zM439 160v344h188v-504h-176v155z" />
<glyph unicode="&#xfc;" horiz-adv-x="653" d="M30 181v323h188v-254q0 -52 24.5 -72t88.5 -20q65 0 86.5 18.5t21.5 67.5h19l16 -91h-33q-5 -42 -27 -79t-65 -60.5t-112 -23.5q-70 0 -116 25t-68.5 68t-22.5 98zM121 560v139h178v-139h-178zM357 560v139h178v-139h-178zM439 160v344h188v-504h-176v155z" />
<glyph unicode="&#xfd;" d="M-10 504h214l87 -198l36 -116h13l33 118l75 196h210l-239 -524q-27 -59 -63.5 -92t-88.5 -45.5t-126 -12.5h-91v170h146q23 0 35 6t18 21l14 34l-18 -84zM222 560l134 130h272l-202 -130h-204z" />
<glyph unicode="&#xfe;" horiz-adv-x="669" d="M30 -170v840h188v-840h-188zM199 130v116h19q0 -35 13.5 -53.5t41 -25t69.5 -6.5q44 0 69.5 9t36.5 29t11 53q0 34 -11 53.5t-36.5 28.5t-69.5 9q-42 0 -69.5 -6.5t-41 -24.5t-13.5 -54h-19v116h29q11 63 56 101.5t134 38.5q74 0 125.5 -31.5t78.5 -90t27 -140.5 t-27 -140.5t-78.5 -90t-125.5 -31.5q-89 0 -134 38.5t-56 101.5h-29z" />
<glyph unicode="&#xff;" d="M-10 504h214l87 -198l36 -116h13l33 118l75 196h210l-239 -524q-27 -59 -63.5 -92t-88.5 -45.5t-126 -12.5h-91v170h146q23 0 35 6t18 21l14 34l-18 -84zM117 560v139h178v-139h-178zM353 560v139h178v-139h-178z" />
<glyph unicode="&#x152;" horiz-adv-x="1141" d="M20 335q0 106 44 181t123.5 114.5t184.5 39.5h206v-169h-206q-55 0 -88 -10t-47.5 -45t-14.5 -111q0 -75 14.5 -110.5t47.5 -45.5t88 -10h206v-169h-206q-105 0 -184.5 39.5t-123.5 114.5t-44 181zM523 0v670h188v-670h-188zM574 0v169h544v-169h-544zM574 253v168h529 v-168h-529zM574 501v169h544v-169h-544z" />
<glyph unicode="&#x153;" horiz-adv-x="1021" d="M15 252q0 82 37 140.5t103.5 90t153.5 31.5q88 0 154 -31.5t103 -90t37 -140.5q0 -81 -37 -140t-103 -90.5t-154 -31.5q-87 0 -153.5 31.5t-103.5 90.5t-37 140zM201 252q0 -55 22 -75.5t86 -20.5t86 20.5t22 75.5t-22 76t-86 21t-86 -21t-22 -76zM429 252q0 82 37 140.5 t101.5 90t148.5 31.5q87 0 151 -28.5t99 -84t35 -136.5q0 -13 -0.5 -23.5t-2.5 -24.5h-446v95h310l-41 -59v17.5v17.5q0 46 -23.5 64t-85.5 18q-64 0 -86.5 -20t-22.5 -72v-48q0 -53 23 -72t87 -19q57 0 76.5 10.5t19.5 32.5v11h188v-12q0 -56 -34 -99t-96 -67.5t-147 -24.5 t-151 26t-103 84t-37 152z" />
<glyph unicode="&#x178;" horiz-adv-x="766" d="M-15 670h233l101 -159l57 -94h13l57 94l101 159h234l-308 -459h-186zM176 730v139h178v-139h-178zM286 0v318h188v-318h-188zM412 730v139h178v-139h-178z" />
<glyph unicode="&#x2000;" horiz-adv-x="437" />
<glyph unicode="&#x2001;" horiz-adv-x="875" />
<glyph unicode="&#x2002;" horiz-adv-x="437" />
<glyph unicode="&#x2003;" horiz-adv-x="875" />
<glyph unicode="&#x2004;" horiz-adv-x="291" />
<glyph unicode="&#x2005;" horiz-adv-x="218" />
<glyph unicode="&#x2006;" horiz-adv-x="145" />
<glyph unicode="&#x2007;" horiz-adv-x="145" />
<glyph unicode="&#x2008;" horiz-adv-x="109" />
<glyph unicode="&#x2009;" horiz-adv-x="175" />
<glyph unicode="&#x200a;" horiz-adv-x="48" />
<glyph unicode="&#x2010;" horiz-adv-x="481" d="M30 217v160h421v-160h-421z" />
<glyph unicode="&#x2011;" horiz-adv-x="481" d="M30 217v160h421v-160h-421z" />
<glyph unicode="&#x2012;" horiz-adv-x="481" d="M30 217v160h421v-160h-421z" />
<glyph unicode="&#x2013;" horiz-adv-x="626" d="M30 217v160h566v-160h-566z" />
<glyph unicode="&#x2014;" horiz-adv-x="1108" d="M30 217v160h1048v-160h-1048z" />
<glyph unicode="&#x2018;" horiz-adv-x="304" d="M30 312v192h244v-192h-244zM30 481v36q0 77 43.5 115t122.5 38h69v-116h-63q-18 0 -26.5 -7t-8.5 -29v-37h-137z" />
<glyph unicode="&#x2019;" horiz-adv-x="304" d="M30 478v192h244v-192h-244zM39 312v116h63q18 0 26.5 7t8.5 29v37h137v-36q0 -77 -43.5 -115t-122.5 -38h-69z" />
<glyph unicode="&#x201a;" horiz-adv-x="304" d="M30 0v192h244v-192h-244zM39 -50h63q18 0 26.5 7t8.5 29v37h137v-36q0 -77 -43.5 -115t-122.5 -38h-69v116z" />
<glyph unicode="&#x201c;" horiz-adv-x="598" d="M30 312v192h244v-192h-244zM30 481v36q0 77 43.5 115t122.5 38h69v-116h-63q-18 0 -26.5 -7t-8.5 -29v-37h-137zM324 312v192h244v-192h-244zM324 481v36q0 77 43.5 115t122.5 38h69v-116h-63q-18 0 -26.5 -7t-8.5 -29v-37h-137z" />
<glyph unicode="&#x201d;" horiz-adv-x="598" d="M30 478v192h244v-192h-244zM39 312v116h63q18 0 26.5 7t8.5 29v37h137v-36q0 -77 -43.5 -115t-122.5 -38h-69zM324 478v192h244v-192h-244zM333 312v116h63q18 0 26.5 7t8.5 29v37h137v-36q0 -77 -43.5 -115t-122.5 -38h-69z" />
<glyph unicode="&#x201e;" horiz-adv-x="598" d="M30 0v192h244v-192h-244zM39 -50h63q18 0 26.5 7t8.5 29v37h137v-36q0 -77 -43.5 -115t-122.5 -38h-69v116zM324 0v192h244v-192h-244zM333 -50h63q18 0 26.5 7t8.5 29v37h137v-36q0 -77 -43.5 -115t-122.5 -38h-69v116z" />
<glyph unicode="&#x2022;" horiz-adv-x="369" d="M20 335q0 52 22.5 88.5t59.5 56.5t82 20q46 0 83 -20t59.5 -56.5t22.5 -88.5q0 -51 -22.5 -88t-59.5 -57t-83 -20q-45 0 -82 20t-59.5 57t-22.5 88z" />
<glyph unicode="&#x2026;" horiz-adv-x="912" d="M30 0v192h244v-192h-244zM334 0v192h244v-192h-244zM638 0v192h244v-192h-244z" />
<glyph unicode="&#x202f;" horiz-adv-x="175" />
<glyph unicode="&#x2039;" horiz-adv-x="260" d="M30 200v210l200 130v-192l-75 -36v-14l75 -36v-192z" />
<glyph unicode="&#x203a;" horiz-adv-x="260" d="M30 70v192l75 36v14l-75 36v192l200 -130v-210z" />
<glyph unicode="&#x205f;" horiz-adv-x="218" />
<glyph unicode="&#x20ac;" horiz-adv-x="674" d="M10 204v114h527v-114h-527zM10 350v114h527v-114h-527zM87 335q0 106 44 181t125.5 114.5t191.5 39.5h196v-169h-196q-59 0 -94 -10t-50 -45t-15 -111q0 -75 15 -110.5t50 -45.5t94 -10h196v-169h-196q-110 0 -191.5 39.5t-125.5 114.5t-44 181z" />
<glyph unicode="&#x2122;" horiz-adv-x="553" d="M20 592v78h225v-78h-70v-123h-85v123h-70zM265 469v201h107l26 -124h3l24 124h108v-201h-76v52l2 51h-4l-10 -80h-89l-15 80h-3l3 -52v-51h-76z" />
</font>
</defs>
</svg>
