<?xml version="1.0" standalone="no"?>
<!DOCTYPE svg PUBLIC "-//W3C//DTD SVG 1.1//EN" "http://www.w3.org/Graphics/SVG/1.1/DTD/svg11.dtd" >
<svg xmlns="http://www.w3.org/2000/svg" xmlns:xlink="http://www.w3.org/1999/xlink" version="1.1">
<metadata></metadata>
<defs>
<font id="clash_displaybold" horiz-adv-x="1327" >
<font-face units-per-em="2048" ascent="1638" descent="-410" />
<missing-glyph horiz-adv-x="286" />
<glyph unicode="&#xfb01;" horiz-adv-x="1337" d="M10 717v315h148q32 153 178.5 246.5t390.5 93.5h82v-274h-143q-85 0 -121 -13.5t-35 -52.5h299v-315h-274v-717h-385v717h-140zM891 0v1032h385v-1032h-385zM891 1126v246h385v-246h-385z" />
<glyph unicode="&#xfb02;" horiz-adv-x="1337" d="M10 717v315h148q32 153 178.5 246.5t390.5 93.5h82v-274h-143q-85 0 -121 -13.5t-35 -52.5h299v-315h-274v-717h-385v717h-140zM891 0v1372h385v-1372h-385z" />
<glyph unicode="&#xfb03;" horiz-adv-x="2166" d="M10 717v315h148q32 153 178.5 246.5t390.5 93.5h82v-274h-143q-85 0 -121 -13.5t-35 -52.5h299v-315h-274v-717h-385v717h-140zM840 717v315h147q32 153 178.5 246.5t390.5 93.5h82v-274h-143q-85 0 -121 -13.5t-35 -52.5h299v-315h-274v-717h-385v717h-139zM1720 0v1032 h385v-1032h-385zM1720 1126v246h385v-246h-385z" />
<glyph unicode="&#xfb04;" horiz-adv-x="2166" d="M10 717v315h148q32 153 178.5 246.5t390.5 93.5h82v-274h-143q-85 0 -121 -13.5t-35 -52.5h299v-315h-274v-717h-385v717h-140zM840 717v315h147q32 153 178.5 246.5t390.5 93.5h82v-274h-143q-85 0 -121 -13.5t-35 -52.5h299v-315h-274v-717h-385v717h-139zM1720 0v1372 h385v-1372h-385z" />
<glyph horiz-adv-x="0" />
<glyph horiz-adv-x="682" />
<glyph unicode="&#xd;" horiz-adv-x="1228" />
<glyph unicode=" "  horiz-adv-x="286" />
<glyph unicode="&#x09;" horiz-adv-x="286" />
<glyph unicode="&#xa0;" horiz-adv-x="286" />
<glyph unicode="!" horiz-adv-x="720" d="M111 1229v143h499v-143q0 -82 -26.5 -397t-26.5 -381h-393q0 67 -26.5 382t-26.5 396zM139 0v362h441v-362h-441z" />
<glyph unicode="&#x22;" horiz-adv-x="1013" d="M41 1040v332h399v-332l-78 -323h-241zM573 1040v332h400v-332l-80 -323h-242z" />
<glyph unicode="#" horiz-adv-x="1804" d="M41 244v344h334l57 143h-272v344h409l119 297h375l-119 -297h225l119 297h375l-119 -297h219v-344h-356l-57 -143h292v-344h-430l-98 -244h-375l99 244h-226l-98 -244h-375l99 244h-197zM735 582h248l64 157h-248z" />
<glyph unicode="$" horiz-adv-x="1400" d="M31 944q0 62 17 119t57.5 111.5t100.5 97t151.5 73t205.5 41.5v191h359v-205q209 -42 314 -165t105 -312v-12h-385v30q0 52 -21.5 78.5t-86 39.5t-193.5 13q-141 0 -190 -19.5t-49 -66.5q0 -33 21.5 -49.5t76.5 -23.5l430 -64q426 -62 426 -397q0 -77 -25.5 -144.5 t-78 -125.5t-140.5 -99.5t-204 -60.5v-199h-359v193q-512 59 -512 489v12h385v-43q0 -49 19.5 -72t80.5 -33.5t191 -10.5q116 0 171 8t71 23.5t16 48.5q0 38 -28 56t-111 28l-430 57q-191 26 -288 126t-97 267z" />
<glyph unicode="%" horiz-adv-x="1685" d="M20 1053q0 162 99.5 253t271.5 91t271.5 -91t99.5 -253q0 -161 -99.5 -251.5t-271.5 -90.5t-271.5 90.5t-99.5 251.5zM76 0l1165 1372h371l-1166 -1372h-370zM289 1053q0 -59 20.5 -78t81.5 -19t82 19t21 78q0 60 -21 80t-82 20q-60 0 -81 -20t-21 -80zM924 319 q0 162 99.5 253.5t270.5 91.5t271 -91.5t100 -253.5q0 -161 -99.5 -251.5t-271.5 -90.5t-271 90.5t-99 251.5zM1192 319q0 -59 20.5 -77.5t81.5 -18.5t82 18.5t21 77.5q0 60 -21.5 80.5t-81.5 20.5t-81 -20.5t-21 -80.5z" />
<glyph unicode="&#x26;" horiz-adv-x="1583" d="M41 385q0 153 92.5 236t251.5 94v26q-136 12 -208.5 92t-72.5 199q0 369 570 369h215v-350h-271q-72 0 -100.5 -18.5t-28.5 -80.5q0 -59 27.5 -76.5t91.5 -17.5h357v174h378v-174h199v-315h-199v-35q0 -100 -19 -179t-64.5 -145.5t-118.5 -110.5t-185 -68.5t-260 -24.5 q-323 0 -489 98t-166 307zM432 436q0 -43 22 -64.5t81 -31.5t176 -10q74 0 113 3t71.5 10.5t45 26t18.5 45t6 72.5v56h-408q-64 0 -94.5 -22t-30.5 -85z" />
<glyph unicode="'" horiz-adv-x="481" d="M41 1040v332h399v-332l-78 -323h-241z" />
<glyph unicode="(" horiz-adv-x="714" d="M41 686q0 109 28 214.5t71 189t106.5 166t122.5 142t131 122.5l194 -179q-100 -138 -147.5 -234.5t-63.5 -186.5t-16 -234t16 -234t63.5 -186.5t147.5 -234.5l-194 -178q-72 63 -131 122t-122.5 142t-106.5 166t-71 188.5t-28 214.5z" />
<glyph unicode=")" horiz-adv-x="804" d="M82 31q100 138 147.5 234.5t63.5 186.5t16 234t-16 234t-63.5 186.5t-147.5 234.5l194 179q72 -63 131 -122.5t122.5 -142t106.5 -166t71 -189t28 -214.5t-28 -214.5t-71 -188.5t-106.5 -166t-122.5 -142t-131 -122z" />
<glyph unicode="*" horiz-adv-x="839" d="M20 1016l82 256l183 -78l16 14l-16 193h270l-16 -193l16 -14l184 76l80 -256l-188 -45l-8 -21l127 -147l-222 -160l-96 166h-24l-103 -164l-219 158l125 147l-6 21z" />
<glyph unicode="+" horiz-adv-x="1093" d="M61 528v316h322v327h328v-327h321v-316h-321v-327h-328v327h-322z" />
<glyph unicode="," horiz-adv-x="622" d="M61 0v393h500v-420q0 -156 -88 -234.5t-252 -78.5h-141v238h129q39 0 55.5 15.5t16.5 57.5v29h-220z" />
<glyph unicode="-" horiz-adv-x="985" d="M61 444v328h863v-328h-863z" />
<glyph unicode="." horiz-adv-x="622" d="M61 0v393h500v-393h-500z" />
<glyph unicode="/" horiz-adv-x="1052" d="M-41 -41l737 1454h412l-737 -1454h-412z" />
<glyph unicode="0" horiz-adv-x="1501" d="M41 686q0 323 184.5 515t526.5 192q228 0 389 -90t240 -247.5t79 -369.5q0 -324 -183.5 -515t-524.5 -191q-229 0 -390.5 89t-241 246.5t-79.5 370.5zM455 686q0 -193 61 -262.5t236 -69.5q173 0 234 70t61 262t-61 262t-234 70q-175 0 -236 -69.5t-61 -262.5z" />
<glyph unicode="1" horiz-adv-x="833" d="M20 942v260h52q124 0 206.5 36t135.5 134h358v-1372h-385v942h-367z" />
<glyph unicode="2" horiz-adv-x="1351" d="M27 0v242q0 175 91 276.5t312 171.5l373 119q68 22 95.5 47.5t27.5 71.5q0 39 -14.5 61.5t-68 37.5t-153.5 15q-113 0 -174.5 -20.5t-83.5 -58t-22 -103.5v-26h-377v30q0 85 23 161t75 144t128.5 117.5t190.5 78t255 28.5q159 0 277 -33.5t189.5 -97t105.5 -148 t34 -192.5q0 -183 -109.5 -287.5t-308.5 -153.5l-307 -75q-33 -9 -43.5 -11.5t-35.5 -10.5t-33 -14t-21 -16.5t-17 -24t-4 -30.5l385 47h490v-346h-1280z" />
<glyph unicode="3" horiz-adv-x="1409" d="M41 479v33h410v-37q0 -30 1.5 -45t9.5 -32.5t23 -24.5t44 -14t69.5 -9t103.5 -2q175 0 235 21t60 84q0 50 -30 70t-99 20h-407v315h379q55 0 77.5 19t22.5 59q0 35 -18 52.5t-69.5 26.5t-154.5 9q-108 0 -159 -11t-69.5 -36.5t-18.5 -79.5v-6h-410v2q0 235 176 367.5 t518 132.5q288 0 438 -92.5t150 -276.5q0 -121 -71.5 -194.5t-207.5 -88.5v-26q162 -18 253.5 -98t91.5 -230q0 -200 -174 -303.5t-494 -103.5q-680 0 -680 499z" />
<glyph unicode="4" horiz-adv-x="1476" d="M20 248v260l805 864h447v-778h184v-346h-184v-248h-385v248h-867zM557 594h330v338h-27l-303 -311v-27z" />
<glyph unicode="5" horiz-adv-x="1484" d="M61 438v13h398v-13q0 -43 21.5 -64.5t85 -32.5t188.5 -11q111 0 167 15.5t74.5 46.5t18.5 91q0 63 -18.5 94.5t-74.5 47.5t-167 16q-143 0 -209.5 -17.5t-85.5 -68.5h-391l82 817h1191v-346h-849l-37 -281h20q13 33 44 65.5t83 63t134.5 49.5t183.5 19q503 0 503 -455 q0 -239 -164.5 -373t-510.5 -134q-347 0 -517 109.5t-170 348.5z" />
<glyph unicode="6" horiz-adv-x="1470" d="M37 676q0 186 53 326t149 224.5t221 125.5t279 41q302 0 477 -128.5t175 -342.5v-19h-430v19q0 66 -47 84t-175 18q-84 0 -132.5 -8.5t-87 -36.5t-53.5 -81.5t-15 -143.5v-74h26q51 75 155.5 121.5t266.5 46.5q260 0 392 -100t132 -312q0 -213 -165.5 -334.5 t-479.5 -121.5q-392 0 -566.5 168t-174.5 528zM473 465q0 -43 20.5 -66t82.5 -36t180 -13q108 0 165.5 13t77 36t19.5 66q0 48 -20 72.5t-76 36.5t-166 12q-123 0 -183.5 -12.5t-80 -36.5t-19.5 -72z" />
<glyph unicode="7" horiz-adv-x="1251" d="M20 1026v346h1231v-309q-73 -71 -117.5 -116t-102 -106.5t-91.5 -105t-75 -101.5t-64.5 -107t-48 -111.5t-36.5 -124.5t-20 -135.5t-8 -155.5h-446q0 123 22.5 234.5t55.5 195t88 163t103 132t117.5 109t115 88t111.5 74.5q3 2 5 3v27h-840z" />
<glyph unicode="8" horiz-adv-x="1421" d="M31 379q0 273 317 336v26q-272 52 -272 289q0 172 163 267.5t472 95.5q312 0 475.5 -95t163.5 -268q0 -238 -277 -289v-26q70 -12 124 -34.5t99.5 -60.5t70 -99t24.5 -142q0 -103 -48 -180t-138.5 -124.5t-213 -71t-278.5 -23.5q-158 0 -281.5 23.5t-214 71t-138.5 124.5 t-48 180zM422 463q0 -43 23 -67t86 -36t180 -12t180 12t85.5 36t22.5 67q0 44 -22 66.5t-83 33t-183 10.5t-183.5 -10.5t-83.5 -33t-22 -66.5zM461 928q0 -52 51 -73t199 -21q105 0 161 10.5t75.5 29.5t19.5 54q0 39 -20 58.5t-74 28.5t-162 9q-104 0 -157 -9t-73 -28.5 t-20 -58.5z" />
<glyph unicode="9" horiz-adv-x="1470" d="M37 936q0 214 165.5 335.5t479.5 121.5q392 0 566.5 -168.5t174.5 -528.5q0 -186 -52 -326t-146 -224t-216.5 -125t-273.5 -41q-302 0 -476.5 128.5t-174.5 342.5v18h430v-18q0 -66 46.5 -84.5t174.5 -18.5q80 0 126.5 8.5t83 36.5t51 81.5t14.5 143.5v74h-27 q-51 -75 -155.5 -121.5t-266.5 -46.5q-260 0 -392 100t-132 312zM442 907q0 -47 20 -72t76.5 -37t166.5 -12q123 0 183.5 12.5t79.5 36.5t19 72q0 43 -20 66t-82 36t-180 13q-108 0 -166 -12.5t-77.5 -36t-19.5 -66.5z" />
<glyph unicode=":" horiz-adv-x="622" d="M61 0v393h500v-393h-500zM61 641v393h500v-393h-500z" />
<glyph unicode=";" horiz-adv-x="622" d="M61 0v393h500v-420q0 -156 -88 -234.5t-252 -78.5h-141v238h129q39 0 55.5 15.5t16.5 57.5v29h-220zM61 641v393h500v-393h-500z" />
<glyph unicode="&#x3c;" horiz-adv-x="1093" d="M53 455v463l971 253v-354l-625 -119v-24l625 -119v-354z" />
<glyph unicode="=" horiz-adv-x="1093" d="M61 289v315h971v-315h-971zM61 764v315h973v-315h-973z" />
<glyph unicode="&#x3e;" horiz-adv-x="1093" d="M61 201v354l625 119v24l-625 119v354l971 -253v-463z" />
<glyph unicode="?" horiz-adv-x="1335" d="M20 803v61q0 86 23 162.5t75 144.5t130 116.5t195 77t262 28.5q155 0 271 -31.5t184 -89t101 -130t33 -161.5q0 -65 -17 -119t-43 -89.5t-65 -65.5t-73.5 -47.5t-79.5 -34.5l-154 -58q-51 -20 -66.5 -42t-15.5 -58v-10h-385v75q0 62 21 110.5t61 82t80 55t96 41.5l144 53 q64 23 88 42t24 51q0 19 -7 30.5t-29 22.5t-71 16.5t-126 5.5q-108 0 -169 -16t-84.5 -45.5t-23.5 -79.5v-98h-379zM369 0v362h440v-362h-440z" />
<glyph unicode="@" horiz-adv-x="1886" d="M41 494q0 193 66 352t187.5 270.5t299.5 172.5t395 61q408 0 632 -200.5t224 -537.5q0 -248 -118.5 -388t-317.5 -140q-147 0 -242.5 50.5t-128.5 137.5h-22q-14 -78 -70 -133t-160 -55q-65 0 -119.5 22.5t-99 69.5t-69.5 130t-25 196q0 207 89 311.5t231 104.5 q98 0 159 -51.5t70 -139.5h20v174h336v-471q0 -33 14.5 -48t45.5 -15q37 0 54 15.5t24.5 59.5t7.5 138q0 133 -28 219t-95.5 139t-170.5 74.5t-263 21.5q-118 0 -203.5 -10.5t-152.5 -36.5t-109.5 -65.5t-70 -101.5t-39 -140t-11.5 -186q0 -203 46 -312t151 -154.5 t299 -45.5q169 0 313 38l59 -253q-106 -36 -199 -54t-216 -18q-374 0 -583.5 209.5t-209.5 589.5zM827 502q0 -91 21 -125.5t78 -34.5t76.5 26t19.5 95v78q0 67 -19.5 92.5t-76.5 25.5t-78 -33t-21 -124z" />
<glyph unicode="A" horiz-adv-x="1695" d="M-20 0l591 1372h551l594 -1372h-442l-105 254h-651l-106 -254h-432zM664 600h364l-80 193l-90 231h-27l-88 -231z" />
<glyph unicode="B" horiz-adv-x="1462" d="M61 0v1372h873q221 0 332.5 -84.5t111.5 -247.5q0 -297 -342 -311v-20q201 -7 303.5 -94t102.5 -234q0 -181 -112 -281t-349 -100h-920zM444 346h488q70 0 95.5 19.5t25.5 76.5t-25 76t-96 19h-488v-191zM444 852h449q58 0 79 19t21 67q0 47 -25 67.5t-85 20.5h-439v-174 z" />
<glyph unicode="C" horiz-adv-x="1576" d="M41 686q0 324 201.5 515.5t556.5 191.5q346 0 541.5 -155.5t195.5 -430.5v-35h-430v35q0 119 -66.5 168t-234.5 49q-108 0 -173.5 -14t-107.5 -53.5t-57.5 -102.5t-15.5 -168t15.5 -168t57.5 -102.5t107.5 -53.5t173.5 -14q168 0 234.5 49t66.5 168v35h430v-35 q0 -275 -195.5 -430t-541.5 -155q-355 0 -556.5 191t-201.5 515z" />
<glyph unicode="D" horiz-adv-x="1558" d="M84 0v1372h694q343 0 541.5 -181.5t198.5 -504.5t-198.5 -504.5t-541.5 -181.5h-694zM469 346h309q67 0 109.5 3.5t83.5 16t63.5 34.5t40.5 60.5t24.5 93t6.5 132.5t-6.5 132.5t-24.5 93t-40.5 60.5t-63.5 34.5t-83.5 16t-109.5 3.5h-309v-680z" />
<glyph unicode="E" d="M61 0v1372h1219v-346h-834v-164h803v-344h-803v-172h834v-346h-1219z" />
<glyph unicode="F" d="M61 0v1372h1227v-346h-842v-205h811v-344h-811v-477h-385z" />
<glyph unicode="G" horiz-adv-x="1632" d="M41 686q0 324 211.5 515.5t583.5 191.5q348 0 544.5 -145t196.5 -400v-14h-430v14q0 97 -70.5 136.5t-251.5 39.5q-92 0 -153 -9.5t-106 -31t-69 -61.5t-35 -96t-11 -140q0 -105 15.5 -168t57.5 -102.5t107.5 -53.5t173.5 -14q221 0 296.5 21.5t88.5 97.5h-422v283h811 v-750h-358v293h-21q-72 -313 -475 -313q-321 0 -502.5 191t-181.5 515z" />
<glyph unicode="H" horiz-adv-x="1531" d="M61 0v1372h385v-510h639v510h385v-1372h-385v516h-639v-516h-385z" />
<glyph unicode="I" horiz-adv-x="507" d="M61 0v1372h385v-1372h-385z" />
<glyph unicode="J" horiz-adv-x="1359" d="M20 588v53h410v-49q0 -54 1.5 -83.5t9.5 -61t22 -46t40.5 -28t64.5 -17.5t94 -4t93.5 4t64.5 15.5t41.5 25.5t23 42t10.5 56t2 76v801h410v-805q0 -147 -35 -254t-111 -182.5t-200 -113t-299 -37.5q-343 0 -492.5 150.5t-149.5 457.5z" />
<glyph unicode="K" horiz-adv-x="1497" d="M61 0v1372h385v-510h277l334 510h461l-476 -674l465 -698h-460l-320 487h-281v-487h-385z" />
<glyph unicode="L" horiz-adv-x="1280" d="M61 0v1372h385v-1026h793v-346h-1178z" />
<glyph unicode="M" horiz-adv-x="1949" d="M61 0v1372h523l252 -569l135 -354h26l129 354l240 569h522v-1372h-385v567l15 230h-27l-78 -230l-205 -485h-467l-204 485l-78 230h-27l14 -230v-567h-385z" />
<glyph unicode="N" horiz-adv-x="1507" d="M61 0v1372h410l381 -514l201 -315h26l-18 299v530h385v-1372h-410l-405 528l-174 271h-27l16 -262v-537h-385z" />
<glyph unicode="O" horiz-adv-x="1609" d="M41 686q0 324 202.5 515.5t557.5 191.5q362 0 565 -191t203 -516t-202.5 -515.5t-565.5 -190.5q-355 0 -557.5 191t-202.5 515zM451 686q0 -105 15 -168t56 -102.5t106 -53.5t173 -14q109 0 174.5 14t108.5 53.5t59 103t16 167.5t-16 167.5t-59 103t-108.5 53.5 t-174.5 14q-108 0 -173 -14t-106 -53.5t-56 -102.5t-15 -168z" />
<glyph unicode="P" horiz-adv-x="1372" d="M61 0v1372h760q247 0 389 -135t142 -377q0 -243 -142.5 -378.5t-388.5 -135.5h-375v-346h-385zM446 692h332q107 0 149 33.5t42 134.5q0 100 -42 133t-149 33h-332v-334z" />
<glyph unicode="Q" horiz-adv-x="1609" d="M41 686q0 324 202.5 515.5t557.5 191.5q362 0 565 -191t203 -516q0 -239 -111 -407.5t-319 -243.5l299 -324h-506l-223 273q-314 25 -491 213t-177 489zM451 686q0 -105 15 -168t56 -102.5t106 -53.5t173 -14q109 0 174.5 14t108.5 53.5t59 103t16 167.5t-16 167.5 t-59 103t-108.5 53.5t-174.5 14q-108 0 -173 -14t-106 -53.5t-56 -102.5t-15 -168z" />
<glyph unicode="R" horiz-adv-x="1452" d="M61 0v1372h801q270 0 411.5 -109t141.5 -311q0 -166 -89 -260.5t-282 -118.5v-20q68 -18 114 -49.5t70.5 -66t53.5 -93.5l170 -344h-444l-164 336q-26 54 -52 80.5t-69 38.5t-119 12h-158v-467h-385zM446 754h412q89 0 121.5 26.5t32.5 110.5q0 80 -33.5 107.5 t-120.5 27.5h-412v-272z" />
<glyph unicode="S" horiz-adv-x="1400" d="M31 944q0 68 21 131t71 121.5t124.5 101.5t189.5 69t259 26q320 0 482.5 -131t162.5 -367v-12h-385v30q0 52 -21.5 78.5t-86 39.5t-193.5 13q-141 0 -190 -19.5t-49 -66.5q0 -33 21.5 -49.5t76.5 -23.5l430 -64q426 -62 426 -397q0 -73 -22 -137t-71.5 -121t-123 -98 t-182.5 -64.5t-244 -23.5q-325 0 -500.5 121.5t-175.5 375.5v12h385v-43q0 -49 19.5 -72t80.5 -33.5t191 -10.5q116 0 171 8t71 23.5t16 48.5q0 38 -28 56t-111 28l-430 57q-191 26 -288 126t-97 267z" />
<glyph unicode="T" horiz-adv-x="1415" d="M31 1026v346h1353v-346h-483v-1026h-385v1026h-485z" />
<glyph unicode="U" horiz-adv-x="1507" d="M53 575v797h385v-766q0 -102 25 -154t92.5 -76t198.5 -24q99 0 159 11.5t95.5 43t48 77t12.5 122.5v766h385v-797q0 -282 -175 -438.5t-525 -156.5t-525.5 156.5t-175.5 438.5z" />
<glyph unicode="V" horiz-adv-x="1613" d="M-20 1372h464l355 -983h26l346 983h463l-551 -1372h-553z" />
<glyph unicode="W" horiz-adv-x="2299" d="M18 1372h431l114 -698l37 -309h27l55 309l184 698h580l168 -698l49 -309h27l41 309l129 698h421l-313 -1372h-571l-144 588l-90 430h-26l-97 -430l-163 -588h-572z" />
<glyph unicode="X" horiz-adv-x="1638" d="M-20 0l518 674v26l-518 672h503l332 -444h27l313 444h504l-516 -680v-26l516 -666h-504l-330 446h-26l-316 -446h-503z" />
<glyph unicode="Y" horiz-adv-x="1568" d="M-31 1372h477l207 -325l117 -193h27l116 193l207 325h479l-628 -938v-434h-385v436z" />
<glyph unicode="Z" horiz-adv-x="1427" d="M51 0v346l731 653v27h-719v346h1301v-346l-764 -653v-27h776v-346h-1325z" />
<glyph unicode="[" horiz-adv-x="669" d="M61 -123v1618h588v-315h-231v-987h231v-316h-588z" />
<glyph unicode="\" horiz-adv-x="1067" d="M-41 1413h412l737 -1454h-412z" />
<glyph unicode="]" horiz-adv-x="720" d="M31 -123v316h231v987h-231v315h587v-1618h-587z" />
<glyph unicode="^" horiz-adv-x="1079" d="M61 573l252 799h455l250 -799h-359l-106 451h-27l-106 -451h-359z" />
<glyph unicode="_" horiz-adv-x="778" d="M20 0h738v-272h-738v272z" />
<glyph unicode="a" horiz-adv-x="1218" d="M31 262q0 113 82.5 184.5t251.5 88.5l419 40v21q0 75 -37.5 98t-144.5 23q-96 0 -131 -23.5t-35 -87.5v-8h-385v4q0 205 158.5 328t421.5 123q265 0 399.5 -122t134.5 -343v-588h-360v217h-21q-30 -112 -128 -174.5t-261 -62.5q-174 0 -269 74.5t-95 207.5zM418 287 q0 -23 22 -31t70 -8q144 0 204.5 23.5t67.5 90.5l-315 -36q-49 -6 -49 -39z" />
<glyph unicode="b" horiz-adv-x="1370" d="M61 0v1372h385v-606h21q52 287 389 287q226 0 349.5 -142t123.5 -395t-127.5 -394.5t-361.5 -141.5q-181 0 -277 72.5t-121 226.5h-20v-279h-361zM446 514q0 -107 58.5 -144.5t195.5 -37.5q134 0 187 40.5t53 143.5t-53.5 144.5t-186.5 41.5q-138 0 -196 -35t-58 -139 v-14z" />
<glyph unicode="c" horiz-adv-x="1259" d="M41 516q0 251 161.5 394t438.5 143q263 0 420.5 -125t157.5 -332v-33h-383v17q0 75 -50 102t-153 27q-113 0 -161 -38.5t-48 -154.5q0 -114 48 -152t161 -38q103 0 153 26.5t50 100.5v18h383v-35q0 -206 -157.5 -331t-420.5 -125q-276 0 -438 143.5t-162 392.5z" />
<glyph unicode="d" horiz-adv-x="1370" d="M41 516q0 253 123.5 395t349.5 142q337 0 389 -287h21v606h385v-1372h-361v279h-20q-25 -154 -121 -226.5t-277 -72.5q-234 0 -361.5 141.5t-127.5 394.5zM430 516q0 -103 53 -143.5t187 -40.5q137 0 195.5 37.5t58.5 144.5v14q0 104 -58.5 139t-195.5 35 q-133 0 -186.5 -41.5t-53.5 -144.5z" />
<glyph unicode="e" horiz-adv-x="1253" d="M41 516q0 248 163 392.5t425 144.5q271 0 427 -132.5t156 -377.5q0 -43 -6 -99h-809q4 -93 52.5 -126t173.5 -33q113 0 154.5 20t41.5 68v22h385v-24q0 -174 -154.5 -282.5t-412.5 -108.5q-135 0 -241.5 30t-187 92.5t-124 167t-43.5 246.5zM403 639h437q-10 65 -60.5 92 t-158.5 27q-107 0 -156.5 -26.5t-61.5 -92.5z" />
<glyph unicode="f" horiz-adv-x="829" d="M10 717v315h148q32 153 178.5 246.5t390.5 93.5h82v-274h-143q-85 0 -121 -13.5t-35 -52.5h299v-315h-274v-717h-385v717h-140z" />
<glyph unicode="g" horiz-adv-x="1349" d="M41 586q0 218 130 342.5t359 124.5q160 0 258 -65.5t119 -196.5h21v241h360v-858q0 -273 -157 -408t-459 -135q-271 0 -420.5 110t-149.5 312h385q0 -47 11 -66t55 -28.5t145 -9.5q67 0 103 6t61 28t33 59.5t8 104.5v218h-20q-21 -118 -110 -184t-253 -66 q-229 0 -354 124t-125 347zM430 586q0 -78 48.5 -110t180.5 -32q136 0 190 25.5t54 103.5v15q0 80 -54 106.5t-190 26.5q-133 0 -181 -29.5t-48 -105.5z" />
<glyph unicode="h" horiz-adv-x="1337" d="M61 0v1372h385v-653h21q13 69 42 126.5t77 105.5t123 75t170 27q198 0 301.5 -112t103.5 -292v-649h-385v520q0 107 -49.5 148t-181.5 41q-131 0 -176.5 -37.5t-45.5 -139.5v-532h-385z" />
<glyph unicode="i" horiz-adv-x="507" d="M61 0v1032h385v-1032h-385zM61 1126v246h385v-246h-385z" />
<glyph unicode="j" horiz-adv-x="507" d="M-53 -66h39q39 0 57 17t18 57v1024h385v-966q0 -120 -30 -202t-91.5 -128t-143 -65t-197.5 -19h-37v282zM61 1126v246h385v-246h-385z" />
<glyph unicode="k" horiz-adv-x="1290" d="M61 0v1372h385v-698h183l227 358h455l-367 -502l361 -530h-455l-217 330h-187v-330h-385z" />
<glyph unicode="l" horiz-adv-x="507" d="M61 0v1372h385v-1372h-385z" />
<glyph unicode="m" horiz-adv-x="2052" d="M61 0v1032h361v-313h20q9 69 32.5 125.5t66 105t113.5 76t165 27.5q174 0 269.5 -92.5t111.5 -241.5h21q9 69 33.5 125.5t68.5 105t117 76t170 27.5q191 0 290 -108t99 -283v-662h-385v520q0 109 -41.5 149t-159.5 40q-115 0 -152.5 -37t-37.5 -140v-532h-385v520 q0 109 -41.5 149t-159.5 40q-116 0 -153.5 -37t-37.5 -140v-532h-385z" />
<glyph unicode="n" horiz-adv-x="1316" d="M61 0v1032h361v-313h20q9 68 36 125.5t74.5 105.5t124.5 75.5t177 27.5q201 0 305.5 -108t104.5 -283v-662h-385v520q0 107 -48 148t-174 41q-125 0 -168 -37.5t-43 -139.5v-532h-385z" />
<glyph unicode="o" horiz-adv-x="1265" d="M31 516q0 249 165 393t437 144t437 -144t165 -393q0 -248 -165 -392t-437 -144t-437 144t-165 392zM412 516q0 -114 46 -155.5t175 -41.5t175 41.5t46 155.5t-46 156.5t-175 42.5t-175 -42.5t-46 -156.5z" />
<glyph unicode="p" horiz-adv-x="1370" d="M61 -348v1380h361v-278h20q25 154 121 226.5t277 72.5q234 0 361.5 -142t127.5 -395t-123.5 -394.5t-349.5 -141.5q-337 0 -389 286h-21v-614h-385zM446 504q0 -104 58 -139t196 -35q133 0 186.5 41.5t53.5 144.5t-53 143.5t-187 40.5q-137 0 -195.5 -37.5t-58.5 -144.5 v-14z" />
<glyph unicode="q" horiz-adv-x="1370" d="M41 516q0 253 127.5 395t361.5 142q181 0 277 -72.5t121 -226.5h20v278h361v-1380h-385v614h-21q-52 -286 -389 -286q-226 0 -349.5 141.5t-123.5 394.5zM430 516q0 -103 53.5 -144.5t186.5 -41.5q137 0 195.5 35t58.5 139v14q0 107 -58.5 144.5t-195.5 37.5 q-134 0 -187 -40.5t-53 -143.5z" />
<glyph unicode="r" horiz-adv-x="1120" d="M61 0v1032h361v-270h20q23 134 107.5 212.5t232.5 78.5q163 0 240.5 -96t77.5 -261v-204h-385v120q0 65 -29 91t-104 26q-77 0 -106.5 -25.5t-29.5 -87.5v-616h-385z" />
<glyph unicode="s" horiz-adv-x="1181" d="M33 713q0 71 29.5 130.5t90.5 107.5t166.5 75t245.5 27q270 0 409.5 -96.5t139.5 -286.5v-8h-385v12q0 29 -11 44.5t-50 24.5t-115 9q-89 0 -115 -12t-26 -44q0 -16 9 -25t39 -16.5t89 -13.5l205 -23q219 -24 308 -97.5t89 -209.5q0 -148 -142 -239.5t-393 -91.5 q-271 0 -415 99t-144 279v9h385v-21q0 -41 33.5 -52t142.5 -11q95 0 124.5 10.5t29.5 38.5q0 25 -20.5 34.5t-92.5 16.5l-299 33q-161 17 -244 92t-83 205z" />
<glyph unicode="t" horiz-adv-x="864" d="M0 717v315h152v178h385v-178h297v-315h-297v-268q0 -61 23 -82t89 -21h185v-346h-271q-198 0 -304.5 98t-106.5 295v324h-152z" />
<glyph unicode="u" horiz-adv-x="1337" d="M61 371v661h385v-520q0 -107 50 -147.5t182 -40.5q131 0 176 37t45 139v532h385v-1032h-360v313h-21q-9 -68 -36 -125t-75.5 -105t-127 -75.5t-179.5 -27.5q-209 0 -316.5 108t-107.5 283z" />
<glyph unicode="v" horiz-adv-x="1376" d="M-10 1032h430l258 -657h27l260 657h421l-462 -1032h-475z" />
<glyph unicode="w" horiz-adv-x="1923" d="M-10 1032h399l74 -373l39 -368h26l86 409l103 332h495l103 -332l86 -409h26l41 368l72 373h393l-272 -1032h-481l-133 414l-76 309h-27l-78 -309l-135 -414h-481z" />
<glyph unicode="x" horiz-adv-x="1329" d="M-20 0l385 500v20l-385 512h471l211 -311h20l203 311h465l-385 -506v-20l385 -506h-471l-211 303h-21l-203 -303h-464z" />
<glyph unicode="y" d="M-20 1032h438l178 -405l74 -238h26l68 242l154 401h430l-490 -1073q-42 -91 -93 -150.5t-121.5 -94.5t-153.5 -48.5t-201 -13.5h-187v348h299q48 0 72 12z" />
<glyph unicode="z" horiz-adv-x="1183" d="M31 0v328l372 250l215 108v27l-215 -17h-342v336h1061v-327l-405 -261l-201 -102v-27l201 21h436v-336h-1122z" />
<glyph unicode="{" horiz-adv-x="776" d="M41 506v360h57q71 0 99 24.5t28 84.5v123q0 183 114 290t335 107h61v-375h-71q-44 0 -64 -19.5t-20 -60.5v-96q0 -246 -261 -246v-24q261 0 261 -246v-96q0 -41 20 -60.5t64 -19.5h71v-375h-61q-221 0 -335 107t-114 290v123q0 60 -28 84.5t-99 24.5h-57z" />
<glyph unicode="|" horiz-adv-x="477" d="M61 -205v1782h355v-1782h-355z" />
<glyph unicode="}" horiz-adv-x="786" d="M51 -123v375h72q44 0 64 19.5t20 60.5v96q0 246 260 246v24q-260 0 -260 246v96q0 41 -20 60.5t-64 19.5h-72v375h62q221 0 334.5 -107t113.5 -290v-123q0 -60 28 -84.5t99 -24.5h57v-360h-57q-71 0 -99 -24.5t-28 -84.5v-123q0 -183 -113.5 -290t-334.5 -107h-62z" />
<glyph unicode="~" horiz-adv-x="1191" d="M61 485v95q0 30 2 55t8.5 57.5t17.5 58t32 51t49 42.5t70 28t94 11q63 0 153 -23l175 -43q88 -20 114 -20q20 0 27.5 9t7.5 36v18h319v-110q0 -63 -11.5 -110.5t-38.5 -86.5t-75.5 -59.5t-117.5 -20.5q-73 0 -225 35l-168 39q-46 12 -66 12q-29 0 -37 -14.5t-8 -42.5v-17 h-322z" />
<glyph unicode="&#xa1;" horiz-adv-x="622" d="M61 -205q0 82 27 397t27 381h393q0 -67 26.5 -382t26.5 -396v-143h-500v143zM92 662v362h440v-362h-440z" />
<glyph unicode="&#xa2;" horiz-adv-x="1259" d="M41 516q0 209 114 344.5t316 175.5v193h358v-195q183 -42 286.5 -157t103.5 -281v-33h-383v17q0 75 -50 102t-153 27q-113 0 -161 -38.5t-48 -154.5q0 -114 48 -152t161 -38q103 0 153 26.5t50 100.5v18h383v-35q0 -165 -104 -280.5t-286 -155.5v-205h-358v201 q-201 40 -315.5 176.5t-114.5 343.5z" />
<glyph unicode="&#xa3;" horiz-adv-x="1456" d="M61 0v346h134q133 0 133 84q0 13 -4 37h-263v315h136q-37 101 -37 191q0 189 163 304.5t463 115.5q166 0 287.5 -38.5t190 -107.5t100 -154t31.5 -190v-33h-379v37q0 44 -8 68.5t-34.5 40.5t-70.5 21t-121 5q-139 0 -188 -25.5t-49 -94.5q0 -56 35 -140h395v-315h-330 q-23 -77 -106 -100v-21h876v-346h-1354z" />
<glyph unicode="&#xa5;" horiz-adv-x="1652" d="M6 1372h504l143 -256l164 -338h27l162 338l145 256h496l-285 -424h235v-315h-448l-66 -96h514v-316h-579v-221h-383v221h-580v316h514l-65 96h-449v315h236z" />
<glyph unicode="&#xa6;" horiz-adv-x="559" d="M102 -205v809h355v-809h-355zM102 768v809h355v-809h-355z" />
<glyph unicode="&#xa7;" horiz-adv-x="1200" d="M41 625q0 74 54.5 122t148.5 54v20q-37 8 -70 25t-64.5 44.5t-50 72t-18.5 100.5q0 146 137.5 243t394.5 97q253 0 401 -104t148 -279v-8h-385v20q0 32 -11.5 47t-49 23t-115.5 8q-87 0 -114 -12.5t-27 -40.5q0 -25 20 -34.5t90 -18.5l418 -54q211 -25 211 -184 q0 -77 -54.5 -127.5t-148.5 -56.5v-21q37 -8 70 -25t64.5 -44.5t50 -72t18.5 -100.5q0 -145 -137.5 -242t-394.5 -97q-253 0 -401 103.5t-148 278.5v9h385v-21q0 -32 11.5 -47t49 -23t115.5 -8q87 0 114 13t27 41q0 25 -20 34.5t-90 18.5l-365 49q-139 19 -201.5 66 t-62.5 131zM420 707q0 -20 11 -29t36 -12l260 -33q53 -8 53 35q0 18 -11.5 27t-39.5 12l-256 32q-53 6 -53 -32z" />
<glyph unicode="&#xa9;" horiz-adv-x="1589" d="M41 686q0 326 203.5 515.5t550.5 189.5t550 -189.5t203 -515.5q0 -327 -203 -515.5t-550 -188.5t-550.5 188.5t-203.5 515.5zM338 686q0 -134 23.5 -218t80.5 -133.5t139.5 -68t213.5 -18.5q104 0 176 12t128 40t88 79t48 125.5t16 181.5t-16 181.5t-48 125.5t-88 79 t-128 40t-176 12q-131 0 -213.5 -18.5t-139.5 -68t-80.5 -133.5t-23.5 -218zM399 686q0 172 105.5 271.5t296.5 99.5q175 0 282 -88.5t107 -239.5v-16h-272v12q0 44 -26.5 64t-90.5 20q-77 0 -103 -25.5t-26 -97.5t26 -97.5t103 -25.5q63 0 90 21t27 63v12h272v-16 q0 -151 -107 -239.5t-282 -88.5q-191 0 -296.5 100t-105.5 271z" />
<glyph unicode="&#xaa;" horiz-adv-x="466" d="M41 1157q0 73 119 84l137 14q-1 22 -13.5 29.5t-43.5 7.5q-34 0 -47 -6t-13 -26v-3h-127v5q0 60 51.5 95.5t143.5 35.5q178 0 178 -154v-160h-121v64h-6q-17 -70 -133 -70q-59 0 -92 21.5t-33 62.5zM168 1165q0 -14 39 -14q94 0 94 43l-111 -14q-22 -3 -22 -15z" />
<glyph unicode="&#xab;" horiz-adv-x="1024" d="M61 410v430l410 266v-393l-154 -74v-29l154 -73v-394zM553 410v430l410 266v-393l-154 -74v-29l154 -73v-394z" />
<glyph unicode="&#xad;" horiz-adv-x="1228" d="M61 444v328h863v-328h-863z" />
<glyph unicode="&#xae;" horiz-adv-x="872" d="M41 1038q0 172 110 272.5t285 100.5t285 -100.5t110 -272.5t-110 -272t-285 -100t-285 100t-110 272zM203 1038q0 -126 47.5 -174.5t185.5 -48.5t186 48.5t48 174.5t-48 175t-186 49t-185.5 -48.5t-47.5 -175.5zM276 899v287h197q61 0 94 -23.5t33 -68.5q0 -40 -23.5 -62 t-60.5 -22v-4q30 -10 53 -45l41 -62h-131l-39 64q-11 16 -37 16h-8v-80h-119zM395 1055h72q18 0 18 16t-18 16h-72v-32z" />
<glyph unicode="&#xb0;" horiz-adv-x="487" d="M20 1198q0 91 60 143t164 52t163.5 -52t59.5 -143t-59.5 -142.5t-163.5 -51.5t-164 51.5t-60 142.5zM176 1198q0 -30 14.5 -41.5t53.5 -11.5q38 0 52.5 11t14.5 42t-14.5 42t-52.5 11q-39 0 -53.5 -11.5t-14.5 -41.5z" />
<glyph unicode="&#xb1;" horiz-adv-x="1095" d="M61 -29v316h324v241h-324v316h324v327h326v-327h323v-316h-323v-241h321v-316h-971z" />
<glyph unicode="&#xb2;" horiz-adv-x="798" d="M41 1087v31q0 117 97.5 196t283.5 79q163 0 249.5 -65t86.5 -175q0 -88 -55.5 -137t-180.5 -74l-213 -45q0 -1 1 -8t1 -8l326 41h98v-226h-682v111q0 93 46 145.5t132 79.5l215 66q25 8 34 15t9 22q0 18 -15.5 24t-70.5 6q-58 0 -78 -11t-20 -46v-21h-264z" />
<glyph unicode="&#xb3;" horiz-adv-x="821" d="M41 940v23h266v-13q0 -26 17 -32.5t84 -6.5q69 0 85.5 5t16.5 26q0 27 -39 27h-143v155h116q24 0 32.5 5.5t8.5 19.5q0 16 -16.5 22.5t-71.5 6.5q-58 0 -74 -7.5t-16 -27.5v-6h-266v6q0 112 101 181t278 69q163 0 247.5 -48t84.5 -133q0 -129 -164 -149v-10 q192 -23 192 -162q0 -102 -92.5 -153.5t-261.5 -51.5q-385 0 -385 254z" />
<glyph unicode="&#xb6;" horiz-adv-x="1624" d="M41 958q0 206 141 310t383 104h529v-1372h-385v553h-144q-241 0 -382.5 102.5t-141.5 302.5zM1178 0v1372h385v-1372h-385z" />
<glyph unicode="&#xb7;" horiz-adv-x="622" d="M61 512v393h500v-393h-500z" />
<glyph unicode="&#xb9;" horiz-adv-x="528" d="M20 1081v207h37q60 0 102.5 17.5t73.5 66.5h254v-686h-266v395h-201z" />
<glyph unicode="&#xba;" horiz-adv-x="450" d="M41 1233q0 75 49 117.5t135 42.5t135.5 -42.5t49.5 -117.5t-49.5 -117.5t-135.5 -42.5t-135 42.5t-49 117.5zM170 1233q0 -25 11.5 -35t43.5 -10t44 10t12 35t-12 35t-44 10t-43.5 -10t-11.5 -35z" />
<glyph unicode="&#xbb;" horiz-adv-x="1024" d="M61 143v394l154 73v29l-154 74v393l410 -266v-430zM553 143v394l154 73v29l-154 74v393l410 -266v-430z" />
<glyph unicode="&#xbc;" horiz-adv-x="1730" d="M61 0l1166 1372h370l-1165 -1372h-371zM84 1081v207h37q60 0 102.5 17.5t73.5 66.5h254v-686h-266v395h-201zM903 129v211l336 346h317v-321h113v-236h-113v-129h-266v129h-387zM1194 365h96v100h-20l-76 -80v-20z" />
<glyph unicode="&#xbd;" horiz-adv-x="1789" d="M61 0l1166 1372h370l-1165 -1372h-371zM84 1081v207h37q60 0 102.5 17.5t73.5 66.5h254v-686h-266v395h-201zM1012 391v31q0 117 97.5 195.5t283.5 78.5q163 0 249.5 -64.5t86.5 -174.5q0 -88 -55.5 -137t-180.5 -74l-213 -45q0 -1 1 -8.5t1 -8.5l326 41h98v-225h-682 v111q0 93 46 145.5t132 79.5l215 65q25 8 34 15t9 22q0 18 -15.5 24.5t-70.5 6.5q-58 0 -78 -11t-20 -46v-21h-264z" />
<glyph unicode="&#xbe;" horiz-adv-x="1869" d="M61 940v23h267v-13q0 -26 17 -32.5t83 -6.5q69 0 85.5 5t16.5 26q0 27 -38 27h-144v155h117q24 0 32.5 5.5t8.5 19.5q0 16 -16.5 22.5t-71.5 6.5q-58 0 -74 -7.5t-16 -27.5v-6h-267v6q0 112 101 181t278 69q163 0 247.5 -48t84.5 -133q0 -129 -164 -149v-10 q193 -23 193 -162q0 -102 -93 -153.5t-262 -51.5q-385 0 -385 254zM217 0l1165 1372h371l-1165 -1372h-371zM1042 129v211l336 346h318v-321h112v-236h-112v-129h-266v129h-388zM1333 365h97v100h-21l-76 -80v-20z" />
<glyph unicode="&#xbf;" horiz-adv-x="1335" d="M41 43q0 65 17 119t43 89.5t65 65.5t73.5 47.5t79.5 34.5l154 58q51 20 66.5 42t15.5 58v10h385v-75q0 -62 -21 -110.5t-61 -82t-80 -55t-96 -41.5l-143 -53q-64 -23 -88.5 -42t-24.5 -51q0 -19 7 -30.5t29 -22.5t71 -16.5t126 -5.5q108 0 169 16t84.5 45.5t23.5 79.5v98 h379v-61q0 -86 -23 -162t-75 -144.5t-129.5 -117t-194.5 -77t-262 -28.5q-155 0 -271 31.5t-184.5 89t-101.5 130t-33 161.5zM526 662v362h441v-362h-441z" />
<glyph unicode="&#xc0;" horiz-adv-x="1695" d="M-20 0l591 1372h551l594 -1372h-442l-105 254h-651l-106 -254h-432zM229 1769h555l273 -274h-414zM664 600h364l-80 193l-90 231h-27l-88 -231z" />
<glyph unicode="&#xc1;" horiz-adv-x="1695" d="M-20 0l591 1372h551l594 -1372h-442l-105 254h-651l-106 -254h-432zM639 1495l272 274h555l-413 -274h-414zM664 600h364l-80 193l-90 231h-27l-88 -231z" />
<glyph unicode="&#xc2;" horiz-adv-x="1695" d="M-20 0l591 1372h551l594 -1372h-442l-105 254h-651l-106 -254h-432zM342 1495l272 266h465l275 -266h-414l-80 86h-24l-82 -86h-412zM664 600h364l-80 193l-90 231h-27l-88 -231z" />
<glyph unicode="&#xc3;" horiz-adv-x="1695" d="M-20 0l591 1372h551l594 -1372h-442l-105 254h-651l-106 -254h-432zM426 1458v103q0 231 213 231q70 0 180 -39l70 -24q61 -21 82 -21q24 0 34.5 12t10.5 39v15h254v-101q0 -107 -48.5 -170t-148.5 -63q-71 0 -186 39l-94 30q-55 19 -76 19q-35 0 -35 -37v-33h-256z M664 600h364l-80 193l-90 231h-27l-88 -231z" />
<glyph unicode="&#xc4;" horiz-adv-x="1695" d="M-20 0l591 1372h551l594 -1372h-442l-105 254h-651l-106 -254h-432zM424 1495v285h364v-285h-364zM664 600h364l-80 193l-90 231h-27l-88 -231zM907 1495v285h365v-285h-365z" />
<glyph unicode="&#xc5;" horiz-adv-x="1695" d="M-20 0l573 1329q-47 68 -47 162q0 134 93.5 214.5t246.5 80.5q152 0 245 -80.5t93 -214.5q0 -91 -45 -158l577 -1333h-442l-105 254h-651l-106 -254h-432zM664 600h364l-80 193l-90 231h-27l-88 -231zM737 1491q0 -40 21 -55t86 -15t85.5 15t20.5 55t-20.5 55t-85.5 15 t-86 -15t-21 -55z" />
<glyph unicode="&#xc6;" horiz-adv-x="2490" d="M-16 0l993 1372h1466v-346h-833v-164h803v-344h-803v-172h833v-346h-1218v254h-584l-180 -254h-477zM887 600h338v449h-21z" />
<glyph unicode="&#xc7;" horiz-adv-x="1576" d="M41 686q0 324 201.5 515.5t556.5 191.5q346 0 541.5 -155.5t195.5 -430.5v-35h-430v35q0 119 -66.5 168t-234.5 49q-108 0 -173.5 -14t-107.5 -53.5t-57.5 -102.5t-15.5 -168t15.5 -168t57.5 -102.5t107.5 -53.5t173.5 -14q168 0 234.5 49t66.5 168v35h430v-35 q0 -261 -176.5 -414.5t-491.5 -168.5v-56h29q115 0 176.5 -55.5t61.5 -151.5q0 -99 -61.5 -156t-176.5 -57h-223v199h229q17 0 17 12q0 15 -17 15h-229v254q-299 34 -466 220.5t-167 479.5z" />
<glyph unicode="&#xc8;" d="M51 1769h555l273 -274h-414zM61 0v1372h1219v-346h-834v-164h803v-344h-803v-172h834v-346h-1219z" />
<glyph unicode="&#xc9;" d="M61 0v1372h1219v-346h-834v-164h803v-344h-803v-172h834v-346h-1219zM461 1495l272 274h555l-414 -274h-413z" />
<glyph unicode="&#xca;" d="M61 0v1372h1219v-346h-834v-164h803v-344h-803v-172h834v-346h-1219zM164 1495l272 266h465l275 -266h-414l-80 86h-25l-82 -86h-411z" />
<glyph unicode="&#xcb;" d="M61 0v1372h1219v-346h-834v-164h803v-344h-803v-172h834v-346h-1219zM246 1495v285h364v-285h-364zM729 1495v285h365v-285h-365z" />
<glyph unicode="&#xcc;" horiz-adv-x="507" d="M-365 1769h555l273 -274h-414zM61 0v1372h385v-1372h-385z" />
<glyph unicode="&#xcd;" horiz-adv-x="507" d="M45 1495l272 274h555l-413 -274h-414zM61 0v1372h385v-1372h-385z" />
<glyph unicode="&#xce;" horiz-adv-x="507" d="M-252 1495l272 266h465l275 -266h-414l-80 86h-24l-82 -86h-412zM61 0v1372h385v-1372h-385z" />
<glyph unicode="&#xcf;" horiz-adv-x="507" d="M-170 1495v285h365v-285h-365zM61 0v1372h385v-1372h-385zM313 1495v285h365v-285h-365z" />
<glyph unicode="&#xd0;" horiz-adv-x="1708" d="M20 514v344h213v514h695q342 0 540.5 -181.5t198.5 -504.5t-198.5 -504.5t-540.5 -181.5h-695v514h-213zM618 346h310q67 0 109.5 3.5t83 16t63 34.5t40.5 60.5t24.5 93t6.5 132.5t-6.5 132.5t-24.5 93t-40.5 60.5t-63 34.5t-83 16t-109.5 3.5h-310v-168h373v-344h-373 v-168z" />
<glyph unicode="&#xd1;" horiz-adv-x="1507" d="M61 0v1372h410l381 -514l201 -315h26l-18 299v530h385v-1372h-410l-405 528l-174 271h-27l16 -262v-537h-385zM332 1458v103q0 231 213 231q70 0 180 -39l70 -24q61 -21 82 -21q24 0 34.5 12t10.5 39v15h254v-101q0 -107 -48.5 -170t-148.5 -63q-71 0 -186 39l-95 30 q-55 19 -75 19q-35 0 -35 -37v-33h-256z" />
<glyph unicode="&#xd2;" horiz-adv-x="1609" d="M41 686q0 324 202.5 515.5t557.5 191.5q362 0 565 -191t203 -516t-202.5 -515.5t-565.5 -190.5q-355 0 -557.5 191t-202.5 515zM186 1769h555l273 -274h-414zM451 686q0 -105 15 -168t56 -102.5t106 -53.5t173 -14q109 0 174.5 14t108.5 53.5t59 103t16 167.5t-16 167.5 t-59 103t-108.5 53.5t-174.5 14q-108 0 -173 -14t-106 -53.5t-56 -102.5t-15 -168z" />
<glyph unicode="&#xd3;" horiz-adv-x="1609" d="M41 686q0 324 202.5 515.5t557.5 191.5q362 0 565 -191t203 -516t-202.5 -515.5t-565.5 -190.5q-355 0 -557.5 191t-202.5 515zM451 686q0 -105 15 -168t56 -102.5t106 -53.5t173 -14q109 0 174.5 14t108.5 53.5t59 103t16 167.5t-16 167.5t-59 103t-108.5 53.5 t-174.5 14q-108 0 -173 -14t-106 -53.5t-56 -102.5t-15 -168zM596 1495l272 274h555l-413 -274h-414z" />
<glyph unicode="&#xd4;" horiz-adv-x="1609" d="M41 686q0 324 202.5 515.5t557.5 191.5q362 0 565 -191t203 -516t-202.5 -515.5t-565.5 -190.5q-355 0 -557.5 191t-202.5 515zM299 1495l272 266h465l275 -266h-414l-80 86h-24l-82 -86h-412zM451 686q0 -105 15 -168t56 -102.5t106 -53.5t173 -14q109 0 174.5 14 t108.5 53.5t59 103t16 167.5t-16 167.5t-59 103t-108.5 53.5t-174.5 14q-108 0 -173 -14t-106 -53.5t-56 -102.5t-15 -168z" />
<glyph unicode="&#xd5;" horiz-adv-x="1609" d="M41 686q0 324 202.5 515.5t557.5 191.5q362 0 565 -191t203 -516t-202.5 -515.5t-565.5 -190.5q-355 0 -557.5 191t-202.5 515zM383 1458v103q0 231 213 231q70 0 180 -39l70 -24q61 -21 82 -21q24 0 34.5 12t10.5 39v15h254v-101q0 -107 -48.5 -170t-148.5 -63 q-71 0 -186 39l-94 30q-55 19 -76 19q-35 0 -35 -37v-33h-256zM451 686q0 -105 15 -168t56 -102.5t106 -53.5t173 -14q109 0 174.5 14t108.5 53.5t59 103t16 167.5t-16 167.5t-59 103t-108.5 53.5t-174.5 14q-108 0 -173 -14t-106 -53.5t-56 -102.5t-15 -168z" />
<glyph unicode="&#xd6;" horiz-adv-x="1609" d="M41 686q0 324 202.5 515.5t557.5 191.5q362 0 565 -191t203 -516t-202.5 -515.5t-565.5 -190.5q-355 0 -557.5 191t-202.5 515zM381 1495v285h364v-285h-364zM451 686q0 -105 15 -168t56 -102.5t106 -53.5t173 -14q109 0 174.5 14t108.5 53.5t59 103t16 167.5t-16 167.5 t-59 103t-108.5 53.5t-174.5 14q-108 0 -173 -14t-106 -53.5t-56 -102.5t-15 -168zM864 1495v285h365v-285h-365z" />
<glyph unicode="&#xd7;" horiz-adv-x="1069" d="M61 928l230 231l248 -246l243 244l224 -223l-244 -244l246 -246l-232 -231l-246 246l-243 -244l-224 223l244 244z" />
<glyph unicode="&#xd8;" horiz-adv-x="1609" d="M-2 158l149 129q-106 168 -106 399q0 324 202.5 515.5t557.5 191.5q284 0 475 -121l156 135l180 -195l-148 -129q105 -168 105 -397q0 -325 -202.5 -515.5t-565.5 -190.5q-279 0 -465 120l-158 -137zM451 686q0 -78 8 -127l516 451q-66 14 -174 14t-173 -14t-106 -53.5 t-56 -102.5t-15 -168zM635 360q68 -12 166 -12q109 0 174.5 14t108.5 53.5t59 103t16 167.5q0 78 -8 125z" />
<glyph unicode="&#xd9;" horiz-adv-x="1507" d="M53 575v797h385v-766q0 -102 25 -154t92.5 -76t198.5 -24q99 0 159 11.5t95.5 43t48 77t12.5 122.5v766h385v-797q0 -282 -175 -438.5t-525 -156.5t-525.5 156.5t-175.5 438.5zM135 1769h555l273 -274h-414z" />
<glyph unicode="&#xda;" horiz-adv-x="1507" d="M53 575v797h385v-766q0 -102 25 -154t92.5 -76t198.5 -24q99 0 159 11.5t95.5 43t48 77t12.5 122.5v766h385v-797q0 -282 -175 -438.5t-525 -156.5t-525.5 156.5t-175.5 438.5zM545 1495l272 274h555l-414 -274h-413z" />
<glyph unicode="&#xdb;" horiz-adv-x="1507" d="M53 575v797h385v-766q0 -102 25 -154t92.5 -76t198.5 -24q99 0 159 11.5t95.5 43t48 77t12.5 122.5v766h385v-797q0 -282 -175 -438.5t-525 -156.5t-525.5 156.5t-175.5 438.5zM248 1495l272 266h465l275 -266h-414l-80 86h-25l-82 -86h-411z" />
<glyph unicode="&#xdc;" horiz-adv-x="1507" d="M53 575v797h385v-766q0 -102 25 -154t92.5 -76t198.5 -24q99 0 159 11.5t95.5 43t48 77t12.5 122.5v766h385v-797q0 -282 -175 -438.5t-525 -156.5t-525.5 156.5t-175.5 438.5zM330 1495v285h364v-285h-364zM813 1495v285h365v-285h-365z" />
<glyph unicode="&#xdd;" horiz-adv-x="1568" d="M-31 1372h477l207 -325l117 -193h27l116 193l207 325h479l-628 -938v-434h-385v436zM575 1495l273 274h555l-414 -274h-414z" />
<glyph unicode="&#xde;" horiz-adv-x="1392" d="M61 0v1372h385v-166h396q247 0 388.5 -136.5t141.5 -381.5q0 -246 -142 -383t-388 -137h-396v-168h-385zM446 514h353q107 0 148.5 34t41.5 140q0 104 -41.5 138t-148.5 34h-353v-346z" />
<glyph unicode="&#xdf;" horiz-adv-x="1462" d="M102 0v862q0 253 166 392t514 139q294 0 445 -101t151 -264q0 -138 -81 -215t-261 -84v-20q201 -7 303.5 -99.5t102.5 -249.5q0 -171 -112 -265.5t-349 -94.5h-418v346h369q70 0 95.5 19.5t25.5 76.5t-25 76t-96 19h-369v315h330q58 0 79 16t21 60q0 37 -15.5 56.5 t-67.5 30.5t-154 11q-94 0 -148.5 -7t-83 -28.5t-36 -48t-7.5 -76.5v-866h-379z" />
<glyph unicode="&#xe0;" horiz-adv-x="1218" d="M-16 1413h557l272 -266h-416zM31 262q0 113 82.5 184.5t251.5 88.5l419 40v21q0 75 -37.5 98t-144.5 23q-96 0 -131 -23.5t-35 -87.5v-8h-385v4q0 205 158.5 328t421.5 123q265 0 399.5 -122t134.5 -343v-588h-360v217h-21q-30 -112 -128 -174.5t-261 -62.5 q-174 0 -269 74.5t-95 207.5zM418 287q0 -23 22 -31t70 -8q144 0 204.5 23.5t67.5 90.5l-315 -36q-49 -6 -49 -39z" />
<glyph unicode="&#xe1;" horiz-adv-x="1218" d="M31 262q0 113 82.5 184.5t251.5 88.5l419 40v21q0 75 -37.5 98t-144.5 23q-96 0 -131 -23.5t-35 -87.5v-8h-385v4q0 205 158.5 328t421.5 123q265 0 399.5 -122t134.5 -343v-588h-360v217h-21q-30 -112 -128 -174.5t-261 -62.5q-174 0 -269 74.5t-95 207.5zM401 1147 l275 266h557l-414 -266h-418zM418 287q0 -23 22 -31t70 -8q144 0 204.5 23.5t67.5 90.5l-315 -36q-49 -6 -49 -39z" />
<glyph unicode="&#xe2;" horiz-adv-x="1218" d="M31 262q0 113 82.5 184.5t251.5 88.5l419 40v21q0 75 -37.5 98t-144.5 23q-96 0 -131 -23.5t-35 -87.5v-8h-385v4q0 205 158.5 328t421.5 123q265 0 399.5 -122t134.5 -343v-588h-360v217h-21q-30 -112 -128 -174.5t-261 -62.5q-174 0 -269 74.5t-95 207.5zM104 1147 l273 266h465l274 -266h-414l-79 86h-25l-82 -86h-412zM418 287q0 -23 22 -31t70 -8q144 0 204.5 23.5t67.5 90.5l-315 -36q-49 -6 -49 -39z" />
<glyph unicode="&#xe3;" horiz-adv-x="1218" d="M31 262q0 113 82.5 184.5t251.5 88.5l419 40v21q0 75 -37.5 98t-144.5 23q-96 0 -131 -23.5t-35 -87.5v-8h-385v4q0 205 158.5 328t421.5 123q265 0 399.5 -122t134.5 -343v-588h-360v217h-21q-30 -112 -128 -174.5t-261 -62.5q-174 0 -269 74.5t-95 207.5zM188 1110v102 q0 232 213 232q71 0 181 -39l69 -25q58 -20 82 -20t34.5 12t10.5 39v14h254v-100q0 -107 -48 -170t-148 -63q-75 0 -187 38l-94 31q-55 19 -76 19q-35 0 -35 -37v-33h-256zM418 287q0 -23 22 -31t70 -8q144 0 204.5 23.5t67.5 90.5l-315 -36q-49 -6 -49 -39z" />
<glyph unicode="&#xe4;" horiz-adv-x="1218" d="M31 262q0 113 82.5 184.5t251.5 88.5l419 40v21q0 75 -37.5 98t-144.5 23q-96 0 -131 -23.5t-35 -87.5v-8h-385v4q0 205 158.5 328t421.5 123q265 0 399.5 -122t134.5 -343v-588h-360v217h-21q-30 -112 -128 -174.5t-261 -62.5q-174 0 -269 74.5t-95 207.5zM186 1147v285 h365v-285h-365zM418 287q0 -23 22 -31t70 -8q144 0 204.5 23.5t67.5 90.5l-315 -36q-49 -6 -49 -39zM670 1147v285h364v-285h-364z" />
<glyph unicode="&#xe5;" horiz-adv-x="1218" d="M31 262q0 113 82.5 184.5t251.5 88.5l419 40v21q0 75 -37.5 98t-144.5 23q-96 0 -131 -23.5t-35 -87.5v-8h-385v4q0 205 158.5 328t421.5 123q265 0 399.5 -122t134.5 -343v-588h-360v217h-21q-30 -112 -128 -174.5t-261 -62.5q-174 0 -269 74.5t-95 207.5zM393 1294 q0 82 60 131.5t157 49.5t157 -49.5t60 -131.5q0 -81 -60 -130.5t-157 -49.5t-157 49.5t-60 130.5zM418 287q0 -23 22 -31t70 -8q144 0 204.5 23.5t67.5 90.5l-315 -36q-49 -6 -49 -39zM551 1294q0 -19 11.5 -26.5t47.5 -7.5t48 7.5t12 26.5t-12 27t-48 8t-47.5 -8t-11.5 -27 z" />
<glyph unicode="&#xe6;" horiz-adv-x="1998" d="M31 262q0 117 82.5 189.5t251.5 89.5l444 43v12q0 75 -38 98t-146 23t-148.5 -23.5t-40.5 -87.5v-18h-385v14q0 205 158.5 328t421.5 123q248 0 385 -109q156 109 381 109q271 0 427 -132.5t156 -377.5q0 -43 -6 -99h-809q4 -93 52.5 -126t173.5 -33q113 0 154.5 20 t41.5 68v22h385v-24q0 -174 -154.5 -282.5t-412.5 -108.5q-391 0 -526 237h-23q-39 -114 -153.5 -175.5t-294.5 -61.5t-278.5 74.5t-98.5 207.5zM418 287q0 -23 22 -31t70 -8q158 0 227 24.5t84 92.5l-354 -39q-49 -6 -49 -39zM1171 639h437q-10 65 -60.5 92t-158.5 27 q-107 0 -156.5 -26.5t-61.5 -92.5z" />
<glyph unicode="&#xe7;" horiz-adv-x="1259" d="M41 516q0 251 161.5 394t438.5 143q263 0 420.5 -125t157.5 -332v-33h-383v17q0 75 -50 102t-153 27q-113 0 -161 -38.5t-48 -154.5q0 -114 48 -152t161 -38q103 0 153 26.5t50 100.5v18h383v-35q0 -190 -134.5 -311.5t-363.5 -140.5v-58h29q115 0 176 -55.5t61 -151.5 q0 -99 -61 -156t-176 -57h-224v199h230q16 0 16 12q0 15 -16 15h-230v254q-226 29 -355.5 169t-129.5 361z" />
<glyph unicode="&#xe8;" horiz-adv-x="1253" d="M0 1413h557l272 -266h-415zM41 516q0 248 163 392.5t425 144.5q271 0 427 -132.5t156 -377.5q0 -43 -6 -99h-809q4 -93 52.5 -126t173.5 -33q113 0 154.5 20t41.5 68v22h385v-24q0 -174 -154.5 -282.5t-412.5 -108.5q-135 0 -241.5 30t-187 92.5t-124 167t-43.5 246.5z M403 639h437q-10 65 -60.5 92t-158.5 27q-107 0 -156.5 -26.5t-61.5 -92.5z" />
<glyph unicode="&#xe9;" horiz-adv-x="1253" d="M41 516q0 248 163 392.5t425 144.5q271 0 427 -132.5t156 -377.5q0 -43 -6 -99h-809q4 -93 52.5 -126t173.5 -33q113 0 154.5 20t41.5 68v22h385v-24q0 -174 -154.5 -282.5t-412.5 -108.5q-135 0 -241.5 30t-187 92.5t-124 167t-43.5 246.5zM403 639h437q-10 65 -60.5 92 t-158.5 27q-107 0 -156.5 -26.5t-61.5 -92.5zM418 1147l274 266h557l-413 -266h-418z" />
<glyph unicode="&#xea;" horiz-adv-x="1253" d="M41 516q0 248 163 392.5t425 144.5q271 0 427 -132.5t156 -377.5q0 -43 -6 -99h-809q4 -93 52.5 -126t173.5 -33q113 0 154.5 20t41.5 68v22h385v-24q0 -174 -154.5 -282.5t-412.5 -108.5q-135 0 -241.5 30t-187 92.5t-124 167t-43.5 246.5zM121 1147l272 266h465 l275 -266h-414l-80 86h-25l-82 -86h-411zM403 639h437q-10 65 -60.5 92t-158.5 27q-107 0 -156.5 -26.5t-61.5 -92.5z" />
<glyph unicode="&#xeb;" horiz-adv-x="1253" d="M41 516q0 248 163 392.5t425 144.5q271 0 427 -132.5t156 -377.5q0 -43 -6 -99h-809q4 -93 52.5 -126t173.5 -33q113 0 154.5 20t41.5 68v22h385v-24q0 -174 -154.5 -282.5t-412.5 -108.5q-135 0 -241.5 30t-187 92.5t-124 167t-43.5 246.5zM203 1147v285h364v-285h-364z M403 639h437q-10 65 -60.5 92t-158.5 27q-107 0 -156.5 -26.5t-61.5 -92.5zM686 1147v285h365v-285h-365z" />
<glyph unicode="&#xec;" horiz-adv-x="571" d="M-340 1413h557l272 -266h-415zM94 0v1024h383v-1024h-383z" />
<glyph unicode="&#xed;" horiz-adv-x="571" d="M78 1147l274 266h557l-413 -266h-418zM94 0v1024h383v-1024h-383z" />
<glyph unicode="&#xee;" horiz-adv-x="571" d="M-219 1147l272 266h465l275 -266h-414l-80 86h-25l-81 -86h-412zM94 0v1024h383v-1024h-383z" />
<glyph unicode="&#xef;" horiz-adv-x="571" d="M-137 1147v285h364v-285h-364zM94 0v1024h383v-1024h-383zM346 1147v285h365v-285h-365z" />
<glyph unicode="&#xf0;" horiz-adv-x="1433" d="M41 479q0 222 132.5 331.5t369.5 109.5q324 0 407 -230h25q-14 157 -195 352l-344 -59l-35 170l222 39q-116 96 -238 180h520q93 -53 154 -104l264 45l35 -170l-154 -27q189 -243 189 -553q0 -279 -182.5 -431t-536.5 -152q-313 0 -473 132.5t-160 366.5zM436 475 q0 -71 53 -96t207 -25q167 0 222 23.5t55 95.5q0 56 -21 81.5t-78 36.5t-178 11q-159 0 -209.5 -25t-50.5 -102z" />
<glyph unicode="&#xf1;" horiz-adv-x="1316" d="M61 0v1032h361v-313h20q9 68 36 125.5t74.5 105.5t124.5 75.5t177 27.5q201 0 305.5 -108t104.5 -283v-662h-385v520q0 107 -48 148t-174 41q-125 0 -168 -37.5t-43 -139.5v-532h-385zM240 1110v102q0 232 213 232q70 0 180 -39l69 -25q58 -20 82 -20t34.5 12t10.5 39v14 h254v-100q0 -107 -48 -170t-148 -63q-75 0 -187 38l-94 31q-55 19 -76 19q-34 0 -34 -37v-33h-256z" />
<glyph unicode="&#xf2;" horiz-adv-x="1265" d="M6 1413h557l273 -266h-416zM31 516q0 249 165 393t437 144t437 -144t165 -393q0 -248 -165 -392t-437 -144t-437 144t-165 392zM412 516q0 -114 46 -155.5t175 -41.5t175 41.5t46 155.5t-46 156.5t-175 42.5t-175 -42.5t-46 -156.5z" />
<glyph unicode="&#xf3;" horiz-adv-x="1265" d="M31 516q0 249 165 393t437 144t437 -144t165 -393q0 -248 -165 -392t-437 -144t-437 144t-165 392zM412 516q0 -114 46 -155.5t175 -41.5t175 41.5t46 155.5t-46 156.5t-175 42.5t-175 -42.5t-46 -156.5zM424 1147l274 266h557l-413 -266h-418z" />
<glyph unicode="&#xf4;" horiz-adv-x="1265" d="M31 516q0 249 165 393t437 144t437 -144t165 -393q0 -248 -165 -392t-437 -144t-437 144t-165 392zM127 1147l272 266h465l275 -266h-414l-80 86h-24l-82 -86h-412zM412 516q0 -114 46 -155.5t175 -41.5t175 41.5t46 155.5t-46 156.5t-175 42.5t-175 -42.5t-46 -156.5z " />
<glyph unicode="&#xf5;" horiz-adv-x="1265" d="M31 516q0 249 165 393t437 144t437 -144t165 -393q0 -248 -165 -392t-437 -144t-437 144t-165 392zM211 1110v102q0 232 213 232q70 0 180 -39l70 -25q58 -20 82 -20t34.5 12t10.5 39v14h254v-100q0 -107 -48.5 -170t-148.5 -63q-74 0 -186 38l-94 31q-55 19 -76 19 q-35 0 -35 -37v-33h-256zM412 516q0 -114 46 -155.5t175 -41.5t175 41.5t46 155.5t-46 156.5t-175 42.5t-175 -42.5t-46 -156.5z" />
<glyph unicode="&#xf6;" horiz-adv-x="1265" d="M31 516q0 249 165 393t437 144t437 -144t165 -393q0 -248 -165 -392t-437 -144t-437 144t-165 392zM209 1147v285h364v-285h-364zM412 516q0 -114 46 -155.5t175 -41.5t175 41.5t46 155.5t-46 156.5t-175 42.5t-175 -42.5t-46 -156.5zM692 1147v285h365v-285h-365z" />
<glyph unicode="&#xf7;" horiz-adv-x="1093" d="M70 528v316h970v-316h-970zM352 63v343h408v-343h-408zM352 967v342h408v-342h-408z" />
<glyph unicode="&#xf8;" horiz-adv-x="1265" d="M8 106l115 101q-92 128 -92 309q0 249 165 393t437 144q209 0 360 -88l127 110l135 -149l-112 -99q92 -131 92 -311q0 -248 -165 -392t-437 -144q-215 0 -361 90l-129 -113zM412 516q0 -39 2 -55l288 250q-40 4 -69 4q-129 0 -175 -42.5t-46 -156.5zM563 324q50 -5 70 -5 q129 0 175 41.5t46 155.5q0 41 -2 57z" />
<glyph unicode="&#xf9;" horiz-adv-x="1337" d="M45 1413h557l272 -266h-415zM61 371v661h385v-520q0 -107 50 -147.5t182 -40.5q131 0 176 37t45 139v532h385v-1032h-360v313h-21q-9 -68 -36 -125t-75.5 -105t-127 -75.5t-179.5 -27.5q-209 0 -316.5 108t-107.5 283z" />
<glyph unicode="&#xfa;" horiz-adv-x="1337" d="M61 371v661h385v-520q0 -107 50 -147.5t182 -40.5q131 0 176 37t45 139v532h385v-1032h-360v313h-21q-9 -68 -36 -125t-75.5 -105t-127 -75.5t-179.5 -27.5q-209 0 -316.5 108t-107.5 283zM463 1147l274 266h557l-413 -266h-418z" />
<glyph unicode="&#xfb;" horiz-adv-x="1337" d="M61 371v661h385v-520q0 -107 50 -147.5t182 -40.5q131 0 176 37t45 139v532h385v-1032h-360v313h-21q-9 -68 -36 -125t-75.5 -105t-127 -75.5t-179.5 -27.5q-209 0 -316.5 108t-107.5 283zM166 1147l272 266h465l275 -266h-414l-80 86h-25l-81 -86h-412z" />
<glyph unicode="&#xfc;" horiz-adv-x="1337" d="M61 371v661h385v-520q0 -107 50 -147.5t182 -40.5q131 0 176 37t45 139v532h385v-1032h-360v313h-21q-9 -68 -36 -125t-75.5 -105t-127 -75.5t-179.5 -27.5q-209 0 -316.5 108t-107.5 283zM248 1147v285h364v-285h-364zM731 1147v285h365v-285h-365z" />
<glyph unicode="&#xfd;" d="M-20 1032h438l178 -405l74 -238h26l68 242l154 401h430l-490 -1073q-42 -91 -93 -150.5t-121.5 -94.5t-153.5 -48.5t-201 -13.5h-187v348h299q48 0 72 12zM455 1147l274 266h557l-414 -266h-417z" />
<glyph unicode="&#xfe;" horiz-adv-x="1370" d="M61 -348v1720h385v-606h21q52 287 389 287q226 0 349.5 -142t123.5 -395t-123.5 -394.5t-349.5 -141.5q-337 0 -389 286h-21v-614h-385zM446 504q0 -104 58 -139t196 -35q133 0 186.5 41.5t53.5 144.5t-53.5 144.5t-186.5 41.5q-138 0 -196 -35t-58 -139v-24z" />
<glyph unicode="&#xff;" d="M-20 1032h438l178 -405l74 -238h26l68 242l154 401h430l-490 -1073q-42 -91 -93 -150.5t-121.5 -94.5t-153.5 -48.5t-201 -13.5h-187v348h299q48 0 72 12zM240 1147v285h364v-285h-364zM723 1147v285h364v-285h-364z" />
<glyph unicode="&#x152;" horiz-adv-x="2336" d="M41 686q0 321 196.5 503.5t524.5 182.5h1528v-346h-834v-164h803v-344h-803v-172h834v-346h-1528q-328 0 -524.5 182.5t-196.5 503.5zM455 686q0 -78 6.5 -132.5t23.5 -93t38.5 -60.5t59.5 -34.5t77.5 -16t101.5 -3.5h309v680h-309q-62 0 -101.5 -3.5t-77.5 -16 t-59.5 -34.5t-38.5 -60.5t-23.5 -93t-6.5 -132.5z" />
<glyph unicode="&#x153;" horiz-adv-x="2091" d="M31 516q0 249 165 393t437 144q259 0 424 -131q159 131 409 131q271 0 427.5 -132.5t156.5 -377.5q0 -43 -6 -99h-809q4 -93 52.5 -126t172.5 -33q113 0 155 20t42 68v22h385v-24q0 -174 -154.5 -282.5t-412.5 -108.5q-283 0 -431 122q-159 -122 -411 -122 q-272 0 -437 144t-165 392zM412 516q0 -114 46 -155.5t175 -41.5t175 41.5t46 155.5t-46 156.5t-175 42.5t-175 -42.5t-46 -156.5zM1241 639h436q-10 65 -60.5 92t-158.5 27q-106 0 -155.5 -26.5t-61.5 -92.5z" />
<glyph unicode="&#x178;" horiz-adv-x="1568" d="M-31 1372h477l207 -325l117 -193h27l116 193l207 325h479l-628 -938v-434h-385v436zM360 1495v285h365v-285h-365zM844 1495v285h364v-285h-364z" />
<glyph unicode="&#x2000;" horiz-adv-x="896" />
<glyph unicode="&#x2001;" horiz-adv-x="1792" />
<glyph unicode="&#x2002;" horiz-adv-x="896" />
<glyph unicode="&#x2003;" horiz-adv-x="1792" />
<glyph unicode="&#x2004;" horiz-adv-x="597" />
<glyph unicode="&#x2005;" horiz-adv-x="448" />
<glyph unicode="&#x2006;" horiz-adv-x="298" />
<glyph unicode="&#x2007;" horiz-adv-x="298" />
<glyph unicode="&#x2008;" horiz-adv-x="224" />
<glyph unicode="&#x2009;" horiz-adv-x="358" />
<glyph unicode="&#x200a;" horiz-adv-x="99" />
<glyph unicode="&#x2010;" horiz-adv-x="985" d="M61 444v328h863v-328h-863z" />
<glyph unicode="&#x2011;" horiz-adv-x="985" d="M61 444v328h863v-328h-863z" />
<glyph unicode="&#x2012;" horiz-adv-x="985" d="M61 444v328h863v-328h-863z" />
<glyph unicode="&#x2013;" horiz-adv-x="1282" d="M61 444v328h1160v-328h-1160z" />
<glyph unicode="&#x2014;" horiz-adv-x="2269" d="M61 444v328h2147v-328h-2147z" />
<glyph unicode="&#x2018;" horiz-adv-x="622" d="M61 639v420q0 156 88 234.5t252 78.5h142v-237h-129q-38 0 -55 -15.5t-17 -58.5v-29h219v-393h-500z" />
<glyph unicode="&#x2019;" horiz-adv-x="622" d="M61 979v393h500v-420q0 -156 -88 -234.5t-252 -78.5h-141v238h129q39 0 55.5 15.5t16.5 57.5v29h-220z" />
<glyph unicode="&#x201a;" horiz-adv-x="622" d="M61 0v393h500v-420q0 -156 -88 -234.5t-252 -78.5h-141v238h129q39 0 55.5 15.5t16.5 57.5v29h-220z" />
<glyph unicode="&#x201c;" horiz-adv-x="1224" d="M61 639v420q0 156 88 234.5t252 78.5h142v-237h-129q-38 0 -55 -15.5t-17 -58.5v-29h219v-393h-500zM664 639v420q0 156 88 234.5t252 78.5h141v-237h-129q-38 0 -55 -15.5t-17 -58.5v-29h219v-393h-499z" />
<glyph unicode="&#x201d;" horiz-adv-x="1224" d="M61 979v393h500v-420q0 -156 -88 -234.5t-252 -78.5h-141v238h129q39 0 55.5 15.5t16.5 57.5v29h-220zM664 979v393h499v-420q0 -156 -88 -234.5t-252 -78.5h-141v238h129q39 0 55.5 15.5t16.5 57.5v29h-219z" />
<glyph unicode="&#x201e;" horiz-adv-x="1224" d="M61 0v393h500v-420q0 -156 -88 -234.5t-252 -78.5h-141v238h129q39 0 55.5 15.5t16.5 57.5v29h-220zM664 0v393h499v-420q0 -156 -88 -234.5t-252 -78.5h-141v238h129q39 0 55.5 15.5t16.5 57.5v29h-219z" />
<glyph unicode="&#x2022;" horiz-adv-x="755" d="M41 686q0 154 96.5 246t239.5 92q144 0 241 -92t97 -246t-97 -246t-241 -92q-143 0 -239.5 92t-96.5 246z" />
<glyph unicode="&#x2026;" horiz-adv-x="1867" d="M61 0v393h500v-393h-500zM684 0v393h500v-393h-500zM1307 0v393h499v-393h-499z" />
<glyph unicode="&#x202f;" horiz-adv-x="358" />
<glyph unicode="&#x2039;" horiz-adv-x="532" d="M61 410v430l410 266v-393l-154 -74v-29l154 -73v-394z" />
<glyph unicode="&#x203a;" horiz-adv-x="532" d="M61 143v394l154 73v29l-154 74v393l410 -266v-430z" />
<glyph unicode="&#x205f;" horiz-adv-x="448" />
<glyph unicode="&#x20ac;" horiz-adv-x="1380" d="M20 418v233h158v35v31h-158v233h201q70 202 252 312t445 110h401v-346h-401q-115 0 -178 -15t-97 -61h457v-233h-508v-31v-35h508v-233h-453q34 -43 97 -57.5t174 -14.5h401v-346h-401q-262 0 -443.5 108.5t-253.5 309.5h-201z" />
<glyph unicode="&#x2122;" horiz-adv-x="1132" d="M41 1212v160h461v-160h-144v-251h-174v251h-143zM543 961v411h219l53 -254h6l49 254h222v-411h-156v106l4 104h-8l-21 -163h-182l-31 163h-6l6 -106v-104h-155z" />
<glyph unicode="&#x25fc;" horiz-adv-x="1034" d="M0 0v1034h1034v-1034h-1034z" />
</font>
</defs>
</svg>
