<?xml version="1.0" standalone="no"?>
<!DOCTYPE svg PUBLIC "-//W3C//DTD SVG 1.1//EN" "http://www.w3.org/Graphics/SVG/1.1/DTD/svg11.dtd" >
<svg xmlns="http://www.w3.org/2000/svg" xmlns:xlink="http://www.w3.org/1999/xlink" version="1.1">
<metadata></metadata>
<defs>
<font id="clash_displaymedium" horiz-adv-x="1269" >
<font-face units-per-em="2048" ascent="1638" descent="-410" />
<missing-glyph horiz-adv-x="350" />
<glyph unicode="&#xfb01;" horiz-adv-x="1212" d="M27 834v184h155q19 169 144 261.5t340 92.5h100v-164h-135q-128 0 -185.5 -42t-48.5 -148h369v-184h-365v-834h-221v834h-153zM889 0v1018h221v-1018h-221zM889 1137v235h221v-235h-221z" />
<glyph unicode="&#xfb02;" horiz-adv-x="1212" d="M27 834v184h155q19 169 144 261.5t340 92.5h100v-164h-135q-128 0 -185.5 -42t-48.5 -148h369v-184h-365v-834h-221v834h-153zM889 0v1372h221v-1372h-221z" />
<glyph unicode="&#xfb03;" horiz-adv-x="1966" d="M27 834v184h155q19 169 144 261.5t340 92.5h100v-164h-135q-128 0 -185.5 -42t-48.5 -148h369v-184h-365v-834h-221v834h-153zM778 834v184h158q19 169 142.5 261.5t338.5 92.5h101v-164h-136q-127 0 -183.5 -42t-49.5 -148h369v-184h-365v-834h-219v834h-156zM1642 0 v1018h220v-1018h-220zM1642 1137v235h220v-235h-220z" />
<glyph unicode="&#xfb04;" horiz-adv-x="1966" d="M27 834v184h155q19 169 144 261.5t340 92.5h100v-164h-135q-128 0 -185.5 -42t-48.5 -148h369v-184h-365v-834h-221v834h-153zM778 834v184h158q19 169 142.5 261.5t338.5 92.5h101v-164h-136q-127 0 -183.5 -42t-49.5 -148h369v-184h-365v-834h-219v834h-156zM1642 0 v1372h220v-1372h-220z" />
<glyph horiz-adv-x="0" />
<glyph horiz-adv-x="682" />
<glyph unicode="&#xd;" horiz-adv-x="1228" />
<glyph unicode=" "  horiz-adv-x="350" />
<glyph unicode="&#x09;" horiz-adv-x="350" />
<glyph unicode="&#xa0;" horiz-adv-x="350" />
<glyph unicode="!" horiz-adv-x="473" d="M96 1229v143h281v-143q0 -74 -16.5 -374.5t-16.5 -403.5h-215q0 105 -16.5 404.5t-16.5 373.5zM111 0v303h249v-303h-249z" />
<glyph unicode="&#x22;" horiz-adv-x="673" d="M51 1116v256h228v-256l-50 -264h-129zM395 1116v256h228v-256l-50 -264h-129z" />
<glyph unicode="#" horiz-adv-x="1738" d="M41 305v197h354l129 340h-325v196h403l129 334h217l-129 -334h373l129 334h217l-129 -334h289v-196h-369l-129 -340h338v-197h-416l-118 -305h-218l119 305h-373l-116 -305h-217l116 305h-274zM602 498h387l133 348h-387z" />
<glyph unicode="$" horiz-adv-x="1308" d="M57 993q0 72 28.5 136.5t86.5 120.5t157.5 93t229.5 46v188h205v-191q231 -25 349 -149t118 -313v-13h-219v27q0 130 -88.5 191t-296.5 61q-184 0 -266 -45t-82 -139q0 -86 51.5 -125.5t179.5 -67.5l334 -57q409 -73 409 -375q0 -74 -28.5 -140t-86 -121t-153.5 -91 t-221 -45v-189h-205v191q-245 23 -372.5 144t-127.5 319v12h222v-33q0 -128 89 -187t308 -59q193 0 273.5 44t80.5 143q0 87 -54.5 128.5t-189.5 67.5l-335 56q-396 70 -396 372z" />
<glyph unicode="%" horiz-adv-x="1644" d="M41 1055q0 147 93.5 243.5t258.5 96.5q166 0 259 -96.5t93 -243.5q0 -150 -93 -246t-259 -96q-165 0 -258.5 96t-93.5 246zM133 0l1165 1372h215l-1165 -1372h-215zM205 1055q0 -98 44 -145.5t144 -47.5t144.5 47.5t44.5 145.5q0 96 -44.5 143t-144.5 47t-144 -47 t-44 -143zM899 319q0 148 93.5 244t258.5 96q166 0 259.5 -96t93.5 -244q0 -150 -93 -244.5t-260 -94.5q-166 0 -259 95t-93 244zM1063 319q0 -98 43.5 -144t144.5 -46t145 46.5t44 143.5q0 98 -44.5 145.5t-144.5 47.5t-144 -47.5t-44 -145.5z" />
<glyph unicode="&#x26;" horiz-adv-x="1443" d="M31 375q0 145 83 232.5t234 111.5v16q-130 20 -199 100.5t-69 196.5q0 176 131 265t371 89h284v-200h-313q-136 0 -195 -44.5t-59 -148.5q0 -101 65.5 -145.5t194.5 -44.5h447v215h217v-215h223v-185h-223v-141q0 -239 -150 -368t-461 -129q-278 0 -429.5 100t-151.5 295 zM254 399q0 -117 82.5 -168t284.5 -51q217 0 301 63t84 224v151h-488q-129 0 -196.5 -52t-67.5 -167z" />
<glyph unicode="'" horiz-adv-x="329" d="M51 1116v256h228v-256l-50 -264h-129z" />
<glyph unicode="(" horiz-adv-x="616" d="M72 686q0 112 25.5 219.5t64.5 191t96.5 166t109.5 140t115 117.5l113 -103q-60 -78 -96 -129.5t-76 -123.5t-61.5 -137.5t-35.5 -153t-14 -187.5t14 -187.5t35.5 -153t61.5 -137.5t76 -123.5t96 -129.5l-113 -102q-63 60 -115 117.5t-109.5 139.5t-96.5 165.5t-64.5 191 t-25.5 219.5z" />
<glyph unicode=")" horiz-adv-x="659" d="M51 -45q60 79 95 129.5t76 123.5t62 138t35.5 152.5t14.5 187.5t-14.5 187.5t-35.5 152.5t-62 138t-76 123.5t-95 129.5l111 103q63 -59 115.5 -117t109.5 -140t96 -166t64.5 -191.5t25.5 -219.5t-25.5 -219.5t-64.5 -191t-96 -165.5t-109.5 -140t-115.5 -117z" />
<glyph unicode="*" horiz-adv-x="763" d="M41 1081l51 156l209 -84l12 10l-12 223h164l-14 -223l14 -10l209 82l49 -156l-217 -55l-6 -16l143 -172l-133 -99l-119 191h-18l-121 -189l-133 97l141 172l-4 16z" />
<glyph unicode="+" horiz-adv-x="995" d="M72 594v184h329v334h193v-334h330v-184h-330v-334h-193v334h-329z" />
<glyph unicode="," horiz-adv-x="401" d="M61 0v317h279v-358q0 -94 -52 -141t-149 -47h-73v135h67q28 0 39.5 10t11.5 41v43h-123z" />
<glyph unicode="-" horiz-adv-x="774" d="M61 508v188h652v-188h-652z" />
<glyph unicode="." horiz-adv-x="401" d="M61 0v317h279v-317h-279z" />
<glyph unicode="/" horiz-adv-x="882" d="M-41 -41l737 1454h236l-737 -1454h-236z" />
<glyph unicode="0" horiz-adv-x="1441" d="M61 686q0 327 175.5 517t484.5 190t484 -190t175 -517q0 -328 -175 -517t-484 -189t-484.5 189t-175.5 517zM295 686q0 -256 103 -374.5t323 -118.5t322 118.5t102 374.5t-102 375t-322 119t-323 -119t-103 -375z" />
<glyph unicode="1" horiz-adv-x="679" d="M20 1044v158h66q118 0 186 37t111 133h195v-1372h-222v1044h-336z" />
<glyph unicode="2" horiz-adv-x="1284" d="M68 889v20q0 78 21 148t68 132t116 107t170.5 71t226.5 26q142 0 250 -32t173 -90.5t97.5 -134.5t32.5 -169q0 -162 -98 -261t-289 -157l-289 -88q-140 -48 -194 -108.5t-54 -176.5l332 23h588v-199h-1149v145q0 191 85.5 298.5t297.5 179.5l327 112q124 45 172.5 95.5 t48.5 140.5q0 111 -79.5 165t-259.5 54q-200 0 -288.5 -69t-88.5 -208v-24h-217z" />
<glyph unicode="3" horiz-adv-x="1333" d="M61 449v32h234v-28q0 -95 30.5 -150t114 -85t232.5 -30q212 0 299.5 52.5t87.5 175.5q0 202 -266 202h-383v185h352q252 0 252 184q0 103 -77 150t-271 47q-205 0 -288 -62.5t-83 -201.5v-15h-234v19q0 211 158 340t465 129q263 0 406 -94.5t143 -268.5 q0 -119 -69 -196.5t-199 -98.5v-16q152 -27 234.5 -111.5t82.5 -224.5q0 -193 -159 -298t-443 -105q-312 0 -465.5 125.5t-153.5 343.5z" />
<glyph unicode="4" horiz-adv-x="1413" d="M41 279v153l840 940h256v-895h235v-198h-235v-279h-219v279h-877zM346 477h572v637h-17l-555 -620v-17z" />
<glyph unicode="5" horiz-adv-x="1355" d="M72 414v22h225v-22q0 -121 95.5 -177.5t301.5 -56.5q187 0 273 61.5t86 204.5q0 140 -85 200.5t-274 60.5q-146 0 -238 -25t-151 -78l-14 4v-4l-205 14l74 754h1059v-198h-867l-49 -449l16 -2q60 65 180 112.5t277 47.5q241 0 374.5 -113t133.5 -324q0 -217 -154 -341.5 t-440 -124.5q-299 0 -458.5 113t-159.5 321z" />
<glyph unicode="6" horiz-adv-x="1409" d="M70 692q0 333 169.5 517t481.5 184q259 0 418 -121t159 -328v-16h-243v16q0 240 -334 240q-225 0 -320.5 -108t-95.5 -355v-109h19q38 104 164.5 171t314.5 67q254 0 392 -111t138 -315q0 -205 -156 -324.5t-440 -119.5q-352 0 -509.5 168.5t-157.5 543.5zM332 449 q0 -130 96 -194.5t297 -64.5t290 61t89 189q0 130 -88 191t-289 61q-395 0 -395 -243z" />
<glyph unicode="7" horiz-adv-x="1165" d="M20 1174v198h1135v-178q-157 -142 -260 -263t-180.5 -264t-112.5 -305t-35 -364h-250q0 133 19.5 254t50.5 216.5t79.5 185t97.5 156.5t114.5 134t119 113.5t122.5 99.5v17h-900z" />
<glyph unicode="8" horiz-adv-x="1349" d="M47 375q0 137 88.5 224t245.5 120v16q-140 22 -217.5 101t-77.5 198q0 165 152.5 262t437.5 97t437.5 -97t152.5 -262q0 -120 -77 -198.5t-220 -100.5v-16q163 -33 249.5 -119t86.5 -225q0 -195 -167 -295t-462 -100q-297 0 -463 100t-166 295zM270 416q0 -122 92 -175 t314 -53q220 0 312.5 53.5t92.5 174.5q0 115 -93 168t-312 53t-312.5 -53t-93.5 -168zM307 985q0 -101 87 -149t282 -48q197 0 284 48t87 149t-82.5 150t-288.5 49q-205 0 -287 -49t-82 -150z" />
<glyph unicode="9" horiz-adv-x="1409" d="M70 948q0 206 156.5 325.5t441.5 119.5q351 0 508 -166t157 -537q0 -337 -167 -523.5t-476 -186.5q-260 0 -418.5 120.5t-158.5 327.5v16h241v-16q0 -240 336 -240q222 0 316 111.5t94 362.5v108h-19q-40 -109 -166.5 -178.5t-314.5 -69.5q-254 0 -392 111t-138 315z M301 932q0 -130 87.5 -191t287.5 -61q198 0 297.5 65.5t99.5 188.5q0 124 -96.5 186t-298.5 62q-200 0 -288.5 -61t-88.5 -189z" />
<glyph unicode=":" horiz-adv-x="401" d="M61 0v317h279v-317h-279zM61 700v318h279v-318h-279z" />
<glyph unicode=";" horiz-adv-x="401" d="M61 0v317h279v-358q0 -94 -52 -141t-149 -47h-73v135h67q28 0 39.5 10t11.5 41v43h-123zM61 700v318h279v-318h-279z" />
<glyph unicode="&#x3c;" horiz-adv-x="985" d="M57 557v258l852 326v-209l-651 -238v-16l651 -238v-209z" />
<glyph unicode="=" horiz-adv-x="995" d="M72 373v184h852v-184h-852zM72 813v184h852v-184h-852z" />
<glyph unicode="&#x3e;" horiz-adv-x="985" d="M72 231v209l651 238v16l-651 238v209l852 -326v-258z" />
<glyph unicode="?" horiz-adv-x="1218" d="M20 872v48q0 78 21.5 147t69.5 129t118.5 103.5t174.5 68.5t231 25q138 0 242.5 -29t166.5 -81t92.5 -118t30.5 -145q0 -71 -23 -128.5t-66.5 -98.5t-87.5 -68t-105 -53l-148 -62q-57 -24 -75.5 -49.5t-18.5 -71.5v-43h-221v70q0 88 49.5 145t149.5 99l147 63 q95 41 136.5 81.5t41.5 107.5q0 42 -14 72.5t-49 56t-100.5 38.5t-161.5 13q-209 0 -296 -63t-87 -197v-60h-218zM410 0v303h249v-303h-249z" />
<glyph unicode="@" horiz-adv-x="1830" d="M31 508q0 384 248 613t667 229q390 0 617 -201.5t227 -550.5q0 -236 -99.5 -375t-265.5 -139q-130 0 -207 58.5t-96 160.5h-10q-28 -96 -102 -157.5t-197 -61.5q-166 0 -267.5 106.5t-101.5 311.5q0 198 103 308t270 110q120 0 197.5 -60.5t101.5 -161.5h14v203h193v-518 q0 -69 27.5 -100t89.5 -31q86 0 124 73t38 257q0 298 -159.5 440.5t-506.5 142.5q-362 0 -534.5 -154.5t-172.5 -502.5q0 -339 162.5 -491t495.5 -152q185 0 346 49l37 -150q-185 -69 -404 -69q-387 0 -611 217.5t-224 595.5zM649 502q0 -137 57 -199.5t177 -62.5 q108 0 170.5 59.5t62.5 177.5v49q0 117 -62.5 176.5t-170.5 59.5q-120 0 -177 -62t-57 -198z" />
<glyph unicode="A" horiz-adv-x="1536" d="M0 0l612 1372h312l612 -1372h-250l-158 356h-725l-157 -356h-246zM492 555h548l-186 418l-80 194h-16l-80 -194z" />
<glyph unicode="B" horiz-adv-x="1370" d="M92 0v1372h768q198 0 309 -88t111 -250q0 -127 -74 -208t-225 -99v-14q171 -20 259.5 -108t88.5 -226q0 -178 -114.5 -278.5t-325.5 -100.5h-797zM311 199h553q125 0 184.5 50t59.5 161q0 106 -60.5 155t-183.5 49h-553v-415zM311 797h518q232 0 232 188q0 97 -55 143 t-170 46h-525v-377z" />
<glyph unicode="C" horiz-adv-x="1488" d="M61 686q0 320 194.5 513.5t514.5 193.5q193 0 341.5 -64.5t232 -186t83.5 -282.5v-29h-243v29q0 322 -412 322q-243 0 -360 -120.5t-117 -375.5t117 -374t360 -119q412 0 412 321v27h243v-27q0 -245 -181 -389.5t-476 -144.5q-320 0 -514.5 193t-194.5 513z" />
<glyph unicode="D" horiz-adv-x="1495" d="M115 0v1372h624q320 0 507.5 -184.5t187.5 -501.5t-187.5 -501.5t-507.5 -184.5h-624zM334 199h405q241 0 351 113t110 374t-110 374.5t-351 113.5h-405v-975z" />
<glyph unicode="E" d="M102 0v1372h1098v-198h-876v-386h845v-196h-845v-393h876v-199h-1098z" />
<glyph unicode="F" horiz-adv-x="1255" d="M102 0v1372h1092v-198h-870v-426h839v-197h-839v-551h-222z" />
<glyph unicode="G" horiz-adv-x="1531" d="M61 686q0 321 199 514t528 193q295 0 477.5 -139.5t182.5 -374.5v-17h-244v17q0 303 -422 303q-249 0 -368 -120.5t-119 -375.5t117 -374t360 -119q246 0 351.5 74t105.5 247v18h-508v168h727v-700h-201v297h-14q-43 -152 -171.5 -234.5t-328.5 -82.5q-303 0 -487.5 193 t-184.5 513z" />
<glyph unicode="H" horiz-adv-x="1454" d="M102 0v1372h222v-581h806v581h220v-1372h-220v592h-806v-592h-222z" />
<glyph unicode="I" horiz-adv-x="425" d="M102 0v1372h222v-1372h-222z" />
<glyph unicode="J" horiz-adv-x="1292" d="M41 522v64h233v-66q0 -175 74.5 -251t269.5 -76t272 74.5t77 242.5v862h231v-860q0 -121 -32 -216.5t-100 -167t-181 -110t-267 -38.5q-299 0 -438 143t-139 399z" />
<glyph unicode="K" horiz-adv-x="1417" d="M102 0v1372h222v-586h415l402 586h262l-479 -678l477 -694h-262l-396 573h-419v-573h-222z" />
<glyph unicode="L" horiz-adv-x="1210" d="M102 0v1372h222v-1173h845v-199h-1067z" />
<glyph unicode="M" horiz-adv-x="1855" d="M102 0v1372h301l396 -794l125 -285h16l121 285l391 794h301v-1372h-221v842l8 198h-16l-84 -198l-379 -760h-266l-379 760l-84 198h-17l9 -198v-842h-222z" />
<glyph unicode="N" horiz-adv-x="1462" d="M102 0v1372h238l614 -803l179 -256h16l-10 248v811h221v-1372h-238l-618 801l-172 241h-17l9 -237v-805h-222z" />
<glyph unicode="O" horiz-adv-x="1554" d="M61 686q0 320 196 513.5t519 193.5q326 0 521.5 -193t195.5 -514t-195.5 -513.5t-521.5 -192.5q-323 0 -519 193t-196 513zM295 686q0 -255 117.5 -374t363.5 -119t365 119t119 374t-119 375.5t-365 120.5t-363.5 -120.5t-117.5 -375.5z" />
<glyph unicode="P" horiz-adv-x="1318" d="M102 0v1372h672q233 0 373.5 -127t140.5 -352q0 -224 -141 -351.5t-373 -127.5h-450v-414h-222zM324 612h430q159 0 236 66t77 215t-77 215t-236 66h-430v-562z" />
<glyph unicode="Q" horiz-adv-x="1554" d="M61 686q0 320 196 513.5t519 193.5q326 0 521.5 -193t195.5 -514q0 -263 -134.5 -443t-369.5 -239l238 -293h-279l-198 269q-313 9 -501 201t-188 505zM295 686q0 -255 117.5 -374t363.5 -119t365 119t119 374t-119 375.5t-365 120.5t-363.5 -120.5t-117.5 -375.5z" />
<glyph unicode="R" horiz-adv-x="1376" d="M102 0v1372h713q235 0 369.5 -106t134.5 -297q0 -170 -107 -270t-301 -111v-15q74 -20 119 -62t86 -114l230 -397h-254l-220 379q-32 57 -66.5 89t-90 48t-140.5 16h-251v-532h-222zM324 702h489q142 0 209.5 55t67.5 181q0 124 -68 180t-209 56h-489v-472z" />
<glyph unicode="S" horiz-adv-x="1308" d="M57 993q0 62 20 118.5t65.5 108.5t112.5 90t167.5 60.5t224.5 22.5q289 0 436.5 -129t147.5 -340v-13h-219v27q0 130 -88.5 191t-296.5 61q-184 0 -266 -45t-82 -139q0 -86 51.5 -125.5t179.5 -67.5l334 -57q409 -73 409 -375q0 -81 -33.5 -151.5t-101 -127t-180.5 -89.5 t-260 -33q-302 0 -460.5 124t-158.5 345v12h222v-33q0 -128 89 -187t308 -59q193 0 273.5 44t80.5 143q0 87 -54.5 128.5t-189.5 67.5l-335 56q-396 70 -396 372z" />
<glyph unicode="T" horiz-adv-x="1349" d="M25 1174v198h1298v-198h-539v-1174h-219v1174h-540z" />
<glyph unicode="U" horiz-adv-x="1476" d="M94 569v803h219v-788q0 -207 99.5 -299t324.5 -92t324.5 92t99.5 299v788h221v-803q0 -280 -168.5 -434.5t-476.5 -154.5q-307 0 -475 154.5t-168 434.5z" />
<glyph unicode="V" horiz-adv-x="1466" d="M-10 1372h262l475 -1149h16l471 1149h261l-586 -1372h-314z" />
<glyph unicode="W" horiz-adv-x="2168" d="M29 1372h245l224 -868l61 -291h16l74 291l277 868h321l295 -868l78 -291h16l58 291l204 868h242l-344 -1372h-326l-276 799l-100 352h-19l-98 -352l-260 -799h-326z" />
<glyph unicode="X" horiz-adv-x="1472" d="M0 0l553 682v16l-553 674h287l446 -541h17l436 541h287l-553 -676v-16l553 -680h-287l-445 551h-16l-438 -551h-287z" />
<glyph unicode="Y" horiz-adv-x="1400" d="M-14 1372h270l324 -487l114 -174h17l112 174l322 487h272l-610 -903v-469h-219v473z" />
<glyph unicode="Z" horiz-adv-x="1378" d="M68 0v199l895 958v17h-869v198h1194v-198l-911 -959v-16h934v-199h-1243z" />
<glyph unicode="[" horiz-adv-x="546" d="M102 -123v1618h424v-184h-217v-1250h217v-184h-424z" />
<glyph unicode="\" horiz-adv-x="890" d="M-41 1413h236l737 -1454h-236z" />
<glyph unicode="]" horiz-adv-x="571" d="M4 61h217v1250h-217v184h424v-1618h-424v184z" />
<glyph unicode="^" horiz-adv-x="997" d="M41 573l328 799h262l325 -799h-204l-244 598h-16l-246 -598h-205z" />
<glyph unicode="_" horiz-adv-x="778" d="M20 0h738v-160h-738v160z" />
<glyph unicode="a" horiz-adv-x="1159" d="M57 246q0 224 328 262l463 49v59q0 126 -60.5 177t-207.5 51q-143 0 -212 -50t-69 -161v-8h-219v8q0 177 139 291t377 114q234 0 351.5 -114t117.5 -306v-618h-203v254h-14q-40 -129 -157 -201.5t-290 -72.5q-159 0 -251.5 70.5t-92.5 195.5zM279 260q0 -62 43.5 -91.5 t138.5 -29.5q181 0 284 71t103 216l-399 -45q-91 -11 -130.5 -37t-39.5 -84z" />
<glyph unicode="b" horiz-adv-x="1292" d="M102 0v1372h222v-631h12q32 136 138 216.5t282 80.5q231 0 358 -144t127 -386q0 -240 -130 -384t-368 -144q-173 0 -282.5 80.5t-141.5 232.5h-14v-293h-203zM324 498q0 -157 91.5 -236.5t258.5 -79.5q174 0 260 74.5t86 251.5q0 178 -86 254t-256 76 q-173 0 -263.5 -81.5t-90.5 -242.5v-16z" />
<glyph unicode="c" horiz-adv-x="1206" d="M61 508q0 238 152 384t403 146q231 0 380 -118.5t149 -307.5v-20h-219v12q0 117 -81.5 176.5t-232.5 59.5q-170 0 -250.5 -81.5t-80.5 -250.5q0 -166 80.5 -248t250.5 -82q151 0 232.5 59.5t81.5 176.5v14h219v-22q0 -189 -149 -307.5t-380 -118.5q-251 0 -403 146 t-152 382z" />
<glyph unicode="d" horiz-adv-x="1292" d="M51 508q0 241 129 385.5t357 144.5q174 0 280.5 -80.5t138.5 -216.5h13v631h221v-1372h-203v293h-14q-32 -152 -141 -232.5t-281 -80.5q-237 0 -368.5 144t-131.5 384zM274 508q0 -176 86 -251t258 -75q166 0 258.5 79.5t92.5 236.5v16q0 161 -91.5 242.5t-263.5 81.5 q-168 0 -254 -76.5t-86 -253.5z" />
<glyph unicode="e" horiz-adv-x="1204" d="M61 508q0 238 150.5 384t398.5 146q241 0 386 -127.5t145 -355.5q0 -55 -8 -96h-865q6 -152 86.5 -226.5t253.5 -74.5q301 0 301 190v17h221v-19q0 -162 -144 -264t-372 -102q-255 0 -404 138.5t-149 389.5zM270 582h662v4q0 278 -326 278q-165 0 -246 -71t-90 -211z" />
<glyph unicode="f" horiz-adv-x="786" d="M27 834v184h155q19 169 144 261.5t340 92.5h100v-164h-135q-128 0 -185 -42q-50 -36 -50 -120q0 -14 1 -28h369v-184h-365v-834h-221v834h-153z" />
<glyph unicode="g" horiz-adv-x="1286" d="M61 565q0 214 134 343.5t364 129.5q163 0 273 -71.5t137 -202.5h12v254h203v-899q0 -249 -143.5 -368.5t-403.5 -119.5q-230 0 -370 103t-140 284h219q0 -110 70 -156t233 -46q177 0 246.5 61.5t69.5 228.5v250h-15q-29 -120 -133 -192t-272 -72q-225 0 -354.5 129 t-129.5 344zM285 565q0 -151 83.5 -216.5t247.5 -65.5q170 0 259.5 70t89.5 204v29q0 127 -89.5 193.5t-252.5 66.5q-167 0 -252.5 -65t-85.5 -216z" />
<glyph unicode="h" d="M102 0v1372h222v-665h12q14 67 44.5 124.5t80.5 105t125.5 74.5t169.5 27q204 0 311 -119t107 -313v-606h-220v553q0 153 -72 220t-231 67q-174 0 -250.5 -88.5t-76.5 -257.5v-494h-222z" />
<glyph unicode="i" horiz-adv-x="425" d="M102 0v1018h222v-1018h-222zM102 1137v235h222v-235h-222z" />
<glyph unicode="j" horiz-adv-x="428" d="M-98 -178h69q67 0 100 30t33 97v1069h222v-1030q0 -181 -94 -258.5t-267 -77.5h-63v170zM104 1137v235h222v-235h-222z" />
<glyph unicode="k" horiz-adv-x="1183" d="M102 0v1372h222v-758h290l306 404h258l-383 -490l381 -528h-261l-301 416h-290v-416h-222z" />
<glyph unicode="l" horiz-adv-x="425" d="M102 0v1372h222v-1372h-222z" />
<glyph unicode="m" horiz-adv-x="1998" d="M102 0v1018h203v-307h12q11 67 38 123.5t72.5 103.5t117.5 73.5t164 26.5q167 0 264.5 -91.5t120.5 -244.5h12q11 68 38.5 126t74 106.5t120 76t166.5 27.5q192 0 295 -117.5t103 -308.5v-612h-220v553q0 151 -64.5 219t-211.5 68q-159 0 -227 -81.5t-68 -254.5v-504 h-219v553q0 152 -64 219.5t-211 67.5q-160 0 -227 -81t-67 -255v-504h-222z" />
<glyph unicode="n" horiz-adv-x="1259" d="M102 0v1018h203v-316h14q26 142 134.5 239t289.5 97q137 0 234 -58t142.5 -152.5t45.5 -215.5v-612h-221v553q0 145 -70.5 216t-226.5 71q-165 0 -244 -84t-79 -252v-504h-222z" />
<glyph unicode="o" horiz-adv-x="1247" d="M57 508q0 238 156 384t410 146q255 0 411 -146t156 -384q0 -235 -156.5 -381.5t-410.5 -146.5q-253 0 -409.5 146.5t-156.5 381.5zM274 508q0 -165 84 -248.5t265 -83.5q182 0 266 83.5t84 248.5q0 167 -84 251.5t-266 84.5q-181 0 -265 -84.5t-84 -251.5z" />
<glyph unicode="p" horiz-adv-x="1292" d="M102 -348v1366h203v-283h19q31 144 139 223.5t285 79.5q232 0 362.5 -144.5t130.5 -385.5t-129 -384.5t-362 -143.5q-169 0 -278 82.5t-140 224.5h-8v-635h-222zM324 492q0 -154 92 -233t258 -79q172 0 259 76t87 252q0 177 -87 252.5t-255 75.5q-172 0 -263 -82 t-91 -244v-18z" />
<glyph unicode="q" horiz-adv-x="1292" d="M51 508q0 240 131 385t363 145q177 0 285 -79.5t139 -223.5h18v283h203v-1366h-221v635h-6q-33 -142 -142 -224.5t-278 -82.5q-232 0 -362 144t-130 384zM274 508q0 -177 86 -252.5t258 -75.5q166 0 258.5 79t92.5 233v18q0 162 -91.5 244t-263.5 82q-168 0 -254 -75.5 t-86 -252.5z" />
<glyph unicode="r" horiz-adv-x="1038" d="M102 0v1018h203v-275h14q25 132 113.5 213.5t237.5 81.5q84 0 148.5 -28.5t104 -78.5t59 -113.5t19.5 -137.5v-133h-219v90q0 110 -50 161.5t-163 51.5q-128 0 -186.5 -69.5t-58.5 -209.5v-571h-222z" />
<glyph unicode="s" horiz-adv-x="1116" d="M59 733q0 138 123.5 221.5t352.5 83.5q237 0 368 -93.5t131 -272.5v-6h-219v12q0 96 -62.5 140t-224.5 44q-138 0 -195 -32t-57 -105q0 -60 40 -87t155 -42l236 -33q183 -23 267.5 -89t84.5 -191q0 -141 -129 -222t-346 -81q-247 0 -380.5 94t-133.5 270v6h221v-16 q0 -99 66 -137.5t227 -38.5q145 0 201.5 30.5t56.5 100.5q0 62 -42 89t-153 42l-278 37q-310 40 -310 276z" />
<glyph unicode="t" horiz-adv-x="806" d="M10 834v184h172v223h219v-223h369v-184h-369v-478q0 -90 43 -123.5t142 -33.5h184v-199h-233q-355 0 -355 344v490h-172z" />
<glyph unicode="u" d="M100 406v612h219v-553q0 -145 72.5 -216t231.5 -71q329 0 329 336v504h219v-1018h-202v315h-13q-13 -67 -45 -125.5t-83.5 -106t-129 -75.5t-172.5 -28q-206 0 -316 119.5t-110 306.5z" />
<glyph unicode="v" horiz-adv-x="1245" d="M10 1018h244l362 -803h17l362 803h240l-479 -1018h-271z" />
<glyph unicode="w" horiz-adv-x="1804" d="M10 1018h230l170 -578l47 -262h16l76 283l213 557h282l216 -557l75 -283h17l47 262l170 578h225l-309 -1018h-275l-223 586l-78 250h-16l-78 -250l-225 -586h-275z" />
<glyph unicode="x" horiz-adv-x="1230" d="M6 0l438 504v12l-438 502h268l338 -385h13l333 385h267l-439 -498v-12l439 -508h-269l-338 389h-14l-334 -389h-264z" />
<glyph unicode="y" horiz-adv-x="1210" d="M0 1018h248l260 -541l100 -244h17l96 246l240 539h243l-530 -1129q-62 -133 -154.5 -185t-253.5 -52h-145v201h198q67 0 101 20.5t57 73.5l25 53z" />
<glyph unicode="z" horiz-adv-x="1148" d="M47 0v190l518 463l215 162v16l-215 -8h-487v195h993v-191l-555 -487l-188 -139v-17l188 11h586v-195h-1055z" />
<glyph unicode="{" horiz-adv-x="624" d="M41 578v217h70q66 0 90 22t24 82v291q0 144 82.5 224.5t245.5 80.5h41v-213h-51q-61 0 -87 -25t-26 -90v-280q0 -193 -186 -193v-16q186 0 186 -193v-280q0 -65 26 -90t87 -25h51v-213h-41q-163 0 -245.5 80.5t-82.5 224.5v291q0 60 -24 82.5t-90 22.5h-70z" />
<glyph unicode="|" horiz-adv-x="411" d="M102 -205v1782h205v-1782h-205z" />
<glyph unicode="}" horiz-adv-x="628" d="M35 90h51q61 0 87 25t26 90v280q0 193 186 193v16q-186 0 -186 193v280q0 65 -26 90t-87 25h-51v213h41q163 0 245 -80.5t82 -224.5v-291q0 -60 24.5 -82t90.5 -22h70v-217h-70q-66 0 -90.5 -22.5t-24.5 -82.5v-291q0 -144 -82 -224.5t-245 -80.5h-41v213z" />
<glyph unicode="~" horiz-adv-x="1148" d="M115 504v133q0 233 211 233q34 0 70.5 -12t61 -25t64.5 -38l117 -47q9 -5 39.5 -21t43 -22t33.5 -12.5t38 -6.5q34 0 48.5 18.5t14.5 59.5v94h186v-139q0 -221 -194 -221q-40 0 -84 12.5t-65.5 22.5t-73.5 36l-125 54q-29 20 -45 30t-40.5 19.5t-45.5 9.5 q-38 0 -53 -21.5t-15 -62.5v-94h-186z" />
<glyph unicode="&#xa1;" horiz-adv-x="423" d="M72 -205q0 74 16 374.5t16 403.5h215q0 -105 16.5 -404.5t16.5 -373.5v-143h-280v143zM86 721v303h252v-303h-252z" />
<glyph unicode="&#xa2;" horiz-adv-x="1185" d="M61 508q0 208 118.5 348t320.5 174v199h205v-195q197 -24 318.5 -138t121.5 -284v-20h-219v12q0 117 -81.5 176.5t-232.5 59.5q-170 0 -250.5 -81.5t-80.5 -250.5q0 -166 80.5 -248t250.5 -82q151 0 232.5 59.5t81.5 176.5v14h219v-22q0 -170 -121.5 -284t-318.5 -138 v-189h-205v195q-201 32 -320 172.5t-119 345.5z" />
<glyph unicode="&#xa3;" horiz-adv-x="1341" d="M61 0v199h93q101 0 164 44.5t63 118.5q0 63 -68 179l-14 22h-238v185h134q-64 128 -64 241q0 84 35.5 156.5t105 128t180.5 87.5t253 32q151 0 264 -37t179 -103t98 -149.5t32 -185.5v-44h-217v41q0 146 -79.5 211.5t-279.5 65.5q-194 0 -273 -58.5t-79 -170.5 q0 -37 12.5 -79t24 -66.5t35.5 -69.5h487v-185h-385q43 -91 43 -155q0 -71 -40.5 -121t-102.5 -74v-14h866v-199h-1229z" />
<glyph unicode="&#xa5;" horiz-adv-x="1441" d="M2 1372h285l262 -407l168 -295h16l166 295l262 407h279l-322 -475h287v-184h-412l-112 -166h524v-185h-574v-362h-219v362h-575v185h524l-112 166h-412v184h287z" />
<glyph unicode="&#xa6;" horiz-adv-x="409" d="M102 -205v809h205v-809h-205zM102 768v809h205v-809h-205z" />
<glyph unicode="&#xa7;" horiz-adv-x="1079" d="M43 666q0 80 57 132t158 64v12q-95 19 -155 75t-60 153q0 132 124.5 213.5t338.5 81.5q240 0 376 -96t136 -269v-6h-219v14q0 66 -23.5 104.5t-89.5 59.5t-186 21q-130 0 -186 -30t-56 -95q0 -55 40.5 -80t143.5 -39l338 -47q262 -33 262 -211q0 -86 -59 -142t-160 -67 v-12q95 -21 157 -77.5t62 -150.5q0 -132 -127 -213t-346 -81q-236 0 -369.5 96t-133.5 270v6h221v-16q0 -66 22 -103.5t85.5 -59t180.5 -21.5q135 0 192.5 29.5t57.5 94.5q0 52 -41 78.5t-141 40.5l-313 45q-143 21 -215 75.5t-72 150.5zM258 705q0 -55 37 -81t127 -40 l166 -23q127 -20 182 12.5t55 96.5q0 53 -37 79.5t-126 38.5l-170 23q-234 31 -234 -106z" />
<glyph unicode="&#xa9;" horiz-adv-x="1568" d="M51 686q0 312 199 501t534 189t534.5 -189t199.5 -501t-199.5 -501t-534.5 -189t-534 189t-199 501zM227 686q0 -272 134 -401t423 -129q288 0 421.5 129t133.5 401t-133.5 401.5t-421.5 129.5t-422.5 -129.5t-134.5 -401.5zM389 686q0 168 109.5 269.5t292.5 101.5 q165 0 271.5 -84t106.5 -213v-17h-165v13q0 149 -213 149q-118 0 -177 -51t-59 -168t59 -168t177 -51q213 0 213 149v13h165v-17q0 -129 -106.5 -213t-271.5 -84q-182 0 -292 102t-110 269z" />
<glyph unicode="&#xaa;" horiz-adv-x="446" d="M61 1155q0 70 107 82l125 14v9q0 31 -14 44t-54 13q-38 0 -51.5 -11t-13.5 -38v-2h-92v4q0 55 44 89t119 34t114.5 -37t39.5 -103v-174h-84v58h-6q-23 -64 -119 -64q-53 0 -84 21.5t-31 60.5zM152 1161q0 -26 49 -26q96 0 96 65l-111 -14q-20 -3 -27 -8.5t-7 -16.5z" />
<glyph unicode="&#xab;" horiz-adv-x="1003" d="M41 506v237l410 285v-227l-258 -168v-17l258 -167v-228zM532 506v237l410 285v-227l-258 -168v-17l258 -167v-228z" />
<glyph unicode="&#xad;" horiz-adv-x="1228" d="M61 508v188h652v-188h-652z" />
<glyph unicode="&#xae;" horiz-adv-x="823" d="M41 1038q0 152 102.5 247t268.5 95q165 0 267.5 -95.5t102.5 -246.5t-102.5 -246.5t-267.5 -95.5q-166 0 -268.5 95t-102.5 247zM147 1038q0 -128 66.5 -185.5t198.5 -57.5q131 0 196.5 57t65.5 186q0 130 -65 187t-197 57t-198.5 -57t-66.5 -187zM258 899v287h193 q122 0 122 -90q0 -38 -22.5 -59t-58.5 -23v-4q18 -6 29 -16t24 -33l39 -62h-95l-34 57q-11 22 -22.5 29.5t-35.5 7.5h-57v-94h-82zM340 1051h113q22 0 30.5 7.5t8.5 24.5q0 18 -8.5 24.5t-30.5 6.5h-113v-63z" />
<glyph unicode="&#xb0;" horiz-adv-x="481" d="M43 1208q0 81 54 133t143 52q91 0 144.5 -52t53.5 -133q0 -83 -53.5 -134.5t-144.5 -51.5q-90 0 -143.5 51.5t-53.5 134.5zM150 1208q0 -44 21.5 -65t68.5 -21q49 0 70.5 20.5t21.5 65.5q0 43 -21.5 63.5t-70.5 20.5q-47 0 -68.5 -20.5t-21.5 -63.5z" />
<glyph unicode="&#xb1;" horiz-adv-x="997" d="M72 113v184h331v297h-331v184h331v334h191v-334h330v-184h-330v-297h330v-184h-852z" />
<glyph unicode="&#xb2;" horiz-adv-x="753" d="M53 1112v23q0 108 89 183t259 75q150 0 231 -61.5t81 -160.5q0 -83 -55 -129.5t-175 -78.5l-170 -48q-47 -18 -68.5 -41t-21.5 -59l248 21h234v-140h-639v62q0 103 48.5 159.5t149.5 90.5l172 55q64 22 90.5 42.5t26.5 57.5q0 46 -34 67t-126 21q-96 0 -138 -28t-42 -93 v-18h-160z" />
<glyph unicode="&#xb3;" horiz-adv-x="776" d="M51 920v22h160v-16q0 -56 39.5 -78.5t148.5 -22.5q94 0 133 18.5t39 71.5q0 49 -33 64.5t-114 15.5h-156v107h135q81 0 111.5 14.5t30.5 61.5q0 41 -33 60t-123 19q-102 0 -140 -22t-38 -74v-14h-160v14q0 103 92 167.5t256 64.5q143 0 225.5 -46.5t82.5 -134.5 q0 -131 -150 -151v-10q83 -8 130.5 -49t47.5 -115q0 -99 -90.5 -150t-236.5 -51q-176 0 -266.5 63t-90.5 171z" />
<glyph unicode="&#xb6;" horiz-adv-x="1411" d="M41 965q0 102 36.5 181t102 127.5t151.5 73.5t189 25h348v-1372h-219v553h-129q-103 0 -189 25.5t-151.5 75.5t-102 129.5t-36.5 181.5zM1087 0v1372h222v-1372h-222z" />
<glyph unicode="&#xb7;" horiz-adv-x="423" d="M72 512v317h278v-317h-278z" />
<glyph unicode="&#xb9;" horiz-adv-x="493" d="M14 1157v131h70q62 0 94.5 18t50.5 66h150v-686h-162v471h-203z" />
<glyph unicode="&#xba;" horiz-adv-x="462" d="M61 1233q0 70 46.5 115t123.5 45t123.5 -45t46.5 -115t-46.5 -115t-123.5 -45t-123.5 45t-46.5 115zM152 1233q0 -39 18.5 -57.5t60.5 -18.5t61 18.5t19 57.5t-19 57.5t-61 18.5t-60.5 -18.5t-18.5 -57.5z" />
<glyph unicode="&#xbb;" horiz-adv-x="1003" d="M61 221v228l256 167v17l-256 168v227l410 -285v-237zM553 221v228l256 167v17l-256 168v227l410 -285v-237z" />
<glyph unicode="&#xbc;" horiz-adv-x="1527" d="M41 0l1165 1372h215l-1165 -1372h-215zM59 1157v131h70q61 0 93 18t52 66h150v-686h-162v471h-203zM748 137v123l413 426h189v-405h127v-144h-127v-137h-162v137h-440zM940 281h248v247h-12l-236 -233v-14z" />
<glyph unicode="&#xbd;" horiz-adv-x="1622" d="M41 0l1165 1372h215l-1165 -1372h-215zM59 1157v131h70q61 0 93 18t52 66h150v-686h-162v471h-203zM920 416v22q0 108 90 183t260 75q149 0 230 -61t81 -160q0 -83 -55 -130t-174 -79l-172 -47q-46 -18 -67 -41t-21 -59l245 20h234v-139h-639v61q0 102 49 159t149 91 l175 56q63 22 88.5 42t25.5 58q0 46 -33.5 67t-125.5 21q-96 0 -138.5 -28t-42.5 -93v-18h-159z" />
<glyph unicode="&#xbe;" horiz-adv-x="1669" d="M51 920v22h160v-16q0 -56 39.5 -78.5t148.5 -22.5q93 0 131.5 18.5t38.5 71.5q0 49 -32 64.5t-113 15.5h-156v107h133q82 0 112 14.5t30 61.5q0 41 -32 60t-122 19q-102 0 -140 -22t-38 -74v-14h-160v14q0 103 92 167.5t256 64.5q142 0 224 -46.5t82 -134.5 q0 -131 -148 -151v-10q81 -8 128.5 -49t47.5 -115q0 -99 -89.5 -150t-235.5 -51q-176 0 -266.5 63t-90.5 171zM199 0l1165 1372h215l-1165 -1372h-215zM868 135v125l414 424h188v-403h127v-146h-127v-137h-161v137h-441zM1061 281h248v247h-13l-235 -235v-12z" />
<glyph unicode="&#xbf;" horiz-adv-x="1198" d="M31 4q0 71 23 128.5t66.5 98.5t87 68t103.5 53l150 62q56 24 75 50t19 71v43h219v-70q0 -88 -49.5 -145t-149.5 -99l-145 -61q-96 -43 -138 -84t-42 -107q0 -42 14.5 -72.5t50 -56t101.5 -38.5t162 -13q209 0 296 63t87 197v60h217v-48q0 -78 -21.5 -147t-69.5 -129 t-118.5 -103.5t-174.5 -68.5t-231 -25q-138 0 -242.5 29t-166.5 81t-92.5 118t-30.5 145zM539 721v303h249v-303h-249z" />
<glyph unicode="&#xc0;" horiz-adv-x="1536" d="M0 0l612 1372h312l612 -1372h-250l-158 356h-725l-157 -356h-246zM313 1755h310l262 -260h-234zM492 555h548l-186 418l-80 194h-16l-80 -194z" />
<glyph unicode="&#xc1;" horiz-adv-x="1536" d="M0 0l612 1372h312l612 -1372h-250l-158 356h-725l-157 -356h-246zM492 555h548l-186 418l-80 194h-16l-80 -194zM653 1495l260 260h312l-338 -260h-234z" />
<glyph unicode="&#xc2;" horiz-adv-x="1536" d="M0 0l612 1372h312l612 -1372h-250l-158 356h-725l-157 -356h-246zM373 1495l268 266h254l270 -266h-237l-152 154h-16l-152 -154h-235zM492 555h548l-186 418l-80 194h-16l-80 -194z" />
<glyph unicode="&#xc3;" horiz-adv-x="1536" d="M0 0l612 1372h312l612 -1372h-250l-158 356h-725l-157 -356h-246zM434 1507v82q0 185 164 185q62 0 158 -54l51 -28q58 -35 92 -35q57 0 57 69v39h148v-79q0 -87 -38.5 -137t-115.5 -50q-76 0 -162 53l-65 33q-54 35 -88 35q-51 0 -51 -64v-49h-150zM492 555h548 l-186 418l-80 194h-16l-80 -194z" />
<glyph unicode="&#xc4;" horiz-adv-x="1536" d="M0 0l612 1372h312l612 -1372h-250l-158 356h-725l-157 -356h-246zM471 1495v254h211v-254h-211zM492 555h548l-186 418l-80 194h-16l-80 -194zM856 1495v254h209v-254h-209z" />
<glyph unicode="&#xc5;" horiz-adv-x="1536" d="M0 0l590 1321q-90 65 -90 184q0 107 74 171.5t194 64.5q119 0 192.5 -64.5t73.5 -171.5q0 -115 -88 -184l590 -1321h-250l-158 356h-725l-157 -356h-246zM492 555h548l-186 418l-80 194h-16l-80 -194zM639 1505q0 -54 29 -78t98 -24t98 24t29 78q0 52 -29 76.5t-98 24.5 t-98 -24.5t-29 -76.5z" />
<glyph unicode="&#xc6;" horiz-adv-x="2320" d="M-8 0l1038 1372h1221v-198h-879v-386h848v-196h-848v-393h879v-199h-1098v356h-621l-268 -356h-272zM682 555h471v604h-14z" />
<glyph unicode="&#xc7;" horiz-adv-x="1488" d="M61 686q0 320 194.5 513.5t514.5 193.5q193 0 341.5 -64.5t232 -186t83.5 -282.5v-29h-243v29q0 322 -412 322q-243 0 -360 -120.5t-117 -375.5t117 -374t360 -119q412 0 412 321v27h243v-27q0 -237 -171.5 -381t-452.5 -153v-84h45q91 0 141.5 -45t50.5 -121 q0 -79 -50.5 -124.5t-141.5 -45.5h-182v125h182q27 0 41 9t14 34q0 26 -14 35.5t-41 9.5h-168v211q-283 28 -451 217t-168 485z" />
<glyph unicode="&#xc8;" d="M102 0v1372h1098v-198h-876v-386h845v-196h-845v-393h876v-199h-1098zM195 1755h311l260 -260h-234z" />
<glyph unicode="&#xc9;" d="M102 0v1372h1098v-198h-876v-386h845v-196h-845v-393h876v-199h-1098zM535 1495l262 260h309l-338 -260h-233z" />
<glyph unicode="&#xca;" d="M102 0v1372h1098v-198h-876v-386h845v-196h-845v-393h876v-199h-1098zM254 1495l268 266h256l269 -266h-236l-152 154h-16l-154 -154h-235z" />
<glyph unicode="&#xcb;" d="M102 0v1372h1098v-198h-876v-386h845v-196h-845v-393h876v-199h-1098zM354 1495v254h211v-254h-211zM737 1495v254h211v-254h-211z" />
<glyph unicode="&#xcc;" horiz-adv-x="425" d="M-242 1755h310l262 -260h-236zM102 0v1372h222v-1372h-222z" />
<glyph unicode="&#xcd;" horiz-adv-x="425" d="M98 1495l260 260h312l-338 -260h-234zM102 0v1372h222v-1372h-222z" />
<glyph unicode="&#xce;" horiz-adv-x="425" d="M-182 1495l268 266h254l270 -266h-237l-152 154h-16l-154 -154h-233zM102 0v1372h222v-1372h-222z" />
<glyph unicode="&#xcf;" horiz-adv-x="425" d="M-84 1495v254h211v-254h-211zM102 0v1372h222v-1372h-222zM299 1495v254h211v-254h-211z" />
<glyph unicode="&#xd0;" horiz-adv-x="1611" d="M20 588v196h209v588h625q320 0 507 -184.5t187 -501.5t-187 -501.5t-507 -184.5h-625v588h-209zM449 199h405q241 0 351 113t110 374t-110 374.5t-351 113.5h-405v-390h448v-196h-448v-389z" />
<glyph unicode="&#xd1;" horiz-adv-x="1462" d="M102 0v1372h238l614 -803l179 -256h16l-10 248v811h221v-1372h-238l-618 801l-172 241h-17l9 -237v-805h-222zM397 1507v82q0 185 164 185q62 0 158 -54l51 -28q58 -35 92 -35q58 0 58 69v39h147v-79q0 -87 -38.5 -137t-115.5 -50q-71 0 -161 53l-66 33q-54 35 -88 35 q-51 0 -51 -64v-49h-150z" />
<glyph unicode="&#xd2;" horiz-adv-x="1554" d="M61 686q0 320 196 513.5t519 193.5q326 0 521.5 -193t195.5 -514t-195.5 -513.5t-521.5 -192.5q-323 0 -519 193t-196 513zM295 686q0 -255 117.5 -374t363.5 -119t365 119t119 374t-119 375.5t-365 120.5t-363.5 -120.5t-117.5 -375.5zM322 1755h311l260 -260h-234z" />
<glyph unicode="&#xd3;" horiz-adv-x="1554" d="M61 686q0 320 196 513.5t519 193.5q326 0 521.5 -193t195.5 -514t-195.5 -513.5t-521.5 -192.5q-323 0 -519 193t-196 513zM295 686q0 -255 117.5 -374t363.5 -119t365 119t119 374t-119 375.5t-365 120.5t-363.5 -120.5t-117.5 -375.5zM662 1495l262 260h309l-338 -260 h-233z" />
<glyph unicode="&#xd4;" horiz-adv-x="1554" d="M61 686q0 320 196 513.5t519 193.5q326 0 521.5 -193t195.5 -514t-195.5 -513.5t-521.5 -192.5q-323 0 -519 193t-196 513zM295 686q0 -255 117.5 -374t363.5 -119t365 119t119 374t-119 375.5t-365 120.5t-363.5 -120.5t-117.5 -375.5zM381 1495l268 266h256l269 -266 h-236l-152 154h-16l-154 -154h-235z" />
<glyph unicode="&#xd5;" horiz-adv-x="1554" d="M61 686q0 320 196 513.5t519 193.5q326 0 521.5 -193t195.5 -514t-195.5 -513.5t-521.5 -192.5q-323 0 -519 193t-196 513zM295 686q0 -255 117.5 -374t363.5 -119t365 119t119 374t-119 375.5t-365 120.5t-363.5 -120.5t-117.5 -375.5zM442 1507v82q0 185 164 185 q62 0 158 -54l53 -28q58 -35 92 -35q56 0 56 69v39h149v-79q0 -86 -39.5 -136.5t-116.5 -50.5q-71 0 -161 53l-64 33q-58 35 -90 35q-51 0 -51 -64v-49h-150z" />
<glyph unicode="&#xd6;" horiz-adv-x="1554" d="M61 686q0 320 196 513.5t519 193.5q326 0 521.5 -193t195.5 -514t-195.5 -513.5t-521.5 -192.5q-323 0 -519 193t-196 513zM295 686q0 -255 117.5 -374t363.5 -119t365 119t119 374t-119 375.5t-365 120.5t-363.5 -120.5t-117.5 -375.5zM481 1495v254h209v-254h-209z M864 1495v254h211v-254h-211z" />
<glyph unicode="&#xd7;" horiz-adv-x="972" d="M102 934l136 135l251 -250l248 248l131 -129l-250 -250l252 -250l-135 -135l-252 250l-247 -248l-132 129l250 250z" />
<glyph unicode="&#xd8;" horiz-adv-x="1554" d="M55 76l152 153q-146 182 -146 457q0 320 196 513.5t519 193.5q265 0 453 -136l151 152l111 -115l-145 -147q147 -186 147 -461q0 -321 -195.5 -513.5t-521.5 -192.5q-269 0 -454 137l-156 -156zM295 686q0 -193 65 -303l721 725q-115 74 -305 74q-246 0 -363.5 -120.5 t-117.5 -375.5zM469 266q113 -73 307 -73q246 0 365 119t119 374q0 192 -68 307z" />
<glyph unicode="&#xd9;" horiz-adv-x="1476" d="M94 569v803h219v-788q0 -207 99.5 -299t324.5 -92t324.5 92t99.5 299v788h221v-803q0 -280 -168.5 -434.5t-476.5 -154.5q-307 0 -475 154.5t-168 434.5zM283 1755h311l260 -260h-233z" />
<glyph unicode="&#xda;" horiz-adv-x="1476" d="M94 569v803h219v-788q0 -207 99.5 -299t324.5 -92t324.5 92t99.5 299v788h221v-803q0 -280 -168.5 -434.5t-476.5 -154.5q-307 0 -475 154.5t-168 434.5zM623 1495l260 260h311l-338 -260h-233z" />
<glyph unicode="&#xdb;" horiz-adv-x="1476" d="M94 569v803h219v-788q0 -207 99.5 -299t324.5 -92t324.5 92t99.5 299v788h221v-803q0 -280 -168.5 -434.5t-476.5 -154.5q-307 0 -475 154.5t-168 434.5zM342 1495l268 266h254l271 -266h-236l-154 154h-16l-151 -154h-236z" />
<glyph unicode="&#xdc;" horiz-adv-x="1476" d="M94 569v803h219v-788q0 -207 99.5 -299t324.5 -92t324.5 92t99.5 299v788h221v-803q0 -280 -168.5 -434.5t-476.5 -154.5q-307 0 -475 154.5t-168 434.5zM442 1495v254h209v-254h-209zM825 1495v254h209v-254h-209z" />
<glyph unicode="&#xdd;" horiz-adv-x="1400" d="M-14 1372h270l324 -487l114 -174h17l112 174l322 487h272l-610 -903v-469h-219v473zM586 1495l260 260h311l-338 -260h-233z" />
<glyph unicode="&#xde;" horiz-adv-x="1329" d="M102 0v1372h222v-203h460q233 0 373.5 -128t140.5 -355q0 -225 -140.5 -353t-373.5 -128h-460v-205h-222zM324 403h440q160 0 236.5 65.5t76.5 217.5t-77 218.5t-236 66.5h-440v-568z" />
<glyph unicode="&#xdf;" horiz-adv-x="1325" d="M102 0v887q0 243 153.5 369t457.5 126q258 0 395 -96t137 -252q0 -127 -83.5 -207.5t-256.5 -97.5v-14q189 -15 289 -108t100 -238q0 -175 -119 -272t-352 -97h-325v199h301q149 0 211.5 49t62.5 160q0 108 -70.5 158t-214.5 50h-290v185h256q136 0 204 45t68 139 q0 63 -26.5 102.5t-100.5 63t-201 23.5q-150 0 -232 -28.5t-114.5 -88.5t-32.5 -168v-889h-217z" />
<glyph unicode="&#xe0;" horiz-adv-x="1159" d="M57 246q0 224 328 262l463 49v59q0 126 -60.5 177t-207.5 51q-143 0 -212 -50t-69 -161v-8h-219v8q0 177 139 291t377 114q234 0 351.5 -114t117.5 -306v-618h-203v254h-14q-40 -129 -157 -201.5t-290 -72.5q-159 0 -251.5 70.5t-92.5 195.5zM135 1413h309l261 -266h-232 zM279 260q0 -62 43.5 -91.5t138.5 -29.5q181 0 284 71t103 216l-399 -45q-91 -11 -130.5 -37t-39.5 -84z" />
<glyph unicode="&#xe1;" horiz-adv-x="1159" d="M57 246q0 224 328 262l463 49v59q0 126 -60.5 177t-207.5 51q-143 0 -212 -50t-69 -161v-8h-219v8q0 177 139 291t377 114q234 0 351.5 -114t117.5 -306v-618h-203v254h-14q-40 -129 -157 -201.5t-290 -72.5q-159 0 -251.5 70.5t-92.5 195.5zM279 260q0 -62 43.5 -91.5 t138.5 -29.5q181 0 284 71t103 216l-399 -45q-91 -11 -130.5 -37t-39.5 -84zM471 1147l262 266h309l-340 -266h-231z" />
<glyph unicode="&#xe2;" horiz-adv-x="1159" d="M57 246q0 224 328 262l463 49v59q0 126 -60.5 177t-207.5 51q-143 0 -212 -50t-69 -161v-8h-219v8q0 177 139 291t377 114q234 0 351.5 -114t117.5 -306v-618h-203v254h-14q-40 -129 -157 -201.5t-290 -72.5q-159 0 -251.5 70.5t-92.5 195.5zM190 1147l269 266h256 l268 -266h-235l-152 153h-16l-154 -153h-236zM279 260q0 -62 43.5 -91.5t138.5 -29.5q181 0 284 71t103 216l-399 -45q-91 -11 -130.5 -37t-39.5 -84z" />
<glyph unicode="&#xe3;" horiz-adv-x="1159" d="M57 246q0 224 328 262l463 49v59q0 126 -60.5 177t-207.5 51q-143 0 -212 -50t-69 -161v-8h-219v8q0 177 139 291t377 114q234 0 351.5 -114t117.5 -306v-618h-203v254h-14q-40 -129 -157 -201.5t-290 -72.5q-159 0 -251.5 70.5t-92.5 195.5zM252 1159v84q0 182 164 182 q63 0 157 -53l52 -29q56 -34 92 -34q57 0 57 69v39h148v-80q0 -86 -38.5 -136t-115.5 -50q-76 0 -162 53l-65 33q-58 35 -88 35q-52 0 -52 -62v-51h-149zM279 260q0 -62 43.5 -91.5t138.5 -29.5q181 0 284 71t103 216l-399 -45q-91 -11 -130.5 -37t-39.5 -84z" />
<glyph unicode="&#xe4;" horiz-adv-x="1159" d="M57 246q0 224 328 262l463 49v59q0 126 -60.5 177t-207.5 51q-143 0 -212 -50t-69 -161v-8h-219v8q0 177 139 291t377 114q234 0 351.5 -114t117.5 -306v-618h-203v254h-14q-40 -129 -157 -201.5t-290 -72.5q-159 0 -251.5 70.5t-92.5 195.5zM279 260q0 -62 43.5 -91.5 t138.5 -29.5q181 0 284 71t103 216l-399 -45q-91 -11 -130.5 -37t-39.5 -84zM291 1147v254h211v-254h-211zM674 1147v254h211v-254h-211z" />
<glyph unicode="&#xe5;" horiz-adv-x="1159" d="M57 246q0 224 328 262l463 49v59q0 126 -60.5 177t-207.5 51q-143 0 -212 -50t-69 -161v-8h-219v8q0 177 139 291t377 114q234 0 351.5 -114t117.5 -306v-618h-203v254h-14q-40 -129 -157 -201.5t-290 -72.5q-159 0 -251.5 70.5t-92.5 195.5zM279 260q0 -62 43.5 -91.5 t138.5 -29.5q181 0 284 71t103 216l-399 -45q-91 -11 -130.5 -37t-39.5 -84zM379 1294q0 82 57.5 131.5t151.5 49.5q93 0 150 -50t57 -131t-57 -130.5t-150 -49.5q-94 0 -151.5 49t-57.5 131zM483 1294q0 -42 24.5 -63t80.5 -21t80 20.5t24 63.5t-24 63.5t-80 20.5 t-80.5 -21t-24.5 -63z" />
<glyph unicode="&#xe6;" horiz-adv-x="1984" d="M51 246q0 118 86.5 183t243.5 81l485 51v55q0 126 -62.5 177t-215.5 51q-151 0 -222 -50t-71 -161v-15h-221v15q0 178 139.5 291.5t378.5 113.5q283 0 403 -168q73 81 180.5 124.5t239.5 43.5q240 0 385.5 -128t145.5 -355q0 -26 -9 -96h-866q6 -152 86.5 -226.5 t253.5 -74.5q303 0 303 190v17h219v-19q0 -162 -144 -264t-370 -102q-188 0 -320 75t-190 219h-12q-44 -143 -175 -218.5t-310 -75.5q-166 0 -263.5 70.5t-97.5 195.5zM272 260q0 -121 193 -121q385 0 405 283v4l-428 -45q-87 -10 -128.5 -37t-41.5 -84zM1073 582h664v4 q0 278 -326 278q-165 0 -247 -71t-91 -211z" />
<glyph unicode="&#xe7;" horiz-adv-x="1206" d="M61 508q0 238 152 384t403 146q231 0 380 -118.5t149 -307.5v-20h-219v12q0 117 -81.5 176.5t-232.5 59.5q-170 0 -250.5 -81.5t-80.5 -250.5q0 -166 80.5 -248t250.5 -82q151 0 232.5 59.5t81.5 176.5v14h219v-22q0 -173 -126.5 -288t-328.5 -134v-88h43q92 0 142.5 -45 t50.5 -121q0 -79 -50 -124.5t-143 -45.5h-180v125h182q56 0 56 43q0 45 -56 45h-170v209q-230 15 -367 159t-137 367z" />
<glyph unicode="&#xe8;" horiz-adv-x="1204" d="M61 508q0 238 150.5 384t398.5 146q241 0 386 -127.5t145 -355.5q0 -55 -8 -96h-865q6 -152 86.5 -226.5t253.5 -74.5q301 0 301 190v17h221v-19q0 -162 -144 -264t-372 -102q-255 0 -404 138.5t-149 389.5zM150 1413h309l260 -266h-232zM270 582h662v4q0 278 -326 278 q-165 0 -246 -71t-90 -211z" />
<glyph unicode="&#xe9;" horiz-adv-x="1204" d="M61 508q0 238 150.5 384t398.5 146q241 0 386 -127.5t145 -355.5q0 -55 -8 -96h-865q6 -152 86.5 -226.5t253.5 -74.5q301 0 301 190v17h221v-19q0 -162 -144 -264t-372 -102q-255 0 -404 138.5t-149 389.5zM270 582h662v4q0 278 -326 278q-165 0 -246 -71t-90 -211z M485 1147l263 266h309l-340 -266h-232z" />
<glyph unicode="&#xea;" horiz-adv-x="1204" d="M61 508q0 238 150.5 384t398.5 146q241 0 386 -127.5t145 -355.5q0 -55 -8 -96h-865q6 -152 86.5 -226.5t253.5 -74.5q301 0 301 190v17h221v-19q0 -162 -144 -264t-372 -102q-255 0 -404 138.5t-149 389.5zM205 1147l268 266h256l268 -266h-235l-152 153h-16l-154 -153 h-235zM270 582h662v4q0 278 -326 278q-165 0 -246 -71t-90 -211z" />
<glyph unicode="&#xeb;" horiz-adv-x="1204" d="M61 508q0 238 150.5 384t398.5 146q241 0 386 -127.5t145 -355.5q0 -55 -8 -96h-865q6 -152 86.5 -226.5t253.5 -74.5q301 0 301 190v17h221v-19q0 -162 -144 -264t-372 -102q-255 0 -404 138.5t-149 389.5zM270 582h662v4q0 278 -326 278q-165 0 -246 -71t-90 -211z M305 1147v254h211v-254h-211zM688 1147v254h211v-254h-211z" />
<glyph unicode="&#xec;" horiz-adv-x="436" d="M-233 1413h309l262 -266h-234zM109 0v1024h219v-1024h-219z" />
<glyph unicode="&#xed;" horiz-adv-x="436" d="M102 1147l263 266h309l-340 -266h-232zM109 0v1024h219v-1024h-219z" />
<glyph unicode="&#xee;" horiz-adv-x="436" d="M-178 1147l268 266h256l268 -266h-235l-152 153h-16l-154 -153h-235zM109 0v1024h219v-1024h-219z" />
<glyph unicode="&#xef;" horiz-adv-x="436" d="M-78 1147v254h211v-254h-211zM109 0v1024h219v-1024h-219zM305 1147v254h211v-254h-211z" />
<glyph unicode="&#xf0;" horiz-adv-x="1302" d="M10 440q0 205 139 317.5t383 112.5q190 0 306.5 -71.5t156.5 -194.5h17q-8 237 -252 477l-393 -86l-25 111l315 70q-113 95 -276 196h297q121 -66 217 -145l326 71l22 -110l-250 -55q252 -263 252 -580q0 -269 -160.5 -421t-486.5 -152q-283 0 -435.5 123t-152.5 337z M236 440q0 -130 87.5 -188.5t284.5 -58.5q203 0 294 59.5t91 189.5q0 124 -94 184t-291 60q-196 0 -284 -59.5t-88 -186.5z" />
<glyph unicode="&#xf1;" horiz-adv-x="1259" d="M102 0v1018h203v-316h14q26 142 134.5 239t289.5 97q137 0 234 -58t142.5 -152.5t45.5 -215.5v-612h-221v553q0 145 -70.5 216t-226.5 71q-165 0 -244 -84t-79 -252v-504h-222zM299 1159v84q0 182 164 182q64 0 158 -53l51 -29q56 -34 92 -34q57 0 57 69v39h148v-80 q0 -86 -39 -136t-115 -50t-162 53l-65 33q-58 35 -88 35q-51 0 -51 -62v-51h-150z" />
<glyph unicode="&#xf2;" horiz-adv-x="1247" d="M57 508q0 238 156 384t410 146q255 0 411 -146t156 -384q0 -235 -156.5 -381.5t-410.5 -146.5q-253 0 -409.5 146.5t-156.5 381.5zM172 1413h309l260 -266h-231zM274 508q0 -165 84 -248.5t265 -83.5q182 0 266 83.5t84 248.5q0 167 -84 251.5t-266 84.5 q-181 0 -265 -84.5t-84 -251.5z" />
<glyph unicode="&#xf3;" horiz-adv-x="1247" d="M57 508q0 238 156 384t410 146q255 0 411 -146t156 -384q0 -235 -156.5 -381.5t-410.5 -146.5q-253 0 -409.5 146.5t-156.5 381.5zM274 508q0 -165 84 -248.5t265 -83.5q182 0 266 83.5t84 248.5q0 167 -84 251.5t-266 84.5q-181 0 -265 -84.5t-84 -251.5zM506 1147 l262 266h309l-338 -266h-233z" />
<glyph unicode="&#xf4;" horiz-adv-x="1247" d="M57 508q0 238 156 384t410 146q255 0 411 -146t156 -384q0 -235 -156.5 -381.5t-410.5 -146.5q-253 0 -409.5 146.5t-156.5 381.5zM227 1147l269 266h254l270 -266h-236l-153 153h-17l-151 -153h-236zM274 508q0 -165 84 -248.5t265 -83.5q182 0 266 83.5t84 248.5 q0 167 -84 251.5t-266 84.5q-181 0 -265 -84.5t-84 -251.5z" />
<glyph unicode="&#xf5;" horiz-adv-x="1247" d="M57 508q0 238 156 384t410 146q255 0 411 -146t156 -384q0 -235 -156.5 -381.5t-410.5 -146.5q-253 0 -409.5 146.5t-156.5 381.5zM274 508q0 -165 84 -248.5t265 -83.5q182 0 266 83.5t84 248.5q0 167 -84 251.5t-266 84.5q-181 0 -265 -84.5t-84 -251.5zM287 1159v84 q0 182 166 182q60 0 157 -53l52 -29q56 -34 92 -34q57 0 57 69v39h147v-80q0 -86 -39 -136t-116 -50q-72 0 -162 53l-63 33q-58 35 -89 35q-53 0 -53 -62v-51h-149z" />
<glyph unicode="&#xf6;" horiz-adv-x="1247" d="M57 508q0 238 156 384t410 146q255 0 411 -146t156 -384q0 -235 -156.5 -381.5t-410.5 -146.5q-253 0 -409.5 146.5t-156.5 381.5zM274 508q0 -165 84 -248.5t265 -83.5q182 0 266 83.5t84 248.5q0 167 -84 251.5t-266 84.5q-181 0 -265 -84.5t-84 -251.5zM328 1147v254 h209v-254h-209zM711 1147v254h209v-254h-209z" />
<glyph unicode="&#xf7;" horiz-adv-x="1015" d="M86 594v184h852v-184h-852zM395 143v293h236v-293h-236zM395 936v293h236v-293h-236z" />
<glyph unicode="&#xf8;" horiz-adv-x="1247" d="M57 55l117 113q-117 139 -117 340q0 238 156 384t410 146q199 0 346 -94l112 109l86 -92l-102 -101q125 -141 125 -352q0 -235 -156.5 -381.5t-410.5 -146.5q-213 0 -355 102l-123 -119zM274 508q0 -122 45 -199l506 494q-77 41 -202 41q-181 0 -265 -84.5t-84 -251.5z M410 221q77 -45 213 -45q182 0 266 83.5t84 248.5q0 133 -51 213z" />
<glyph unicode="&#xf9;" d="M100 406v612h219v-553q0 -145 72.5 -216t231.5 -71q329 0 329 336v504h219v-1018h-202v315h-13q-13 -67 -45 -125.5t-83.5 -106t-129 -75.5t-172.5 -28q-206 0 -316 119.5t-110 306.5zM182 1413h310l262 -266h-232z" />
<glyph unicode="&#xfa;" d="M100 406v612h219v-553q0 -145 72.5 -216t231.5 -71q329 0 329 336v504h219v-1018h-202v315h-13q-13 -67 -45 -125.5t-83.5 -106t-129 -75.5t-172.5 -28q-206 0 -316 119.5t-110 306.5zM518 1147l262 266h310l-338 -266h-234z" />
<glyph unicode="&#xfb;" d="M100 406v612h219v-553q0 -145 72.5 -216t231.5 -71q329 0 329 336v504h219v-1018h-202v315h-13q-13 -67 -45 -125.5t-83.5 -106t-129 -75.5t-172.5 -28q-206 0 -316 119.5t-110 306.5zM240 1147l268 266h254l270 -266h-237l-152 153h-16l-152 -153h-235z" />
<glyph unicode="&#xfc;" d="M100 406v612h219v-553q0 -145 72.5 -216t231.5 -71q329 0 329 336v504h219v-1018h-202v315h-13q-13 -67 -45 -125.5t-83.5 -106t-129 -75.5t-172.5 -28q-206 0 -316 119.5t-110 306.5zM338 1147v254h211v-254h-211zM721 1147v254h211v-254h-211z" />
<glyph unicode="&#xfd;" horiz-adv-x="1210" d="M0 1018h248l260 -541l100 -244h17l96 246l240 539h243l-530 -1129q-62 -133 -154.5 -185t-253.5 -52h-145v201h198q67 0 101 20.5t57 73.5l25 53zM485 1147l263 266h309l-338 -266h-234z" />
<glyph unicode="&#xfe;" horiz-adv-x="1282" d="M92 -348v1720h221v-641h9q31 142 142 224.5t281 82.5q231 0 358.5 -144t127.5 -386q0 -241 -127.5 -384.5t-358.5 -143.5q-170 0 -281 82.5t-142 224.5h-9v-635h-221zM313 492q0 -154 94 -233t263 -79t254.5 76t85.5 252q0 178 -85.5 254t-254.5 76t-263 -79.5 t-94 -234.5v-32z" />
<glyph unicode="&#xff;" horiz-adv-x="1210" d="M0 1018h248l260 -541l100 -244h17l96 246l240 539h243l-530 -1129q-62 -133 -154.5 -185t-253.5 -52h-145v201h198q67 0 101 20.5t57 73.5l25 53zM305 1147v254h211v-254h-211zM688 1147v254h211v-254h-211z" />
<glyph unicode="&#x152;" horiz-adv-x="2246" d="M61 686q0 319 189 502.5t518 183.5h1409v-198h-877v-386h846v-196h-846v-393h877v-199h-1409q-329 0 -518 183.5t-189 502.5zM295 686q0 -261 112 -374t361 -113h311v975h-311q-249 0 -361 -113.5t-112 -374.5z" />
<glyph unicode="&#x153;" horiz-adv-x="2125" d="M57 508q0 238 156 384t410 146q150 0 268.5 -52.5t193.5 -149.5q71 96 187 149t262 53q240 0 385 -127.5t145 -355.5q0 -34 -8 -96h-866q6 -152 86.5 -226.5t253.5 -74.5q303 0 303 190v17h219v-19q0 -162 -144 -264t-370 -102q-152 0 -269.5 50.5t-187.5 147.5 q-74 -95 -192 -146.5t-266 -51.5q-253 0 -409.5 146.5t-156.5 381.5zM274 508q0 -165 84 -248.5t265 -83.5q182 0 266 83.5t84 248.5q0 167 -84 251.5t-266 84.5q-181 0 -265 -84.5t-84 -251.5zM1192 582h663v4q0 278 -325 278q-165 0 -247 -71t-91 -211z" />
<glyph unicode="&#x178;" horiz-adv-x="1400" d="M-14 1372h270l324 -487l114 -174h17l112 174l322 487h272l-610 -903v-469h-219v473zM403 1495v254h211v-254h-211zM786 1495v254h211v-254h-211z" />
<glyph unicode="&#x2000;" horiz-adv-x="887" />
<glyph unicode="&#x2001;" horiz-adv-x="1774" />
<glyph unicode="&#x2002;" horiz-adv-x="887" />
<glyph unicode="&#x2003;" horiz-adv-x="1774" />
<glyph unicode="&#x2004;" horiz-adv-x="591" />
<glyph unicode="&#x2005;" horiz-adv-x="443" />
<glyph unicode="&#x2006;" horiz-adv-x="295" />
<glyph unicode="&#x2007;" horiz-adv-x="295" />
<glyph unicode="&#x2008;" horiz-adv-x="221" />
<glyph unicode="&#x2009;" horiz-adv-x="354" />
<glyph unicode="&#x200a;" horiz-adv-x="98" />
<glyph unicode="&#x2010;" horiz-adv-x="774" d="M61 508v188h652v-188h-652z" />
<glyph unicode="&#x2011;" horiz-adv-x="774" d="M61 508v188h652v-188h-652z" />
<glyph unicode="&#x2012;" horiz-adv-x="774" d="M61 508v188h652v-188h-652z" />
<glyph unicode="&#x2013;" horiz-adv-x="1056" d="M61 508v188h934v-188h-934z" />
<glyph unicode="&#x2014;" horiz-adv-x="1759" d="M61 508v188h1637v-188h-1637z" />
<glyph unicode="&#x2018;" horiz-adv-x="401" d="M61 866v359q0 94 53 141t150 47h74v-135h-70q-28 0 -39.5 -10t-11.5 -41v-43h123v-318h-279z" />
<glyph unicode="&#x2019;" horiz-adv-x="401" d="M61 1055v317h279v-358q0 -95 -52 -143t-149 -48h-73v135h67q27 0 39 11.5t12 42.5v43h-123z" />
<glyph unicode="&#x201a;" horiz-adv-x="538" d="M61 0v317h279v-358q0 -94 -52 -141t-149 -47h-73v135h67q28 0 39.5 10t11.5 41v43h-123z" />
<glyph unicode="&#x201c;" horiz-adv-x="784" d="M61 866v359q0 94 53 141t150 47h74v-135h-70q-28 0 -39.5 -10t-11.5 -41v-43h123v-318h-279zM442 866v359q0 94 53 141t150 47h74v-135h-68q-28 0 -39.5 -10t-11.5 -41v-43h123v-318h-281z" />
<glyph unicode="&#x201d;" horiz-adv-x="784" d="M61 1055v317h279v-358q0 -95 -52 -143t-149 -48h-73v135h67q27 0 39 11.5t12 42.5v43h-123zM442 1055v317h281v-358q0 -95 -53 -143t-150 -48h-74v135h70q27 0 38 11.5t11 42.5v43h-123z" />
<glyph unicode="&#x201e;" horiz-adv-x="784" d="M61 0v317h279v-358q0 -94 -52 -141t-149 -47h-73v135h67q28 0 39.5 10t11.5 41v43h-123zM442 0v317h281v-358q0 -94 -53 -141t-150 -47h-74v135h70q28 0 38.5 10t10.5 41v43h-123z" />
<glyph unicode="&#x2022;" horiz-adv-x="606" d="M51 686q0 114 73 183t179 69t179 -69t73 -183t-73 -183t-179 -69t-179 69t-73 183z" />
<glyph unicode="&#x2026;" horiz-adv-x="1325" d="M72 0v317h278v-317h-278zM522 0v317h281v-317h-281zM975 -2v319h278v-319h-278z" />
<glyph unicode="&#x202f;" horiz-adv-x="354" />
<glyph unicode="&#x2039;" horiz-adv-x="512" d="M41 506v237l410 285v-227l-258 -168v-17l258 -167v-228z" />
<glyph unicode="&#x203a;" horiz-adv-x="512" d="M61 221v228l256 167v17l-256 168v227l410 -285v-237z" />
<glyph unicode="&#x205f;" horiz-adv-x="443" />
<glyph unicode="&#x20ac;" horiz-adv-x="1345" d="M20 473v143h189q-2 23 -2 70q0 45 2 68h-189v143h211q57 225 232.5 350t437.5 125h383v-198h-383q-186 0 -292.5 -65.5t-145.5 -211.5h579v-143h-600q-2 -20 -2 -68q0 -47 2 -70h600v-143h-577q39 -144 144.5 -209t291.5 -65h383v-199h-383q-260 0 -435.5 124.5 t-234.5 348.5h-211z" />
<glyph unicode="&#x2122;" horiz-adv-x="1136" d="M20 1266v106h463v-106h-172v-305h-116v305h-175zM547 961v411h145l127 -291h6l121 291h150v-411h-109v172l2 94h-8l-100 -232h-119l-107 232h-6l4 -92v-174h-106z" />
<glyph unicode="&#x25fc;" horiz-adv-x="1013" d="M0 0v1014h1014v-1014h-1014z" />
</font>
</defs>
</svg>
