<svg width="20" height="20" viewBox="0 0 20 20" fill="none" xmlns="http://www.w3.org/2000/svg">
<path fill-rule="evenodd" clip-rule="evenodd" d="M6.37621 6.3759C6.76673 5.98538 7.3999 5.98538 7.79042 6.3759L10.0833 8.66879L12.3762 6.3759C12.7667 5.98538 13.3999 5.98538 13.7904 6.3759C14.1809 6.76643 14.1809 7.39959 13.7904 7.79011L11.4975 10.083L13.7904 12.3759C14.1809 12.7664 14.1809 13.3996 13.7904 13.7901C13.3999 14.1806 12.7667 14.1806 12.3762 13.7901L10.0833 11.4972L7.79042 13.7901C7.3999 14.1806 6.76673 14.1806 6.37621 13.7901C5.98568 13.3996 5.98568 12.7664 6.37621 12.3759L8.6691 10.083L6.37621 7.79011C5.98568 7.39959 5.98568 6.76643 6.37621 6.3759Z" fill="#FF6600"/>
<rect x="1" y="1" width="18" height="18" rx="9" stroke="#FF6600" stroke-width="2"/>
</svg>
