<svg width="24" height="24" viewBox="0 0 24 24" fill="none" xmlns="http://www.w3.org/2000/svg">
<path d="M20.999 1.39904e-06C20.8911 -8.26493e-05 20.7883 0.0463597 20.7171 0.127444L18.0928 3.12822C17.8796 3.37089 18.0525 3.75161 18.3755 3.75078H19.499V7.49937H16.1248V5.24861H17.2483C17.5691 5.24778 17.7409 4.87084 17.5311 4.62824L14.9068 1.62746C14.8352 1.54646 14.7322 1.50027 14.6241 1.50075C14.5163 1.50049 14.4135 1.54665 14.3421 1.62746L11.7179 4.62824C11.5083 4.87058 11.6795 5.24717 11.9999 5.24861H13.1241V7.49937H9.75062V6.74863H10.8771C11.1971 6.74728 11.3685 6.37156 11.1598 6.12899L8.53262 3.12822C8.46118 3.04694 8.35812 3.00048 8.24991 3.00077C8.14195 3.00069 8.0392 3.04713 7.96793 3.12822L5.34369 6.12899C5.13522 6.3713 5.30603 6.74665 5.62567 6.74863H6.74992V7.49937H5.62494C5.41783 7.50019 5.2506 7.66873 5.25141 7.87584C5.25219 8.0818 5.41898 8.24858 5.62494 8.24938H23.6181C23.8252 8.2502 23.9938 8.08294 23.9946 7.87584C23.9954 7.66759 23.8264 7.49855 23.6181 7.49937H22.4997V3.75078H23.6233C23.9463 3.75161 24.1192 3.37089 23.906 3.12822L21.2817 0.127444C21.2103 0.0461672 21.1072 -0.00029389 20.999 1.39904e-06ZM13.5504 9.74867C12.7988 9.74315 12.0341 9.85636 11.2858 10.101C10.0834 10.494 9.05306 11.1838 8.24918 12.0639V11.6237C8.24918 11.0069 7.7424 10.5001 7.12565 10.5001H1.12352C0.506772 10.5001 0 11.0069 0 11.6237V13.1244C0 13.7412 0.50713 14.2504 1.12352 14.2509C1.37722 14.2509 1.66492 14.2509 1.94383 14.2509C1.90149 14.3684 1.87425 14.4931 1.87425 14.6245V16.1252C1.87425 16.2571 1.89744 16.3837 1.94016 16.5017H1.12352C0.506772 16.5017 0 17.0085 0 17.6252V19.126C0 19.4131 0.110329 19.6758 0.290036 19.8753C0.110375 20.0754 0 20.3389 0 20.626V22.1231C0 22.7399 0.50713 23.2491 1.12352 23.2496C3.08154 23.2497 5.60587 23.2496 7.12565 23.2496C7.74205 23.2491 8.24918 22.7399 8.24918 22.1231V21.688C9.68008 23.2469 11.781 24.1459 14.0235 23.9805C17.5999 23.7169 20.4259 20.8282 20.6152 17.251L22.3943 15.4939L22.8703 15.9758C23.0884 16.1952 23.4635 16.0711 23.5075 15.7649L23.9946 12.4294C24.0276 12.203 23.852 12 23.6233 12.0002L20.1963 12.006C19.882 12.0087 19.7102 12.3737 19.9085 12.6176L20.3933 13.2072L19.8447 13.6306C18.759 11.5701 16.6351 9.80404 13.5504 9.74867ZM1.12352 11.2502H1.50072V12.0002C1.50152 12.2061 1.66829 12.3729 1.87425 12.3737C2.08135 12.3745 2.2499 12.2073 2.25071 12.0002V11.2502H3.0007V12.0002C3.0015 12.2061 3.16827 12.3729 3.37423 12.3737C3.58133 12.3745 3.74988 12.2073 3.75069 12.0002V11.2502H4.50141V12.0002C4.5022 12.2061 4.66899 12.3729 4.87495 12.3737C5.08205 12.3745 5.2506 12.2073 5.25141 12.0002V11.2502H5.99847V12.0002C5.99929 12.2073 6.16783 12.3745 6.37493 12.3737C6.58089 12.3729 6.74766 12.2061 6.74846 12.0002V11.2502H7.12565C7.33989 11.2502 7.49918 11.4095 7.49918 11.6237V13.0387C7.40303 13.1894 7.31355 13.3435 7.22892 13.5009C5.11953 13.5008 2.91166 13.501 1.12499 13.5009C0.910114 13.4996 0.749992 13.3379 0.749992 13.1244V11.6237C0.749992 11.4095 0.909287 11.2502 1.12352 11.2502ZM13.513 12.3752C15.3703 12.3785 17.0443 13.5277 17.7083 15.28L17.2593 15.6264L15.6429 13.988C15.5289 13.8727 15.3536 13.8437 15.2086 13.9162L14.1121 14.4619C13.9202 14.1132 13.5493 13.8745 13.127 13.8745H12.7506C12.7498 13.6682 12.5826 13.5013 12.3763 13.5009C12.1692 13.5001 12.0007 13.6673 11.9999 13.8745H11.6263C11.0096 13.8745 10.4999 14.3842 10.4999 15.0009V15.3745C10.4999 15.9912 11.0096 16.4988 11.6263 16.4988H11.9999V17.6252H11.6263C11.4121 17.6252 11.2499 17.463 11.2499 17.2488C11.2563 17.1026 11.1563 16.9894 11.0983 16.9507C10.9404 16.833 10.7677 16.8714 10.6749 16.9338L9.1039 17.831C8.98574 17.2862 8.96695 16.7125 9.06289 16.1362C9.35231 14.2239 11.0649 12.3853 13.513 12.3752ZM23.1889 12.7502L22.8733 14.9101L22.666 14.6992C22.5202 14.551 22.2817 14.5497 22.1343 14.6962L17.2073 19.5595L15.588 18.4411C15.4722 18.3612 15.3215 18.3527 15.1976 18.4191L11.0778 20.6663C10.2795 20.1571 9.67532 19.4173 9.33022 18.565L10.6515 17.8098C10.8475 18.1466 11.2129 18.376 11.6263 18.376H11.9999C12.0007 18.5831 12.1692 18.7503 12.3763 18.7495C12.5826 18.7491 12.7498 18.5822 12.7506 18.376H13.127C13.7438 18.376 14.2506 17.8655 14.2506 17.2488V16.8752C14.2506 16.2585 13.7438 15.7517 13.127 15.7517H12.7506V14.6245H13.127C13.3413 14.6245 13.5006 14.7867 13.5006 15.0009C13.4969 15.166 13.6016 15.2657 13.6624 15.3071C13.7904 15.4089 13.9675 15.3751 14.0382 15.3371L15.2994 14.708L16.9576 16.3874C17.0908 16.5221 17.3035 16.5362 17.4534 16.4204L21.1543 13.5668C21.3231 13.4375 21.3507 13.1938 21.2151 13.03L20.991 12.756L23.1889 12.7502ZM3.0007 14.2509H3.37423V15.0009C3.37504 15.208 3.54359 15.3753 3.75069 15.3745C3.95665 15.3737 4.12342 15.2069 4.12422 15.0009V14.2509H4.87495V15.0009C4.87577 15.208 5.0443 15.3753 5.25141 15.3745C5.45737 15.3737 5.62413 15.2069 5.62494 15.0009V14.2509C6.06035 14.2509 6.4632 14.2509 6.8781 14.2509C6.59618 14.9612 6.42708 15.7184 6.38591 16.4988C5.20837 16.4988 4.7679 16.4988 3.0007 16.4988C2.78611 16.4986 2.62424 16.3394 2.62424 16.1252V14.6245C2.62424 14.4102 2.78646 14.2509 3.0007 14.2509ZM11.6263 14.6245H11.9999V15.7517H11.6263C11.4121 15.7517 11.2499 15.5887 11.2499 15.3745V15.0009C11.2499 14.7867 11.4121 14.6245 11.6263 14.6245ZM12.7506 16.4988H13.127C13.3413 16.4988 13.5006 16.661 13.5006 16.8752V17.2488C13.5006 17.463 13.3413 17.6252 13.127 17.6252H12.7506V16.4988ZM1.12352 17.2488H1.50072V17.9988C1.4995 18.2062 1.66686 18.3752 1.87425 18.376C2.08278 18.3768 2.25193 18.2073 2.25071 17.9988V17.2488H3.0007V17.9988C2.99948 18.2062 3.16684 18.3752 3.37423 18.376C3.58276 18.3768 3.75191 18.2073 3.75069 17.9988V17.2488H4.50141V17.9988C4.50021 18.2062 4.66756 18.3752 4.87495 18.376C5.08348 18.3768 5.25263 18.2073 5.25141 17.9988V17.2488H6.38518C6.4029 17.5822 6.44415 17.9177 6.51043 18.2537C6.59571 18.686 6.71944 19.1023 6.87663 19.4995H1.12499C0.910121 19.4982 0.749992 19.3394 0.749992 19.126V17.6252C0.749992 17.411 0.909287 17.2488 1.12352 17.2488ZM15.3521 19.1897L16.6514 20.0877C15.4047 21.3123 13.5464 21.7112 11.8922 21.0772L15.3521 19.1897ZM1.12352 20.2495C1.24657 20.2495 1.37359 20.2495 1.50072 20.2495V20.9995C1.4995 21.2069 1.66686 21.3759 1.87425 21.3768C2.08278 21.3776 2.25193 21.2081 2.25071 20.9995V20.2495C2.515 20.2495 2.73102 20.2495 3.0007 20.2495V20.9995C2.99948 21.2069 3.16684 21.3759 3.37423 21.3768C3.58277 21.3776 3.75191 21.2081 3.75069 20.9995V20.2495C4.01991 20.2495 4.23906 20.2495 4.50141 20.2495V20.9995C4.50021 21.2069 4.66755 21.3759 4.87495 21.3768C5.08348 21.3776 5.25263 21.2081 5.25141 20.9995V20.2495C5.49955 20.2495 5.76927 20.2495 5.99847 20.2495V20.9995C5.99723 21.2081 6.16639 21.3776 6.37493 21.3768C6.58232 21.3759 6.74968 21.2069 6.74846 20.9995V20.2495H7.22526C7.31092 20.4087 7.40229 20.5641 7.49918 20.7154V22.1231C7.49918 22.3373 7.34024 22.4994 7.12565 22.4996H1.12499C0.910113 22.4982 0.749992 22.3365 0.749992 22.1231V20.626C0.749992 20.4118 0.909287 20.2495 1.12352 20.2495Z" fill="white"/>
</svg>
