<svg width="28" height="46" viewBox="0 0 28 46" fill="none" xmlns="http://www.w3.org/2000/svg">
<path d="M14.3751 10.0625H4.31262V11.5H14.3751V10.0625Z" fill="black"/>
<path d="M14.3751 5.75H4.31262V7.1875H14.3751V5.75Z" fill="black"/>
<path d="M18.6876 0H2.875C1.29371 0 0 1.29371 0 2.875V35.9375C0 37.5187 1.29371 38.8125 2.875 38.8125H14.375V46L17.9687 42.4063L21.5626 46V38.8125H24.4376C26.0188 38.8125 27.3126 37.5187 27.3126 35.9375V10.0625L18.6876 0ZM18.6876 2.15629L25.4439 10.0626H20.1251C19.4064 10.0626 18.6876 9.34386 18.6876 8.62508V2.15629ZM20.125 42.55L17.9687 40.3937L15.8126 42.55V36.9438C16.5313 37.2313 17.2501 37.375 17.9689 37.375C18.6877 37.375 19.4064 37.2313 20.1252 36.9438V42.55H20.125ZM17.9688 35.9375C15.9563 35.9375 14.3751 34.3563 14.3751 32.3438C14.3751 30.3313 15.9563 28.75 17.9688 28.75C19.9813 28.75 21.5625 30.3312 21.5625 32.3437C21.5625 34.3562 19.9813 35.9375 17.9688 35.9375ZM25.875 35.9375C25.875 36.6562 25.3 37.375 24.4375 37.375H21.5625V35.7938C22.425 34.9312 23 33.6375 23 32.3438C23 29.6125 20.7 27.3125 17.9687 27.3125C15.2374 27.3125 12.9374 29.6125 12.9374 32.3438C12.9374 33.7813 13.5124 34.9313 14.3749 35.7938V37.375H2.87493C2.15621 37.375 1.43743 36.8 1.43743 35.9375V2.875C1.43743 2.15629 2.01243 1.4375 2.87493 1.4375H17.2499V8.625C17.2499 10.2063 18.5437 11.5 20.1249 11.5H25.8749L25.875 35.9375Z" fill="black"/>
<path d="M23.0001 14.375H4.31262V15.8125H23.0001V14.375Z" fill="black"/>
<path d="M23.0001 23H4.31262V24.4375H23.0001V23Z" fill="black"/>
<path d="M23.0001 18.6875H4.31262V20.125H23.0001V18.6875Z" fill="black"/>
</svg>
