<svg width="41" height="40" viewBox="0 0 41 40" fill="none" xmlns="http://www.w3.org/2000/svg">
<g clip-path="url(#clip0_137_22237)">
<path d="M27.38 24C34.0074 24 39.38 18.6274 39.38 12C39.38 5.37258 34.0074 0 27.38 0C20.7526 0 15.38 5.37258 15.38 12C15.38 18.6274 20.7526 24 27.38 24Z" fill="#FFD202"/>
<path d="M10.38 4L12.4103 6.20861" stroke="black" stroke-width="1.6" stroke-linecap="round" stroke-linejoin="round"/>
<path d="M8.38 9.5H11.38" stroke="black" stroke-width="1.6" stroke-linecap="round" stroke-linejoin="round"/>
<path d="M15.88 2V5" stroke="black" stroke-width="1.6" stroke-linecap="round" stroke-linejoin="round"/>
<mask id="mask0_137_22237" style="mask-type:luminance" maskUnits="userSpaceOnUse" x="1" y="7" width="40" height="33">
<path d="M1.38 7H40.3103V39.4416H1.38V7Z" fill="white"/>
</mask>
<g mask="url(#mask0_137_22237)">
<path fill-rule="evenodd" clip-rule="evenodd" d="M30.672 17.8325L32.572 23.7995H30.11C28.893 23.7995 27.828 24.5755 27.453 25.7305C27.077 24.5755 26.012 23.7995 24.796 23.7995H23.83H22.99H22.151H21.386L21.769 22.5985L22.189 21.2805L22.609 19.9615L22.66 19.7995L22.914 18.9995L23.169 18.2005L23.286 17.8325C23.445 17.3345 23.902 16.9995 24.426 16.9995H28.621H29.416H29.533C29.781 16.9995 30.012 17.0795 30.205 17.2115C30.42 17.3585 30.589 17.5705 30.672 17.8325ZM18.631 8.59951H24.85C25.354 8.59951 25.806 8.91751 25.976 9.39251L28.128 15.3995H24.426C23.209 15.3995 22.145 16.1755 21.769 17.3305C21.393 16.1755 20.328 15.3995 19.111 15.3995H15.354L17.506 9.39251C17.676 8.91751 18.128 8.59951 18.631 8.59951ZM13.277 17.2505C13.481 17.0935 13.733 16.9995 14.004 16.9995H14.066H14.86H19.111C19.635 16.9995 20.092 17.3345 20.251 17.8325L20.368 18.2005L20.623 18.9995L20.877 19.7995L20.929 19.9615L19.707 23.7995H19.689C18.613 23.7995 17.656 24.4055 17.19 25.3445C15.844 23.5685 13.846 22.3215 11.551 21.9595L12.865 17.8325C12.942 17.5935 13.089 17.3955 13.277 17.2505ZM10.18 37.8425C8.52101 37.8425 6.995 37.2725 5.776 36.3255C5.276 35.9365 4.82901 35.4835 4.445 34.9785C3.52901 33.7705 2.98 32.2715 2.98 30.6425C2.98 26.9405 5.788 23.8855 9.385 23.4885C9.64701 23.4595 9.91101 23.4415 10.18 23.4415C10.199 23.4415 10.219 23.4445 10.238 23.4445C10.517 23.4475 10.79 23.4685 11.06 23.5015C11.526 23.5585 11.977 23.6585 12.41 23.7995C13.006 23.9945 13.566 24.2655 14.082 24.5995C14.892 25.1245 15.592 25.8035 16.135 26.6005C16.281 26.8155 16.415 27.0415 16.539 27.2735C16.561 27.3145 16.578 27.3575 16.6 27.3995C16.731 27.6575 16.845 27.9245 16.944 28.1995C16.969 28.2675 16.996 28.3335 17.019 28.4025C17.187 28.9145 17.299 29.4505 17.348 30.0055C17.366 30.2155 17.38 30.4275 17.38 30.6425C17.38 31.0305 17.34 31.4095 17.281 31.7815C17.132 32.7095 16.808 33.5775 16.339 34.3525C16.203 34.5765 16.057 34.7925 15.898 34.9995C15.883 35.0195 15.868 35.0405 15.854 35.0595C15.69 35.2695 15.516 35.4725 15.33 35.6635C15.285 35.7095 15.239 35.7545 15.193 35.7995C14.892 36.0925 14.567 36.3625 14.218 36.5995C13.066 37.3835 11.676 37.8425 10.18 37.8425ZM25.3 34.9995H19.185H18.265H17.815C18.129 34.4515 18.392 33.8705 18.583 33.2575C18.744 32.7405 18.855 32.2015 18.917 31.6485C18.955 31.3175 18.98 30.9825 18.98 30.6425C18.98 29.7935 18.853 28.9765 18.628 28.1995C18.549 27.9275 18.457 27.6605 18.353 27.3995C18.32 27.3175 18.29 27.2355 18.256 27.1545L18.433 26.6005L18.549 26.2325C18.672 25.8465 18.977 25.5635 19.35 25.4535C19.458 25.4215 19.57 25.3995 19.689 25.3995H20.144H20.94H22.598H23.394H24.19H24.796C25.318 25.3995 25.776 25.7345 25.936 26.2325L26.052 26.6005L26.307 27.3995L26.562 28.1995L26.613 28.3625L27.033 29.6805L27.453 30.9985L28.231 33.4415C28.348 33.8095 28.284 34.1985 28.057 34.5095C27.903 34.7195 27.692 34.8625 27.453 34.9375C27.337 34.9745 27.218 34.9995 27.092 34.9995H26.22H25.3ZM38.478 34.5095C38.25 34.8215 37.899 34.9995 37.513 34.9995H29.606C29.91 34.3645 29.975 33.6465 29.756 32.9565L28.292 28.3625L28.344 28.1995L28.599 27.3995L28.854 26.6005L28.971 26.2315C29.129 25.7345 29.586 25.3995 30.11 25.3995H33.019H33.815H34.61H35.217C35.74 25.3995 36.197 25.7345 36.356 26.2325L38.652 33.4415C38.769 33.8095 38.705 34.1985 38.478 34.5095ZM40.176 32.9565L37.881 25.7475C37.51 24.5825 36.44 23.7995 35.217 23.7995H34.251L32.196 17.3475C31.857 16.2805 30.928 15.5415 29.836 15.4245L27.482 8.85251C27.084 7.74451 26.027 6.99951 24.85 6.99951H18.631C17.455 6.99951 16.397 7.74451 16 8.85251L13.645 15.4285C12.576 15.5655 11.675 16.2985 11.341 17.3475L9.905 21.8555C5.18 22.0025 1.38 25.8825 1.38 30.6425C1.38 35.4945 5.327 39.4415 10.18 39.4415C12.734 39.4415 15.028 38.3425 16.638 36.5995H16.671C16.795 36.5995 16.912 36.5725 17.031 36.5575C17.151 36.5725 17.269 36.5995 17.393 36.5995H27.092C27.216 36.5995 27.333 36.5725 27.453 36.5575C27.572 36.5725 27.69 36.5995 27.814 36.5995H37.513C38.414 36.5995 39.236 36.1825 39.77 35.4545C40.302 34.7265 40.449 33.8155 40.176 32.9565Z" fill="black"/>
</g>
<path fill-rule="evenodd" clip-rule="evenodd" d="M12.4425 30.7338L10.9795 32.1968V28.1418C10.9795 28.1248 10.9705 28.1098 10.9695 28.0938C10.9435 27.6758 10.6045 27.3418 10.1795 27.3418C10.0455 27.3418 9.92348 27.3838 9.81248 27.4428C9.55848 27.5768 9.37948 27.8348 9.37948 28.1418V32.1968L7.91748 30.7338C7.60448 30.4218 7.09748 30.4218 6.78548 30.7338C6.70848 30.8108 6.65048 30.9008 6.61148 30.9958L6.60848 31.0058C6.49548 31.2938 6.55248 31.6328 6.78548 31.8658L9.61348 34.6938C9.76948 34.8498 9.97448 34.9278 10.1795 34.9278C10.3845 34.9278 10.5895 34.8498 10.7465 34.6938L13.5745 31.8658C13.8865 31.5528 13.8865 31.0458 13.5745 30.7338C13.2615 30.4218 12.7545 30.4218 12.4425 30.7338Z" fill="black"/>
</g>
<defs>
<clipPath id="clip0_137_22237">
<rect width="40" height="40" fill="white" transform="translate(0.380005)"/>
</clipPath>
</defs>
</svg>
