<svg width="41" height="40" viewBox="0 0 41 40" fill="none" xmlns="http://www.w3.org/2000/svg">
<g clip-path="url(#clip0_137_22204)">
<path d="M28.13 24C34.7574 24 40.13 18.6274 40.13 12C40.13 5.37258 34.7574 0 28.13 0C21.5026 0 16.13 5.37258 16.13 12C16.13 18.6274 21.5026 24 28.13 24Z" fill="#8CCFA7"/>
<path fill-rule="evenodd" clip-rule="evenodd" d="M6.53046 36.9644V36.8394C6.52846 36.8614 6.51746 36.8804 6.51746 36.9024C6.51746 36.9234 6.52846 36.9424 6.53046 36.9644Z" fill="black"/>
<mask id="mask0_137_22204" style="mask-type:luminance" maskUnits="userSpaceOnUse" x="0" y="24" width="37" height="16">
<path d="M0.130005 24.2139H36.5519V39.3948H0.130005V24.2139Z" fill="white"/>
</mask>
<g mask="url(#mask0_137_22204)">
<path fill-rule="evenodd" clip-rule="evenodd" d="M34.5645 28.3358L27.5805 35.3208C27.5715 35.3288 26.6755 36.1018 24.1295 36.1018H8.12952V31.7018H10.1295C10.8265 31.7018 11.9295 31.2128 11.9295 29.9018C11.9295 29.3718 12.5915 27.7018 14.1295 27.7018H24.1225C24.4855 27.7088 25.3305 27.8398 25.3305 28.9018C25.3305 30.3458 24.7265 31.1018 24.1295 31.1018H18.1295C17.6885 31.1018 17.3305 31.4598 17.3305 31.9018C17.3305 32.3438 17.6885 32.7018 18.1295 32.7018H24.1295C25.1735 32.7018 26.2705 31.9788 26.7165 30.4458L30.0855 27.0788C30.5805 26.5828 31.1255 26.2318 31.7045 26.0368C32.9405 25.6198 33.9215 25.7838 34.6185 26.5228C35.0885 27.0228 35.0655 27.8358 34.5645 28.3358ZM6.53052 37.3948C6.53052 37.6118 6.34652 37.7948 6.12952 37.7948H2.12952C1.91352 37.7948 1.72952 37.6118 1.72952 37.3948V30.3948C1.72952 30.1778 1.91352 29.9948 2.12952 29.9948H6.12952C6.34652 29.9948 6.53052 30.1778 6.53052 30.3948V36.8388V36.9638V37.3948ZM35.7825 25.4248C34.6505 24.2248 33.0205 23.9028 31.1925 24.5208C30.3775 24.7948 29.6245 25.2758 28.9535 25.9478L26.8175 28.0828C26.4375 26.6518 25.0885 26.1018 24.1295 26.1018H14.1295C11.5995 26.1018 10.3305 28.5378 10.3305 29.9018C10.3305 30.0118 10.3305 30.0918 10.1295 30.1018H8.10052C7.95652 29.1408 7.12952 28.3948 6.12952 28.3948H2.12952C1.03052 28.3948 0.129517 29.2948 0.129517 30.3948V37.3948C0.129517 38.4948 1.03052 39.3948 2.12952 39.3948H6.12952C7.12552 39.3948 7.94952 38.6558 8.09852 37.7018H24.1295C27.3685 37.7018 28.5695 36.5938 28.6955 36.4678L35.6955 29.4678C36.8025 28.3608 36.8415 26.5478 35.7825 25.4248Z" fill="black"/>
</g>
<path fill-rule="evenodd" clip-rule="evenodd" d="M4.85951 9.484C4.54751 9.172 4.04151 9.172 3.72851 9.484C3.41651 9.796 3.41651 10.303 3.72851 10.616L6.22851 13.116C6.38451 13.272 6.58851 13.35 6.79451 13.35C6.99951 13.35 7.20351 13.272 7.35951 13.116C7.67251 12.803 7.67251 12.297 7.35951 11.984L4.85951 9.484Z" fill="black"/>
<path fill-rule="evenodd" clip-rule="evenodd" d="M6.22865 18.484L3.72865 20.984C3.41565 21.297 3.41565 21.803 3.72865 22.116C3.88465 22.272 4.08865 22.35 4.29365 22.35C4.49965 22.35 4.70365 22.272 4.85965 22.116L7.35965 19.616C7.67165 19.303 7.67165 18.796 7.35965 18.484C7.04665 18.172 6.54065 18.172 6.22865 18.484Z" fill="black"/>
<path fill-rule="evenodd" clip-rule="evenodd" d="M29.294 13.3497C29.499 13.3497 29.703 13.2717 29.859 13.1157L32.359 10.6157C32.672 10.3037 32.672 9.79674 32.359 9.48374C32.047 9.17274 31.541 9.17274 31.229 9.48374L28.729 11.9837C28.416 12.2967 28.416 12.8037 28.729 13.1157C28.885 13.2717 29.089 13.3497 29.294 13.3497Z" fill="black"/>
<path fill-rule="evenodd" clip-rule="evenodd" d="M29.8595 18.484C29.5475 18.172 29.0415 18.172 28.7285 18.484C28.4165 18.796 28.4165 19.303 28.7285 19.616L31.2285 22.116C31.3845 22.272 31.5885 22.35 31.7945 22.35C31.9995 22.35 32.2035 22.272 32.3595 22.116C32.6725 21.803 32.6725 21.297 32.3595 20.984L29.8595 18.484Z" fill="black"/>
<mask id="mask1_137_22204" style="mask-type:luminance" maskUnits="userSpaceOnUse" x="9" y="7" width="18" height="18">
<path d="M9.24377 7H26.8438V24.5998H9.24377V7Z" fill="white"/>
</mask>
<g mask="url(#mask1_137_22204)">
<path fill-rule="evenodd" clip-rule="evenodd" d="M10.8438 15.8C10.8438 11.83 14.0738 8.6 18.0438 8.6C22.0138 8.6 25.2438 11.83 25.2438 15.8C25.2438 19.77 22.0138 23 18.0438 23C14.0738 23 10.8438 19.77 10.8438 15.8ZM18.0438 7C13.1918 7 9.24377 10.947 9.24377 15.8C9.24377 20.653 13.1918 24.6 18.0438 24.6C22.8968 24.6 26.8438 20.653 26.8438 15.8C26.8438 10.947 22.8968 7 18.0438 7Z" fill="black"/>
</g>
<path fill-rule="evenodd" clip-rule="evenodd" d="M20.0675 18.3336H16.3905V16.5996H20.0675C20.4655 16.5996 20.7915 16.9886 20.7915 17.4666C20.7915 17.9446 20.4655 18.3336 20.0675 18.3336ZM16.3905 13.2666H18.6385C19.0375 13.2666 19.3625 13.6556 19.3625 14.1336C19.3625 14.6116 19.0375 15.0006 18.6385 15.0006H16.3905V13.2666ZM20.7705 15.1156C20.8935 14.8136 20.9625 14.4816 20.9625 14.1336C20.9625 13.4836 20.7195 12.8966 20.3325 12.4566C20.3355 12.4296 20.3475 12.4066 20.3475 12.3786V11.3786C20.3475 10.9376 19.9895 10.5796 19.5475 10.5796C19.1065 10.5796 18.7485 10.9376 18.7485 11.3786V11.6786C18.7115 11.6766 18.6755 11.6666 18.6385 11.6666H16.6905V11.3786C16.6905 10.9376 16.3325 10.5796 15.8905 10.5796C15.4495 10.5796 15.0905 10.9376 15.0905 11.3786V11.8566C14.9125 12.0036 14.7915 12.2166 14.7915 12.4666V19.1336C14.7915 19.3826 14.9125 19.5966 15.0905 19.7436V20.3786C15.0905 20.8206 15.4495 21.1786 15.8905 21.1786C16.3325 21.1786 16.6905 20.8206 16.6905 20.3786V19.9336H18.7485V20.3786C18.7485 20.8206 19.1065 21.1786 19.5475 21.1786C19.9895 21.1786 20.3475 20.8206 20.3475 20.3786V19.9026C21.4955 19.7536 22.3905 18.7246 22.3905 17.4666C22.3905 16.3666 21.7095 15.4326 20.7705 15.1156Z" fill="black"/>
</g>
<defs>
<clipPath id="clip0_137_22204">
<rect width="40" height="40" fill="white" transform="translate(0.130005)"/>
</clipPath>
</defs>
</svg>
