<svg width="40" height="40" viewBox="0 0 40 40" fill="none" xmlns="http://www.w3.org/2000/svg">
<g clip-path="url(#clip0_144_1283)">
<path d="M28 24C34.6274 24 40 18.6274 40 12C40 5.37258 34.6274 0 28 0C21.3726 0 16 5.37258 16 12C16 18.6274 21.3726 24 28 24Z" fill="#CCCFFF"/>
<path fill-rule="evenodd" clip-rule="evenodd" d="M4.64651 19.3605C4.64651 16.6765 6.83051 14.4935 9.51351 14.4935H10.7335C11.1745 14.4935 11.5335 14.1355 11.5335 13.6935C11.5335 13.2525 11.1745 12.8945 10.7335 12.8945H9.51351C9.44751 12.8945 9.38251 12.9025 9.31651 12.9035C9.16551 13.1615 9.03651 13.4345 8.93351 13.7185C8.81651 14.0445 8.50851 14.2475 8.18151 14.2475C8.09051 14.2475 7.99951 14.2315 7.91051 14.1995C7.51851 14.0575 7.31751 13.6435 7.41851 13.2495C4.87951 14.1225 3.04651 16.5285 3.04651 19.3605V23.7415C3.53751 23.3175 4.07051 22.9415 4.64651 22.6315V19.3605Z" fill="black"/>
<mask id="mask0_144_1283" style="mask-type:luminance" maskUnits="userSpaceOnUse" x="14" y="12" width="25" height="26">
<path d="M14.4087 12.8945H38.646V37.1605H14.4087V12.8945Z" fill="white"/>
</mask>
<g mask="url(#mask0_144_1283)">
<path fill-rule="evenodd" clip-rule="evenodd" d="M32.1797 12.8945H32.1327C32.2077 13.0765 32.2947 13.2515 32.3547 13.4415C32.4867 13.8635 32.2507 14.3115 31.8297 14.4445C31.7497 14.4695 31.6697 14.4805 31.5907 14.4805C31.2497 14.4805 30.9347 14.2615 30.8267 13.9195C30.7127 13.5535 30.5427 13.2155 30.3507 12.8945H22.4207C21.9797 12.8945 21.6207 13.2525 21.6207 13.6945C21.6207 14.1365 21.9797 14.4945 22.4207 14.4945H32.1797C34.3537 14.4945 36.1777 15.9365 36.7997 17.9075H37.9027V19.5065H37.0467V30.6945C37.0467 30.8435 37.0157 30.9835 37.0027 31.1295H37.9027V32.7295H36.5857C35.8127 34.3955 34.1347 35.5615 32.1797 35.5615H15.9017C15.4697 36.1525 14.9717 36.6935 14.4087 37.1605H32.1797C35.7447 37.1605 38.6467 34.2595 38.6467 30.6945V19.3605C38.6467 15.7955 35.7447 12.8945 32.1797 12.8945Z" fill="black"/>
</g>
<path fill-rule="evenodd" clip-rule="evenodd" d="M11.2256 11.0697C11.6146 10.8607 11.7606 10.3757 11.5506 9.98674C11.3426 9.59774 10.8556 9.45074 10.4676 9.66074C9.05261 10.4217 7.97361 11.6697 7.42961 13.1747C7.42061 13.1997 7.42461 13.2247 7.41861 13.2497C8.01661 13.0437 8.65461 12.9237 9.31661 12.9037C9.76861 12.1357 10.4256 11.4997 11.2256 11.0697Z" fill="black"/>
<path fill-rule="evenodd" clip-rule="evenodd" d="M7.9102 14.1998C7.9992 14.2318 8.0912 14.2478 8.1812 14.2478C8.5092 14.2478 8.8162 14.0448 8.9332 13.7198C9.0362 13.4348 9.1652 13.1618 9.3162 12.9048C8.6542 12.9248 8.0162 13.0438 7.4192 13.2498C7.3172 13.6438 7.5182 14.0578 7.9102 14.1998Z" fill="black"/>
<path fill-rule="evenodd" clip-rule="evenodd" d="M26.1797 8.89453H22.3507C21.9087 8.89453 21.5507 9.25253 21.5507 9.69453C21.5507 10.1365 21.9087 10.4945 22.3507 10.4945H26.1797C27.9037 10.4945 29.4837 11.4465 30.3507 12.8945H32.1327C31.1367 10.5185 28.7797 8.89453 26.1797 8.89453Z" fill="black"/>
<path fill-rule="evenodd" clip-rule="evenodd" d="M31.5908 14.481C31.6698 14.481 31.7498 14.469 31.8298 14.444C32.2508 14.312 32.4868 13.863 32.3548 13.442C32.2948 13.252 32.2078 13.076 32.1328 12.895H30.3508C30.5428 13.216 30.7128 13.553 30.8268 13.919C30.9348 14.262 31.2498 14.481 31.5908 14.481Z" fill="black"/>
<path fill-rule="evenodd" clip-rule="evenodd" d="M24.624 31.1297C24.044 31.1297 23.535 30.3797 23.535 29.5257V21.1107C23.535 20.2567 24.044 19.5067 24.624 19.5067H37.047V19.3607C37.047 18.8507 36.946 18.3687 36.8 17.9067H24.624C23.142 17.9067 21.936 19.3437 21.936 21.1107V29.5257C21.936 31.2927 23.142 32.7297 24.624 32.7297H36.586C36.815 32.2347 36.951 31.6957 37.003 31.1297H24.624Z" fill="black"/>
<path fill-rule="evenodd" clip-rule="evenodd" d="M37.0469 19.5067H37.9019V17.9067H36.7999C36.9459 18.3687 37.0469 18.8507 37.0469 19.3607V19.5067Z" fill="black"/>
<path fill-rule="evenodd" clip-rule="evenodd" d="M37.9023 31.1299H37.0033C36.9513 31.6959 36.8153 32.2349 36.5863 32.7299H37.9023V31.1299Z" fill="black"/>
<path fill-rule="evenodd" clip-rule="evenodd" d="M27.3135 25.0793C27.3135 24.4173 27.8515 23.8793 28.5135 23.8793H29.2355C29.8975 23.8793 30.4355 24.4173 30.4355 25.0793V25.8013C30.4355 26.4633 29.8975 27.0013 29.2355 27.0013H28.5135C27.8515 27.0013 27.3135 26.4633 27.3135 25.8013V25.0793ZM28.5135 28.6013H29.2355C30.7795 28.6013 32.0355 27.3453 32.0355 25.8013V25.0793C32.0355 23.5353 30.7795 22.2793 29.2355 22.2793H28.5135C26.9695 22.2793 25.7135 23.5353 25.7135 25.0793V25.8013C25.7135 27.3453 26.9695 28.6013 28.5135 28.6013Z" fill="black"/>
<mask id="mask1_144_1283" style="mask-type:luminance" maskUnits="userSpaceOnUse" x="0" y="23" width="15" height="17">
<path d="M0 23.7422H14.4088V39.1858H0V23.7422Z" fill="white"/>
</mask>
<g mask="url(#mask1_144_1283)">
<path fill-rule="evenodd" clip-rule="evenodd" d="M8.79979 37.5862C4.82979 37.5862 1.59979 34.3562 1.59979 30.3862C1.59979 28.7682 2.14279 27.2782 3.04679 26.0752V23.7422C1.18479 25.3572 -0.000213623 27.7332 -0.000213623 30.3862C-0.000213623 35.2382 3.94679 39.1862 8.79979 39.1862C10.9298 39.1862 12.8858 38.4242 14.4088 37.1602H11.2148C10.4588 37.4312 9.64779 37.5862 8.79979 37.5862Z" fill="black"/>
</g>
<path fill-rule="evenodd" clip-rule="evenodd" d="M8.79979 23.1859C12.7698 23.1859 15.9998 26.4159 15.9998 30.3859C15.9998 32.4169 15.1518 34.2509 13.7938 35.5609H15.9018C16.9638 34.1069 17.5998 32.3209 17.5998 30.3859C17.5998 25.5339 13.6528 21.5859 8.79979 21.5859C7.29779 21.5859 5.88479 21.9659 4.64679 22.6319V24.5149C5.82079 23.6809 7.25279 23.1859 8.79979 23.1859Z" fill="black"/>
<path fill-rule="evenodd" clip-rule="evenodd" d="M15.9014 35.561H13.7944C13.0654 36.265 12.1884 36.812 11.2144 37.161H14.4094C14.9714 36.694 15.4694 36.153 15.9014 35.561Z" fill="black"/>
<path fill-rule="evenodd" clip-rule="evenodd" d="M4.64651 24.5148V22.6318C4.07051 22.9408 3.53751 23.3168 3.04651 23.7418V26.0748C3.49751 25.4758 4.03551 24.9488 4.64651 24.5148Z" fill="black"/>
<path fill-rule="evenodd" clip-rule="evenodd" d="M14.584 10.1937L16.847 7.93074L19.109 10.1937C19.266 10.3497 19.47 10.4277 19.675 10.4277C19.88 10.4277 20.084 10.3497 20.24 10.1937C20.553 9.88174 20.553 9.37474 20.24 9.06174L17.412 6.23374C17.1 5.92274 16.594 5.92274 16.281 6.23374L13.453 9.06174C13.141 9.37474 13.141 9.88174 13.453 10.1937C13.766 10.5057 14.272 10.5057 14.584 10.1937Z" fill="black"/>
<path fill-rule="evenodd" clip-rule="evenodd" d="M14.584 15.1937L16.847 12.9307L19.109 15.1937C19.266 15.3497 19.47 15.4277 19.675 15.4277C19.88 15.4277 20.084 15.3497 20.24 15.1937C20.553 14.8817 20.553 14.3747 20.24 14.0617L17.412 11.2337C17.1 10.9227 16.594 10.9227 16.281 11.2337L13.453 14.0617C13.141 14.3747 13.141 14.8817 13.453 15.1937C13.766 15.5057 14.272 15.5057 14.584 15.1937Z" fill="black"/>
<path fill-rule="evenodd" clip-rule="evenodd" d="M14.584 20.1937L16.847 17.9307L19.109 20.1937C19.266 20.3497 19.47 20.4277 19.675 20.4277C19.88 20.4277 20.084 20.3497 20.24 20.1937C20.553 19.8817 20.553 19.3747 20.24 19.0617L17.412 16.2337C17.1 15.9227 16.594 15.9227 16.281 16.2337L13.453 19.0617C13.141 19.3747 13.141 19.8817 13.453 20.1937C13.766 20.5057 14.272 20.5057 14.584 20.1937Z" fill="black"/>
<path fill-rule="evenodd" clip-rule="evenodd" d="M9.41209 26.234C9.10009 25.922 8.59409 25.922 8.28109 26.234L5.45309 29.062C5.14109 29.375 5.14109 29.881 5.45309 30.194C5.76609 30.505 6.27109 30.505 6.58409 30.194L8.03509 28.743V27.173C8.03509 26.732 8.39309 26.374 8.83509 26.374C9.27609 26.374 9.63509 26.732 9.63509 27.173V28.719L11.1091 30.194C11.2661 30.35 11.4701 30.428 11.6751 30.428C11.8801 30.428 12.0841 30.35 12.2401 30.194C12.5531 29.881 12.5531 29.375 12.2401 29.062L9.41209 26.234Z" fill="black"/>
<path fill-rule="evenodd" clip-rule="evenodd" d="M8.03519 28.7427V34.1737C8.03519 34.6157 8.39319 34.9727 8.83519 34.9727C9.27619 34.9727 9.63519 34.6157 9.63519 34.1737V28.7197L8.84719 27.9307L8.03519 28.7427Z" fill="black"/>
<path fill-rule="evenodd" clip-rule="evenodd" d="M8.835 26.3735C8.394 26.3735 8.035 26.7315 8.035 27.1735V28.7425L8.847 27.9315L9.635 28.7195V27.1735C9.635 26.7315 9.276 26.3735 8.835 26.3735Z" fill="black"/>
</g>
<defs>
<clipPath id="clip0_144_1283">
<rect width="40" height="40" fill="white"/>
</clipPath>
</defs>
</svg>
