<svg width="17" height="16" viewBox="0 0 17 16" fill="none" xmlns="http://www.w3.org/2000/svg">
<path d="M12.0871 1.08743C12.0653 1.07642 12.0409 1.0712 12.0165 1.07229C11.992 1.07337 11.9683 1.08072 11.9475 1.09363C11.9267 1.10653 11.9096 1.12457 11.8977 1.14599C11.8859 1.16742 11.8798 1.19153 11.88 1.216V2.36243C11.88 2.46064 11.9318 2.55172 12.0139 2.60529C12.4166 2.85875 12.7892 3.15708 13.1246 3.49457C13.7085 4.08029 14.1675 4.76064 14.4871 5.51779C14.8177 6.30159 14.9871 7.14391 14.9853 7.99457C14.9853 8.8535 14.8175 9.68743 14.4871 10.4714C14.1678 11.2274 13.7052 11.9145 13.1246 12.4946C12.546 13.0766 11.8594 13.54 11.1032 13.8589C10.321 14.191 9.48712 14.3589 8.62998 14.3589C7.77284 14.3589 6.93891 14.191 6.15676 13.8589C5.40058 13.54 4.71393 13.0766 4.13533 12.4946C3.5548 11.9145 3.09212 11.2274 2.77284 10.4714C2.44227 9.68755 2.27283 8.84523 2.27462 7.99457C2.27462 7.13564 2.44248 6.30172 2.77284 5.51779C3.09248 4.76064 3.55141 4.08029 4.13533 3.49457C4.47462 3.15529 4.84605 2.85886 5.24605 2.60529C5.32998 2.5535 5.37998 2.46064 5.37998 2.36243V1.21422C5.37998 1.10707 5.26748 1.03922 5.17284 1.08564C2.67462 2.34279 0.951406 4.916 0.915692 7.89814C0.865692 12.1624 4.35319 15.7053 8.61569 15.7142C12.8835 15.7231 16.3443 12.2624 16.3443 7.99279C16.3443 4.97136 14.6121 2.35529 12.0871 1.08743ZM8.05855 8.85707H9.20141C9.27998 8.85707 9.34426 8.79279 9.34426 8.71422V0.428502C9.34426 0.34993 9.27998 0.285645 9.20141 0.285645H8.05855C7.97998 0.285645 7.91569 0.34993 7.91569 0.428502V8.71422C7.91569 8.79279 7.97998 8.85707 8.05855 8.85707Z" fill="#535CFF"/>
</svg>
