<svg width="20" height="20" viewBox="0 0 20 20" fill="none" xmlns="http://www.w3.org/2000/svg">
<path d="M9.0154 1.54839C9.453 0.817204 10.547 0.817205 10.9846 1.54839L19.846 16.3548C20.2836 17.086 19.7366 18 18.8614 18H1.13861C0.263413 18 -0.283585 17.086 0.154014 16.3548L9.0154 1.54839Z" fill="#FFD202"/>
<circle cx="10" cy="14.2" r="1.2" fill="white"/>
<path d="M9.0271 6.32491C9.01252 6.15001 9.15055 6 9.32606 6H10.674C10.8495 6 10.9875 6.15001 10.9729 6.32491L10.5229 11.7249C10.51 11.8804 10.38 12 10.224 12H9.77606C9.62003 12 9.49005 11.8804 9.4771 11.7249L9.0271 6.32491Z" fill="white"/>
</svg>
