<svg width="14" height="14" viewBox="0 0 14 14" fill="none" xmlns="http://www.w3.org/2000/svg">
<path d="M6.53125 1.375H7.46875C7.55208 1.375 7.59375 1.41667 7.59375 1.5V12.5C7.59375 12.5833 7.55208 12.625 7.46875 12.625H6.53125C6.44792 12.625 6.40625 12.5833 6.40625 12.5V1.5C6.40625 1.41667 6.44792 1.375 6.53125 1.375Z" fill="#535CFF"/>
<path d="M1.75 6.40625H12.25C12.3333 6.40625 12.375 6.44792 12.375 6.53125V7.46875C12.375 7.55208 12.3333 7.59375 12.25 7.59375H1.75C1.66667 7.59375 1.625 7.55208 1.625 7.46875V6.53125C1.625 6.44792 1.66667 6.40625 1.75 6.40625Z" fill="#535CFF"/>
</svg>
