<svg width="20" height="20" viewBox="0 0 20 20" fill="none" xmlns="http://www.w3.org/2000/svg">
<path fill-rule="evenodd" clip-rule="evenodd" d="M8.40133 1C11.5958 1.73469 13.193 4.30612 13.193 8.71429C14.2578 8.2 15.0984 7.17143 15.3226 5.62857C16.3874 6.65714 18.1847 9.8761 17.9846 12.8286C17.795 15.6274 16.0019 18.1732 12.7165 18.8341C13.517 18.2964 13.9942 17.373 14.1348 16.2111C14.3153 14.7205 13.8879 13.0129 13.1669 12.5022L12.5432 12.0604L12.2748 13.3877L12.2226 13.6144C12.1866 13.7586 12.1476 13.89 12.1028 14.0156L12.07 14.098L12.0646 14.0513C11.8558 12.5914 11.3075 11.3373 10.4181 10.2992L9.68296 9.44113L9.54228 10.5622C9.37278 11.913 8.77273 13.3414 7.73388 14.8466C7.34396 15.3287 7.16549 16.4646 7.44883 17.3627C7.64217 17.9755 8.01814 18.4676 8.5727 18.8091C2.47714 17.7553 2.0375 12.6332 4.14208 9.74286C6.83208 6.41224 8.25183 3.49796 8.40133 1Z" fill="#535CFF"/>
</svg>
