<svg width="39" height="46" viewBox="0 0 39 46" fill="none" xmlns="http://www.w3.org/2000/svg">
<path d="M26.6875 40.251H0.8125V44.5635H26.6875V40.251Z" stroke="black" stroke-width="1.4375" stroke-linejoin="round"/>
<path d="M2.25 40.251V3.59473C2.25 3.02285 2.47718 2.4744 2.88155 2.07003C3.28593 1.66565 3.83438 1.43848 4.40625 1.43848H23.0938C23.6656 1.43848 24.2141 1.66565 24.6184 2.07003C25.0228 2.4744 25.25 3.02285 25.25 3.59473V40.251" stroke="black" stroke-width="1.4375" stroke-linejoin="round"/>
<path d="M2.25 5.75098H25.25" stroke="black" stroke-width="1.4375" stroke-linejoin="round"/>
<path d="M22.375 8.62598H5.125V20.126H22.375V8.62598Z" stroke="black" stroke-width="1.4375" stroke-linejoin="round"/>
<path d="M25.25 37.376H28.125V31.626H25.25" stroke="black" stroke-width="1.4375" stroke-linejoin="round"/>
<path d="M28.125 33.0635H29.5625C29.9437 33.0635 30.3094 32.912 30.579 32.6424C30.8486 32.3729 31 32.0072 31 31.626V8.62598H36.75V12.9385H33.875V31.626C33.875 32.7697 33.4206 33.8666 32.6119 34.6754C31.8031 35.4841 30.7062 35.9385 29.5625 35.9385H28.125" stroke="black" stroke-width="1.4375" stroke-linejoin="round"/>
<path d="M36.75 12.9385V14.376C36.75 15.1385 36.4471 15.8697 35.9079 16.4089C35.3688 16.9481 34.6375 17.251 33.875 17.251" stroke="black" stroke-width="1.4375" stroke-linejoin="round"/>
<path d="M31 8.62598V6.46973L36.0312 1.43848L38.1875 3.59473L34.5938 7.18848V8.62598" stroke="black" stroke-width="1.4375" stroke-linejoin="round"/>
<path d="M31 18.6885H33.875" stroke="black" stroke-width="1.4375" stroke-linejoin="round"/>
<path d="M12.3125 23.001H5.125V31.626H12.3125V23.001Z" stroke="black" stroke-width="1.4375" stroke-linejoin="round"/>
<path d="M22.375 23.001H15.1875V31.626H22.375V23.001Z" stroke="black" stroke-width="1.4375" stroke-linejoin="round"/>
<path d="M7.28125 28.751L8.71875 25.876L10.1562 28.751H7.28125Z" stroke="black" stroke-width="1.4375" stroke-linejoin="round"/>
<path d="M17.3438 25.876L18.7812 28.751L20.2188 25.876H17.3438Z" stroke="black" stroke-width="1.4375" stroke-linejoin="round"/>
<path d="M2.25 35.9385H25.25" stroke="black" stroke-width="1.4375" stroke-linejoin="round"/>
<path d="M13.3288 17.9697H14.1712C14.822 17.9696 15.446 17.7111 15.9063 17.251C16.3664 16.7908 16.6249 16.1667 16.625 15.5159C16.6253 14.778 16.3741 14.0621 15.9127 13.4862L13.75 10.7822L11.5873 13.4862C11.1259 14.0621 10.8747 14.778 10.875 15.5159C10.8751 16.1667 11.1336 16.7908 11.5938 17.251C12.054 17.7111 12.678 17.9696 13.3288 17.9697Z" stroke="black" stroke-width="1.4375" stroke-linejoin="round"/>
</svg>
