<svg width="41" height="40" viewBox="0 0 41 40" fill="none" xmlns="http://www.w3.org/2000/svg">
<g clip-path="url(#clip0_137_22026)">
<path d="M28.75 24C35.3774 24 40.75 18.6274 40.75 12C40.75 5.37258 35.3774 0 28.75 0C22.1226 0 16.75 5.37258 16.75 12C16.75 18.6274 22.1226 24 28.75 24Z" fill="#F79489"/>
<path fill-rule="evenodd" clip-rule="evenodd" d="M27.2969 13.7501V11.6421C27.2969 12.2521 24.5069 13.6841 19.0969 13.6841C13.6869 13.6841 10.8969 12.2521 10.8969 11.6421V13.7501C12.7689 14.7911 16.0049 15.2841 19.0969 15.2841C22.1889 15.2841 25.4249 14.7911 27.2969 13.7501Z" fill="black"/>
<mask id="mask0_137_22026" style="mask-type:luminance" maskUnits="userSpaceOnUse" x="9" y="8" width="20" height="4">
<path d="M9.32544 8H28.8964V11.6418H9.32544V8Z" fill="white"/>
</mask>
<g mask="url(#mask0_137_22026)">
<path fill-rule="evenodd" clip-rule="evenodd" d="M10.8964 11.642C10.8964 11.031 13.6864 9.6 19.0964 9.6C24.5064 9.6 27.2964 11.031 27.2964 11.642H28.8964C28.8964 9.14 23.8164 8 19.0964 8C14.5184 8 9.61544 9.077 9.32544 11.425H10.8964V11.642Z" fill="black"/>
</g>
<path fill-rule="evenodd" clip-rule="evenodd" d="M27.2969 18.7501V16.6421C27.2969 17.2521 24.5069 18.6841 19.0969 18.6841C13.6869 18.6841 10.8969 17.2521 10.8969 16.6421V18.7501C12.7689 19.7911 16.0049 20.2841 19.0969 20.2841C22.1889 20.2841 25.4249 19.7911 27.2969 18.7501Z" fill="black"/>
<path fill-rule="evenodd" clip-rule="evenodd" d="M16.0166 25.1156C17.0236 25.2266 18.0676 25.2836 19.0966 25.2836C19.1786 25.2836 19.2606 25.2816 19.3436 25.2806C19.4786 24.6326 19.9696 24.0866 20.7126 23.6366C20.2016 23.6656 19.6666 23.6846 19.0966 23.6846C13.6866 23.6846 10.8966 22.2526 10.8966 21.6416V22.3776C12.9106 22.6886 14.6966 23.6806 16.0166 25.1156Z" fill="black"/>
<path fill-rule="evenodd" clip-rule="evenodd" d="M26.9697 22.0811C27.0787 22.0731 27.1877 22.0621 27.2967 22.0561V21.6421C27.2967 21.7621 27.1847 21.9141 26.9697 22.0811Z" fill="black"/>
<path fill-rule="evenodd" clip-rule="evenodd" d="M19.0967 28.6841C18.7197 28.6841 18.3597 28.6761 18.0087 28.6631C18.1567 29.1821 18.2597 29.7191 18.3097 30.2721C18.5727 30.2791 18.8347 30.2841 19.0967 30.2841C19.1627 30.2841 19.2307 30.2811 19.2967 30.2811V28.6811C19.2287 28.6811 19.1647 28.6841 19.0967 28.6841Z" fill="black"/>
<path fill-rule="evenodd" clip-rule="evenodd" d="M27.2969 13.7501V16.6421H28.8969V11.6421C28.8969 12.5051 28.2819 13.2021 27.2969 13.7501Z" fill="black"/>
<path fill-rule="evenodd" clip-rule="evenodd" d="M28.8965 22.0031V21.6421C28.8965 21.7671 28.8755 21.8861 28.8495 22.0041C28.8655 22.0031 28.8805 22.0031 28.8965 22.0031Z" fill="black"/>
<path fill-rule="evenodd" clip-rule="evenodd" d="M27.2969 18.7501V21.6421H28.8969V16.6421C28.8969 17.5051 28.2819 18.2021 27.2969 18.7501Z" fill="black"/>
<path fill-rule="evenodd" clip-rule="evenodd" d="M9.29688 11.4243V11.6413C9.29688 11.5663 9.31587 11.4973 9.32487 11.4243H9.29688Z" fill="black"/>
<path fill-rule="evenodd" clip-rule="evenodd" d="M19.0967 33.6842C18.7007 33.6842 18.3257 33.6742 17.9577 33.6602C17.7877 34.2072 17.5667 34.7322 17.2987 35.2282C17.8967 35.2652 18.4987 35.2842 19.0967 35.2842C19.1627 35.2842 19.2307 35.2812 19.2967 35.2812V33.6812C19.2287 33.6812 19.1647 33.6842 19.0967 33.6842Z" fill="black"/>
<path fill-rule="evenodd" clip-rule="evenodd" d="M10.8965 18.7501C9.91151 18.2021 9.29651 17.5051 9.29651 16.6421V21.6421H10.8965V18.7501Z" fill="black"/>
<path fill-rule="evenodd" clip-rule="evenodd" d="M10.8965 13.7501C9.91151 13.2021 9.29651 12.5051 9.29651 11.6421V16.6421H10.8965V13.7501Z" fill="black"/>
<path fill-rule="evenodd" clip-rule="evenodd" d="M9.29688 21.6416V22.2756C9.33988 22.2746 9.38188 22.2696 9.42488 22.2696C9.34988 22.0696 9.29688 21.8626 9.29688 21.6416Z" fill="black"/>
<path fill-rule="evenodd" clip-rule="evenodd" d="M10.8965 13.7503V11.6423V11.4243H9.32551C9.31551 11.4973 9.29651 11.5663 9.29651 11.6423C9.29651 12.5053 9.91151 13.2023 10.8965 13.7503Z" fill="black"/>
<path fill-rule="evenodd" clip-rule="evenodd" d="M27.2969 13.7501C28.2819 13.2021 28.8969 12.5051 28.8969 11.6421H27.2969V13.7501Z" fill="black"/>
<path fill-rule="evenodd" clip-rule="evenodd" d="M10.8965 18.7501V16.6421H9.29651C9.29651 17.5051 9.91151 18.2021 10.8965 18.7501Z" fill="black"/>
<path fill-rule="evenodd" clip-rule="evenodd" d="M27.2969 18.7501C28.2819 18.2021 28.8969 17.5051 28.8969 16.6421H27.2969V18.7501Z" fill="black"/>
<path fill-rule="evenodd" clip-rule="evenodd" d="M9.54975 22.2636C10.0088 22.2636 10.4558 22.3096 10.8968 22.3776V21.6416H9.29675C9.29675 21.8636 9.34975 22.0696 9.42475 22.2696C9.46675 22.2696 9.50775 22.2636 9.54975 22.2636Z" fill="black"/>
<path fill-rule="evenodd" clip-rule="evenodd" d="M27.2969 22.0561C27.8139 22.0241 28.3329 22.0081 28.8499 22.0041C28.8749 21.8861 28.8969 21.7671 28.8969 21.6421H27.2969V22.0561Z" fill="black"/>
<path fill-rule="evenodd" clip-rule="evenodd" d="M20.0968 30.2651C19.8288 30.2741 19.5638 30.2791 19.2968 30.2811V30.6411H20.0968V30.2651Z" fill="black"/>
<path fill-rule="evenodd" clip-rule="evenodd" d="M19.2969 25.6416V28.6806C19.5679 28.6786 19.8389 28.6756 20.0969 28.6666V27.2006C19.5929 26.7556 19.2969 26.2386 19.2969 25.6416Z" fill="black"/>
<path fill-rule="evenodd" clip-rule="evenodd" d="M19.2969 30.6416V33.6806C19.5679 33.6786 19.8389 33.6756 20.0969 33.6666V32.2006C19.5929 31.7556 19.2969 31.2386 19.2969 30.6416Z" fill="black"/>
<mask id="mask1_137_22026" style="mask-type:luminance" maskUnits="userSpaceOnUse" x="38" y="25" width="1" height="6">
<path d="M38.0967 25.6416H38.896V30.6416H38.0967V25.6416Z" fill="white"/>
</mask>
<g mask="url(#mask1_137_22026)">
<path fill-rule="evenodd" clip-rule="evenodd" d="M38.0967 27.2006V30.6416H38.8967V25.6416C38.8967 26.2386 38.6007 26.7556 38.0967 27.2006Z" fill="black"/>
</g>
<mask id="mask2_137_22026" style="mask-type:luminance" maskUnits="userSpaceOnUse" x="19" y="30" width="20" height="10">
<path d="M19.2968 30.6416H38.8961V39.2836H19.2968V30.6416Z" fill="white"/>
</mask>
<g mask="url(#mask2_137_22026)">
<path fill-rule="evenodd" clip-rule="evenodd" d="M38.0968 32.2006V35.6416C38.0968 37.2116 34.0678 38.4846 29.0968 38.4846C24.1258 38.4846 20.0968 37.2116 20.0968 35.6416V35.2656C19.8288 35.2746 19.5638 35.2796 19.2968 35.2816V35.6416C19.2968 38.1446 24.3768 39.2836 29.0968 39.2836C33.8168 39.2836 38.8968 38.1446 38.8968 35.6416V30.6416C38.8968 31.2386 38.6008 31.7556 38.0968 32.2006Z" fill="black"/>
</g>
<path fill-rule="evenodd" clip-rule="evenodd" d="M20.0968 28.667C19.8388 28.676 19.5688 28.679 19.2968 28.681V30.281C19.5638 30.279 19.8288 30.274 20.0968 30.265V28.667Z" fill="black"/>
<path fill-rule="evenodd" clip-rule="evenodd" d="M20.0968 33.667C19.8388 33.676 19.5688 33.679 19.2968 33.681V35.281C19.5638 35.279 19.8288 35.274 20.0968 35.265V33.667Z" fill="black"/>
<path fill-rule="evenodd" clip-rule="evenodd" d="M20.8966 27.7502C20.5916 27.5812 20.3216 27.3992 20.0966 27.2002V28.6672C20.3726 28.6582 20.6366 28.6442 20.8966 28.6272V27.7502Z" fill="black"/>
<path fill-rule="evenodd" clip-rule="evenodd" d="M20.8966 30.228C20.6306 30.245 20.3636 30.256 20.0966 30.265V30.642H20.8966V30.228Z" fill="black"/>
<path fill-rule="evenodd" clip-rule="evenodd" d="M37.2969 30.6417H38.0969V27.2007C37.8719 27.3987 37.6019 27.5807 37.2969 27.7497V30.6417Z" fill="black"/>
<path fill-rule="evenodd" clip-rule="evenodd" d="M37.2969 35.6417C37.2969 36.2527 34.5069 37.6837 29.0969 37.6837C23.6869 37.6837 20.8969 36.2527 20.8969 35.6417V35.2277C20.6309 35.2447 20.3629 35.2557 20.0969 35.2657V35.6417C20.0969 37.2117 24.1259 38.4837 29.0969 38.4837C34.0679 38.4837 38.0969 37.2117 38.0969 35.6417V32.2007C37.8719 32.3987 37.6019 32.5807 37.2969 32.7497V35.6417Z" fill="black"/>
<path fill-rule="evenodd" clip-rule="evenodd" d="M20.8966 32.7502C20.5916 32.5812 20.3216 32.3992 20.0966 32.2002V33.6672C20.3726 33.6582 20.6366 33.6442 20.8966 33.6272V32.7502Z" fill="black"/>
<path fill-rule="evenodd" clip-rule="evenodd" d="M20.8966 28.6274C20.6366 28.6444 20.3726 28.6584 20.0966 28.6674V30.2654C20.3636 30.2564 20.6306 30.2454 20.8966 30.2284V28.6274Z" fill="black"/>
<path fill-rule="evenodd" clip-rule="evenodd" d="M20.8966 33.6274C20.6366 33.6444 20.3726 33.6584 20.0966 33.6674V35.2654C20.3636 35.2564 20.6306 35.2454 20.8966 35.2284V33.6274Z" fill="black"/>
<mask id="mask3_137_22026" style="mask-type:luminance" maskUnits="userSpaceOnUse" x="28" y="22" width="11" height="4">
<path d="M28.8967 22H38.896V25.642H28.8967V22Z" fill="white"/>
</mask>
<g mask="url(#mask3_137_22026)">
<path fill-rule="evenodd" clip-rule="evenodd" d="M29.0967 22.8C34.0677 22.8 38.0967 24.072 38.0967 25.642H38.8967C38.8967 23.14 33.8167 22 29.0967 22C29.0307 22 28.9627 22.003 28.8967 22.003V22.803C28.9637 22.802 29.0297 22.8 29.0967 22.8Z" fill="black"/>
</g>
<path fill-rule="evenodd" clip-rule="evenodd" d="M20.0968 25.6417C20.0968 25.5127 20.1338 25.3857 20.1868 25.2617C19.9058 25.2717 19.6238 25.2777 19.3438 25.2797C19.3188 25.3977 19.2968 25.5167 19.2968 25.6417H20.0968Z" fill="black"/>
<path fill-rule="evenodd" clip-rule="evenodd" d="M20.7129 23.6361C24.1019 23.4431 26.2089 22.6721 26.9699 22.0811C24.4919 22.2631 22.1439 22.7701 20.7129 23.6361Z" fill="black"/>
<path fill-rule="evenodd" clip-rule="evenodd" d="M20.7129 23.6357C19.9699 24.0857 19.4789 24.6327 19.3439 25.2797C19.6239 25.2777 19.9049 25.2717 20.1869 25.2607C20.6969 24.0597 23.5749 23.0947 27.2969 22.8567V22.0557C27.1879 22.0627 27.0789 22.0727 26.9699 22.0807C26.2089 22.6717 24.1019 23.4427 20.7129 23.6357Z" fill="black"/>
<path fill-rule="evenodd" clip-rule="evenodd" d="M28.4648 22.8099C28.6078 22.8069 28.7508 22.8039 28.8968 22.8029V22.0029C28.8808 22.0029 28.8648 22.0039 28.8498 22.0039C28.7898 22.2929 28.6578 22.5609 28.4648 22.8099Z" fill="black"/>
<path fill-rule="evenodd" clip-rule="evenodd" d="M28.4648 22.8099C28.6578 22.5609 28.7898 22.2929 28.8498 22.0039C28.3328 22.0079 27.8138 22.0239 27.2968 22.0559V22.8569C27.6768 22.8329 28.0688 22.8189 28.4648 22.8099Z" fill="black"/>
<path fill-rule="evenodd" clip-rule="evenodd" d="M28.8965 28.4806V29.2806C28.9625 29.2816 29.0305 29.2836 29.0965 29.2836C32.1885 29.2836 35.4245 28.7916 37.2965 27.7506V26.8086C35.8855 27.7956 32.7495 28.4836 29.0965 28.4836C29.0295 28.4836 28.9635 28.4816 28.8965 28.4806Z" fill="black"/>
<path fill-rule="evenodd" clip-rule="evenodd" d="M24.5272 28.0876C22.9362 27.7906 21.6622 27.3446 20.8962 26.8086V27.7506C21.3862 28.0226 21.9652 28.2586 22.6172 28.4566C23.3382 28.3566 23.9712 28.2296 24.5272 28.0876Z" fill="black"/>
<path fill-rule="evenodd" clip-rule="evenodd" d="M27.2969 29.228V28.75C27.0329 28.897 26.7509 29.037 26.4369 29.162C26.7209 29.188 27.0089 29.21 27.2969 29.228Z" fill="black"/>
<path fill-rule="evenodd" clip-rule="evenodd" d="M24.5273 28.0874C23.9713 28.2294 23.3383 28.3564 22.6173 28.4564C23.7403 28.7974 25.0563 29.0324 26.4363 29.1614C26.7513 29.0364 27.0333 28.8974 27.2973 28.7504V28.4264C26.3023 28.3634 25.3733 28.2454 24.5273 28.0874Z" fill="black"/>
<path fill-rule="evenodd" clip-rule="evenodd" d="M27.2969 28.7502V29.2282C27.8289 29.2612 28.3639 29.2772 28.8969 29.2812V28.4802C28.5159 28.4782 28.1429 28.4672 27.7759 28.4502C27.6279 28.5552 27.4689 28.6552 27.2969 28.7502Z" fill="black"/>
<path fill-rule="evenodd" clip-rule="evenodd" d="M27.2969 28.7502C27.4689 28.6552 27.6279 28.5552 27.7759 28.4502C27.6149 28.4422 27.4539 28.4372 27.2969 28.4272V28.7502Z" fill="black"/>
<path fill-rule="evenodd" clip-rule="evenodd" d="M20.0968 27.2006V25.6416H19.2968C19.2968 26.2386 19.5928 26.7556 20.0968 27.2006Z" fill="black"/>
<mask id="mask4_137_22026" style="mask-type:luminance" maskUnits="userSpaceOnUse" x="38" y="25" width="1" height="3">
<path d="M38.0967 25.6416H38.896V27.2006H38.0967V25.6416Z" fill="white"/>
</mask>
<g mask="url(#mask4_137_22026)">
<path fill-rule="evenodd" clip-rule="evenodd" d="M38.0967 25.6416V27.2006C38.6007 26.7556 38.8967 26.2386 38.8967 25.6416H38.0967Z" fill="black"/>
</g>
<path fill-rule="evenodd" clip-rule="evenodd" d="M37.2969 26.8086V27.7496C37.6019 27.5806 37.8719 27.3986 38.0969 27.2006V25.6416C38.0969 26.0586 37.8069 26.4526 37.2969 26.8086Z" fill="black"/>
<path fill-rule="evenodd" clip-rule="evenodd" d="M20.0967 25.6416V27.2006C20.3217 27.3986 20.5917 27.5806 20.8967 27.7496V26.8086C20.3867 26.4526 20.0967 26.0586 20.0967 25.6416Z" fill="black"/>
<path fill-rule="evenodd" clip-rule="evenodd" d="M20.8966 25.6416C20.8966 25.5216 21.0076 25.3696 21.2226 25.2036C20.8786 25.2286 20.5336 25.2476 20.1866 25.2616C20.1336 25.3856 20.0966 25.5126 20.0966 25.6416H20.8966Z" fill="black"/>
<path fill-rule="evenodd" clip-rule="evenodd" d="M29.0967 23.5998C34.5067 23.5998 37.2967 25.0308 37.2967 25.6418H38.0967C38.0967 24.0728 34.0677 22.7998 29.0967 22.7998C29.0297 22.7998 28.9637 22.8028 28.8967 22.8028V23.6028C28.9647 23.6028 29.0287 23.5998 29.0967 23.5998Z" fill="black"/>
<path fill-rule="evenodd" clip-rule="evenodd" d="M27.2969 23.6574V22.8574C23.5749 23.0954 20.6969 24.0594 20.1869 25.2614C20.5329 25.2484 20.8789 25.2284 21.2229 25.2034C21.9699 24.6224 24.0129 23.8664 27.2969 23.6574Z" fill="black"/>
<path fill-rule="evenodd" clip-rule="evenodd" d="M27.4805 23.6477C27.9305 23.6227 28.4015 23.6067 28.8965 23.6037V22.8027C28.7515 22.8037 28.6075 22.8067 28.4645 22.8097C28.2235 23.1197 27.8925 23.3987 27.4805 23.6477Z" fill="black"/>
<path fill-rule="evenodd" clip-rule="evenodd" d="M27.2969 23.6576C27.3569 23.6536 27.4199 23.6516 27.4809 23.6476C27.8929 23.3986 28.2239 23.1196 28.4649 22.8096C28.0679 22.8186 27.6769 22.8326 27.2969 22.8576V23.6576Z" fill="black"/>
<path fill-rule="evenodd" clip-rule="evenodd" d="M37.2969 25.6416C37.2959 26.2526 34.5069 27.6836 29.0969 27.6836C29.0279 27.6836 28.9649 27.6816 28.8969 27.6806V28.4806C28.9639 28.4816 29.0289 28.4836 29.0969 28.4836C32.7489 28.4836 35.8859 27.7956 37.2969 26.8086V25.6416Z" fill="black"/>
<path fill-rule="evenodd" clip-rule="evenodd" d="M24.5272 28.0876C25.2012 27.9156 25.7552 27.7236 26.1832 27.5306C22.6912 27.1456 20.8962 26.1306 20.8962 25.6416V26.8086C21.6622 27.3446 22.9362 27.7906 24.5272 28.0876Z" fill="black"/>
<path fill-rule="evenodd" clip-rule="evenodd" d="M27.2969 28.4268V27.6268C26.9079 27.6018 26.5379 27.5698 26.1839 27.5308C25.7549 27.7238 25.2009 27.9158 24.5269 28.0878C25.3729 28.2448 26.3029 28.3638 27.2969 28.4268Z" fill="black"/>
<path fill-rule="evenodd" clip-rule="evenodd" d="M27.7754 28.4498C28.1424 28.4668 28.5154 28.4778 28.8964 28.4808V27.6808C28.7814 27.6798 28.6714 27.6778 28.5584 27.6758C28.3694 27.9568 28.1054 28.2158 27.7754 28.4498Z" fill="black"/>
<path fill-rule="evenodd" clip-rule="evenodd" d="M27.2969 28.427C27.4539 28.437 27.6149 28.443 27.7759 28.45C28.1059 28.216 28.3689 27.957 28.5589 27.676C28.1209 27.667 27.6969 27.653 27.2969 27.627V28.427Z" fill="black"/>
<path fill-rule="evenodd" clip-rule="evenodd" d="M20.8966 26.8086V25.6416H20.0966C20.0966 26.0586 20.3866 26.4526 20.8966 26.8086Z" fill="black"/>
<path fill-rule="evenodd" clip-rule="evenodd" d="M37.2969 26.8086C37.8069 26.4526 38.0969 26.0586 38.0969 25.6416H37.2969V26.8086Z" fill="black"/>
<path fill-rule="evenodd" clip-rule="evenodd" d="M27.7754 33.4501C27.4014 33.7161 26.9554 33.9551 26.4364 34.1621C27.3114 34.2441 28.2114 34.2841 29.0964 34.2841C32.1884 34.2841 35.4244 33.7911 37.2964 32.7501V31.8091C35.8854 32.7961 32.7494 33.4841 29.0964 33.4841C28.6464 33.4841 28.2084 33.4711 27.7754 33.4501Z" fill="black"/>
<path fill-rule="evenodd" clip-rule="evenodd" d="M24.5272 33.0876C22.9362 32.7906 21.6622 32.3446 20.8962 31.8086V32.7506C21.3862 33.0226 21.9652 33.2586 22.6172 33.4566C23.3382 33.3566 23.9712 33.2296 24.5272 33.0876Z" fill="black"/>
<path fill-rule="evenodd" clip-rule="evenodd" d="M22.6172 33.4564C23.7402 33.7984 25.0562 34.0334 26.4362 34.1624C26.9552 33.9554 27.4012 33.7164 27.7752 33.4504C26.6032 33.3954 25.5072 33.2704 24.5272 33.0874C23.9712 33.2294 23.3382 33.3564 22.6172 33.4564Z" fill="black"/>
<mask id="mask5_137_22026" style="mask-type:luminance" maskUnits="userSpaceOnUse" x="38" y="30" width="1" height="3">
<path d="M38.0967 30.6416H38.896V32.2006H38.0967V30.6416Z" fill="white"/>
</mask>
<g mask="url(#mask5_137_22026)">
<path fill-rule="evenodd" clip-rule="evenodd" d="M38.0967 30.6416V32.2006C38.6007 31.7556 38.8967 31.2386 38.8967 30.6416H38.0967Z" fill="black"/>
</g>
<path fill-rule="evenodd" clip-rule="evenodd" d="M20.0968 30.6416H19.2968C19.2968 31.2386 19.5928 31.7556 20.0968 32.2006V30.6416Z" fill="black"/>
<path fill-rule="evenodd" clip-rule="evenodd" d="M37.2969 31.8086V32.7496C37.6019 32.5806 37.8719 32.3986 38.0969 32.2006V30.6416C38.0969 31.0586 37.8069 31.4526 37.2969 31.8086Z" fill="black"/>
<path fill-rule="evenodd" clip-rule="evenodd" d="M20.0967 30.6416V32.2006C20.3217 32.3986 20.5917 32.5806 20.8967 32.7496V31.8086C20.3867 31.4526 20.0967 31.0586 20.0967 30.6416Z" fill="black"/>
<path fill-rule="evenodd" clip-rule="evenodd" d="M29.0968 32.6841C28.9108 32.6841 28.7378 32.6781 28.5588 32.6751C28.3688 32.9571 28.1058 33.2151 27.7758 33.4501C28.2078 33.4701 28.6468 33.4841 29.0968 33.4841C32.7488 33.4841 35.8858 32.7961 37.2968 31.8091V30.6421C37.2958 31.2531 34.5068 32.6841 29.0968 32.6841Z" fill="black"/>
<path fill-rule="evenodd" clip-rule="evenodd" d="M20.8965 30.6416V31.8086C21.6625 32.3446 22.9365 32.7896 24.5275 33.0876C25.2015 32.9156 25.7545 32.7236 26.1835 32.5306C22.6915 32.1446 20.8965 31.1306 20.8965 30.6416Z" fill="black"/>
<path fill-rule="evenodd" clip-rule="evenodd" d="M24.5273 33.0878C25.5063 33.2708 26.6033 33.3958 27.7753 33.4498C28.1053 33.2158 28.3693 32.9578 28.5583 32.6758C27.6963 32.6598 26.9023 32.6098 26.1833 32.5308C25.7553 32.7238 25.2013 32.9158 24.5273 33.0878Z" fill="black"/>
<path fill-rule="evenodd" clip-rule="evenodd" d="M37.2969 31.8086C37.8069 31.4526 38.0969 31.0586 38.0969 30.6416H37.2969V31.8086Z" fill="black"/>
<path fill-rule="evenodd" clip-rule="evenodd" d="M20.0967 30.6416C20.0967 31.0586 20.3867 31.4526 20.8967 31.8086V30.6416H20.0967Z" fill="black"/>
<mask id="mask6_137_22026" style="mask-type:luminance" maskUnits="userSpaceOnUse" x="0" y="22" width="18" height="18">
<path d="M0.75 22.2764H17.2988V39.8632H0.75V22.2764Z" fill="white"/>
</mask>
<g mask="url(#mask6_137_22026)">
<path fill-rule="evenodd" clip-rule="evenodd" d="M9.54976 39.0634C5.13176 39.0634 1.54976 35.4814 1.54976 31.0634C1.54976 26.7304 4.99676 23.2104 9.29676 23.0764V22.2764C4.56176 22.4124 0.749756 26.2964 0.749756 31.0634C0.749756 35.9164 4.69676 39.8634 9.54976 39.8634C12.8968 39.8634 15.8108 37.9854 17.2988 35.2284C17.0008 35.2104 16.7058 35.1874 16.4118 35.1594C15.0158 37.4944 12.4688 39.0634 9.54976 39.0634Z" fill="black"/>
</g>
<path fill-rule="evenodd" clip-rule="evenodd" d="M17.167 28.6191C17.438 28.6381 17.72 28.6521 18.009 28.6621C17.627 27.3221 16.936 26.1141 16.017 25.1151C15.564 25.0661 15.119 25.0071 14.688 24.9341C15.831 25.8931 16.7 27.1651 17.167 28.6191Z" fill="black"/>
<path fill-rule="evenodd" clip-rule="evenodd" d="M18.3096 30.2723C18.0416 30.2653 17.7746 30.2533 17.5076 30.2383C17.5356 30.5093 17.5496 30.7853 17.5496 31.0633C17.5496 31.9573 17.3966 32.8143 17.1256 33.6163C17.3946 33.6353 17.6726 33.6493 17.9576 33.6603C18.2116 32.8393 18.3496 31.9673 18.3496 31.0633C18.3496 30.7963 18.3326 30.5333 18.3096 30.2723Z" fill="black"/>
<path fill-rule="evenodd" clip-rule="evenodd" d="M14.6885 24.9349C15.1195 25.0079 15.5645 25.0659 16.0165 25.1159C14.6965 23.6809 12.9105 22.6889 10.8965 22.3779V23.1849C12.3245 23.4279 13.6255 24.0419 14.6885 24.9349Z" fill="black"/>
<path fill-rule="evenodd" clip-rule="evenodd" d="M17.167 28.6191C17.333 29.1381 17.45 29.6791 17.508 30.2381C17.774 30.2531 18.042 30.2651 18.31 30.2721C18.26 29.7191 18.156 29.1811 18.009 28.6621C17.72 28.6521 17.438 28.6381 17.167 28.6191Z" fill="black"/>
<path fill-rule="evenodd" clip-rule="evenodd" d="M17.126 33.6157C16.943 34.1597 16.702 34.6747 16.412 35.1587C16.706 35.1867 17.001 35.2097 17.299 35.2277C17.566 34.7317 17.788 34.2077 17.958 33.6597C17.673 33.6487 17.395 33.6347 17.126 33.6157Z" fill="black"/>
<path fill-rule="evenodd" clip-rule="evenodd" d="M9.54975 23.063C9.69475 23.063 9.83575 23.077 9.97875 23.084C9.72375 22.835 9.53575 22.563 9.42475 22.27C9.38175 22.27 9.33975 22.275 9.29675 22.276V23.076C9.38175 23.073 9.46475 23.063 9.54975 23.063Z" fill="black"/>
<path fill-rule="evenodd" clip-rule="evenodd" d="M10.8966 22.3777C10.4566 22.3097 10.0086 22.2637 9.54956 22.2637C9.50756 22.2637 9.46656 22.2697 9.42456 22.2697C9.53656 22.5637 9.72356 22.8357 9.97856 23.0847C10.2896 23.1017 10.5956 23.1337 10.8966 23.1857V22.3777Z" fill="black"/>
<path fill-rule="evenodd" clip-rule="evenodd" d="M16.2861 28.5425C16.5681 28.5725 16.8611 28.5985 17.1671 28.6195C16.7001 27.1655 15.8311 25.8935 14.6881 24.9345C13.1941 24.6835 11.8651 24.2895 10.8961 23.7505V23.9935C13.3831 24.4665 15.4141 26.2215 16.2861 28.5425Z" fill="black"/>
<path fill-rule="evenodd" clip-rule="evenodd" d="M9.5498 38.2632C5.5788 38.2632 2.3498 35.0332 2.3498 31.0632C2.3498 27.1782 5.4448 24.0102 9.2968 23.8752V23.0752C4.9968 23.2102 1.5498 26.7302 1.5498 31.0632C1.5498 35.4812 5.1318 39.0632 9.5498 39.0632C12.4688 39.0632 15.0158 37.4942 16.4118 35.1592C16.1158 35.1312 15.8228 35.0982 15.5338 35.0602C14.2408 36.9902 12.0418 38.2632 9.5498 38.2632Z" fill="black"/>
<path fill-rule="evenodd" clip-rule="evenodd" d="M17.5078 30.2386C17.2338 30.2236 16.9618 30.2046 16.6908 30.1816C16.7258 30.4706 16.7498 30.7636 16.7498 31.0636C16.7498 31.9366 16.5858 32.7696 16.2998 33.5446C16.5658 33.5726 16.8418 33.5956 17.1258 33.6156C17.3968 32.8136 17.5498 31.9566 17.5498 31.0636C17.5498 30.7846 17.5348 30.5096 17.5078 30.2386Z" fill="black"/>
<path fill-rule="evenodd" clip-rule="evenodd" d="M10.8965 23.1851V23.7501C11.8655 24.2891 13.1945 24.6831 14.6885 24.9351C13.6255 24.0421 12.3245 23.4281 10.8965 23.1851Z" fill="black"/>
<path fill-rule="evenodd" clip-rule="evenodd" d="M16.2861 28.5425C16.4811 29.0635 16.6201 29.6115 16.6901 30.1815C16.9621 30.2045 17.2331 30.2235 17.5081 30.2385C17.4501 29.6795 17.3331 29.1385 17.1671 28.6195C16.8611 28.5985 16.5681 28.5725 16.2861 28.5425Z" fill="black"/>
<path fill-rule="evenodd" clip-rule="evenodd" d="M15.5342 35.0609C15.8232 35.0989 16.1162 35.1319 16.4122 35.1599C16.7022 34.6749 16.9432 34.1599 17.1262 33.6159C16.8422 33.5959 16.5652 33.5729 16.3002 33.5439C16.1012 34.0819 15.8482 34.5919 15.5342 35.0609Z" fill="black"/>
<path fill-rule="evenodd" clip-rule="evenodd" d="M9.54975 23.863C10.0108 23.863 10.4598 23.911 10.8968 23.994V23.75C10.5348 23.55 10.2268 23.327 9.97875 23.085C9.83575 23.077 9.69475 23.063 9.54975 23.063C9.46475 23.063 9.38175 23.073 9.29675 23.076V23.876C9.38175 23.873 9.46475 23.863 9.54975 23.863Z" fill="black"/>
<path fill-rule="evenodd" clip-rule="evenodd" d="M10.8965 23.1855C10.5955 23.1345 10.2895 23.1015 9.97852 23.0845C10.2265 23.3275 10.5355 23.5495 10.8965 23.7505V23.1855Z" fill="black"/>
<path fill-rule="evenodd" clip-rule="evenodd" d="M10.3037 34.396H8.14673C8.17273 34.475 8.19673 34.555 8.19673 34.642V35.196H10.2537V34.642C10.2537 34.555 10.2777 34.475 10.3037 34.396Z" fill="black"/>
<path fill-rule="evenodd" clip-rule="evenodd" d="M8.17871 27.7297H9.29671V26.9297H8.19671V27.6417C8.19671 27.6727 8.18171 27.6997 8.17871 27.7297Z" fill="black"/>
<path fill-rule="evenodd" clip-rule="evenodd" d="M7.09675 33.9026V31.0636V28.3816C6.80375 28.2626 6.59675 27.9776 6.59675 27.6416V27.1196C6.41775 27.2666 6.29675 27.4806 6.29675 27.7296V34.3966C6.29675 34.6456 6.41775 34.8596 6.59675 35.0066V34.6416C6.59675 34.3066 6.80375 34.0216 7.09675 33.9026Z" fill="black"/>
<path fill-rule="evenodd" clip-rule="evenodd" d="M11.7988 34.3711C11.8298 34.4561 11.8538 34.5461 11.8538 34.6421V35.1651C12.3198 35.1051 12.7408 34.9001 13.0808 34.5901C12.7368 34.4991 12.4138 34.3961 12.1048 34.2861C12.0068 34.3261 11.9048 34.3541 11.7988 34.3711Z" fill="black"/>
<path fill-rule="evenodd" clip-rule="evenodd" d="M11.668 29.3964C11.668 30.0164 11.356 30.5504 10.897 30.8374V31.0634H11.573C12.414 31.0634 13.097 31.8094 13.097 32.7294C13.097 32.7964 13.086 32.8594 13.079 32.9244C13.318 32.9974 13.579 33.0674 13.858 33.1344C13.879 33.0024 13.897 32.8684 13.897 32.7294C13.897 31.6294 13.215 30.6954 12.276 30.3784C12.397 30.0824 12.464 29.7554 12.466 29.4134C12.175 29.3204 11.902 29.2184 11.642 29.1104C11.656 29.2044 11.668 29.2984 11.668 29.3964Z" fill="black"/>
<path fill-rule="evenodd" clip-rule="evenodd" d="M11.3457 28.3823C11.4937 28.5923 11.5987 28.8383 11.6417 29.1103C11.9027 29.2183 12.1747 29.3193 12.4657 29.4123C12.4657 29.4063 12.4677 29.4013 12.4677 29.3963C12.4677 28.7463 12.2257 28.1593 11.8377 27.7183C11.8077 28.0213 11.6177 28.2753 11.3457 28.3823Z" fill="black"/>
<path fill-rule="evenodd" clip-rule="evenodd" d="M9.67288 27.7297C9.49588 27.4817 9.38088 27.2157 9.33388 26.9297H9.29688V27.7297H9.67288Z" fill="black"/>
<path fill-rule="evenodd" clip-rule="evenodd" d="M10.8965 31.0634V30.8374C10.6735 30.9774 10.4185 31.0634 10.1445 31.0634H10.8965Z" fill="black"/>
<path fill-rule="evenodd" clip-rule="evenodd" d="M12.1045 34.2863C12.4145 34.3963 12.7375 34.4993 13.0815 34.5903C13.4835 34.2223 13.7665 33.7153 13.8585 33.1343C13.5795 33.0673 13.3185 32.9973 13.0795 32.9243C13.0105 33.5533 12.6285 34.0713 12.1045 34.2863Z" fill="black"/>
<path fill-rule="evenodd" clip-rule="evenodd" d="M10.2744 27.7437C10.2694 27.7087 10.2534 27.6777 10.2534 27.6417V26.9417C10.2164 26.9397 10.1814 26.9297 10.1444 26.9297H9.33435C9.38035 27.2157 9.49635 27.4817 9.67235 27.7297H10.1444C10.1884 27.7297 10.2304 27.7397 10.2744 27.7437Z" fill="black"/>
<path fill-rule="evenodd" clip-rule="evenodd" d="M9.29692 30.2635H7.89692V28.5295H9.29692V27.7295H8.17892C8.13292 28.1285 7.80792 28.4415 7.39692 28.4415C7.28992 28.4415 7.18992 28.4185 7.09692 28.3815V31.0635H9.29692V30.2635Z" fill="black"/>
<path fill-rule="evenodd" clip-rule="evenodd" d="M10.9971 31.863H11.5731C11.9471 31.863 12.2451 32.208 12.2821 32.645C12.5181 32.74 12.7821 32.834 13.0791 32.925C13.0861 32.86 13.0971 32.796 13.0971 32.73C13.0971 31.809 12.4141 31.063 11.5731 31.063H10.8961V31.642C10.8961 31.707 10.9351 31.782 10.9971 31.863Z" fill="black"/>
<path fill-rule="evenodd" clip-rule="evenodd" d="M11.0537 33.842C11.0577 33.842 11.0607 33.844 11.0647 33.844C10.9087 33.764 10.7577 33.683 10.6207 33.596H7.89668V31.863H9.32468C9.31668 31.789 9.29668 31.718 9.29668 31.642V31.063H7.09668V33.903C7.18968 33.865 7.28968 33.842 7.39668 33.842C7.75068 33.842 8.04168 34.077 8.14668 34.396H10.3037C10.4077 34.077 10.6997 33.842 11.0537 33.842Z" fill="black"/>
<path fill-rule="evenodd" clip-rule="evenodd" d="M11.7988 34.3713C11.9048 34.3543 12.0068 34.3263 12.1048 34.2863C11.9458 34.2293 11.7908 34.1723 11.6428 34.1113C11.7108 34.1863 11.7638 34.2733 11.7988 34.3713Z" fill="black"/>
<path fill-rule="evenodd" clip-rule="evenodd" d="M10.8965 30.8375C11.3555 30.5505 11.6675 30.0155 11.6675 29.3965C11.6675 29.2985 11.6565 29.2035 11.6415 29.1105C11.3735 28.9995 11.1255 28.8785 10.8965 28.7505V30.8375Z" fill="black"/>
<path fill-rule="evenodd" clip-rule="evenodd" d="M10.8965 28.4098V28.7498C11.1255 28.8778 11.3735 28.9988 11.6415 29.1108C11.5985 28.8388 11.4945 28.5928 11.3455 28.3828C11.2545 28.4188 11.1575 28.4418 11.0535 28.4418C10.9985 28.4418 10.9495 28.4208 10.8965 28.4098Z" fill="black"/>
<path fill-rule="evenodd" clip-rule="evenodd" d="M9.67288 27.7295H9.29688V28.5295H10.1449C10.5439 28.5295 10.8679 28.9175 10.8679 29.3965C10.8679 29.8745 10.5439 30.2635 10.1449 30.2635H9.29688V31.0625H10.1449C10.4189 31.0625 10.6739 30.9775 10.8969 30.8375V28.7505C10.3649 28.4555 9.94788 28.1155 9.67288 27.7295Z" fill="black"/>
<path fill-rule="evenodd" clip-rule="evenodd" d="M12.2968 32.7295C12.2968 33.2075 11.9718 33.5965 11.5728 33.5965H10.6208C10.7578 33.6835 10.9088 33.7645 11.0648 33.8435C11.2958 33.8475 11.4988 33.9505 11.6428 34.1105C11.7908 34.1725 11.9458 34.2295 12.1048 34.2865C12.6288 34.0715 13.0108 33.5525 13.0788 32.9245C12.7818 32.8335 12.5188 32.7395 12.2818 32.6445C12.2848 32.6735 12.2968 32.6995 12.2968 32.7295Z" fill="black"/>
<path fill-rule="evenodd" clip-rule="evenodd" d="M9.29688 31.063V31.642C9.29688 31.718 9.31687 31.789 9.32487 31.863H10.9969C10.9349 31.782 10.8969 31.707 10.8969 31.642V31.063H10.1449H9.29688Z" fill="black"/>
<path fill-rule="evenodd" clip-rule="evenodd" d="M10.8965 28.75V28.41C10.5675 28.342 10.3195 28.081 10.2745 27.744C10.2305 27.74 10.1885 27.729 10.1445 27.729H9.67249C9.94849 28.115 10.3655 28.455 10.8965 28.75Z" fill="black"/>
<path fill-rule="evenodd" clip-rule="evenodd" d="M7.39656 26.9298H8.19656V26.6418C8.19656 26.1998 7.83856 25.8418 7.39656 25.8418C6.95456 25.8418 6.59656 26.1998 6.59656 26.6418V27.1198C6.73456 27.0068 6.90456 26.9298 7.09656 26.9298H7.39656Z" fill="black"/>
<path fill-rule="evenodd" clip-rule="evenodd" d="M7.09668 28.3812V27.7302H8.17868C8.18168 27.6992 8.19668 27.6732 8.19668 27.6422V26.9302H7.39668H7.09668C6.90468 26.9302 6.73468 27.0062 6.59668 27.1202V27.6422C6.59668 27.9772 6.80368 28.2622 7.09668 28.3812Z" fill="black"/>
<path fill-rule="evenodd" clip-rule="evenodd" d="M8.17868 27.7295H7.09668V28.3805C7.18968 28.4185 7.28968 28.4415 7.39668 28.4415C7.80768 28.4415 8.13268 28.1275 8.17868 27.7295Z" fill="black"/>
<path fill-rule="evenodd" clip-rule="evenodd" d="M11.0537 25.8418C10.9977 25.8418 10.9497 25.8628 10.8967 25.8738V26.6418C10.8967 26.7238 10.9517 26.8228 11.0537 26.9298C11.2057 27.0908 11.4757 27.2718 11.8537 27.4548V26.6418C11.8537 26.1998 11.4947 25.8418 11.0537 25.8418Z" fill="black"/>
<path fill-rule="evenodd" clip-rule="evenodd" d="M11.0537 27.1271V26.9301C10.9517 26.8231 10.8967 26.7241 10.8967 26.6421V27.0741C10.9487 27.0931 11.0037 27.1051 11.0537 27.1271Z" fill="black"/>
<path fill-rule="evenodd" clip-rule="evenodd" d="M11.0537 27.1272C11.3547 27.2632 11.6177 27.4692 11.8377 27.7192C11.8407 27.6922 11.8537 27.6692 11.8537 27.6422V27.4552C11.4757 27.2722 11.2057 27.0902 11.0537 26.9302V27.1272Z" fill="black"/>
<path fill-rule="evenodd" clip-rule="evenodd" d="M10.8965 25.8735C10.5325 25.9485 10.2535 26.2555 10.2535 26.6415H10.8965V25.8735Z" fill="black"/>
<path fill-rule="evenodd" clip-rule="evenodd" d="M10.8965 27.0741V26.6421H10.2535V26.9421C10.4785 26.9531 10.6935 26.9991 10.8965 27.0741Z" fill="black"/>
<path fill-rule="evenodd" clip-rule="evenodd" d="M11.0537 27.1272C11.0037 27.1052 10.9487 27.0932 10.8967 27.0742V27.9552C11.0717 28.0642 11.2237 28.2092 11.3457 28.3822C11.6177 28.2752 11.8077 28.0222 11.8377 27.7192C11.6177 27.4692 11.3547 27.2632 11.0537 27.1272Z" fill="black"/>
<path fill-rule="evenodd" clip-rule="evenodd" d="M10.2539 27.6419C10.2539 27.6779 10.2699 27.7089 10.2749 27.7439C10.4999 27.7659 10.7099 27.8379 10.8969 27.9549V27.0739C10.6929 26.9989 10.4789 26.9529 10.2539 26.9419V27.6419Z" fill="black"/>
<path fill-rule="evenodd" clip-rule="evenodd" d="M11.0537 28.4416C11.1577 28.4416 11.2547 28.4186 11.3457 28.3826C11.2237 28.2096 11.0717 28.0646 10.8967 27.9556V28.4096C10.9497 28.4206 10.9977 28.4416 11.0537 28.4416Z" fill="black"/>
<path fill-rule="evenodd" clip-rule="evenodd" d="M10.8965 28.4101V27.9551C10.7095 27.8381 10.5005 27.7651 10.2745 27.7441C10.3195 28.0811 10.5675 28.3421 10.8965 28.4101Z" fill="black"/>
<path fill-rule="evenodd" clip-rule="evenodd" d="M7.39656 35.1959H7.09656C6.90456 35.1959 6.73456 35.1199 6.59656 35.0059V35.6419C6.59656 36.0839 6.95456 36.4419 7.39656 36.4419C7.83856 36.4419 8.19656 36.0839 8.19656 35.6419V35.1959H7.39656Z" fill="black"/>
<path fill-rule="evenodd" clip-rule="evenodd" d="M8.14656 34.3963H7.09656V33.9023C6.80356 34.0213 6.59656 34.3063 6.59656 34.6423V35.0063C6.73456 35.1193 6.90456 35.1963 7.09656 35.1963H7.39656H8.19656V34.6423C8.19656 34.5553 8.17256 34.4753 8.14656 34.3963Z" fill="black"/>
<path fill-rule="evenodd" clip-rule="evenodd" d="M7.39656 33.8418C7.29056 33.8418 7.18956 33.8648 7.09656 33.9028V34.3958H8.14656C8.04256 34.0768 7.75056 33.8418 7.39656 33.8418Z" fill="black"/>
<path fill-rule="evenodd" clip-rule="evenodd" d="M11.0537 35.196H10.2537V35.642C10.2537 36.084 10.6127 36.442 11.0537 36.442C11.4947 36.442 11.8537 36.084 11.8537 35.642V35.166C11.7607 35.178 11.6687 35.196 11.5737 35.196H11.0537Z" fill="black"/>
<path fill-rule="evenodd" clip-rule="evenodd" d="M11.7988 34.3711C11.7248 34.3831 11.6508 34.3961 11.5728 34.3961H10.3038C10.2778 34.4751 10.2538 34.5551 10.2538 34.6421V35.1961H11.0538H11.5728C11.6688 35.1961 11.7608 35.1781 11.8538 35.1651V34.6421C11.8538 34.5461 11.8298 34.4561 11.7988 34.3711Z" fill="black"/>
<path fill-rule="evenodd" clip-rule="evenodd" d="M11.0645 33.8438C11.0605 33.8438 11.0575 33.8418 11.0535 33.8418C10.6995 33.8418 10.4085 34.0768 10.3035 34.3958H11.5735C11.6505 34.3958 11.7245 34.3838 11.7985 34.3708C11.7635 34.2738 11.7105 34.1868 11.6425 34.1108C11.4395 34.0268 11.2465 33.9378 11.0645 33.8438Z" fill="black"/>
<path fill-rule="evenodd" clip-rule="evenodd" d="M11.0645 33.8442C11.2465 33.9382 11.4395 34.0272 11.6425 34.1112C11.4995 33.9512 11.2955 33.8472 11.0645 33.8442Z" fill="black"/>
</g>
<defs>
<clipPath id="clip0_137_22026">
<rect width="40" height="40" fill="white" transform="translate(0.75)"/>
</clipPath>
</defs>
</svg>
