<svg width="41" height="40" viewBox="0 0 41 40" fill="none" xmlns="http://www.w3.org/2000/svg">
<g clip-path="url(#clip0_506_5878)">
<path d="M28.75 24C35.3774 24 40.75 18.6274 40.75 12C40.75 5.37258 35.3774 0 28.75 0C22.1226 0 16.75 5.37258 16.75 12C16.75 18.6274 22.1226 24 28.75 24Z" fill="#F79489"/>
<g clip-path="url(#clip1_506_5878)">
<path d="M16.0519 5.00144C15.6539 4.98634 15.2768 5.09179 15.0286 5.23429C14.4914 5.51126 14.1234 6.07479 14.1239 6.85887C14.1324 7.68928 14.4338 8.38012 14.7018 8.97692C14.8065 9.21004 14.9039 9.42943 14.9859 9.6338C14.3574 9.86557 13.7336 10.2177 13.1509 10.5513C12.6684 10.8275 12.2283 11.0989 11.8841 11.2936C11.7128 11.3913 11.4992 11.4928 11.3906 11.5414C11.3817 11.2465 11.139 11.0094 10.8416 11.0106H9.20313C9.20209 10.71 8.95893 10.4669 8.65839 10.4659H1.54474C1.2442 10.4669 1.00107 10.71 1 11.0106V20.3095C0.998843 20.6116 1.24263 20.8574 1.54474 20.8585H8.65839C8.96051 20.8574 9.20429 20.6116 9.20313 20.3095H10.8416C11.1437 20.3107 11.3906 20.0669 11.3917 19.7648H11.9364C12.4617 19.763 13.0637 20.2073 13.4361 20.4697C13.3333 20.6216 13.2319 20.7727 13.1274 20.9269C11.7554 22.9506 10.2969 25.1948 10.2969 28.2391C10.2969 29.3308 10.5264 30.3148 10.9826 31.1508C10.9696 31.1818 10.9572 31.2135 10.9463 31.2458C9.37438 31.238 8.12692 31.2456 6.72617 31.2458C7.24667 30.6654 7.56464 29.9 7.56464 29.0626C7.56464 27.2568 6.08794 25.7803 4.28232 25.7803C2.4767 25.7803 1 27.2568 1 29.0626C1 29.9709 1.3731 30.7943 1.97413 31.3889C1.40217 31.647 1 32.2262 1 32.8896V34.5281C1 34.9468 1.1609 35.3322 1.42298 35.624C1.16097 35.9149 1 36.299 1 36.7177V38.3562C1 39.2557 1.73959 39.9993 2.63849 40C5.49392 40.0001 9.17536 40 11.3917 40C12.2906 39.9993 13.0302 39.2557 13.0302 38.3562V36.7177C13.0302 36.299 12.8692 35.9149 12.6072 35.624C12.7939 35.4161 12.9295 35.1604 12.9917 34.8795C13.5639 35.4226 14.2744 36.088 15.0286 36.7658C15.8948 37.5442 16.8005 38.3254 17.5804 38.9212C18.4495 39.5593 19.0884 39.9945 19.5938 40C20.5355 40 22.1401 39.7172 23.6462 39.4424C24.3992 39.3051 25.1155 39.1694 25.6767 39.0675C26.0186 38.9979 26.3852 38.9485 26.7021 38.9052L27.2468 38.9073C27.2479 39.2115 27.4948 39.4553 27.7969 39.4541H29.4354C29.4365 39.7559 29.6821 40.0011 29.9844 39.9999H35.4499C35.7536 40.0011 36.0012 39.7536 36 39.4498V30.701C36.0011 30.3973 35.7536 30.1508 35.4499 30.152H29.9844C29.6807 30.1509 29.4342 30.3973 29.4354 30.701H27.7969C27.4948 30.6999 27.2479 30.9436 27.2468 31.2457V31.5694C26.7859 31.4433 26.399 31.3056 26.0089 31.1646C26.4702 30.3257 26.7021 29.3368 26.7021 28.239C26.7021 25.2374 25.2894 23.0178 23.9314 21.0133C24.2869 20.7117 24.5146 20.2631 24.5146 19.7647C24.5146 19.3462 24.3544 18.9606 24.0927 18.6688C24.3541 18.378 24.5146 17.9943 24.5146 17.5762C24.5146 17.1577 24.3543 16.7732 24.0927 16.4813C24.3543 16.1905 24.5146 15.8071 24.5146 15.3887C24.5146 14.618 23.9711 13.9619 23.2499 13.7897C23.6955 12.8771 23.2013 12.0766 22.6496 11.6695C22.6426 11.6639 22.3226 11.4113 21.8603 11.0778C21.9141 10.534 22.1159 9.85972 22.3345 9.18192C22.5901 8.3896 22.875 7.6017 22.875 6.83637C22.875 6.06838 22.5 5.52061 21.9308 5.22567C21.449 4.97615 20.8564 4.96443 20.4974 5.06018C19.7754 5.22109 19.2951 5.68813 18.8258 6.09838C18.7082 6.20116 18.5919 6.302 18.4701 6.39959C17.8642 5.90628 17.3864 5.31017 16.4535 5.06018C16.3204 5.02545 16.1846 5.00647 16.0519 5.00144ZM20.9289 6.09518C21.119 6.08827 21.3069 6.13708 21.4341 6.20306C21.5775 6.27618 21.7812 6.42576 21.7812 6.83644C21.7812 7.29625 21.5508 8.04905 21.2931 8.84768C21.1323 9.34618 20.9609 9.86576 20.8552 10.3911C20.5059 10.1669 20.1417 9.94946 19.7871 9.77159C19.3463 9.55048 18.9461 9.37212 18.4925 9.37212C17.6971 9.37372 16.8526 9.3648 16.0722 9.3796C15.9253 9.01302 15.7744 8.69708 15.63 8.37451C16.1296 8.44352 16.7364 8.38129 17.497 8.17691C18.4358 7.86629 19.0591 7.34207 19.5446 6.91762C20.0302 6.49317 20.3737 6.20181 20.7398 6.12188C20.8013 6.10567 20.8655 6.09748 20.9289 6.09518ZM30.5227 9.37639C30.2103 9.38514 29.9854 9.62524 29.9844 9.92112V10.4659C29.9832 10.768 30.227 11.0138 30.5291 11.0149C30.8328 11.0161 31.0793 10.7696 31.0781 10.4659V9.92112C31.0771 9.61897 30.8318 9.3752 30.5227 9.37639ZM16.2431 10.4659H18.4925C19.222 10.5083 21.0332 11.8153 21.9853 12.5369C22.3183 12.7869 22.3829 13.0615 22.2865 13.2728C22.19 13.4841 21.8823 13.7449 21.2248 13.7449C20.798 13.7449 20.3026 13.595 19.8149 13.4181C19.327 13.2412 18.8762 13.0243 18.3473 13.0176C18.1492 13.0153 17.9652 13.1214 17.8666 13.2931C17.5385 13.8614 17.282 14.0576 16.9908 14.169C16.6995 14.2804 16.3061 14.2939 15.7592 14.2939C15.4571 14.2927 15.2112 14.5365 15.2102 14.8387C15.2091 15.1363 15.4458 15.3792 15.7411 15.3877C15.6029 16.8923 14.9107 18.2097 14.0428 19.5565C13.376 19.1165 12.8114 18.6822 11.9364 18.67H11.3917V12.6544C11.6335 12.6527 11.7565 12.5827 11.9119 12.5123C12.0691 12.4411 12.2347 12.3514 12.4203 12.2464C12.7915 12.0364 13.2315 11.7661 13.6967 11.4998C14.6272 10.9671 15.7032 10.4778 16.2431 10.4659ZM32.7027 11.0074C32.3993 11.023 32.1718 11.2637 32.1729 11.5564V12.1011C32.174 12.4017 32.4171 12.6448 32.7177 12.6459C33.0198 12.6471 33.2657 12.4033 33.2667 12.1011V11.5564C33.2679 11.2527 33.0209 11.0062 32.7027 11.0074ZM28.3352 11.0149C28.0342 11.0233 27.7979 11.2648 27.7969 11.5607V12.1097C27.7979 12.4103 28.0411 12.6534 28.3416 12.6544C28.6437 12.6556 28.8896 12.4118 28.8906 12.1097V11.5607C28.8896 11.2585 28.6443 11.0137 28.3352 11.0149ZM9.20313 12.1054H10.2969V19.2147H9.20313V12.1054ZM30.5291 13.1959C28.7235 13.1959 27.2468 14.6724 27.2468 16.4782C27.2468 18.284 28.7235 19.7605 30.5291 19.7605C32.3347 19.7605 33.8114 18.284 33.8114 16.4782C33.8114 14.6724 32.3347 13.1959 30.5291 13.1959ZM21.777 14.8387H22.875C23.1874 14.8387 23.4197 15.0763 23.4197 15.3887C23.4197 15.7012 23.1874 15.9335 22.875 15.9335H21.777C21.4646 15.9335 21.2322 15.7012 21.2322 15.3887C21.2322 15.0763 21.4646 14.8387 21.777 14.8387ZM21.777 17.0272H22.875C23.1874 17.0272 23.4197 17.2638 23.4197 17.5762C23.4197 17.8887 23.1874 18.121 22.875 18.121H21.777C21.4646 18.121 21.2322 17.8887 21.2322 17.5762C21.2322 17.2638 21.4646 17.0272 21.777 17.0272ZM21.777 19.2147H22.875C23.1874 19.2147 23.4197 19.4523 23.4197 19.7648C23.4197 20.0772 23.1874 20.3095 22.875 20.3095H21.777C21.4646 20.3095 21.2322 20.0772 21.2322 19.7648C21.2322 19.4523 21.4646 19.2147 21.777 19.2147ZM18.4861 20.8628C18.8021 20.8638 19.0449 21.1096 19.0437 21.4118V21.9565H19.5938C20.4932 21.9565 21.2322 22.6998 21.2322 23.5993C21.2312 23.8998 20.9881 24.144 20.6875 24.1451C20.3854 24.1463 20.1395 23.9014 20.1385 23.5993C20.1385 23.2868 19.9062 23.0503 19.5938 23.0503H19.0437V25.2399H19.5938C20.4932 25.2399 21.2322 25.9831 21.2322 26.8826V27.9764C21.2322 28.8759 20.4932 29.6159 19.5938 29.6159H19.0437V30.1606C19.0449 30.4628 18.8021 30.7086 18.5 30.7096C18.1963 30.7108 17.9498 30.4644 17.951 30.1606V29.6159H17.4063C16.5068 29.6159 15.7678 28.8759 15.7678 27.9764C15.7666 27.6742 16.0104 27.4284 16.3125 27.4273C16.6162 27.4261 16.8627 27.6726 16.8615 27.9764C16.8615 28.2888 17.0938 28.5211 17.4063 28.5211H17.951V26.3336H17.4063C16.5068 26.3336 15.7678 25.5936 15.7678 24.6941V23.5993C15.7678 22.6998 16.5068 21.9565 17.4063 21.9565H17.951V21.4118C17.9498 21.1175 18.1817 20.8764 18.4861 20.8628ZM4.26737 21.9565C3.96238 21.9702 3.73215 22.2113 3.73331 22.5055V23.0503C3.73211 23.354 3.97862 23.6005 4.28232 23.5993C4.58445 23.5982 4.82825 23.3524 4.82706 23.0503V22.5055C4.82825 22.2034 4.58391 21.9576 4.26737 21.9565ZM17.4063 23.0503C17.0938 23.0503 16.8615 23.2868 16.8615 23.5993V24.6941C16.8615 25.0065 17.0938 25.2399 17.4063 25.2399H17.951V23.0503H17.4063ZM6.45594 23.5918C6.15295 23.6053 5.92182 23.8449 5.92081 24.1376V24.6866C5.92185 24.9888 6.16769 25.2325 6.46982 25.2313C6.77037 25.2303 7.01353 24.9872 7.01456 24.6866V24.1376C7.01352 23.837 6.77037 23.5928 6.45594 23.5918ZM2.08628 23.5993C1.7837 23.6056 1.54576 23.8476 1.54474 24.1451V24.6941C1.54578 24.9962 1.79163 25.2411 2.09375 25.2399C2.3943 25.2388 2.63746 24.9947 2.63849 24.6941V24.1451C2.63746 23.8445 2.39377 23.6003 2.08628 23.5993ZM19.0437 26.3336V28.5211H19.5938C19.9062 28.5211 20.1385 28.2888 20.1385 27.9764V26.8826C20.1385 26.5702 19.9062 26.3336 19.5938 26.3336H19.0437ZM12.6798 31.2447C12.8141 31.2474 12.9588 31.2672 13.0985 31.3067L18.1187 32.7241C17.953 33.0665 17.9026 33.4663 18.0076 33.8584C18.2403 34.7275 19.1478 35.2536 20.0167 35.0205L23.1858 34.1692C23.4781 34.0914 23.6519 33.7906 23.5735 33.4984C23.4958 33.2062 23.1959 33.0334 22.9038 33.1118L19.7347 33.9631C19.4332 34.0439 19.145 33.878 19.064 33.5753C18.983 33.2728 19.1501 32.9865 19.4699 32.8992C19.4699 32.8992 20.2997 32.615 21.2771 32.3363C22.2545 32.0577 23.4365 31.7916 23.9698 31.7916C24.4686 31.7916 25.1045 31.9969 25.7621 32.2349C26.2471 32.4104 26.7386 32.6057 27.2468 32.6963V37.8114H26.7021C26.2805 37.8334 25.863 37.9224 25.4833 37.9887C24.914 38.0921 24.196 38.2327 23.4486 38.369C21.9538 38.6417 20.2922 38.9052 19.5938 38.9052C19.1546 38.7326 18.6254 38.332 18.2415 38.0496C17.5035 37.4858 16.6135 36.7217 15.7592 35.954C14.6353 34.9491 13.5434 33.8983 12.4609 32.8533C11.9839 32.4425 11.8527 32.0816 11.9802 31.6058C12.0688 31.3151 12.3835 31.2404 12.6798 31.2447ZM28.3416 31.7959H29.4354V38.3605H28.3416V31.7959ZM2.63849 32.3406H3.73331V33.4258C3.73211 33.7296 3.97862 33.976 4.28232 33.9748C4.58445 33.9738 4.82825 33.728 4.82706 33.4258V32.3406H6.46982V33.4258C6.46863 33.728 6.71243 33.9738 7.01456 33.9748C7.31827 33.976 7.56584 33.7296 7.56464 33.4258V32.3406H9.20313V33.4258C9.20192 33.728 9.44574 33.9738 9.74787 33.9748C10.0516 33.976 10.2981 33.7296 10.2969 33.4258V32.3406H10.8801C11.0358 32.9067 11.2061 33.1899 11.9364 33.8669V34.5281C11.9364 34.8405 11.7046 35.0779 11.3917 35.0782H2.64063C2.32728 35.0762 2.09375 34.8394 2.09375 34.5281V32.8896C2.09375 32.5772 2.32607 32.3406 2.63849 32.3406ZM2.63849 36.173C2.99564 36.173 3.35484 36.173 3.73331 36.173V37.2667C3.73435 37.5689 3.98019 37.8126 4.28232 37.8115C4.58287 37.8104 4.82603 37.5673 4.82706 37.2667V36.173H6.46982V37.2667C6.47086 37.5673 6.71401 37.8104 7.01456 37.8115C7.31669 37.8127 7.5636 37.5689 7.56464 37.2667V36.173H9.20313V37.2667C9.20417 37.5673 9.44731 37.8104 9.74787 37.8115C10.05 37.8127 10.2958 37.5689 10.2969 37.2667V36.173H11.3917C11.7041 36.173 11.9364 36.4053 11.9364 36.7177V38.3562C11.9364 38.6686 11.7046 38.9049 11.3917 38.9052C9.17635 38.9052 5.49756 38.9053 2.64063 38.9052C2.32728 38.9032 2.09375 38.6675 2.09375 38.3562V36.7177C2.09375 36.4053 2.32607 36.173 2.63849 36.173Z" fill="black"/>
</g>
</g>
<defs>
<clipPath id="clip0_506_5878">
<rect width="40" height="40" fill="white" transform="translate(0.75)"/>
</clipPath>
<clipPath id="clip1_506_5878">
<rect width="35" height="35" fill="white" transform="translate(1 5)"/>
</clipPath>
</defs>
</svg>
