<svg width="31" height="30" viewBox="0 0 31 30" fill="none" xmlns="http://www.w3.org/2000/svg">
<g clip-path="url(#clip0_137_22351)">
<path d="M22.5 16C26.9183 16 30.5 12.4183 30.5 8C30.5 3.58172 26.9183 0 22.5 0C18.0817 0 14.5 3.58172 14.5 8C14.5 12.4183 18.0817 16 22.5 16Z" fill="#CCCFFF"/>
<mask id="mask0_137_22351" style="mask-type:luminance" maskUnits="userSpaceOnUse" x="1" y="16" width="29" height="14">
<path d="M1.25 16.7485H29.4492V29.4495H1.25V16.7485Z" fill="white"/>
</mask>
<g mask="url(#mask0_137_22351)">
<path fill-rule="evenodd" clip-rule="evenodd" d="M23.4135 16.7808C23.0993 16.6736 22.7588 16.8431 22.653 17.1573C22.5473 17.4708 22.7153 17.8121 23.0295 17.9178C26.298 19.0218 28.2495 20.7363 28.2495 22.5048C28.2495 25.6188 22.3418 28.2498 15.3495 28.2498C8.35726 28.2498 2.45026 25.6188 2.45026 22.5048C2.45026 20.7363 4.40176 19.0218 7.67176 17.9171C7.98601 17.8113 8.15401 17.4708 8.04826 17.1566C7.94176 16.8423 7.60126 16.6736 7.28776 16.7808C3.45076 18.0768 1.24951 20.1633 1.24951 22.5048C1.24951 26.3988 7.44301 29.4498 15.3495 29.4498C23.256 29.4498 29.4495 26.3988 29.4495 22.5048C29.4495 20.1633 27.249 18.0768 23.4135 16.7808Z" fill="black"/>
</g>
<path fill-rule="evenodd" clip-rule="evenodd" d="M4.93152 22.5049C4.93152 25.3677 10.2985 26.9119 15.3498 26.9119C20.4003 26.9119 25.768 25.3677 25.768 22.5049C25.768 21.0064 24.2508 19.7292 21.4953 18.9087C21.1758 18.8134 20.8435 18.9949 20.749 19.3122C20.6545 19.6294 20.8353 19.9639 21.1525 20.0584C23.2593 20.6862 24.5688 21.6237 24.5688 22.5049C24.5688 24.0214 20.7828 25.7119 15.3498 25.7119C9.91677 25.7119 6.13152 24.0214 6.13152 22.5049C6.13152 21.6252 7.43577 20.6892 9.53577 20.0622C9.85302 19.9669 10.0338 19.6324 9.93927 19.3152C9.84477 18.9987 9.51252 18.8149 9.19302 18.9117C6.44502 19.7329 4.93152 21.0087 4.93152 22.5049Z" fill="black"/>
<path fill-rule="evenodd" clip-rule="evenodd" d="M11.6178 21.2976C11.5083 20.9848 11.167 20.8206 10.8535 20.9278C9.75103 21.3111 9.19153 21.8421 9.19153 22.5051C9.19153 24.2308 13.0623 24.6906 15.3498 24.6906C17.6365 24.6906 21.5088 24.2308 21.5088 22.5051C21.5088 21.8421 20.9395 21.3118 19.816 20.9271C19.5003 20.8198 19.1613 20.9863 19.054 21.2998C18.946 21.6141 19.114 21.9546 19.4275 22.0626C19.9998 22.2583 20.2135 22.4338 20.2848 22.5088C20.0095 22.8336 18.3828 23.4913 15.3498 23.4913C12.3123 23.4913 10.684 22.8313 10.414 22.5073C10.4808 22.4323 10.6878 22.2561 11.248 22.0618C11.5608 21.9531 11.7265 21.6103 11.6178 21.2976Z" fill="black"/>
<path fill-rule="evenodd" clip-rule="evenodd" d="M10.6386 13.0227C11.0121 11.8888 12.7139 9.08975 15.1889 5.534C15.2399 5.4605 15.3104 5.45 15.3486 5.45C15.3869 5.45 15.4581 5.4605 15.5091 5.53475C17.9646 9.07025 19.6589 11.8498 20.0429 12.9688C20.2191 13.4832 20.3091 14.0232 20.3091 14.573C20.3091 16.0557 19.6514 17.4485 18.5046 18.3935C17.3571 19.34 15.8421 19.7165 14.3489 19.4277C12.4004 19.0497 10.8449 17.4837 10.4804 15.5315C10.3199 14.6712 10.3731 13.8267 10.6386 13.0227ZM14.1209 20.6052C14.5274 20.6847 14.9346 20.7237 15.3389 20.7237C16.7706 20.7237 18.1559 20.2362 19.2681 19.3197C20.6916 18.146 21.5084 16.4157 21.5084 14.573C21.5084 13.8905 21.3974 13.22 21.1784 12.5802C20.5979 10.8867 17.9954 7.01 16.4954 4.85C16.2336 4.47425 15.8061 4.25 15.3486 4.25C14.8926 4.25 14.4651 4.47425 14.2041 4.84925C12.6899 7.02275 10.0656 10.9273 9.49861 12.647C9.16936 13.6453 9.10336 14.69 9.30136 15.752C9.75511 18.1835 11.6916 20.1342 14.1209 20.6052Z" fill="black"/>
<path fill-rule="evenodd" clip-rule="evenodd" d="M16.5009 12.946C16.5009 13.2633 16.2271 13.5213 15.8911 13.5213H14.0701V12.3708H15.8911C16.2271 12.3708 16.5009 12.6295 16.5009 12.946ZM17.6356 15.2958C17.6356 15.613 17.3611 15.871 17.0251 15.871H14.0701V14.7213H17.0251C17.3611 14.7213 17.6356 14.9793 17.6356 15.2958ZM13.1094 16.9375V17.3493C13.1094 17.6808 13.3779 17.9493 13.7086 17.9493C14.0401 17.9493 14.3086 17.6808 14.3086 17.3493V17.071H16.0134V17.3493C16.0134 17.6808 16.2819 17.9493 16.6126 17.9493C16.9441 17.9493 17.2126 17.6808 17.2126 17.3493V17.0523C18.1216 16.9593 18.8349 16.2115 18.8349 15.2958C18.8349 14.5045 18.3031 13.8318 17.5719 13.6038C17.6551 13.4005 17.7009 13.1785 17.7009 12.946C17.7009 12.4773 17.5111 12.0535 17.2074 11.7363C17.2074 11.7273 17.2126 11.719 17.2126 11.7093V11.0043C17.2126 10.6728 16.9441 10.4043 16.6126 10.4043C16.2819 10.4043 16.0134 10.6728 16.0134 11.0043V11.1835C15.9721 11.1805 15.9324 11.1715 15.8911 11.1715H14.3086V11.0043C14.3086 10.6728 14.0401 10.4043 13.7086 10.4043C13.3779 10.4043 13.1094 10.6728 13.1094 11.0043V11.305C12.9676 11.4145 12.8701 11.578 12.8701 11.7715V16.471C12.8701 16.6645 12.9676 16.828 13.1094 16.9375Z" fill="black"/>
</g>
<defs>
<clipPath id="clip0_137_22351">
<rect width="30" height="30" fill="white" transform="translate(0.5)"/>
</clipPath>
</defs>
</svg>
