<svg width="34" height="32" viewBox="0 0 34 32" fill="none" xmlns="http://www.w3.org/2000/svg">
<path d="M31.4344 1L18.5671 10.5209L20.9599 4.90993L31.4344 1Z" fill="#E17726" stroke="#E17726" stroke-width="0.25" stroke-linecap="round" stroke-linejoin="round"/>
<path d="M1.7541 1L14.5069 10.6098L12.2287 4.90992L1.7541 1Z" fill="#E27625" stroke="#E27625" stroke-width="0.25" stroke-linecap="round" stroke-linejoin="round"/>
<path d="M26.8011 23.0742L23.3775 28.3044L30.7084 30.3228L32.8085 23.1885L26.8011 23.0742Z" fill="#E27625" stroke="#E27625" stroke-width="0.25" stroke-linecap="round" stroke-linejoin="round"/>
<path d="M0.392136 23.1885L2.4794 30.3228L9.79763 28.3044L6.38669 23.0742L0.392136 23.1885Z" fill="#E27625" stroke="#E27625" stroke-width="0.25" stroke-linecap="round" stroke-linejoin="round"/>
<path d="M9.40311 14.2424L7.36678 17.3145L14.6213 17.6445L14.3795 9.8374L9.40311 14.2424Z" fill="#E27625" stroke="#E27625" stroke-width="0.25" stroke-linecap="round" stroke-linejoin="round"/>
<path d="M23.7848 14.2395L18.7321 9.74561L18.5667 17.6416L25.8212 17.3116L23.7848 14.2395Z" fill="#E27625" stroke="#E27625" stroke-width="0.25" stroke-linecap="round" stroke-linejoin="round"/>
<path d="M9.79769 28.3039L14.1886 26.1839L10.4086 23.2388L9.79769 28.3039Z" fill="#E27625" stroke="#E27625" stroke-width="0.25" stroke-linecap="round" stroke-linejoin="round"/>
<path d="M18.9994 26.1839L23.3775 28.3039L22.7793 23.2388L18.9994 26.1839Z" fill="#E27625" stroke="#E27625" stroke-width="0.25" stroke-linecap="round" stroke-linejoin="round"/>
<path d="M23.3775 28.3079L18.9994 26.188L19.3557 29.0315L19.3175 30.2375L23.3775 28.3079Z" fill="#D5BFB2" stroke="#D5BFB2" stroke-width="0.25" stroke-linecap="round" stroke-linejoin="round"/>
<path d="M9.79769 28.3079L13.8705 30.2375L13.845 29.0315L14.1886 26.188L9.79769 28.3079Z" fill="#D5BFB2" stroke="#D5BFB2" stroke-width="0.25" stroke-linecap="round" stroke-linejoin="round"/>
<path d="M13.9469 21.3626L10.3069 20.2963L12.8778 19.1157L13.9469 21.3626Z" fill="#233447" stroke="#233447" stroke-width="0.25" stroke-linecap="round" stroke-linejoin="round"/>
<path d="M19.2415 21.3626L20.3106 19.1157L22.8942 20.2963L19.2415 21.3626Z" fill="#233447" stroke="#233447" stroke-width="0.25" stroke-linecap="round" stroke-linejoin="round"/>
<path d="M9.79749 28.3044L10.4339 23.0742L6.3866 23.1885L9.79749 28.3044Z" fill="#CC6228" stroke="#CC6228" stroke-width="0.25" stroke-linecap="round" stroke-linejoin="round"/>
<path d="M22.7541 23.0742L23.3777 28.3044L26.8014 23.1885L22.7541 23.0742Z" fill="#CC6228" stroke="#CC6228" stroke-width="0.25" stroke-linecap="round" stroke-linejoin="round"/>
<path d="M25.8212 17.3105L18.5667 17.6406L19.2412 21.3602L20.3103 19.1132L22.8939 20.2938L25.8212 17.3105Z" fill="#CC6228" stroke="#CC6228" stroke-width="0.25" stroke-linecap="round" stroke-linejoin="round"/>
<path d="M10.3068 20.2938L12.8777 19.1132L13.9468 21.3602L14.6213 17.6406L7.36678 17.3105L10.3068 20.2938Z" fill="#CC6228" stroke="#CC6228" stroke-width="0.25" stroke-linecap="round" stroke-linejoin="round"/>
<path d="M7.36678 17.3105L10.4086 23.2389L10.3067 20.2938L7.36678 17.3105Z" fill="#E27525" stroke="#E27525" stroke-width="0.25" stroke-linecap="round" stroke-linejoin="round"/>
<path d="M22.8941 20.2938L22.7796 23.2389L25.8214 17.3105L22.8941 20.2938Z" fill="#E27525" stroke="#E27525" stroke-width="0.25" stroke-linecap="round" stroke-linejoin="round"/>
<path d="M14.6215 17.6426L13.9469 21.3622L14.7996 25.7544L14.9906 19.9657L14.6215 17.6426Z" fill="#E27525" stroke="#E27525" stroke-width="0.25" stroke-linecap="round" stroke-linejoin="round"/>
<path d="M18.5668 17.6426L18.2103 19.9531L18.3885 25.7544L19.2413 21.3622L18.5668 17.6426Z" fill="#E27525" stroke="#E27525" stroke-width="0.25" stroke-linecap="round" stroke-linejoin="round"/>
<path d="M19.2414 21.3623L18.3887 25.7545L18.9996 26.1862L22.7797 23.241L22.8942 20.2959L19.2414 21.3623Z" fill="#F5841F" stroke="#F5841F" stroke-width="0.25" stroke-linecap="round" stroke-linejoin="round"/>
<path d="M10.3069 20.2959L10.4088 23.241L14.1887 26.1862L14.7996 25.7545L13.9469 21.3623L10.3069 20.2959Z" fill="#F5841F" stroke="#F5841F" stroke-width="0.25" stroke-linecap="round" stroke-linejoin="round"/>
<path d="M19.3177 30.2382L19.3558 29.0322L19.025 28.7529H14.1632L13.845 29.0322L13.8705 30.2382L9.79769 28.3086L11.2231 29.4765L14.1122 31.4696H19.0631L21.9649 29.4765L23.3777 28.3086L19.3177 30.2382Z" fill="#C0AC9D" stroke="#C0AC9D" stroke-width="0.25" stroke-linecap="round" stroke-linejoin="round"/>
<path d="M18.9995 26.1855L18.3886 25.7539H14.7995L14.1886 26.1855L13.845 29.0291L14.1632 28.7498H19.025L19.3559 29.0291L18.9995 26.1855Z" fill="#161616" stroke="#161616" stroke-width="0.25" stroke-linecap="round" stroke-linejoin="round"/>
<path d="M31.9812 11.1429L33.063 5.88741L31.4339 1L18.9994 10.2036L23.7848 14.2404L30.543 16.2081L32.0321 14.469L31.3831 13.9992L32.4139 13.0599L31.6249 12.4505L32.6558 11.6634L31.9812 11.1429Z" fill="#763E1A" stroke="#763E1A" stroke-width="0.25" stroke-linecap="round" stroke-linejoin="round"/>
<path d="M0.125 5.88741L1.21955 11.1429L0.51955 11.6634L1.56318 12.4505L0.774093 13.0599L1.805 13.9992L1.15591 14.469L2.64501 16.2081L9.40325 14.2404L14.1886 10.2036L1.7541 1L0.125 5.88741Z" fill="#763E1A" stroke="#763E1A" stroke-width="0.25" stroke-linecap="round" stroke-linejoin="round"/>
<path d="M30.5432 16.2074L23.785 14.2397L25.8214 17.3119L22.7796 23.2402L26.8014 23.1894H32.8086L30.5432 16.2074Z" fill="#F5841F" stroke="#F5841F" stroke-width="0.25" stroke-linecap="round" stroke-linejoin="round"/>
<path d="M9.40301 14.2397L2.64486 16.2074L0.392136 23.1894H6.38669L10.4085 23.2402L7.36669 17.3119L9.40301 14.2397Z" fill="#F5841F" stroke="#F5841F" stroke-width="0.25" stroke-linecap="round" stroke-linejoin="round"/>
<path d="M18.5668 17.6418L18.9995 10.2028L20.9595 4.90918H12.2286L14.1886 10.2028L14.6213 17.6418L14.7868 19.9776L14.7995 25.7537H18.3886L18.4013 19.9776L18.5668 17.6418Z" fill="#F5841F" stroke="#F5841F" stroke-width="0.25" stroke-linecap="round" stroke-linejoin="round"/>
</svg>
