<svg width="41" height="40" viewBox="0 0 41 40" fill="none" xmlns="http://www.w3.org/2000/svg">
<g clip-path="url(#clip0_506_5654)">
<path d="M28.3799 24C35.0073 24 40.3799 18.6274 40.3799 12C40.3799 5.37258 35.0073 0 28.3799 0C21.7525 0 16.3799 5.37258 16.3799 12C16.3799 18.6274 21.7525 24 28.3799 24Z" fill="#CCCFFF"/>
<g clip-path="url(#clip1_506_5654)">
<path d="M18.4989 6C17.5372 6.00432 16.9299 6.10417 16.4652 6.35889C16.0006 6.6136 15.7733 7.03271 15.6342 7.35223C15.4952 7.67175 15.4045 7.9249 15.1536 8.20779C14.9027 8.49069 14.4779 8.81969 13.6401 9.15735C12.7897 9.50004 12.2508 9.55768 11.8713 9.52478C11.4917 9.49189 11.2474 9.36558 10.9153 9.22998C10.5832 9.09438 10.1074 8.96201 9.58658 9.12424C9.06575 9.28647 8.54366 9.66573 7.81885 10.3761C7.09404 11.0864 6.70266 11.5986 6.5307 12.116C6.35874 12.6335 6.48468 13.1145 6.61508 13.448C6.74549 13.7815 6.86741 14.027 6.89386 14.405C6.92031 14.783 6.85245 15.3153 6.49438 16.1567C6.13771 16.9948 5.80233 17.3853 5.51706 17.6061C5.23179 17.827 4.97299 17.8949 4.62518 18.0302C4.27738 18.1655 3.82729 18.4365 3.58377 18.9584C3.34025 19.4803 3.24411 20.1793 3.24411 21.3125C3.24411 21.4208 3.24658 21.5216 3.24838 21.6223C1.66776 22.1921 1 23.5281 1 24.5938V29.0617C1 30.0284 1.43485 31.2198 1.84381 32.376C2.04829 32.9541 2.25321 33.5156 2.4003 33.9836C2.54739 34.4515 2.62674 34.8509 2.62674 34.9886V35.5302C2.32975 35.5378 2.0931 35.781 2.09375 36.0781V40.4499C2.09201 40.7523 2.33606 40.9988 2.63849 41H11.3917C11.6941 40.9988 11.9382 40.7523 11.9364 40.4499V36.0781C11.9371 35.811 11.7447 35.5825 11.4814 35.5377C11.5495 35.4095 11.6372 35.2641 11.7463 35.0773C12.0007 34.6421 12.3061 34.0317 12.4278 33.1194C12.7442 33.1623 13.1382 33.2643 13.6401 33.4666C14.4779 33.8042 14.9027 34.1322 15.1536 34.4151C15.4045 34.698 15.4952 34.9511 15.6342 35.2706C15.7733 35.5902 16.0006 36.0092 16.4652 36.264C16.9299 36.5187 17.5383 36.6185 18.5 36.6229C19.4617 36.6185 20.069 36.5187 20.5337 36.264C20.9983 36.0092 21.2267 35.5902 21.3658 35.2706C21.5049 34.9511 21.5944 34.698 21.8453 34.4151C22.0962 34.1322 22.5221 33.8042 23.3599 33.4666C23.862 33.2643 24.2557 33.1623 24.5722 33.1194C24.6939 34.0316 24.9982 34.6421 25.2526 35.0773C25.3777 35.2913 25.4499 35.4015 25.5207 35.543C25.208 35.5928 25.0653 35.8379 25.0636 36.0781V40.4499C25.0618 40.7523 25.3059 40.9988 25.6083 41H34.3562C34.6603 41.0011 34.9069 40.754 34.9052 40.4499V36.0781C34.8979 35.7869 34.6635 35.5525 34.3722 35.5451V34.9886C34.3722 34.8509 34.4515 34.4515 34.5986 33.9836C34.7457 33.5156 34.9474 32.9541 35.1519 32.376C35.5609 31.2198 36 30.0284 36 29.0617V24.5938C36 23.5283 35.3315 22.1923 33.7516 21.6223C33.7534 21.5216 33.7548 21.4208 33.7548 21.3125C33.7548 20.1793 33.6598 19.4803 33.4163 18.9584C33.1726 18.4365 32.7216 18.1655 32.3738 18.0302C32.026 17.8949 31.7672 17.827 31.4819 17.6061C31.1966 17.3853 30.8623 16.9948 30.5056 16.1567C30.1476 15.3153 30.0787 14.783 30.1051 14.405C30.1316 14.027 30.2492 13.7815 30.3796 13.448C30.51 13.1145 30.637 12.6335 30.465 12.116C30.293 11.5986 29.906 11.0864 29.1812 10.3761C28.4563 9.66573 27.9332 9.28647 27.4124 9.12424C26.8915 8.96201 26.4168 9.09438 26.0847 9.22998C25.7526 9.36558 25.5072 9.49189 25.1277 9.52478C24.7481 9.55767 24.2103 9.50004 23.3599 9.15735C22.5221 8.81969 22.0962 8.49069 21.8453 8.20779C21.5944 7.9249 21.5048 7.67175 21.3658 7.35223C21.2267 7.03271 20.9984 6.6136 20.5337 6.35889C20.069 6.10417 19.4606 6.00433 18.4989 6ZM18.4947 7.09375C19.3689 7.0977 19.8153 7.20958 20.0093 7.31592C20.2032 7.42226 20.2398 7.51034 20.3607 7.78802C20.4815 8.06571 20.6413 8.50135 21.0261 8.93518C21.4109 9.36901 22.0041 9.78795 22.9519 10.1699C23.9138 10.5576 24.6381 10.6647 25.2206 10.6143C25.8031 10.5638 26.2191 10.3556 26.4959 10.2426C26.7728 10.1295 26.8534 10.0976 27.0855 10.1699C27.3176 10.2422 27.7451 10.4989 28.4143 11.1547C29.0834 11.8105 29.3507 12.2341 29.4268 12.4632C29.5029 12.6922 29.4714 12.7708 29.3627 13.0485C29.2541 13.3262 29.0564 13.7457 29.0156 14.3281C28.9748 14.9105 29.0909 15.6324 29.4963 16.585C29.903 17.5409 30.3528 18.1146 30.8122 18.4702C31.2715 18.8258 31.7152 18.9446 31.9786 19.047C32.2419 19.1495 32.3078 19.1671 32.4272 19.423C32.5466 19.6789 32.6611 20.249 32.6611 21.3125C32.6611 22.3699 32.546 22.94 32.4272 23.1977C32.3235 23.4224 32.2544 23.4645 32.0693 23.5385C31.9526 23.5632 31.8367 23.5986 31.7243 23.6442C30.8174 24.0125 30.031 25.0534 29.9844 26.6039V28.957C29.9844 29.0486 29.937 29.1623 29.7665 29.3693C29.5959 29.5763 29.3202 29.8379 29.0273 30.1682C28.6649 30.577 28.2813 31.1123 28.0404 31.8185C27.5348 32.2638 27.2086 32.4275 27.0289 32.469C26.8316 32.5144 26.7321 32.4785 26.4478 32.36C26.1636 32.2415 25.747 32.0457 25.1725 32.0054C24.598 31.9651 23.8856 32.0767 22.9519 32.4529C22.0041 32.8349 21.4108 33.2549 21.0261 33.6888C20.6413 34.1226 20.4815 34.5571 20.3607 34.8348C20.2398 35.1125 20.2032 35.2006 20.0092 35.3069C19.8163 35.4128 19.3684 35.524 18.5032 35.5291C17.629 35.5252 17.1847 35.4133 16.9908 35.3069C16.7968 35.2006 16.7602 35.1125 16.6393 34.8348C16.5185 34.5572 16.3533 34.1226 15.9686 33.6888C15.5838 33.2549 14.9948 32.8349 14.047 32.4529C13.1133 32.0767 12.402 31.9651 11.8275 32.0054C11.253 32.0457 10.8353 32.2415 10.5511 32.36C10.2669 32.4786 10.1673 32.5144 9.97003 32.469C9.78995 32.4275 9.46386 32.2628 8.95639 31.8153C8.71422 31.1107 8.3292 30.5764 7.96732 30.1682C7.67444 29.8379 7.4041 29.5763 7.23352 29.3693C7.06294 29.1623 7.01456 29.0486 7.01456 28.957V26.6114H7.01562V26.6103V26.6092V26.6081V26.607V26.606V26.6049V26.6038V26.6027V26.6016V26.6005V26.5994V26.5983V26.5972V26.5961L7.01453 26.595C6.96797 25.0536 6.18262 24.0125 5.27567 23.6442C5.16295 23.5984 5.04676 23.5621 4.9296 23.5374C4.74519 23.4636 4.6763 23.4221 4.57285 23.1977C4.45401 22.94 4.33893 22.3699 4.33893 21.3125C4.33893 20.249 4.45345 19.6789 4.57285 19.423C4.69224 19.1671 4.75705 19.1495 5.02039 19.047C5.28372 18.9446 5.72846 18.8258 6.18784 18.4702C6.64721 18.1146 7.09697 17.5409 7.50375 16.585C7.90913 15.6324 8.02516 14.9105 7.98441 14.3281C7.94365 13.7457 7.74585 13.3262 7.63727 13.0485C7.52868 12.7708 7.49173 12.6922 7.56784 12.4632C7.64395 12.2341 7.91232 11.8105 8.58148 11.1547C9.25065 10.4989 9.67706 10.2422 9.90915 10.1699C10.1412 10.0976 10.2219 10.1295 10.4987 10.2426C10.7756 10.3556 11.1926 10.5638 11.7751 10.6143C12.3577 10.6647 13.0851 10.5576 14.047 10.1699C14.9948 9.78795 15.5838 9.36901 15.9686 8.93518C16.3533 8.50135 16.5185 8.06571 16.6393 7.78802C16.7602 7.51034 16.7968 7.42226 16.9908 7.31592C17.1837 7.21014 17.6295 7.09882 18.4947 7.09375ZM15.913 10.9229C15.6425 10.9358 15.3597 11.0046 15.081 11.1472C14.5784 11.4045 14.1368 11.9886 14.1368 12.758C14.1368 13.0543 14.1738 13.3329 14.234 13.5964C11.8626 14.8207 10.1245 17.014 9.47764 19.6206C8.7966 22.365 9.40151 25.2687 11.1183 27.5108C12.0077 30.3191 14.7138 32.2468 18.4989 32.2468C22.277 32.2468 25.0157 30.2866 25.8711 27.5268C27.5968 25.2829 28.2034 22.3709 27.5213 19.6206C26.8769 17.0222 25.1473 14.8368 22.7874 13.6103C22.8458 13.3574 22.8834 13.0901 22.8878 12.7825C22.8883 11.9886 22.5038 11.4402 21.9425 11.1472C21.44 10.9022 20.9006 10.8766 20.5091 10.9817C19.6211 11.18 19.1055 11.7971 18.5107 12.2965C18.3998 12.2063 18.2925 12.1132 18.1849 12.0188C17.7161 11.6076 17.2356 11.1481 16.5144 10.986C16.4073 10.9583 16.2947 10.9382 16.179 10.9283C16.0922 10.9209 16.0032 10.9187 15.913 10.9229ZM20.9919 12.0156C21.2048 12.0166 21.3685 12.0861 21.4459 12.1246C21.6039 12.2095 21.793 12.3446 21.793 12.758C21.7899 12.8866 21.7746 13.0311 21.5388 13.1371C21.3057 13.2419 20.7523 13.2957 19.8309 13.0528C19.7086 13.0115 19.5942 12.9654 19.4848 12.916C19.9426 12.4915 20.3686 12.1274 20.7644 12.0413C20.8449 12.0227 20.921 12.0153 20.9919 12.0156ZM15.9579 12.0199C16.0815 12.0113 16.1927 12.0239 16.2591 12.0413C16.637 12.1235 16.9816 12.4164 17.4671 12.8423C17.9527 13.2683 18.5756 13.7946 19.5147 14.1059C20.2433 14.3019 20.8574 14.3622 21.3444 14.3067C21.1971 14.6212 21.0243 14.9482 20.8958 15.3033C19.2757 15.2871 17.5535 15.2863 16.1384 15.3065C15.7895 14.4467 15.2305 13.5753 15.2305 12.758C15.2305 12.3446 15.4509 12.1913 15.5819 12.1246C15.6986 12.0584 15.8343 12.0285 15.9579 12.0199ZM16.2975 16.3917H20.6875C21.0045 16.3917 21.2322 16.6221 21.2322 16.9386C21.2322 17.255 21.0045 17.4854 20.6875 17.4854H16.3125C15.9955 17.4854 15.7678 17.255 15.7678 16.9386C15.7678 16.6314 15.981 16.4055 16.2975 16.3917ZM21.0314 18.5418C21.5297 19.7841 22.4851 20.7696 23.3076 21.7761C24.2691 22.9526 25.0636 24.1089 25.0636 25.6629C25.0636 28.6062 22.6451 31.153 18.4989 31.153C14.3528 31.153 11.9248 28.6174 11.9364 25.6672C11.9425 24.1334 12.7385 22.9757 13.7042 21.7963C14.531 20.7866 15.4872 19.7926 15.9878 18.5471C16.0928 18.5684 16.2018 18.5792 16.3125 18.5792H20.6875C20.8054 18.5792 20.9201 18.5658 21.0314 18.5418ZM18.4989 20.2177C18.1948 20.2165 17.9492 20.4636 17.951 20.7678V21.3125H17.4062C16.5068 21.3125 15.7678 22.0516 15.7678 22.951V24.0437C15.7678 24.9431 16.5068 25.6875 17.4062 25.6875H17.951V27.875H17.4062C17.0938 27.875 16.8615 27.6384 16.8615 27.326C16.8603 27.024 16.6145 26.7801 16.3125 26.7812C16.0121 26.7824 15.7689 27.0256 15.7678 27.326C15.7678 28.2254 16.5068 28.9698 17.4062 28.9698H17.951V29.5146C17.9498 29.8182 18.1952 30.0648 18.4989 30.0636C18.801 30.0624 19.0449 29.8166 19.0437 29.5146V28.9698H19.5938C20.4932 28.9698 21.2322 28.2254 21.2322 27.326V26.2322C21.2322 25.3328 20.4932 24.5938 19.5938 24.5938H19.0437V22.4062H19.5938C19.9062 22.4062 20.1385 22.6386 20.1385 22.951C20.1373 23.2547 20.3838 23.5001 20.6875 23.4989C20.9895 23.4977 21.2334 23.253 21.2322 22.951C21.2322 22.0516 20.4932 21.3125 19.5938 21.3125H19.0437V20.7678C19.0454 20.4653 18.8014 20.2189 18.4989 20.2177ZM17.4062 22.4062H17.951V24.5938H17.4062C17.0938 24.5938 16.8615 24.3561 16.8615 24.0437V22.951C16.8615 22.6386 17.0938 22.4062 17.4062 22.4062ZM3.3317 22.7683C3.38783 23.1667 3.49683 23.5314 3.66815 23.8226C3.35563 24.0948 3.18857 24.5128 3.18857 24.9687V28.9613C3.18974 29.2616 3.43295 29.5048 3.73331 29.506C4.03533 29.5072 4.28114 29.2633 4.28232 28.9613V24.9687C4.28232 24.7058 4.34171 24.6683 4.41156 24.6301C4.48141 24.5919 4.64361 24.5686 4.86337 24.6578C5.3029 24.8363 5.88477 25.4357 5.92081 26.6274V28.957C5.92081 29.4122 6.15111 29.7783 6.38971 30.0678C6.62831 30.3573 6.89914 30.609 7.15234 30.8946C7.65876 31.4657 8.10661 32.1144 8.10938 33.3331C8.11058 33.6351 8.35636 33.879 8.65839 33.8778C8.95627 33.8767 9.19847 33.6373 9.20312 33.3395C9.38078 33.4309 9.55232 33.4953 9.72437 33.5349C10.2262 33.6506 10.6572 33.5002 10.9709 33.3694C11.0873 33.3208 11.1947 33.275 11.302 33.2348C11.1937 33.8205 11.0034 34.1796 10.8021 34.524C10.6285 34.8211 10.4166 35.1362 10.3054 35.5291H3.72049V34.9886C3.72049 34.5795 3.60099 34.1558 3.44278 33.6524C3.28457 33.1491 3.07926 32.5856 2.87668 32.0129C2.47151 30.8674 2.09375 29.6457 2.09375 29.0617V24.5938C2.09375 24.012 2.40716 23.2163 3.3317 22.7683ZM33.6683 22.7705C34.594 23.213 34.9052 24.0129 34.9052 24.5938V29.0617C34.9052 29.6457 34.5274 30.8674 34.1223 32.0129C33.9197 32.5856 33.7154 33.1491 33.5572 33.6524C33.399 34.1558 33.2784 34.5795 33.2784 34.9886V35.5291H26.6946C26.5834 35.1362 26.3715 34.8211 26.1979 34.524C25.9967 34.1798 25.8053 33.8199 25.697 33.2348C25.8046 33.2751 25.9113 33.3207 26.0281 33.3694C26.3417 33.5002 26.7738 33.6506 27.2756 33.5349C27.448 33.4952 27.62 33.4311 27.7979 33.3395C27.8027 33.6369 28.0441 33.8761 28.3416 33.8778C28.6436 33.879 28.8894 33.6351 28.8906 33.3331C28.8933 32.1144 29.3412 31.4657 29.8477 30.8946C30.1009 30.609 30.3717 30.3573 30.6103 30.0678C30.8489 29.7783 31.0781 29.4122 31.0781 28.957V26.6274C31.1142 25.4357 31.696 24.8363 32.1356 24.6578C32.3553 24.5686 32.5186 24.5918 32.5884 24.6301C32.6333 24.6611 32.7177 24.7058 32.7177 24.9687V28.9613C32.7189 29.2633 32.9647 29.5072 33.2667 29.506C33.567 29.5049 33.8103 29.2616 33.8114 28.9613V24.9687C33.8114 24.5129 33.6417 24.0838 33.3318 23.8226C33.5242 23.502 33.6059 23.1354 33.6683 22.7705ZM19.0437 25.6875H19.5938C19.9062 25.6875 20.1385 25.9198 20.1385 26.2322V27.326C20.1385 27.6384 19.9062 27.875 19.5938 27.875H19.0437V25.6875Z" fill="black"/>
</g>
</g>
<defs>
<clipPath id="clip0_506_5654">
<rect width="40" height="40" fill="white" transform="translate(0.379883)"/>
</clipPath>
<clipPath id="clip1_506_5654">
<rect width="35" height="35" fill="white" transform="translate(0.962402 5.5)"/>
</clipPath>
</defs>
</svg>
