<svg width="31" height="28" viewBox="0 0 31 28" fill="none" xmlns="http://www.w3.org/2000/svg">
<path fill-rule="evenodd" clip-rule="evenodd" d="M0.5 2.75C0.5 1.71447 1.33947 0.875 2.375 0.875H28.625C29.6605 0.875 30.5 1.71447 30.5 2.75V6.5C30.5 7.53553 29.6605 8.375 28.625 8.375V22.4375C28.625 25.0263 26.5263 27.125 23.9375 27.125H7.0625C4.47367 27.125 2.375 25.0263 2.375 22.4375V8.375C1.33947 8.375 0.5 7.53553 0.5 6.5V2.75ZM4.25 8.375V22.4375C4.25 23.9908 5.5092 25.25 7.0625 25.25H23.9375C25.4908 25.25 26.75 23.9908 26.75 22.4375V8.375H4.25ZM28.625 2.75H2.375V6.5H28.625V2.75ZM9.875 13.0625C9.875 12.5447 10.2947 12.125 10.8125 12.125H20.1875C20.7053 12.125 21.125 12.5447 21.125 13.0625C21.125 13.5803 20.7053 14 20.1875 14H10.8125C10.2947 14 9.875 13.5803 9.875 13.0625Z" fill="black"/>
</svg>
