<svg width="39" height="44" viewBox="0 0 39 44" fill="none" xmlns="http://www.w3.org/2000/svg">
<path d="M29.64 16.54H9.35999V18.1H29.64V16.54Z" fill="black"/>
<path d="M29.64 11.8599H9.35999V13.4199H29.64V11.8599Z" fill="black"/>
<path d="M34.32 14.044V8.73995C34.32 7.02391 32.916 5.61995 31.2 5.61995H24.804L19.5 0.939941L14.196 5.61995H7.79995C6.08391 5.61995 4.67995 7.02391 4.67995 8.73995V14.044L-6.10352e-05 18.1V39.94C-6.10352e-05 41.656 1.4039 43.06 3.11994 43.06H35.88C37.596 43.06 39 41.656 39 39.94V18.1L34.32 14.044ZM34.32 16.072L36.66 18.1L34.32 20.1279V16.072ZM19.5 2.9679L22.4641 5.61995H16.38L19.5 2.9679ZM6.23995 8.73995C6.23995 7.80395 6.86395 7.17995 7.79995 7.17995H31.2C31.9799 7.17995 32.76 7.95991 32.76 8.73995V21.3759L27.768 25.9H11.232L6.23995 21.532V8.73995ZM22.62 30.58H17.316H19.968H16.38L12.948 27.46H25.896L22.62 30.58ZM4.67995 16.072V20.284L2.3399 18.1L4.67995 16.072ZM2.0279 41.032C1.7159 40.72 1.55994 40.408 1.55994 39.94V29.7999V19.66L14.04 30.58L2.0279 41.032ZM3.89999 41.5L14.8199 32.14H24.1799L35.1 41.5H3.89999ZM37.44 29.7999V39.9399C37.44 40.4079 37.284 40.7199 36.972 41.032L24.96 30.58L37.44 19.66V29.7999Z" fill="black"/>
<path d="M29.64 21.2197H9.35999V22.7797H29.64V21.2197Z" fill="black"/>
</svg>
