<svg width="18" height="18" viewBox="0 0 18 18" fill="none" xmlns="http://www.w3.org/2000/svg">
<g clip-path="url(#clip0_347_23613)">
<rect width="18" height="18" rx="4.5" fill="#EC8600"/>
<path d="M8.3499 4.60394C5.68358 4.80677 3.58325 7.03449 3.58325 9.75278C3.58325 12.6047 5.89519 14.9167 8.74712 14.9167C11.599 14.9167 13.911 12.6047 13.911 9.75278C13.911 7.03449 11.8107 4.80677 9.14434 4.60394M8.3499 4.60394C8.481 4.59397 8.61346 4.58889 8.74712 4.58889C8.88077 4.58889 9.01324 4.59397 9.14434 4.60394M8.3499 4.60394V3M8.3499 3H9.14434M8.3499 3H9.93878H9.14434M8.3499 3H7.55546M9.14434 3V4.60394M5.96657 9.75278H8.74712L8.74711 7.05165" stroke="white" stroke-width="1.27111" stroke-linecap="round" stroke-linejoin="round"/>
</g>
<defs>
<clipPath id="clip0_347_23613">
<rect width="18" height="18" fill="white"/>
</clipPath>
</defs>
</svg>
