<svg width="26" height="26" viewBox="0 0 26 26" fill="none" xmlns="http://www.w3.org/2000/svg">
<g clip-path="url(#clip0_511_6888)">
<path d="M12.5013 0.5C12.738 0.504453 12.9075 0.679551 12.9075 0.904663V1.71716C12.9075 1.9879 12.7043 2.12386 12.5013 2.12421C12.2982 2.12386 12.095 1.9879 12.095 1.71716V0.904663C12.095 0.679551 12.2646 0.504408 12.5013 0.5ZM14.6984 1.14349C15.0656 1.14073 15.2431 1.58629 14.9896 1.83777L14.4135 2.41064C14.0127 2.78338 13.4668 2.22175 13.8375 1.83777L14.4135 1.26172C14.49 1.18309 14.5887 1.14351 14.6984 1.14349ZM10.3042 1.14349C10.4138 1.1435 10.5126 1.18309 10.589 1.26172L11.1651 1.83777C11.5357 2.22175 10.9899 2.78339 10.589 2.41064L10.013 1.83777C9.75946 1.58629 9.93698 1.14065 10.3042 1.14349ZM15.2181 3.75079C15.4936 3.75079 15.7356 3.89294 15.8838 4.09595L17.6532 6.52155C17.8455 6.78478 17.8163 7.1318 17.6199 7.36737C16.4049 8.82326 15.1592 10.2452 13.9192 11.6687C14.0498 11.91 14.1263 12.1959 14.1263 12.5106V14.9481C14.1263 16.4018 14.4889 17.7593 14.5278 19.6683L14.8578 19.6025C15.0335 19.5674 15.2114 19.6509 15.2958 19.8088L18.5466 25.9025C18.6899 26.1723 18.4959 26.4985 18.1904 26.5H6.40753C6.24128 26.5003 6.09179 26.3988 6.02984 26.2445L4.40326 22.1812C4.30931 21.9447 4.4542 21.6808 4.70398 21.6321L4.87378 21.598C4.6728 21.381 4.41 21.1213 4.11206 20.8434C3.54967 20.319 2.85923 19.7091 2.18713 19.0621C1.51503 18.4151 0.859591 17.7308 0.360594 17.0444C-0.137794 16.3587 -0.500307 15.6675 -0.500307 14.9496C-0.509367 14.0485 -0.262306 12.3881 -0.0170918 10.8998C0.228302 9.41053 0.478025 8.12592 0.478025 8.12592C0.611824 7.42891 1.09363 6.97098 1.62298 6.8548C1.8467 6.8057 2.07607 6.80967 2.29346 6.86194L2.3252 6.41998C2.47591 5.53484 3.15212 5.15318 3.76453 5.19965C4.37693 5.24611 4.96437 5.73899 4.99756 6.46204L5.12292 9.30103L6.10126 7.34277C6.29323 6.98956 6.59147 6.7602 6.9201 6.65564C7.04539 6.61578 7.17528 6.59444 7.30493 6.58978C7.91493 5.72631 8.56421 4.85159 9.19098 3.99042C9.26343 3.88517 9.51691 3.75079 9.78686 3.75079H15.2181ZM13.1432 4.56329H11.8594L11.0485 6.59375H13.9565L13.1432 4.56329ZM3.67883 6.00739C3.47135 6.00739 3.21491 6.10101 3.12897 6.54297L2.75128 12.1329C2.73608 12.3576 2.54031 12.5269 2.31567 12.5106C2.09095 12.4954 1.92163 12.3004 1.93799 12.0757L2.23633 7.70221C2.10038 7.63915 1.94136 7.61748 1.79754 7.64905C1.56563 7.69995 1.35945 7.84143 1.27545 8.27905C1.27545 8.27905 1.03002 9.55553 0.78668 11.0323C0.543346 12.5092 0.305361 14.2159 0.312986 14.9449C0.312986 15.3725 0.567606 15.9485 1.01758 16.5675C1.46755 17.1865 2.09543 17.8428 2.75128 18.4742C3.40712 19.1055 4.08978 19.7142 4.6643 20.2499C5.13397 20.6879 5.52936 21.06 5.7926 21.4147L13.7208 19.8294C13.6988 17.9406 13.3138 16.5733 13.3138 14.9481V12.5106C13.3138 12.016 13.0261 11.7642 12.783 11.71C12.5609 11.6604 12.2491 11.7343 12.0704 12.2416C11.5012 13.7272 10.9486 15.2042 10.4502 16.6992C10.3797 16.9135 10.1474 17.0292 9.93365 16.9571C9.72216 16.8853 9.60851 16.6565 9.67895 16.4445C9.71975 16.3221 9.76207 16.2 9.80353 16.0779C9.64523 15.9889 8.89387 15.557 8.14361 14.9568C7.72405 14.6211 7.31257 14.2415 7.01611 13.8206C6.72083 13.4013 6.51698 12.8973 6.68603 12.386L7.98492 8.34174C8.1312 7.79582 7.84374 7.53937 7.62152 7.45148C7.36092 7.3484 6.99965 7.39446 6.81854 7.7276L3.92639 13.5063C3.92257 13.5135 3.91863 13.5201 3.91449 13.527C3.65607 13.9745 3.5606 14.5974 3.5606 14.5974C3.53043 14.8204 3.32489 14.976 3.10199 14.9449C2.87894 14.9147 2.7225 14.7092 2.75366 14.4863C2.75366 14.4863 2.84354 13.7591 3.21307 13.1191L4.3739 10.7975L4.18744 6.49933C4.17239 6.19733 3.94854 6.0273 3.67883 6.00739ZM13.9382 7.40625H11.0667L12.3164 10.9443C12.4444 10.9056 12.5756 10.8865 12.706 10.8879L13.9382 7.40625ZM8.66174 8.88367L7.45807 12.6367C7.40159 12.8025 7.45685 13.0383 7.67865 13.3532C7.90045 13.6681 8.26538 14.0162 8.65063 14.3244C9.20236 14.7658 9.78425 15.1252 10.0733 15.2956C10.4659 14.1796 10.8812 13.0742 11.3111 11.9575C10.4311 10.9259 9.5416 9.91073 8.66174 8.88367ZM22.2537 9.43671C22.4374 9.43637 22.5983 9.55936 22.6464 9.73663C22.9889 10.9914 23.8183 11.9406 24.8292 12.3066C25.1878 12.4355 25.1878 12.9427 24.8292 13.0715C23.8179 13.4362 22.9869 14.3832 22.6432 15.6376C22.5328 16.0338 21.9714 16.0338 21.8609 15.6376C21.5184 14.3829 20.6883 13.4344 19.6773 13.0684C19.3188 12.9395 19.3188 12.4323 19.6773 12.3035C20.6887 11.9388 21.5196 10.991 21.8633 9.73663C21.9111 9.56044 22.0711 9.43772 22.2537 9.43671ZM18.1904 15.125C18.3713 15.1253 18.5299 15.2448 18.58 15.4186C18.7962 16.1826 19.3174 16.7555 19.9471 16.9753C20.3113 17.1017 20.3113 17.6163 19.9471 17.7426C19.3171 17.9617 18.797 18.5356 18.58 19.2994C18.4679 19.6951 17.9057 19.6929 17.7968 19.2962C17.5805 18.5322 17.0594 17.9593 16.4297 17.7394C16.0711 17.6106 16.0711 17.1042 16.4297 16.9753C17.0596 16.7565 17.583 16.1824 17.8 15.4186C17.85 15.2448 18.0095 15.1253 18.1904 15.125ZM23.2669 17.5633C23.4515 17.5633 23.6127 17.6871 23.6597 17.8656C23.9114 18.8319 24.5221 19.5514 25.2402 19.8239C25.5875 19.9586 25.5854 20.4504 25.2371 20.5824C24.5187 20.8538 23.9123 21.5723 23.6597 22.5383C23.5532 22.9418 22.9806 22.9418 22.8741 22.5383C22.6224 21.572 22.0117 20.8524 21.2936 20.58C20.9458 20.4467 20.9458 19.954 21.2936 19.8207C22.012 19.5493 22.6215 18.8316 22.8741 17.8656C22.9211 17.6871 23.0823 17.5633 23.2669 17.5633Z" fill="black"/>
</g>
<defs>
<clipPath id="clip0_511_6888">
<rect width="26" height="26" fill="white" transform="matrix(-1 0 0 1 25.5 0.5)"/>
</clipPath>
</defs>
</svg>
