<svg width="30" height="30" viewBox="0 0 30 30" fill="none" xmlns="http://www.w3.org/2000/svg">
<path d="M22 16C26.4183 16 30 12.4183 30 8C30 3.58172 26.4183 0 22 0C17.5817 0 14 3.58172 14 8C14 12.4183 17.5817 16 22 16Z" fill="#B4A4F4"/>
<mask id="mask0_144_674" style="mask-type:luminance" maskUnits="userSpaceOnUse" x="2" y="4" width="27" height="26">
<path d="M2 4.75049H29V29.0812H2V4.75049Z" fill="white"/>
</mask>
<g mask="url(#mask0_144_674)">
<path fill-rule="evenodd" clip-rule="evenodd" d="M24.5 27.8812H6.5C4.6805 27.8812 3.2 26.4007 3.2 24.5812V15.5812C3.2 13.7617 4.6805 12.2812 6.5 12.2812H6.68825H7.29425H7.90025H10.775H11.375H11.975H15.1955H15.8322H16.448H18.5292H19.136H19.7412H24.5C25.6273 12.2812 26.6217 12.8505 27.218 13.716H19.3685H18.7288H18.5C18.3358 13.716 18.1782 13.7445 18.026 13.7895C17.303 14.0032 16.7397 14.697 16.5147 15.6157C16.4517 15.8707 16.4112 16.14 16.4052 16.425C16.4052 16.4497 16.4 16.473 16.4 16.4977V17.127V17.9812H14.5175C14.5048 17.9287 14.486 17.8785 14.4695 17.8267C14.405 17.6265 14.3217 17.4352 14.2107 17.2605C14.0817 17.0587 13.9228 16.881 13.7428 16.7235C13.3077 16.3447 12.746 16.1062 12.125 16.1062C11.7657 16.1062 11.4253 16.1872 11.117 16.326C10.8995 16.4235 10.7038 16.5555 10.5253 16.7085C10.3663 16.8442 10.2208 16.9942 10.1 17.166C9.81875 17.568 9.65 18.054 9.65 18.5812C9.65 19.9462 10.76 21.0562 12.125 21.0562C13.2823 21.0562 14.2483 20.256 14.5175 19.1812H16.4V21.7312H9.2675C8.99825 20.6572 8.03225 19.8562 6.875 19.8562C5.51 19.8562 4.4 20.9662 4.4 22.3312C4.4 23.6962 5.51 24.8062 6.875 24.8062C8.03225 24.8062 8.99825 24.006 9.2675 22.9312H16.4V24.1335C16.4 25.6935 17.3225 26.9152 18.5 26.9152H26.8302C26.2332 27.5115 25.409 27.8812 24.5 27.8812ZM14.2032 10.1002C14.2032 10.4587 13.9602 10.7505 13.661 10.7505H11.975V9.44999H13.661C13.9602 9.44999 14.2032 9.74174 14.2032 10.1002ZM15.7227 11.0812C15.5817 10.977 15.4265 10.893 15.26 10.8367C15.3523 10.611 15.4032 10.362 15.4032 10.1002C15.4032 9.61349 15.2218 9.17324 14.9307 8.84249C14.933 8.82224 14.9427 8.80499 14.9427 8.78474V8.03474C14.9427 7.70324 14.6735 7.43474 14.3427 7.43474C14.012 7.43474 13.7428 7.70324 13.7428 8.03474V8.25899C13.715 8.25749 13.6888 8.25074 13.661 8.25074H12.2V8.03474C12.2 7.70324 11.9315 7.43474 11.6 7.43474C11.2678 7.43474 11 7.70324 11 8.03474V8.39324C10.8658 8.50274 10.775 8.66324 10.775 8.84999V11.0812H7.82825C7.97 8.22899 10.328 5.94974 13.2148 5.94974C16.1023 5.94974 18.4595 8.22899 18.6012 11.0812H15.7227ZM13.4 18.5812C13.4 19.2847 12.8278 19.8562 12.125 19.8562C11.4222 19.8562 10.85 19.2847 10.85 18.5812C10.85 18.2145 11.0075 17.886 11.2565 17.6535C11.4845 17.4397 11.789 17.3062 12.125 17.3062C12.5975 17.3062 13.0055 17.5672 13.226 17.949C13.3333 18.1365 13.4 18.3502 13.4 18.5812ZM8 22.9185C7.787 23.325 7.36475 23.6062 6.875 23.6062C6.17225 23.6062 5.6 23.0347 5.6 22.3312C5.6 21.6285 6.17225 21.0562 6.875 21.0562C7.36475 21.0562 7.787 21.3375 8 21.744C8.093 21.9202 8.15 22.1182 8.15 22.3312C8.15 22.5442 8.093 22.7422 8 22.9185ZM27.8 15.5812V24.5812C27.8 24.9817 27.7175 25.3605 27.5863 25.716H18.5C18.0755 25.716 17.6 25.0387 17.6 24.1335V16.4977C17.6 16.4137 17.6082 16.3342 17.615 16.2547C17.6915 15.4747 18.1145 14.9152 18.5 14.9152H18.761H27.7325C27.7768 15.1312 27.8 15.3532 27.8 15.5812ZM24.5 11.0812H19.8005C19.6588 7.56749 16.7638 4.75049 13.2148 4.75049C9.6665 4.75049 6.77075 7.56749 6.629 11.0812H6.5C4.025 11.0812 2 13.1062 2 15.5812V24.5812C2 27.0562 4.025 29.0812 6.5 29.0812H24.5C26.975 29.0812 29 27.0562 29 24.5812V15.5812C29 13.1062 26.975 11.0812 24.5 11.0812Z" fill="black"/>
</g>
<path fill-rule="evenodd" clip-rule="evenodd" d="M20.5999 20.0346C20.5999 19.5381 21.0034 19.1346 21.4999 19.1346H22.2499C22.7464 19.1346 23.1499 19.5381 23.1499 20.0346V20.7846C23.1499 21.2811 22.7464 21.6846 22.2499 21.6846H21.4999C21.0034 21.6846 20.5999 21.2811 20.5999 20.7846V20.0346ZM21.4999 22.8846H22.2499C23.4079 22.8846 24.3499 21.9426 24.3499 20.7846V20.0346C24.3499 18.8766 23.4079 17.9346 22.2499 17.9346H21.4999C20.3419 17.9346 19.3999 18.8766 19.3999 20.0346V20.7846C19.3999 21.9426 20.3419 22.8846 21.4999 22.8846Z" fill="black"/>
</svg>
