<svg width="31" height="30" viewBox="0 0 31 30" fill="none" xmlns="http://www.w3.org/2000/svg">
<g clip-path="url(#clip0_506_6610)">
<path fill-rule="evenodd" clip-rule="evenodd" d="M21.5 17.8762C26.4703 17.8762 30.5 13.8743 30.5 8.9385C30.5 4.00125 26.4703 0 21.5 0C16.5297 0 12.5 4.00125 12.5 8.9385C12.5 13.8743 16.5297 17.8762 21.5 17.8762Z" fill="#F79489"/>
<g clip-path="url(#clip1_506_6610)">
<path d="M23.749 4C23.632 3.99991 23.5207 4.05022 23.4435 4.13806L20.6005 7.3889C20.3696 7.6518 20.5569 8.06424 20.9068 8.06335H22.124V12.1243H18.4686V9.68599H19.6857C20.0332 9.6851 20.2193 9.27674 19.992 9.01392L17.149 5.76309C17.0715 5.67533 16.9599 5.6253 16.8428 5.62582C16.7259 5.62553 16.6147 5.67554 16.5373 5.76309L13.6944 9.01392C13.4673 9.27646 13.6528 9.68443 13.9999 9.68599H15.2178V12.1243H11.5632V11.311H12.7835C13.1301 11.3095 13.3159 10.9025 13.0898 10.6397L10.2437 7.3889C10.1663 7.30085 10.0546 7.25052 9.9374 7.25084C9.82045 7.25075 9.70913 7.30106 9.63192 7.3889L6.789 10.6397C6.56315 10.9022 6.7482 11.3089 7.09448 11.311H8.31242V12.1243H7.09368C6.86932 12.1252 6.68815 12.3078 6.68902 12.5322C6.68988 12.7553 6.87056 12.936 7.09368 12.9368H26.5863C26.8107 12.9377 26.9933 12.7565 26.9942 12.5322C26.995 12.3066 26.8119 12.1234 26.5863 12.1243H25.3747V8.06335H26.5919C26.9418 8.06424 27.1291 7.6518 26.8981 7.3889L24.0552 4.13806C23.9778 4.05001 23.8662 3.99968 23.749 4ZM15.6796 14.5611C14.8654 14.5551 14.0369 14.6777 13.2262 14.9427C11.9237 15.3685 10.8075 16.1158 9.93661 17.0692V16.5923C9.93661 15.9242 9.3876 15.3752 8.71946 15.3752H2.21715C1.549 15.3752 1 15.9242 1 16.5923V18.2181C1 18.8863 1.54939 19.438 2.21715 19.4385C2.49199 19.4385 2.80367 19.4385 3.10581 19.4385C3.05995 19.5658 3.03043 19.7009 3.03043 19.8432V21.469C3.03043 21.6119 3.05556 21.749 3.10184 21.8768H2.21715C1.549 21.8768 1 22.4258 1 23.094V24.7198C1 25.0308 1.11952 25.3155 1.31421 25.5315C1.11957 25.7483 1 26.0338 1 26.3448V27.9667C1 28.6348 1.54939 29.1865 2.21715 29.187C4.33834 29.1871 7.07302 29.187 8.71946 29.187C9.38722 29.1865 9.93661 28.6348 9.93661 27.9667V27.4954C11.4868 29.1841 13.7628 30.158 16.1922 29.9789C20.0666 29.6933 23.128 26.5639 23.3332 22.6885L25.2605 20.785L25.7762 21.3071C26.0125 21.5448 26.4187 21.4103 26.4665 21.0786L26.9942 17.4651C27.0299 17.2199 26.8397 17 26.5919 17.0002L22.8793 17.0065C22.5388 17.0094 22.3527 17.4048 22.5675 17.6691L23.0928 18.3078L22.4985 18.7664C21.3223 16.5342 19.0214 14.621 15.6796 14.5611ZM2.21715 16.1877H2.62578V17.0002C2.62664 17.2233 2.80731 17.404 3.03043 17.4048C3.25479 17.4057 3.43739 17.2245 3.43827 17.0002V16.1877H4.25076V17.0002C4.25163 17.2233 4.43229 17.404 4.65542 17.4048C4.87978 17.4057 5.06237 17.2245 5.06325 17.0002V16.1877H5.87653V17.0002C5.87739 17.2233 6.05807 17.404 6.28119 17.4048C6.50555 17.4057 6.68815 17.2245 6.68902 17.0002V16.1877H7.49834V17.0002C7.49923 17.2245 7.68181 17.4057 7.90617 17.4048C8.1293 17.404 8.30996 17.2233 8.31083 17.0002V16.1877H8.71946C8.95155 16.1877 9.12411 16.3602 9.12411 16.5923V18.1253C9.01995 18.2885 8.92301 18.4554 8.83133 18.626C6.54616 18.6259 4.1543 18.6261 2.21874 18.626C1.98596 18.6245 1.81249 18.4494 1.81249 18.2181V16.5923C1.81249 16.3602 1.98506 16.1877 2.21715 16.1877ZM15.6391 17.4064C17.6512 17.41 19.4646 18.655 20.184 20.5533L19.6976 20.9286L17.9465 19.1536C17.8229 19.0287 17.6331 18.9973 17.476 19.0759L16.2882 19.667C16.0803 19.2893 15.6784 19.0307 15.221 19.0307H14.8131C14.8123 18.8072 14.6311 18.6264 14.4077 18.626C14.1833 18.6251 14.0007 18.8063 13.9999 19.0307H13.5952C12.927 19.0307 12.3749 19.5829 12.3749 20.251V20.6557C12.3749 21.3238 12.9271 21.8737 13.5952 21.8737H13.9999V23.094H13.5952C13.3631 23.094 13.1874 22.9183 13.1874 22.6862C13.1943 22.5278 13.086 22.4052 13.0231 22.3632C12.8521 22.2358 12.665 22.2773 12.5645 22.345L10.8626 23.317C10.7346 22.7267 10.7142 22.1052 10.8181 21.4809C11.1317 19.4093 12.987 17.4174 15.6391 17.4064ZM26.1214 17.8127L25.7794 20.1526L25.5548 19.9241C25.3969 19.7636 25.1385 19.7622 24.9788 19.9209L19.6413 25.1895L17.887 23.9779C17.7616 23.8913 17.5983 23.8821 17.4641 23.9541L13.0009 26.3885C12.1361 25.8368 11.4816 25.0354 11.1077 24.112L12.5391 23.294C12.7515 23.6588 13.1473 23.9073 13.5952 23.9073H13.9999C14.0007 24.1317 14.1833 24.3129 14.4077 24.312C14.6311 24.3115 14.8123 24.1308 14.8131 23.9073H15.221C15.8891 23.9073 16.4381 23.3543 16.4381 22.6862V22.2815C16.4381 21.6133 15.8891 21.0643 15.221 21.0643H14.8131V19.8432H15.221C15.4531 19.8432 15.6256 20.0189 15.6256 20.251C15.6216 20.4299 15.7351 20.5379 15.801 20.5827C15.9396 20.693 16.1314 20.6563 16.208 20.6152L17.5743 19.9336L19.3707 21.753C19.5151 21.8989 19.7455 21.9142 19.9079 21.7887L23.9172 18.6974C24.1 18.5573 24.1299 18.2933 23.983 18.1158L23.7402 17.819L26.1214 17.8127ZM4.25076 19.4385H4.65542V20.251C4.65629 20.4754 4.83889 20.6566 5.06325 20.6557C5.28637 20.6548 5.46704 20.4741 5.46791 20.251V19.4385H6.28119V20.251C6.28208 20.4754 6.46466 20.6566 6.68902 20.6557C6.91215 20.6548 7.09281 20.4741 7.09368 20.251V19.4385C7.56538 19.4385 8.0018 19.4385 8.45127 19.4385C8.14586 20.208 7.96267 21.0283 7.91807 21.8737C6.6424 21.8737 6.16522 21.8737 4.25076 21.8737C4.01828 21.8735 3.84292 21.7011 3.84292 21.469V19.8432C3.84292 19.6111 4.01867 19.4385 4.25076 19.4385ZM13.5952 19.8432H13.9999V21.0643H13.5952C13.3631 21.0643 13.1874 20.8878 13.1874 20.6557V20.251C13.1874 20.0189 13.3631 19.8432 13.5952 19.8432ZM14.8131 21.8737H15.221C15.4531 21.8737 15.6256 22.0494 15.6256 22.2815V22.6862C15.6256 22.9183 15.4531 23.094 15.221 23.094H14.8131V21.8737ZM2.21715 22.6862H2.62578V23.4987C2.62446 23.7233 2.80576 23.9064 3.03043 23.9073C3.25635 23.9082 3.43959 23.7246 3.43827 23.4987V22.6862H4.25076V23.4987C4.24944 23.7233 4.43074 23.9064 4.65542 23.9073C4.88133 23.9082 5.06457 23.7246 5.06325 23.4987V22.6862H5.87653V23.4987C5.87523 23.7233 6.05652 23.9064 6.28119 23.9073C6.5071 23.9082 6.69035 23.7246 6.68902 23.4987V22.6862H7.91728C7.93647 23.0474 7.98117 23.4109 8.05296 23.7748C8.14535 24.2432 8.2794 24.6942 8.44969 25.1245H2.21874C1.98596 25.123 1.81249 24.951 1.81249 24.7198V23.094C1.81249 22.8619 1.98506 22.6862 2.21715 22.6862ZM17.6315 24.7889L19.039 25.7616C17.6884 27.0883 15.6753 27.5205 13.8832 26.8336L17.6315 24.7889ZM2.21715 25.937C2.35045 25.937 2.48806 25.937 2.62578 25.937V26.7495C2.62446 26.9742 2.80576 27.1573 3.03043 27.1581C3.25635 27.159 3.43959 26.9754 3.43827 26.7495V25.937C3.72458 25.937 3.9586 25.937 4.25076 25.937V26.7495C4.24944 26.9742 4.43074 27.1573 4.65542 27.1581C4.88133 27.159 5.06457 26.9754 5.06325 26.7495V25.937C5.3549 25.937 5.59232 25.937 5.87653 25.937V26.7495C5.87523 26.9742 6.05652 27.1573 6.28119 27.1581C6.5071 27.159 6.69035 26.9754 6.68902 26.7495V25.937C6.95784 25.937 7.25004 25.937 7.49834 25.937V26.7495C7.497 26.9754 7.68026 27.159 7.90617 27.1581C8.13085 27.1573 8.31215 26.9742 8.31083 26.7495V25.937H8.82737C8.92016 26.1095 9.01915 26.2778 9.12411 26.4416V27.9667C9.12411 28.1988 8.95193 28.3743 8.71946 28.3745H2.21874C1.98596 28.3731 1.81249 28.1979 1.81249 27.9667V26.3448C1.81249 26.1128 1.98506 25.937 2.21715 25.937Z" fill="black"/>
</g>
</g>
<defs>
<clipPath id="clip0_506_6610">
<rect width="30" height="30" fill="white" transform="translate(0.5)"/>
</clipPath>
<clipPath id="clip1_506_6610">
<rect width="26" height="26" fill="white" transform="translate(1 4)"/>
</clipPath>
</defs>
</svg>
