<svg width="31" height="30" viewBox="0 0 31 30" fill="none" xmlns="http://www.w3.org/2000/svg">
<g clip-path="url(#clip0_137_22404)">
<path fill-rule="evenodd" clip-rule="evenodd" d="M21.5 17.8762C26.4703 17.8762 30.5 13.8743 30.5 8.9385C30.5 4.00125 26.4703 0 21.5 0C16.5297 0 12.5 4.00125 12.5 8.9385C12.5 13.8743 16.5297 17.8762 21.5 17.8762Z" fill="#F79489"/>
<path fill-rule="evenodd" clip-rule="evenodd" d="M7.96762 15.3851C7.80562 15.3851 7.65037 15.3198 7.53712 15.2043L5.54887 13.1688C5.31787 12.9326 5.32387 12.5553 5.56162 12.3266C5.79937 12.0978 6.17962 12.1031 6.40987 12.3386L7.96762 13.9331L11.3126 10.5093C11.5436 10.2723 11.9239 10.2678 12.1616 10.4958C12.3994 10.7253 12.4054 11.1026 12.1744 11.3388L8.39812 15.2043C8.28487 15.3198 8.12962 15.3851 7.96762 15.3851Z" fill="black"/>
<path fill-rule="evenodd" clip-rule="evenodd" d="M19.392 13.702H14.1487C13.8172 13.702 13.5487 13.4358 13.5487 13.1065C13.5487 12.7773 13.8172 12.5103 14.1487 12.5103H19.392C19.7235 12.5103 19.992 12.7773 19.992 13.1065C19.992 13.4358 19.7235 13.702 19.392 13.702Z" fill="black"/>
<path fill-rule="evenodd" clip-rule="evenodd" d="M15.8294 18.3597H5.75918C5.42768 18.3597 5.15918 18.0935 5.15918 17.7642C5.15918 17.435 5.42768 17.168 5.75918 17.168H15.8294C16.1609 17.168 16.4294 17.435 16.4294 17.7642C16.4294 18.0935 16.1609 18.3597 15.8294 18.3597Z" fill="black"/>
<path fill-rule="evenodd" clip-rule="evenodd" d="M15.7651 21.5409H5.7593C5.4278 21.5409 5.1593 21.2746 5.1593 20.9454C5.1593 20.6161 5.4278 20.3491 5.7593 20.3491H15.7651C16.0966 20.3491 16.3651 20.6161 16.3651 20.9454C16.3651 21.2746 16.0966 21.5409 15.7651 21.5409Z" fill="black"/>
<path fill-rule="evenodd" clip-rule="evenodd" d="M15.7651 24.6981H5.7593C5.4278 24.6981 5.1593 24.4318 5.1593 24.1026C5.1593 23.7733 5.4278 23.5063 5.7593 23.5063H15.7651C16.0966 23.5063 16.3651 23.7733 16.3651 24.1026C16.3651 24.4318 16.0966 24.6981 15.7651 24.6981Z" fill="black"/>
<path fill-rule="evenodd" clip-rule="evenodd" d="M6.74751 29.7938C4.24626 29.7938 1.49976 27.5221 1.49976 25.4543V10.5188C1.49976 8.45634 3.55851 5.96484 6.11526 5.96484H20.4155C22.9723 5.96484 25.031 8.45634 25.031 10.5188V12.0098C25.031 12.3391 24.7625 12.6053 24.431 12.6053C24.0995 12.6053 23.831 12.3391 23.831 12.0098V10.5188C23.831 9.03684 22.223 7.15584 20.4155 7.15584H6.11526C4.30776 7.15584 2.69976 9.03684 2.69976 10.5188V25.4543C2.69976 26.7541 4.79301 28.6021 6.74751 28.6021H18.4295C18.761 28.6021 19.0295 28.8691 19.0295 29.1983C19.0295 29.5276 18.761 29.7938 18.4295 29.7938H6.74751Z" fill="black"/>
<path fill-rule="evenodd" clip-rule="evenodd" d="M24.2794 15.1993C22.1216 15.1993 20.3666 16.9423 20.3666 19.0851C20.3666 19.9791 20.6659 20.8461 21.2104 21.5263C21.2756 21.6073 21.3574 21.7026 21.4474 21.8061C21.8231 22.2433 22.2911 22.7871 22.4239 23.2933C22.5274 23.6878 22.5011 24.0621 22.4801 24.3621C22.4741 24.4558 22.4666 24.5436 22.4666 24.6231C22.4666 24.8068 22.6234 24.9613 22.8079 24.9613H25.7509C25.9354 24.9613 26.0921 24.8068 26.0921 24.6231C26.0921 24.5458 26.0854 24.4603 26.0786 24.368C26.0576 24.065 26.0314 23.6886 26.1356 23.2926C26.2624 22.8088 26.6966 22.2643 27.1699 21.701L27.3206 21.521C27.8906 20.8243 28.1921 19.9821 28.1921 19.0851C28.1921 16.9423 26.4371 15.1993 24.2794 15.1993ZM25.7509 26.1523H22.8079C21.9581 26.1523 21.2674 25.4661 21.2674 24.6231C21.2674 24.5181 21.2749 24.4025 21.2831 24.2803C21.2996 24.0433 21.3169 23.7996 21.2629 23.5933C21.1999 23.3533 20.7671 22.8508 20.5346 22.5808C20.4349 22.4653 20.3434 22.358 20.2706 22.2673C19.5589 21.3778 19.1666 20.2468 19.1666 19.0851C19.1666 16.2853 21.4601 14.0083 24.2794 14.0083C27.0986 14.0083 29.3921 16.2853 29.3921 19.0851C29.3921 20.2423 28.9871 21.3741 28.2514 22.2726L28.0909 22.4653C27.8561 22.745 27.3664 23.3278 27.2966 23.5933C27.2419 23.8003 27.2591 24.0471 27.2764 24.2856C27.2846 24.4071 27.2921 24.5211 27.2921 24.6231C27.2921 25.4661 26.6006 26.1523 25.7509 26.1523Z" fill="black"/>
<path fill-rule="evenodd" clip-rule="evenodd" d="M26.3422 28.2169H22.2165C21.885 28.2169 21.6165 27.9506 21.6165 27.6214C21.6165 27.2921 21.885 27.0259 22.2165 27.0259H26.3422C26.6737 27.0259 26.9422 27.2921 26.9422 27.6214C26.9422 27.9506 26.6737 28.2169 26.3422 28.2169Z" fill="black"/>
<path fill-rule="evenodd" clip-rule="evenodd" d="M26.3422 30.0003H22.2165C21.885 30.0003 21.6165 29.7341 21.6165 29.4048C21.6165 29.0756 21.885 28.8086 22.2165 28.8086H26.3422C26.6737 28.8086 26.9422 29.0756 26.9422 29.4048C26.9422 29.7341 26.6737 30.0003 26.3422 30.0003Z" fill="black"/>
<path fill-rule="evenodd" clip-rule="evenodd" d="M24.2793 20.735C23.9478 20.735 23.6793 20.4687 23.6793 20.1395V17.243C23.6793 16.9137 23.9478 16.6475 24.2793 16.6475C24.6108 16.6475 24.8793 16.9137 24.8793 17.243V20.1395C24.8793 20.4687 24.6108 20.735 24.2793 20.735Z" fill="black"/>
<path fill-rule="evenodd" clip-rule="evenodd" d="M24.2793 22.9691C23.9478 22.9691 23.6793 22.7028 23.6793 22.3736V21.7173C23.6793 21.3881 23.9478 21.1211 24.2793 21.1211C24.6108 21.1211 24.8793 21.3881 24.8793 21.7173V22.3736C24.8793 22.7028 24.6108 22.9691 24.2793 22.9691Z" fill="black"/>
</g>
<defs>
<clipPath id="clip0_137_22404">
<rect width="30" height="30" fill="white" transform="translate(0.5)"/>
</clipPath>
</defs>
</svg>
