<svg width="48" height="48" viewBox="0 0 48 48" fill="none" xmlns="http://www.w3.org/2000/svg">
<rect width="48" height="48" rx="24" fill="white"/>
<path fill-rule="evenodd" clip-rule="evenodd" d="M15.303 15.3026C16.2403 14.3653 17.7599 14.3653 18.6972 15.3026L24.2001 20.8055L29.703 15.3026C30.6403 14.3653 32.1599 14.3653 33.0972 15.3026C34.0344 16.2398 34.0344 17.7594 33.0972 18.6967L27.5942 24.1996L33.0972 29.7026C34.0344 30.6398 34.0344 32.1594 33.0972 33.0967C32.1599 34.0339 30.6403 34.0339 29.703 33.0967L24.2001 27.5937L18.6972 33.0967C17.7599 34.0339 16.2403 34.0339 15.303 33.0967C14.3658 32.1594 14.3658 30.6398 15.303 29.7026L20.806 24.1996L15.303 18.6967C14.3658 17.7594 14.3658 16.2398 15.303 15.3026Z" fill="#FF6600"/>
</svg>
