<svg width="20" height="20" viewBox="0 0 20 20" fill="none" xmlns="http://www.w3.org/2000/svg">
<path d="M20 2.00914C19.1294 2.62321 18.1656 3.09288 17.1455 3.40005C16.5979 2.77052 15.8703 2.32432 15.0609 2.1218C14.2516 1.91929 13.3995 1.97023 12.6201 2.26774C11.8406 2.56524 11.1713 3.09496 10.7027 3.78525C10.2341 4.47553 9.98882 5.29308 10 6.12732V7.03641C8.40239 7.07784 6.81934 6.72352 5.39183 6.005C3.96431 5.28649 2.73665 4.22608 1.81818 2.91823C1.81818 2.91823 -1.81818 11.1001 6.36364 14.7364C4.49139 16.0073 2.26105 16.6445 0 16.5546C8.18182 21.1001 18.1818 16.5546 18.1818 6.10005C18.181 5.84683 18.1566 5.59423 18.1091 5.34551C19.0369 4.4305 19.6917 3.27524 20 2.00914Z" fill="white"/>
</svg>
