<svg width="21" height="20" viewBox="0 0 21 20" fill="none" xmlns="http://www.w3.org/2000/svg">
<g clip-path="url(#clip0_177_38304)">
<path d="M18.8333 5H13C10.2385 5 7.99996 7.23858 7.99996 10C7.99996 12.7614 10.2385 15 13 15H18.8333V16.6667C18.8333 17.1269 18.4602 17.5 18 17.5H2.99996C2.53972 17.5 2.16663 17.1269 2.16663 16.6667V3.33333C2.16663 2.8731 2.53972 2.5 2.99996 2.5H18C18.4602 2.5 18.8333 2.8731 18.8333 3.33333V5ZM13 6.66667H19.6666V13.3333H13C11.159 13.3333 9.66663 11.8409 9.66663 10C9.66663 8.15905 11.159 6.66667 13 6.66667ZM13 9.16667V10.8333H15.5V9.16667H13Z" fill="black"/>
</g>
<defs>
<clipPath id="clip0_177_38304">
<rect width="20" height="20" fill="white" transform="translate(0.5)"/>
</clipPath>
</defs>
</svg>
