<svg width="40" height="40" viewBox="0 0 40 40" fill="none" xmlns="http://www.w3.org/2000/svg">
<path d="M28 24C34.6274 24 40 18.6274 40 12C40 5.37258 34.6274 0 28 0C21.3726 0 16 5.37258 16 12C16 18.6274 21.3726 24 28 24Z" fill="#CCCFFF"/>
<path fill-rule="evenodd" clip-rule="evenodd" d="M37.9023 18.0791H37.7993C37.8353 18.1881 37.8763 18.2941 37.9023 18.4071V18.0791Z" fill="black"/>
<path fill-rule="evenodd" clip-rule="evenodd" d="M31.4355 25.9737C31.4355 26.6357 30.8975 27.1737 30.2355 27.1737H29.5135C28.8515 27.1737 28.3135 26.6357 28.3135 25.9737V25.2517C28.3135 24.5897 28.8515 24.0517 29.5135 24.0517H30.2355C30.8975 24.0517 31.4355 24.5897 31.4355 25.2517V25.9737ZM30.2355 22.4517H29.5135C27.9695 22.4517 26.7135 23.7077 26.7135 25.2517V25.9737C26.7135 27.5177 27.9695 28.7737 29.5135 28.7737H30.2355C31.7795 28.7737 33.0355 27.5177 33.0355 25.9737V25.2517C33.0355 23.7077 31.7795 22.4517 30.2355 22.4517Z" fill="black"/>
<mask id="mask0_144_1324" style="mask-type:luminance" maskUnits="userSpaceOnUse" x="1" y="9" width="39" height="31">
<path d="M1 9.06592H39.646V39.3576H1V9.06592Z" fill="white"/>
</mask>
<g mask="url(#mask0_144_1324)">
<path fill-rule="evenodd" clip-rule="evenodd" d="M38.0469 30.8659C38.0469 31.0139 38.0319 31.1579 38.0169 31.3009H25.6239C25.0439 31.3009 24.5349 30.5519 24.5349 29.6969V21.2829C24.5349 20.4279 25.0439 19.6779 25.6239 19.6779H38.0469V30.8659ZM9.79989 37.7579C5.82989 37.7579 2.59989 34.5279 2.59989 30.5579C2.59989 28.9399 3.14289 27.4499 4.04689 26.2469C4.49689 25.6479 5.03489 25.1199 5.64689 24.6869C6.82089 23.8529 8.25289 23.3579 9.79989 23.3579C13.7699 23.3579 16.9999 26.5879 16.9999 30.5579C16.9999 32.5889 16.1509 34.4229 14.7939 35.7329C14.0659 36.4369 13.1889 36.9839 12.2149 37.3319C11.4589 37.6029 10.6479 37.7579 9.79989 37.7579ZM33.1799 13.0659H33.1329C32.1369 10.6899 29.7789 9.06592 27.1799 9.06592H23.3509C22.9089 9.06592 22.5509 9.42392 22.5509 9.86592C22.5509 10.3079 22.9089 10.6659 23.3509 10.6659H27.1799C28.9029 10.6659 30.4839 11.6179 31.3509 13.0659H23.4209C22.9799 13.0659 22.6209 13.4239 22.6209 13.8659C22.6209 14.3079 22.9799 14.6659 23.4209 14.6659H33.1799C35.3539 14.6659 37.1779 16.1079 37.7999 18.0789H25.6239C24.1419 18.0789 22.9359 19.5159 22.9359 21.2829V29.6969C22.9359 31.4639 24.1419 32.9009 25.6239 32.9009H37.5869C36.8139 34.5679 35.1349 35.7329 33.1799 35.7329H16.9009C17.9639 34.2789 18.5999 32.4929 18.5999 30.5579C18.5999 25.7049 14.6519 21.7579 9.79989 21.7579C8.29789 21.7579 6.88489 22.1369 5.64689 22.8029V19.5329C5.64689 16.8489 7.82989 14.6659 10.5139 14.6659H11.7339C12.1749 14.6659 12.5329 14.3079 12.5329 13.8659C12.5329 13.4239 12.1749 13.0659 11.7339 13.0659H10.5139C10.4469 13.0659 10.3829 13.0739 10.3169 13.0759C10.7689 12.3079 11.4259 11.6719 12.2259 11.2409C12.6139 11.0319 12.7609 10.5469 12.5509 10.1579C12.3429 9.76892 11.8549 9.62192 11.4679 9.83192C10.0529 10.5939 8.97389 11.8419 8.42989 13.3459C8.42089 13.3709 8.42489 13.3959 8.41889 13.4209C5.87989 14.2949 4.04689 16.7009 4.04689 19.5329V23.9139C2.18489 25.5289 0.999893 27.9049 0.999893 30.5579C0.999893 35.4099 4.94689 39.3579 9.79989 39.3579C11.9299 39.3579 13.8859 38.5959 15.4089 37.3319H33.1799C36.7449 37.3319 39.6469 34.4309 39.6469 30.8659V19.5329C39.6469 15.9669 36.7449 13.0659 33.1799 13.0659Z" fill="black"/>
</g>
<path fill-rule="evenodd" clip-rule="evenodd" d="M12.1094 30.9509L10.6584 32.4019V26.9719C10.6584 26.5299 10.2994 26.1719 9.85839 26.1719C9.41739 26.1719 9.05839 26.5299 9.05839 26.9719V32.4259L7.58439 30.9509C7.27139 30.6389 6.76539 30.6389 6.45339 30.9509C6.14039 31.2629 6.14039 31.7699 6.45339 32.0829L9.28139 34.9109C9.43739 35.0669 9.64139 35.1449 9.84639 35.1449C10.0514 35.1449 10.2554 35.0669 10.4124 34.9109L13.2404 32.0829C13.5524 31.7699 13.5524 31.2629 13.2404 30.9509C12.9274 30.6389 12.4214 30.6389 12.1094 30.9509Z" fill="black"/>
<path fill-rule="evenodd" clip-rule="evenodd" d="M17.2813 21.1937C17.4373 21.3497 17.6413 21.4277 17.8463 21.4277C18.0523 21.4277 18.2563 21.3497 18.4123 21.1937L21.2403 18.3657C21.5523 18.0527 21.5523 17.5467 21.2403 17.2337C20.9273 16.9227 20.4223 16.9227 20.1093 17.2337L17.8463 19.4967L15.5843 17.2337C15.2713 16.9227 14.7653 16.9227 14.4533 17.2337C14.1403 17.5467 14.1403 18.0527 14.4533 18.3657L17.2813 21.1937Z" fill="black"/>
<path fill-rule="evenodd" clip-rule="evenodd" d="M17.2813 16.1937C17.4373 16.3497 17.6413 16.4277 17.8463 16.4277C18.0523 16.4277 18.2563 16.3497 18.4123 16.1937L21.2403 13.3657C21.5523 13.0527 21.5523 12.5467 21.2403 12.2337C20.9273 11.9227 20.4223 11.9227 20.1093 12.2337L17.8463 14.4967L15.5843 12.2337C15.2713 11.9227 14.7653 11.9227 14.4533 12.2337C14.1403 12.5467 14.1403 13.0527 14.4533 13.3657L17.2813 16.1937Z" fill="black"/>
<path fill-rule="evenodd" clip-rule="evenodd" d="M17.2813 11.1937C17.4373 11.3497 17.6413 11.4277 17.8463 11.4277C18.0523 11.4277 18.2563 11.3497 18.4123 11.1937L21.2403 8.36574C21.5523 8.05274 21.5523 7.54674 21.2403 7.23374C20.9273 6.92274 20.4223 6.92274 20.1093 7.23374L17.8463 9.49674L15.5843 7.23374C15.2713 6.92274 14.7653 6.92274 14.4533 7.23374C14.1403 7.54674 14.1403 8.05274 14.4533 8.36574L17.2813 11.1937Z" fill="black"/>
</svg>
