<svg width="30" height="30" viewBox="0 0 30 30" fill="none" xmlns="http://www.w3.org/2000/svg">
<g clip-path="url(#clip0_137_22380)">
<path d="M22 16C26.4183 16 30 12.4183 30 8C30 3.58172 26.4183 0 22 0C17.5817 0 14 3.58172 14 8C14 12.4183 17.5817 16 22 16Z" fill="#FDC991"/>
<mask id="mask0_137_22380" style="mask-type:luminance" maskUnits="userSpaceOnUse" x="0" y="4" width="29" height="26">
<path d="M0.75 4.25H28.9493V29.4497H0.75V4.25Z" fill="white"/>
</mask>
<g mask="url(#mask0_137_22380)">
<path fill-rule="evenodd" clip-rule="evenodd" d="M24.2775 28.25C23.9708 27.455 23.6093 26.69 23.208 25.9498C24.6817 25.5815 26.2388 25.484 27.75 25.6677V28.25H24.2775ZM1.94925 25.577C4.791 25.5583 7.575 26.5138 9.711 28.25H1.94925V25.577ZM16.0395 28.1577C13.1182 23.612 7.6185 20.906 1.94925 21.191V19.2312C2.484 19.184 3.02475 19.1547 3.56325 19.1547C10.1827 19.1547 16.1003 22.7052 18.8542 28.25H16.0747C16.062 28.2192 16.0575 28.187 16.0395 28.1577ZM11.3707 28.1225C8.92875 25.6985 5.6235 24.3635 2.06325 24.3635C2.025 24.3635 1.9875 24.365 1.94925 24.3657V22.391C6.978 22.1165 11.8575 24.3845 14.6415 28.25H11.4555C11.43 28.2057 11.409 28.16 11.3707 28.1225ZM22.977 28.25H20.1885C17.355 21.992 10.851 17.9548 3.56325 17.9548C3.02475 17.9548 2.48475 17.984 1.94925 18.0282V16.025C2.529 15.98 3.1125 15.95 3.6945 15.95C12.2587 15.95 19.908 20.8692 22.977 28.25ZM27.75 16.172V18.098C26.9993 18.0102 26.238 17.9548 25.4783 17.9548C22.7895 17.9548 20.202 18.494 17.7885 19.5575C17.1 19.016 16.3695 18.524 15.615 18.0665C19.3013 16.2522 23.6302 15.5758 27.75 16.172ZM20.6993 12.6193L23.475 10.1525L26.25 12.6193V14.8062C25.9005 14.783 25.5495 14.7815 25.1993 14.7747V13.85C25.1993 13.5185 24.9307 13.25 24.6 13.25C24.2685 13.25 24 13.5185 24 13.85V14.7837C22.8915 14.8227 21.7883 14.9405 20.6993 15.1407V12.6193ZM27.75 21.2353C25.3035 21.011 22.8255 21.3282 20.5515 22.1712C20.0093 21.56 19.4385 20.9727 18.8265 20.4275C20.928 19.586 23.1615 19.1547 25.4783 19.1547C26.2388 19.1547 27 19.2102 27.75 19.304V21.2353ZM21.3765 23.1553C23.4053 22.4713 25.5915 22.226 27.75 22.4398V24.4648C26.0198 24.2735 24.2393 24.4025 22.5728 24.8668C22.2008 24.2758 21.8048 23.7035 21.3765 23.1553ZM3.26175 10.3498V6.35C3.26175 5.8535 3.666 5.45 4.1625 5.45H4.9125C5.409 5.45 5.8125 5.8535 5.8125 6.35V10.3498C5.8125 10.8463 5.409 11.2498 4.9125 11.2498H4.1625C3.666 11.2498 3.26175 10.8463 3.26175 10.3498ZM11.5117 11.8498V7.85C11.5117 7.3535 11.916 6.95 12.4125 6.95H13.1625C13.659 6.95 14.0625 7.3535 14.0625 7.85V11.8498C14.0625 12.3462 13.659 12.7498 13.1625 12.7498H12.4125C11.916 12.7498 11.5117 12.3462 11.5117 11.8498ZM28.35 15.0665C28.326 15.0665 28.3072 15.0778 28.2847 15.08C28.2195 15.041 28.1453 15.0125 28.0658 14.9998C27.861 14.969 27.6548 14.957 27.4493 14.9323V12.35C27.4493 12.1783 27.3765 12.0155 27.2483 11.9015L23.8733 8.9015C23.646 8.69975 23.3032 8.69975 23.076 8.9015L19.701 11.9015C19.5735 12.0155 19.5 12.1783 19.5 12.35V15.35C19.5 15.3628 19.5068 15.3733 19.5075 15.386C17.7847 15.8022 16.1182 16.4195 14.5702 17.2355C14.5012 17.2723 14.4442 17.3217 14.3955 17.3772C14.0617 17.2025 13.728 17.027 13.3837 16.868C13.3837 16.862 13.3867 16.8568 13.3867 16.85V14.0495C13.3867 14.0068 13.3717 13.9692 13.3628 13.9295C14.4255 13.8267 15.2617 12.9388 15.2617 11.8498V7.85C15.2617 6.692 14.3205 5.75 13.1625 5.75H12.4125C11.2545 5.75 10.3125 6.692 10.3125 7.85V11.8498C10.3125 12.9388 11.1487 13.8267 12.2115 13.9295C12.2032 13.9692 12.1875 14.0068 12.1875 14.0495V16.3595C9.9795 15.4902 7.6035 14.9548 5.13675 14.8033V12.5495C5.13675 12.5068 5.12175 12.4692 5.11275 12.4295C6.1755 12.3267 7.01175 11.4388 7.01175 10.3498V6.35C7.01175 5.192 6.0705 4.25 4.9125 4.25H4.1625C3.0045 4.25 2.0625 5.192 2.0625 6.35V10.3498C2.0625 11.4388 2.89875 12.3267 3.9615 12.4295C3.95325 12.4692 3.9375 12.5068 3.9375 12.5495V14.759C3.85575 14.7583 3.7755 14.75 3.6945 14.75C2.89725 14.75 2.094 14.7905 1.305 14.8708C1.07625 14.8933 0.897 15.0463 0.81675 15.2458C0.80925 15.2593 0.80025 15.2712 0.79425 15.2863C0.79275 15.2922 0.79275 15.299 0.79125 15.3057C0.76725 15.3695 0.75 15.4362 0.75 15.5075V28.85C0.75 29.1815 1.0185 29.45 1.35 29.45H28.35C28.6807 29.45 28.9493 29.1815 28.9493 28.85V15.6665C28.9493 15.335 28.6807 15.0665 28.35 15.0665Z" fill="black"/>
</g>
</g>
<defs>
<clipPath id="clip0_137_22380">
<rect width="30" height="30" fill="white"/>
</clipPath>
</defs>
</svg>
