<svg width="20" height="20" viewBox="0 0 20 20" fill="none" xmlns="http://www.w3.org/2000/svg">
<g clip-path="url(#clip0_410_4999)">
<path d="M3.91699 16.0729C3.91699 15.8228 4.11972 15.6201 4.3698 15.6201C4.61988 15.6201 4.8226 15.8228 4.8226 16.0729V16.9581C4.8226 17.8388 5.41718 18.528 6.115 18.528H17.2353C17.9328 18.528 18.5277 17.8386 18.5277 16.9581V3.47437C18.5277 2.59453 17.9329 1.90561 17.2353 1.90561H6.115C5.41709 1.90561 4.8226 2.59428 4.8226 3.47437V4.12991C4.8226 4.37999 4.61988 4.58272 4.3698 4.58272C4.11972 4.58272 3.91699 4.37999 3.91699 4.12991V3.47437C3.91699 2.12128 4.88493 1 6.115 1H17.2353C18.465 1 19.4333 2.12149 19.4333 3.47437V16.9581C19.4333 18.3115 18.465 19.4336 17.2353 19.4336H6.115C4.88488 19.4336 3.91699 18.3117 3.91699 16.9581V16.0729Z" fill="white" stroke="white" stroke-width="0.0561804"/>
<path d="M12.1901 9.4354C11.94 9.4354 11.7373 9.23267 11.7373 8.98259C11.7373 8.73251 11.94 8.52979 12.1901 8.52979H15.6279C15.878 8.52979 16.0807 8.73251 16.0807 8.98259C16.0807 9.23267 15.878 9.4354 15.6279 9.4354H12.1901Z" fill="white" stroke="white" stroke-width="0.0561804"/>
<path d="M14.6935 11.5858C14.4434 11.5858 14.2407 11.3831 14.2407 11.133C14.2407 10.8829 14.4434 10.6802 14.6935 10.6802H15.6284C15.8784 10.6802 16.0812 10.8829 16.0812 11.133C16.0812 11.3831 15.8784 11.5858 15.6284 11.5858H14.6935Z" fill="white" stroke="white" stroke-width="0.0561804"/>
<path d="M15.175 4.452H9.58652V5.88345H15.175V4.452ZM15.2738 6.78906H9.48836C9.04347 6.78906 8.68091 6.42774 8.68091 5.98278V4.35326C8.68091 3.90841 9.04335 3.54639 9.48836 3.54639H15.2738C15.7189 3.54639 16.0806 3.90853 16.0806 4.35326V5.98278C16.0806 6.42762 15.7188 6.78906 15.2738 6.78906Z" fill="white" stroke="white" stroke-width="0.0561804"/>
<path d="M5.05013 6.2583C5.39669 6.2583 5.73785 6.30066 6.06673 6.38371C7.83818 6.83158 9.10026 8.39976 9.10026 10.2167C9.10026 12.4052 7.28407 14.1751 5.05013 14.1751C2.8158 14.1751 1 12.4054 1 10.2167C1 8.02766 2.8156 6.2583 5.05013 6.2583ZM5.05013 7.16391C3.3106 7.16391 1.90561 8.53312 1.90561 10.2167C1.90561 11.8999 3.31082 13.2695 5.05013 13.2695C6.78907 13.2695 8.19465 11.8997 8.19465 10.2167C8.19465 8.82055 7.21988 7.60937 5.84488 7.26173C5.58866 7.19702 5.32197 7.16391 5.05013 7.16391Z" fill="white" stroke="white" stroke-width="0.0561804"/>
<path d="M14.5433 12.8871L13.9732 13.5907L7.63159 8.45267L8.20169 7.74902L14.5433 12.8871Z" fill="white" stroke="white" stroke-width="0.0561804"/>
<path d="M12.7786 15.8188L12.4925 16.678L4.90698 14.1522L5.19308 13.293L12.7786 15.8188Z" fill="white" stroke="white" stroke-width="0.0561804"/>
<path d="M15.1747 14.939C15.1747 14.2241 14.5743 13.639 13.8286 13.639C13.083 13.639 12.483 14.224 12.483 14.939C12.483 15.6544 13.0828 16.239 13.8286 16.239C14.5745 16.239 15.1747 15.6542 15.1747 14.939ZM16.0803 14.939C16.0803 16.1598 15.0694 17.1446 13.8286 17.1446C12.5878 17.1446 11.5774 16.1598 11.5774 14.939C11.5774 13.7186 12.588 12.7334 13.8286 12.7334C15.0692 12.7334 16.0803 13.7186 16.0803 14.939Z" fill="white" stroke="white" stroke-width="0.0561804"/>
<path fill-rule="evenodd" clip-rule="evenodd" d="M5.04993 11.9695C4.05668 11.9695 3.25098 11.1842 3.25098 10.2167C3.25098 9.24854 4.05668 8.46387 5.04993 8.46387C6.04318 8.46387 6.8483 9.24854 6.8483 10.2167C6.8483 11.1842 6.04318 11.9695 5.04993 11.9695Z" fill="white" stroke="white" stroke-width="0.0561804"/>
</g>
<defs>
<clipPath id="clip0_410_4999">
<rect width="20" height="20" fill="white"/>
</clipPath>
</defs>
</svg>
