<svg width="105" height="26" viewBox="0 0 105 26" fill="none" xmlns="http://www.w3.org/2000/svg">
<path d="M20.7161 23.7161C20.7161 12.8722 11.8438 4 1 4C1 4 4.52073 16.2521 1 23.7161C8.7456 23.7161 20.7161 23.7161 20.7161 23.7161Z" fill="#4F46E5"/>
<path d="M23.3447 23.7163C23.3447 16.4871 17.4299 10.5723 10.2007 10.5723C10.2007 10.5723 12.5478 18.7404 10.2007 23.7163C15.3644 23.7163 23.3447 23.7163 23.3447 23.7163Z" fill="#2DD4BF"/>
<path d="M50.0653 7.54545V25H47.2528L39.0284 13.1108H38.8835V25H35.7216V7.54545H38.5511L46.767 19.4432H46.9205V7.54545H50.0653ZM64.0135 7.54545H67.1754V18.9489C67.1754 20.1989 66.88 21.2983 66.2891 22.2472C65.7038 23.196 64.88 23.9375 63.8175 24.4716C62.755 25 61.5135 25.2642 60.093 25.2642C58.6669 25.2642 57.4226 25 56.3601 24.4716C55.2976 23.9375 54.4737 23.196 53.8885 22.2472C53.3033 21.2983 53.0107 20.1989 53.0107 18.9489V7.54545H56.1726V18.6847C56.1726 19.4119 56.3317 20.0597 56.6499 20.6278C56.9737 21.196 57.4283 21.642 58.0135 21.9659C58.5987 22.2841 59.2919 22.4432 60.093 22.4432C60.8942 22.4432 61.5874 22.2841 62.1726 21.9659C62.7635 21.642 63.218 21.196 63.5362 20.6278C63.8544 20.0597 64.0135 19.4119 64.0135 18.6847V7.54545ZM85.0526 13.4347H81.8651C81.7741 12.9119 81.6065 12.4489 81.3622 12.0455C81.1179 11.6364 80.8139 11.2898 80.4503 11.0057C80.0866 10.7216 79.6719 10.5085 79.206 10.3665C78.7457 10.2188 78.2486 10.1449 77.7145 10.1449C76.7656 10.1449 75.9247 10.3835 75.1918 10.8608C74.4588 11.3324 73.8849 12.0256 73.4702 12.9403C73.0554 13.8494 72.848 14.9602 72.848 16.2727C72.848 17.608 73.0554 18.733 73.4702 19.6477C73.8906 20.5568 74.4645 21.2443 75.1918 21.7102C75.9247 22.1705 76.7628 22.4006 77.706 22.4006C78.2287 22.4006 78.7173 22.3324 79.1719 22.196C79.6321 22.054 80.044 21.8466 80.4077 21.5739C80.777 21.3011 81.0866 20.9659 81.3366 20.5682C81.5923 20.1705 81.7685 19.7159 81.8651 19.2045L85.0526 19.2216C84.9332 20.0511 84.6747 20.8295 84.277 21.5568C83.8849 22.2841 83.3707 22.9261 82.7344 23.483C82.098 24.0341 81.3537 24.4659 80.5014 24.7784C79.6491 25.0852 78.7031 25.2386 77.6634 25.2386C76.1293 25.2386 74.7599 24.8835 73.5554 24.1733C72.3509 23.4631 71.402 22.4375 70.7088 21.0966C70.0156 19.7557 69.669 18.1477 69.669 16.2727C69.669 14.392 70.0185 12.7841 70.7173 11.4489C71.4162 10.108 72.3679 9.08239 73.5724 8.37216C74.777 7.66193 76.1406 7.30682 77.6634 7.30682C78.6349 7.30682 79.5384 7.44318 80.3736 7.71591C81.2088 7.98864 81.9531 8.3892 82.6065 8.91761C83.2599 9.44034 83.7969 10.0824 84.2173 10.8438C84.6435 11.5994 84.9219 12.4631 85.0526 13.4347ZM87.4482 25V7.54545H90.6101V22.3494H98.2976V25H87.4482Z" fill="white"/>
</svg>
