<svg width="64" height="19" viewBox="0 0 64 19" fill="none" xmlns="http://www.w3.org/2000/svg">
<path d="M15.0653 0.545454V18H12.2528L4.02841 6.1108H3.88352V18H0.721591V0.545454H3.55114L11.767 12.4432H11.9205V0.545454H15.0653ZM29.0135 0.545454H32.1754V11.9489C32.1754 13.1989 31.88 14.2983 31.2891 15.2472C30.7038 16.196 29.88 16.9375 28.8175 17.4716C27.755 18 26.5135 18.2642 25.093 18.2642C23.6669 18.2642 22.4226 18 21.3601 17.4716C20.2976 16.9375 19.4737 16.196 18.8885 15.2472C18.3033 14.2983 18.0107 13.1989 18.0107 11.9489V0.545454H21.1726V11.6847C21.1726 12.4119 21.3317 13.0597 21.6499 13.6278C21.9737 14.196 22.4283 14.642 23.0135 14.9659C23.5987 15.2841 24.2919 15.4432 25.093 15.4432C25.8942 15.4432 26.5874 15.2841 27.1726 14.9659C27.7635 14.642 28.218 14.196 28.5362 13.6278C28.8544 13.0597 29.0135 12.4119 29.0135 11.6847V0.545454ZM50.0526 6.43466H46.8651C46.7741 5.91193 46.6065 5.44886 46.3622 5.04545C46.1179 4.63636 45.8139 4.28977 45.4503 4.00568C45.0866 3.72159 44.6719 3.50852 44.206 3.36648C43.7457 3.21875 43.2486 3.14489 42.7145 3.14489C41.7656 3.14489 40.9247 3.38352 40.1918 3.86079C39.4588 4.33239 38.8849 5.02557 38.4702 5.94034C38.0554 6.84943 37.848 7.96023 37.848 9.27273C37.848 10.608 38.0554 11.733 38.4702 12.6477C38.8906 13.5568 39.4645 14.2443 40.1918 14.7102C40.9247 15.1705 41.7628 15.4006 42.706 15.4006C43.2287 15.4006 43.7173 15.3324 44.1719 15.196C44.6321 15.054 45.044 14.8466 45.4077 14.5739C45.777 14.3011 46.0866 13.9659 46.3366 13.5682C46.5923 13.1705 46.7685 12.7159 46.8651 12.2045L50.0526 12.2216C49.9332 13.0511 49.6747 13.8295 49.277 14.5568C48.8849 15.2841 48.3707 15.9261 47.7344 16.483C47.098 17.0341 46.3537 17.4659 45.5014 17.7784C44.6491 18.0852 43.7031 18.2386 42.6634 18.2386C41.1293 18.2386 39.7599 17.8835 38.5554 17.1733C37.3509 16.4631 36.402 15.4375 35.7088 14.0966C35.0156 12.7557 34.669 11.1477 34.669 9.27273C34.669 7.39205 35.0185 5.78409 35.7173 4.44886C36.4162 3.10795 37.3679 2.08239 38.5724 1.37216C39.777 0.661931 41.1406 0.306818 42.6634 0.306818C43.6349 0.306818 44.5384 0.443181 45.3736 0.715908C46.2088 0.988636 46.9531 1.3892 47.6065 1.91761C48.2599 2.44034 48.7969 3.08239 49.2173 3.84375C49.6435 4.59943 49.9219 5.46307 50.0526 6.43466ZM52.4482 18V0.545454H55.6101V15.3494H63.2976V18H52.4482Z" fill="white"/>
</svg>
